g Eff_Unagi_Weapon01
v 0.888206 0.09153778 -0.0010137868
v 0.91726774 0.09842804 -0.00016146153
v 0.888206 0.09153778 0.00069086225
v 0.888206 0.09153778 0.00069086225
v 0.85741234 0.08445022 -0.0017178846
v 0.85741234 0.08445022 0.0013949567
v 0.82315487 0.076968074 0.001826901
v 0.82315487 0.076968074 -0.0021498299
v 0.78716564 0.06958847 -0.0024411404
v 0.78716564 0.06958847 0.0021182082
v 0.7511764 0.062808685 -0.002723329
v 0.7511764 0.062808685 0.0024003952
v 0.7115321 0.056051787 -0.0030214405
v 0.7115321 0.056051787 0.0026985046
v 0.6645775 0.048740845 -0.0033605157
v 0.6645775 0.048740845 0.0030375782
v 0.6139677 0.041696623 -0.0037110567
v 0.6139677 0.041696623 0.003388116
v 0.56335807 0.03574005 -0.0040435623
v 0.56335807 0.03574005 0.0037206209
v 0.51276046 0.03072525 -0.004357971
v 0.51276046 0.03072525 0.0040350268
v 0.46218696 0.026506804 -0.0046542156
v 0.46218696 0.026506804 0.0043312693
v 0.41160136 0.023062438 -0.0049324892
v 0.41160136 0.023062438 0.0046095434
v 0.36096755 0.02036972 -0.0051929853
v 0.36096755 0.02036972 0.0048700375
v 0.3103217 0.018358154 -0.0054355105
v 0.3103217 0.018358154 0.0051125633
v 0.25969994 0.016957702 -0.005659876
v 0.25969994 0.016957702 0.0053369296
v 0.20909019 0.015862731 -0.0058661425
v 0.20909019 0.015862579 0.005543194
v 0.15848047 0.014767609 -0.0060543716
v 0.15848047 0.014767609 0.005731424
v 0.09194071 0.014009399 0.005855533
v 0.09194071 0.014009399 -0.006178479
v 0.09194071 0.014009399 -0.006178479
v 0.09194071 -0.02030899 -0.0001614806
v 0.15848054 -0.019577788 -0.0001614806
v 0.15848047 0.014767609 -0.0060543716
v 0.20909023 -0.018521728 -0.0001614806
v 0.20909019 0.015862731 -0.0058661425
v 0.25969994 0.016957702 -0.005659876
v 0.25969994 -0.01746582 -0.0001614806
v 0.31032318 -0.01616867 -0.0001614806
v 0.3103217 0.018358154 -0.0054355105
v 0.3609735 -0.014389343 -0.00016147971
v 0.36096755 0.02036972 -0.0051929853
v 0.41161034 -0.011963348 -0.00016147971
v 0.41160136 0.023062438 -0.0049324892
v 0.46218696 0.026506804 -0.0046542156
v 0.4621929 -0.008725738 -0.00016147911
v 0.51276195 -0.0045631407 -0.00016147822
v 0.51276046 0.03072525 -0.004357971
v 0.56335807 0.0006385803 -0.00016147732
v 0.56335807 0.03574005 -0.0040435623
v 0.6139678 0.0068130493 -0.00016147643
v 0.6139677 0.041696623 -0.0037110567
v 0.6645775 0.048740845 -0.0033605157
v 0.6645775 0.0138943475 -0.00016147553
v 0.71227247 0.0215213 -0.00016147464
v 0.7115321 0.056051787 -0.0030214405
v 0.754138 0.029333038 -0.00016147285
v 0.7511764 0.062808685 -0.002723329
v 0.79275745 0.037775725 -0.00016147197
v 0.78716564 0.06958847 -0.0024411404
v 0.82315487 0.076968074 -0.0021498299
v 0.83071434 0.04729538 -0.00016147018
v 0.86245507 0.057172544 -0.00016146839
v 0.85741234 0.08445022 -0.0017178846
v 0.888206 0.09153778 -0.0010137868
v 0.8824262 0.066687465 -0.0001614666
v 0.888206 0.09153778 -0.0010137868
v 0.90768087 0.08661102 -0.00016146332
v 0.91726774 0.09842804 -0.00016146153
v 0.89651257 0.07602127 -0.00016146511
v 0.8824262 0.066687465 -0.0001614666
v 0.09194071 0.014009399 0.005855533
v 0.15848054 -0.019577788 -0.0001614806
v 0.09194071 -0.02030899 -0.0001614806
v 0.15848047 0.014767609 0.005731424
v 0.20909019 0.015862579 0.005543194
v 0.20909023 -0.018521728 -0.0001614806
v 0.25969994 -0.01746582 -0.0001614806
v 0.25969994 0.016957702 0.0053369296
v 0.31032318 -0.01616867 -0.0001614806
v 0.3103217 0.018358154 0.0051125633
v 0.3609735 -0.014389343 -0.00016147971
v 0.36096755 0.02036972 0.0048700375
v 0.41160136 0.023062438 0.0046095434
v 0.41161034 -0.011963348 -0.00016147971
v 0.4621929 -0.008725738 -0.00016147911
v 0.46218696 0.026506804 0.0043312693
v 0.51276195 -0.0045631407 -0.00016147822
v 0.51276046 0.03072525 0.0040350268
v 0.56335807 0.0006385803 -0.00016147732
v 0.56335807 0.03574005 0.0037206209
v 0.6139677 0.041696623 0.003388116
v 0.6139678 0.0068130493 -0.00016147643
v 0.6645775 0.0138943475 -0.00016147553
v 0.6645775 0.048740845 0.0030375782
v 0.71227247 0.0215213 -0.00016147464
v 0.7115321 0.056051787 0.0026985046
v 0.754138 0.029333038 -0.00016147285
v 0.7511764 0.062808685 0.0024003952
v 0.78716564 0.06958847 0.0021182082
v 0.79275745 0.037775725 -0.00016147197
v 0.83071434 0.04729538 -0.00016147018
v 0.82315487 0.076968074 0.001826901
v 0.86245507 0.057172544 -0.00016146839
v 0.85741234 0.08445022 0.0013949567
v 0.888206 0.09153778 0.00069086225
v 0.8824262 0.066687465 -0.0001614666
v 0.888206 0.09153778 0.00069086225
v 0.91726774 0.09842804 -0.00016146153
v 0.90768087 0.08661102 -0.00016146332
v 0.89651257 0.07602127 -0.00016146511
v 0.8824262 0.066687465 -0.0001614666
v 0.82315487 0.076968074 0.001826901
v 0.85741234 0.08445022 0.0013949567
v 0.86245507 0.057172544 -0.00016146839
v 0.83071434 0.04729538 -0.00016147018
vt 0.9849972 0.9941573
vt 0.9140374 0.9941573
vt 0.9849972 0.9941573
vt 0.9849972 0.9941573
vt 0.95608455 0.99339384
vt 0.95608455 0.99492085
vt 0.9140374 0.99492085
vt 0.9140374 0.99339384
vt 0.8698644 0.99339384
vt 0.8698644 0.99492085
vt 0.82569176 0.99339384
vt 0.82569176 0.99492085
vt 0.77703273 0.99339384
vt 0.77703273 0.99492085
vt 0.7212162 0.99339384
vt 0.7212162 0.99492085
vt 0.65909815 0.99339384
vt 0.65909815 0.99492085
vt 0.5951656 0.99339384
vt 0.5951656 0.99492085
vt 0.53306246 0.99339384
vt 0.53306246 0.99492085
vt 0.4709892 0.99339384
vt 0.4709892 0.99492085
vt 0.40890107 0.99339384
vt 0.40890107 0.99492085
vt 0.34675357 0.99339384
vt 0.34675357 0.99492085
vt 0.28459147 0.99339384
vt 0.28459147 0.99492085
vt 0.222459 0.99339384
vt 0.222459 0.99492085
vt 0.16034126 0.99339384
vt 0.16034126 0.99492085
vt 0.098223366 0.99339384
vt 0.098223366 0.99492085
vt 0.020305086 0.99492085
vt 0.020305086 0.99339384
vt 0.020305086 0.9925553
vt 0.020305086 0.028413761
vt 0.098223366 0.028412018
vt 0.098223366 0.9925553
vt 0.16034126 0.028410677
vt 0.16034126 0.9925553
vt 0.222459 0.9925553
vt 0.222459 0.028408993
vt 0.28459147 0.02840789
vt 0.28459147 0.9925553
vt 0.34675357 0.028406318
vt 0.34675357 0.9925553
vt 0.40890107 0.028404985
vt 0.40890107 0.9925553
vt 0.4709892 0.9925553
vt 0.4709892 0.028403644
vt 0.53306246 0.02840231
vt 0.53306246 0.9925553
vt 0.5951656 0.028400976
vt 0.5951656 0.9925553
vt 0.65909815 0.028399635
vt 0.65909815 0.9925553
vt 0.7212162 0.9925553
vt 0.7212162 0.028398182
vt 0.77703273 0.028396849
vt 0.77703273 0.9925553
vt 0.82569176 0.028395507
vt 0.82569176 0.9925553
vt 0.8698644 0.028394636
vt 0.8698644 0.9925553
vt 0.9140374 0.9925553
vt 0.9140374 0.028393764
vt 0.95608455 0.028392602
vt 0.95608455 0.9925553
vt 0.9866752 0.9925553
vt 0.9866752 0.028391961
vt 0.9866752 0.9925553
vt 0.9866752 0.0283915
vt 0.9866752 0.028391097
vt 0.9866752 0.02839173
vt 0.9866752 0.028391961
vt 0.020305086 0.9925553
vt 0.098223366 0.028787006
vt 0.020305086 0.028785381
vt 0.098223366 0.9925553
vt 0.16034126 0.9925553
vt 0.16034126 0.028788466
vt 0.222459 0.0287898
vt 0.222459 0.9925553
vt 0.28459147 0.028791133
vt 0.28459147 0.9925553
vt 0.34675357 0.028792594
vt 0.34675357 0.9925553
vt 0.40890107 0.9925553
vt 0.40890107 0.028793927
vt 0.4709892 0.02879538
vt 0.4709892 0.9925553
vt 0.53306246 0.028796714
vt 0.53306246 0.9925553
vt 0.5951656 0.028798167
vt 0.5951656 0.9925553
vt 0.65909815 0.9925553
vt 0.65909815 0.028799508
vt 0.7212162 0.028800841
vt 0.7212162 0.9925553
vt 0.77703273 0.028802063
vt 0.77703273 0.9925553
vt 0.82569176 0.028803397
vt 0.82569176 0.9925553
vt 0.8698644 0.9925553
vt 0.8698644 0.028804388
vt 0.9140374 0.028805379
vt 0.9140374 0.9925553
vt 0.95608455 0.028806362
vt 0.95608455 0.9925553
vt 0.9866752 0.9925553
vt 0.9866752 0.028806943
vt 0.9866752 0.9925553
vt 0.9866752 0.028807815
vt 0.9866752 0.028807584
vt 0.9866752 0.028807294
vt 0.9866752 0.028806943
vt 0.9140374 0.9925553
vt 0.95608455 0.9925553
vt 0.95608455 0.028806362
vt 0.9140374 0.028805379
vn -0.22429816 0.9745206 0
vn -0.23069514 0.9730261 0
vn -0.23069514 0.9730261 0
vn -0.22429816 0.9745206 0
vn -0.22429821 0.9745206 0
vn -0.22429821 0.9745206 0
vn -0.20087107 0.97961766 0
vn -0.20087107 0.97961766 0
vn -0.18512742 0.9827145 0
vn -0.18512742 0.9827146 0
vn -0.16801508 0.9857845 0
vn -0.16801508 0.9857845 0
vn -0.15384854 0.9880944 0
vn -0.15384854 0.9880944 0
vn -0.1378581 0.99045193 0
vn -0.1378581 0.99045193 0
vn -0.1168895 0.99314487 0
vn -0.1168895 0.99314487 0
vn -0.09862817 0.9951244 0
vn -0.09862816 0.9951244 0
vn -0.08312352 0.99653924 0
vn -0.08312352 0.99653924 0
vn -0.06793257 0.99768984 0
vn -0.06793257 0.99768984 0
vn -0.0531052 0.99858886 0
vn -0.0531052 0.99858886 0
vn -0.039686978 0.99921215 0
vn -0.039686978 0.99921215 0
vn -0.027654437 0.9996176 0
vn -0.027654437 0.9996176 0
vn -0.021632014 0.99976605 6.8079235E-06
vn -0.021632014 0.99976605 6.8079235E-06
vn -0.021632025 0.99976605 6.5763534E-06
vn -0.021632027 0.99976605 6.5763534E-06
vn -0.01139409 0.99993515 0
vn -0.01139409 0.99993515 0
vn -0.011394089 0.99993515 0
vn -0.01139409 0.99993515 0
vn 0.002831548 -0.17089982 -0.9852844
vn 0.0028315478 -0.17089981 -0.9852844
vn 0.0028315482 -0.17089984 -0.9852844
vn 0.002831548 -0.17089981 -0.9852844
vn 0.0053698244 -0.16638651 -0.986046
vn 0.005369824 -0.1663865 -0.986046
vn 0.0054260767 -0.16069779 -0.9869888
vn 0.0054260762 -0.16069777 -0.9869888
vn 0.00787373 -0.14711545 -0.98908806
vn 0.007873729 -0.14711542 -0.98908806
vn 0.00787373 -0.14711544 -0.98908806
vn 0.00787373 -0.14711542 -0.98908806
vn 0.009577628 -0.13909368 -0.99023294
vn 0.009577627 -0.13909367 -0.99023294
vn 0.011360022 -0.13071044 -0.9913555
vn 0.011360024 -0.13071045 -0.9913555
vn 0.01459667 -0.1140081 -0.99337256
vn 0.01459667 -0.1140081 -0.99337256
vn 0.014596668 -0.1140081 -0.99337256
vn 0.01459667 -0.114008114 -0.99337256
vn 0.015920153 -0.10558226 -0.99428314
vn 0.015920155 -0.10558226 -0.99428314
vn 0.016888125 -0.09631821 -0.99520725
vn 0.016888125 -0.096318215 -0.99520725
vn 0.017677026 -0.07850469 -0.996757
vn 0.017677028 -0.07850469 -0.996757
vn 0.017677026 -0.07850468 -0.996757
vn 0.017677026 -0.07850469 -0.996757
vn 0.01836968 -0.0715468 -0.9972681
vn 0.018369682 -0.0715468 -0.9972681
vn 0.018836861 -0.06522604 -0.9976927
vn 0.01883686 -0.06522604 -0.9976927
vn 0.029072803 -0.046549562 -0.99849284
vn 0.0290728 -0.046549562 -0.99849284
vn 0.029072803 -0.046549562 -0.99849284
vn 0.029072804 -0.046549562 -0.99849284
vn 0.03627301 -0.029427296 -0.99890864
vn 0.036273014 -0.029427297 -0.99890864
vn 0.03627301 -0.029427292 -0.99890864
vn 0.030430587 -0.038572997 -0.9987923
vn 0.030430583 -0.038572993 -0.9987923
vn 0.002831562 -0.1709002 0.98528427
vn 0.0028315622 -0.17090018 0.98528427
vn 0.0028315617 -0.17090018 0.98528427
vn 0.0028315617 -0.17090018 0.98528427
vn 0.0053696027 -0.16638725 0.9860458
vn 0.0053696027 -0.16638723 0.9860459
vn 0.0054263105 -0.16069853 0.98698866
vn 0.0054263105 -0.16069853 0.98698866
vn 0.007873731 -0.14711578 0.98908794
vn 0.007873731 -0.14711578 0.98908794
vn 0.007873731 -0.14711577 0.98908794
vn 0.007873731 -0.14711578 0.98908794
vn 0.0095776245 -0.139094 0.9902328
vn 0.0095776245 -0.139094 0.9902328
vn 0.011360038 -0.13071078 0.9913555
vn 0.011360039 -0.13071077 0.9913555
vn 0.014596666 -0.114008486 0.99337256
vn 0.014596665 -0.11400848 0.99337256
vn 0.014596665 -0.11400848 0.99337256
vn 0.014596666 -0.114008486 0.99337256
vn 0.015920168 -0.10558261 0.994283
vn 0.015920166 -0.105582595 0.994283
vn 0.016888129 -0.09631859 0.99520725
vn 0.016888129 -0.09631857 0.99520725
vn 0.017677024 -0.07850506 0.996757
vn 0.017677024 -0.07850506 0.996757
vn 0.017677024 -0.07850506 0.996757
vn 0.017677024 -0.07850506 0.996757
vn 0.018369708 -0.07154714 0.9972681
vn 0.01836971 -0.07154715 0.9972681
vn 0.018836856 -0.06522642 0.9976927
vn 0.018836858 -0.06522643 0.9976927
vn 0.02907278 -0.046549894 0.99849284
vn 0.02907278 -0.046549894 0.99849284
vn 0.029072784 -0.0465499 0.99849284
vn 0.029072778 -0.046549894 0.99849284
vn 0.036273032 -0.02942761 0.9989085
vn 0.036273032 -0.029427608 0.9989085
vn 0.036273036 -0.029427614 0.9989085
vn 0.026835343 -0.0404995 0.99881905
vn 0.026835343 -0.0404995 0.99881905
vn 0.021615366 -0.057343487 0.9981205
vn 0.021615366 -0.057343494 0.9981205
vn 0.021615366 -0.05734349 0.9981205
vn 0.021615366 -0.05734349 0.9981205
g Eff_Unagi_Weapon01_0
f 3/3/3 2/2/2 1/1/1
f 1/1/1 5/5/5 4/4/4
f 5/5/5 6/6/6 4/4/4
f 6/6/6 5/5/5 7/7/7
f 5/5/5 8/8/8 7/7/7
f 8/8/8 9/9/9 7/7/7
f 9/9/9 10/10/10 7/7/7
f 9/9/9 11/11/11 10/10/10
f 11/11/11 12/12/12 10/10/10
f 11/11/11 13/13/13 12/12/12
f 13/13/13 14/14/14 12/12/12
f 13/13/13 15/15/15 14/14/14
f 15/15/15 16/16/16 14/14/14
f 15/15/15 17/17/17 16/16/16
f 17/17/17 18/18/18 16/16/16
f 17/17/17 19/19/19 18/18/18
f 19/19/19 20/20/20 18/18/18
f 19/19/19 21/21/21 20/20/20
f 21/21/21 22/22/22 20/20/20
f 21/21/21 23/23/23 22/22/22
f 23/23/23 24/24/24 22/22/22
f 23/23/23 25/25/25 24/24/24
f 25/25/25 26/26/26 24/24/24
f 25/25/25 27/27/27 26/26/26
f 27/27/27 28/28/28 26/26/26
f 27/27/27 29/29/29 28/28/28
f 29/29/29 30/30/30 28/28/28
f 29/29/29 31/31/31 30/30/30
f 31/31/31 32/32/32 30/30/30
f 31/31/31 33/33/33 32/32/32
f 33/33/33 34/34/34 32/32/32
f 33/33/33 35/35/35 34/34/34
f 35/35/35 36/36/36 34/34/34
f 36/36/36 35/35/35 37/37/37
f 35/35/35 38/38/38 37/37/37
f 41/41/41 40/40/40 39/39/39
f 42/42/42 41/41/41 39/39/39
f 43/43/43 41/41/41 42/42/42
f 44/44/44 43/43/43 42/42/42
f 43/43/43 44/44/44 45/45/45
f 46/46/46 43/43/43 45/45/45
f 47/47/47 46/46/46 45/45/45
f 48/48/48 47/47/47 45/45/45
f 49/49/49 47/47/47 48/48/48
f 50/50/50 49/49/49 48/48/48
f 51/51/51 49/49/49 50/50/50
f 52/52/52 51/51/51 50/50/50
f 51/51/51 52/52/52 53/53/53
f 54/54/54 51/51/51 53/53/53
f 55/55/55 54/54/54 53/53/53
f 56/56/56 55/55/55 53/53/53
f 57/57/57 55/55/55 56/56/56
f 58/58/58 57/57/57 56/56/56
f 59/59/59 57/57/57 58/58/58
f 60/60/60 59/59/59 58/58/58
f 59/59/59 60/60/60 61/61/61
f 62/62/62 59/59/59 61/61/61
f 63/63/63 62/62/62 61/61/61
f 64/64/64 63/63/63 61/61/61
f 65/65/65 63/63/63 64/64/64
f 66/66/66 65/65/65 64/64/64
f 67/67/67 65/65/65 66/66/66
f 68/68/68 67/67/67 66/66/66
f 67/67/67 68/68/68 69/69/69
f 70/70/70 67/67/67 69/69/69
f 71/71/71 70/70/70 69/69/69
f 72/72/72 71/71/71 69/69/69
f 71/71/71 72/72/72 73/73/73
f 74/74/74 71/71/71 73/73/73
f 77/77/77 76/76/76 75/75/75
f 75/75/75 76/76/76 78/78/78
f 79/79/79 75/75/75 78/78/78
f 82/82/82 81/81/81 80/80/80
f 81/81/81 83/83/83 80/80/80
f 84/84/84 83/83/83 81/81/81
f 85/85/85 84/84/84 81/81/81
f 85/85/85 86/86/86 84/84/84
f 86/86/86 87/87/87 84/84/84
f 86/86/86 88/88/88 87/87/87
f 88/88/88 89/89/89 87/87/87
f 88/88/88 90/90/90 89/89/89
f 90/90/90 91/91/91 89/89/89
f 92/92/92 91/91/91 90/90/90
f 93/93/93 92/92/92 90/90/90
f 93/93/93 94/94/94 92/92/92
f 94/94/94 95/95/95 92/92/92
f 94/94/94 96/96/96 95/95/95
f 96/96/96 97/97/97 95/95/95
f 96/96/96 98/98/98 97/97/97
f 98/98/98 99/99/99 97/97/97
f 100/100/100 99/99/99 98/98/98
f 101/101/101 100/100/100 98/98/98
f 101/101/101 102/102/102 100/100/100
f 102/102/102 103/103/103 100/100/100
f 102/102/102 104/104/104 103/103/103
f 104/104/104 105/105/105 103/103/103
f 104/104/104 106/106/106 105/105/105
f 106/106/106 107/107/107 105/105/105
f 108/108/108 107/107/107 106/106/106
f 109/109/109 108/108/108 106/106/106
f 109/109/109 110/110/110 108/108/108
f 110/110/110 111/111/111 108/108/108
f 114/114/114 113/113/113 112/112/112
f 115/115/115 114/114/114 112/112/112
f 118/118/118 117/117/117 116/116/116
f 118/118/118 116/116/116 119/119/119
f 116/116/116 120/120/120 119/119/119
f 123/123/123 122/122/122 121/121/121
f 124/124/124 123/123/123 121/121/121
