g Eff_Sweep_01
v -0.91032547 -0.5525608 0.16016051
v -1.0101031 -0.32556608 0.1752795
v -0.9597548 -0.58355033 0.11148848
v -1.0710933 -0.34618443 0.1215678
v -1.0554501 -0.07700574 0.18861519
v -0.98941267 -0.60214347 0.06281645
v -1.1249043 -0.08296665 0.13045825
v -1.0408022 0.1796104 0.20016752
v -1.1076881 -0.35855415 0.06785614
v -0.99929863 -0.60834134 0.014144404
v -1.1142086 0.1912619 0.13815981
v -0.96869296 0.41652113 0.20993651
v -1.1665769 -0.086541794 0.07230133
v -1.1198863 -0.3626777 0.01414444
v -0.98941267 -0.60214347 -0.034527622
v -1.0408669 0.4466973 0.1446725
v -0.8469403 0.625232 0.21792221
v -1.1582521 0.19825344 0.0761521
v -1.1804676 -0.0877338 0.014144402
v -1.1076881 -0.35855415 -0.039567295
v -0.95975494 -0.5835499 -0.083199725
v -0.9128118 0.673086 0.14999628
v -0.6830771 0.79933697 0.22412457
v -1.0841713 0.46480295 0.07940845
v -1.1729335 0.20058383 0.014144401
v -1.1665769 -0.086541794 -0.044012528
v -1.0710934 -0.34618405 -0.093279034
v -0.91032535 -0.5525608 -0.1318717
v -1.0101031 -0.32556608 -0.14699069
v -1.1249043 -0.08296665 -0.102169454
v -1.0554501 -0.07700574 -0.16032638
v -0.7379974 0.8627601 0.15413116
v -0.48423567 0.93242073 0.22854358
v -0.95233464 0.70179844 0.08207035
v -1.0986061 0.4708382 0.01414444
v -1.1582521 0.19825344 -0.047863305
v -1.1142086 0.1912619 -0.10987106
v -1.0408022 0.1796104 -0.17187871
v -0.52403635 1.008276 0.15707721
v -0.25731918 1.0178524 0.23117927
v -0.77094936 0.9008142 0.0841378
v -0.96550894 0.7113692 0.01414444
v -1.0841713 0.46480295 -0.05111961
v -1.0408669 0.44669726 -0.1163837
v -0.9686929 0.41652113 -0.18164772
v -0.27852574 1.1019351 0.15883431
v -0.009217875 1.0487586 0.23203163
v -0.54791665 1.0537891 0.08561081
v -0.78193367 0.91349864 0.014144402
v -0.9523346 0.7017986 -0.05378151
v -0.9128118 0.673086 -0.121707454
v -0.8469403 0.625232 -0.18963337
v -0.009657638 1.1358138 0.15940256
v 0.23962173 1.0203345 0.23110065
v -0.29124907 1.1523851 0.08648937
v -0.55587655 1.0689604 0.01414444
v -0.7709496 0.90081406 -0.055848997
v -0.73799735 0.8627601 -0.12584236
v -0.6830771 0.79933697 -0.19583568
v 0.25998425 1.1045934 0.1587819
v 0.4676033 0.93708426 0.22838633
v -0.009920908 1.1880472 0.08677349
v -0.29549026 1.1692017 0.01414444
v -0.5479164 1.0537893 -0.057321966
v -0.52403635 1.008276 -0.12878837
v -0.48423567 0.93242073 -0.20025478
v 0.5066404 1.0132648 0.15697236
v 0.6678198 0.8058796 0.2238887
v 0.27220178 1.1551487 0.08646318
v -0.010009063 1.2054582 0.01414444
v -0.29124907 1.1523851 -0.05820053
v -0.27852535 1.1019353 -0.1305455
v -0.25731918 1.0178524 -0.20289043
v 0.72207505 0.86974907 0.15397392
v 0.8333654 0.63335353 0.21760772
v 0.5300631 1.0589727 0.085558385
v 0.2762745 1.1720004 0.01414444
v -0.009921154 1.188047 -0.058484647
v -0.009657424 1.1358138 -0.1311137
v -0.009217874 1.0487585 -0.20374279
v 0.898677 0.68175805 0.14978662
v 0.9571109 0.42592144 0.2095434
v 0.7546281 0.9080707 0.08405918
v 0.5378705 1.0742089 0.014144401
v 0.27220178 1.1551487 -0.05817436
v 0.25998425 1.1045934 -0.13049309
v 0.23962173 1.0203345 -0.2028118
v 1.0288429 0.4567377 0.14441043
v 1.0315298 0.18997863 0.19969581
v 0.93786436 0.7108004 0.08196556
v 0.7654792 0.92084455 0.014144402
v 0.5300631 1.0589727 -0.057269547
v 0.5066406 1.0132645 -0.12868354
v 0.4676033 0.93708426 -0.20009744
v 1.1046299 0.20233375 0.13784532
v 1.0487695 -0.06638763 0.18806486
v 1.0718822 0.47522727 0.07927742
v 0.9509268 0.72048116 0.01414444
v 0.7546281 0.9080707 -0.055770338
v 0.72207505 0.86974907 -0.12568516
v 0.6678198 0.8058796 -0.19559985
v 1.118061 -0.07163134 0.13009135
v 1.0058595 -0.3158199 0.17465053
v 1.1484898 0.20974644 0.07599487
v 1.0862287 0.48139063 0.014144402
v 0.93786436 0.7108004 -0.053676642
v 0.8986772 0.6817578 -0.1214978
v 0.8333654 0.63335353 -0.18931888
v 1.0668113 -0.335758 0.12114847
v 0.90821874 -0.5440216 0.15945293
v 0.957702 -0.5743879 0.11101675
v 1.1596358 -0.07477757 0.072117925
v 1.1033823 -0.3477209 0.067646466
v 0.98739195 -0.5926076 0.062580585
v 1.1631099 0.2122174 0.014144402
v 1.0718822 0.47522727 -0.050988656
v 1.0288429 0.4567377 -0.116121635
v 0.9571109 0.42592144 -0.18125461
v 1.1155727 -0.35170853 0.014144402
v 0.99728864 -0.59868085 0.014144404
v 1.173494 -0.07582631 0.014144439
v 1.1484898 0.20974644 -0.04770603
v 1.1046298 0.20233352 -0.10955658
v 1.0315298 0.18997863 -0.17140701
v 1.1596358 -0.07477757 -0.043828998
v 1.1033823 -0.3477209 -0.03935764
v 0.98739195 -0.5926076 -0.03429176
v 1.118061 -0.07163134 -0.10180255
v 1.0487695 -0.06638763 -0.15977593
v 1.0668113 -0.335758 -0.09285972
v 0.957702 -0.5743879 -0.082728006
v 1.0058595 -0.3158199 -0.14636172
v 0.90821874 -0.5440216 -0.13116412
vt 1.0000002 0
vt 0.94444466 0
vt 1.0000002 0.16666667
vt 0.94444466 0.16666667
vt 0.8888891 0
vt 1.0000002 0.33333334
vt 0.8888891 0.16666667
vt 0.8333335 0
vt 0.94444466 0.33333334
vt 1.0000002 0.5
vt 0.8333335 0.16666667
vt 0.7777779 0
vt 0.8888891 0.33333334
vt 0.94444466 0.5
vt 1.0000002 0.6666667
vt 0.7777779 0.16666667
vt 0.7222223 0
vt 0.8333335 0.33333334
vt 0.8888891 0.5
vt 0.94444466 0.6666667
vt 1.0000002 0.8333334
vt 0.7222223 0.16666667
vt 0.66666675 0
vt 0.7777779 0.33333334
vt 0.8333335 0.5
vt 0.8888891 0.6666667
vt 0.94444466 0.8333334
vt 1.0000002 1
vt 0.94444466 1
vt 0.8888891 0.8333334
vt 0.8888891 1
vt 0.66666675 0.16666667
vt 0.61111116 0
vt 0.7222223 0.33333334
vt 0.7777779 0.5
vt 0.8333335 0.6666667
vt 0.8333335 0.8333334
vt 0.8333335 1
vt 0.61111116 0.16666667
vt 0.5555556 0
vt 0.66666675 0.33333334
vt 0.7222223 0.5
vt 0.7777779 0.6666667
vt 0.7777779 0.8333334
vt 0.7777779 1
vt 0.5555556 0.16666667
vt 0.5 0
vt 0.61111116 0.33333334
vt 0.66666675 0.5
vt 0.7222223 0.6666667
vt 0.7222223 0.8333334
vt 0.7222223 1
vt 0.5 0.16666667
vt 0.44444445 0
vt 0.5555556 0.33333334
vt 0.61111116 0.5
vt 0.66666675 0.6666667
vt 0.66666675 0.8333334
vt 0.66666675 1
vt 0.44444445 0.16666667
vt 0.3888889 0
vt 0.5 0.33333334
vt 0.5555556 0.5
vt 0.61111116 0.6666667
vt 0.61111116 0.8333334
vt 0.61111116 1
vt 0.3888889 0.16666667
vt 0.33333334 0
vt 0.44444445 0.33333334
vt 0.5 0.5
vt 0.5555556 0.6666667
vt 0.5555556 0.8333334
vt 0.5555556 1
vt 0.33333334 0.16666667
vt 0.2777778 0
vt 0.3888889 0.33333334
vt 0.44444445 0.5
vt 0.5 0.6666667
vt 0.5 0.8333334
vt 0.5 1
vt 0.2777778 0.16666667
vt 0.22222222 0
vt 0.33333334 0.33333334
vt 0.3888889 0.5
vt 0.44444445 0.6666667
vt 0.44444445 0.8333334
vt 0.44444445 1
vt 0.22222222 0.16666667
vt 0.16666667 0
vt 0.2777778 0.33333334
vt 0.33333334 0.5
vt 0.3888889 0.6666667
vt 0.3888889 0.8333334
vt 0.3888889 1
vt 0.16666667 0.16666667
vt 0.11111111 0
vt 0.22222222 0.33333334
vt 0.2777778 0.5
vt 0.33333334 0.6666667
vt 0.33333334 0.8333334
vt 0.33333334 1
vt 0.11111111 0.16666667
vt 0.055555556 0
vt 0.16666667 0.33333334
vt 0.22222222 0.5
vt 0.2777778 0.6666667
vt 0.2777778 0.8333334
vt 0.2777778 1
vt 0.055555556 0.16666667
vt 0 0
vt 0 0.16666667
vt 0.11111111 0.33333334
vt 0.055555556 0.33333334
vt 0 0.33333334
vt 0.16666667 0.5
vt 0.22222222 0.6666667
vt 0.22222222 0.8333334
vt 0.22222222 1
vt 0.055555556 0.5
vt 0 0.5
vt 0.11111111 0.5
vt 0.16666667 0.6666667
vt 0.16666667 0.8333334
vt 0.16666667 1
vt 0.11111111 0.6666667
vt 0.055555556 0.6666667
vt 0 0.6666667
vt 0.11111111 0.8333334
vt 0.11111111 1
vt 0.055555556 0.8333334
vt 0 0.8333334
vt 0.055555556 1
vt 0 1
vn 0.5669933 0.30031487 -0.76702654
vn 0.59942436 0.22567832 -0.76795805
vn 0.65788275 0.337825 -0.6731007
vn 0.6911596 0.25436005 -0.67646086
vn 0.6361952 0.073850706 -0.7679856
vn 0.8179687 0.40588614 -0.40765622
vn 0.7321322 0.08021394 -0.6764231
vn 0.6350907 -0.08280353 -0.7679865
vn 0.85942787 0.30420545 -0.41090482
vn 0.89765507 0.4406989 4.4252665E-05
vn 0.72978234 -0.09941408 -0.67641294
vn 0.5967064 -0.23263136 -0.76800007
vn 0.907298 0.08961597 -0.41082758
vn 0.94392663 0.3301553 3.998184E-05
vn 0.8180633 0.40557498 0.407776
vn 0.68473846 -0.27090338 -0.6765683
vn 0.5252916 -0.36638513 -0.76800436
vn 0.9022021 -0.13139662 -0.41081145
vn 0.9954666 0.09511195 3.6892718E-05
vn 0.85937476 0.30419293 0.4110252
vn 0.6581443 0.33697918 0.67326903
vn 0.6021407 -0.42364174 -0.6767231
vn 0.42574927 -0.47845298 -0.7679975
vn 0.8450409 -0.34208328 -0.41095614
vn 0.98915803 -0.14685532 3.405089E-05
vn 0.9072475 0.08961705 0.41093886
vn 0.6909882 0.25431773 0.6766521
vn 0.5683458 0.29943073 0.76637095
vn 0.6001033 0.22579709 0.76739275
vn 0.73196805 0.080221914 0.6765997
vn 0.6368289 0.073842764 0.7674608
vn 0.48772132 -0.5514424 -0.676786
vn 0.3019607 -0.5648293 -0.7679763
vn 0.7421701 -0.529322 -0.41109824
vn 0.9260399 -0.37742564 2.9805387E-05
vn 0.9021579 -0.13138187 0.4109136
vn 0.72963786 -0.09936857 0.67657554
vn 0.63566023 -0.08293698 0.7675008
vn 0.34585613 -0.6499241 -0.6767438
vn 0.15825579 -0.62066686 -0.76793736
vn 0.6006196 -0.6857253 -0.411141
vn 0.8130343 -0.5822158 2.4471996E-05
vn 0.8450091 -0.34205332 0.41104642
vn 0.68463063 -0.27081123 0.6767143
vn 0.5971936 -0.2328221 0.76756346
vn 0.18133631 -0.7136311 -0.67664456
vn 0.00311616 -0.6405822 -0.76788336
vn 0.42570233 -0.80610055 -0.41107097
vn 0.6578071 -0.75318646 1.9395955E-05
vn 0.7421523 -0.52928853 0.41117352
vn 0.6020784 -0.42353535 0.67684525
vn 0.5256705 -0.36660877 0.7676383
vn 0.0036219636 -0.7363243 -0.67661905
vn -0.1523437 -0.6222599 -0.7678437
vn 0.22320151 -0.8839152 -0.41094407
vn 0.46616042 -0.88470024 1.38122605E-05
vn 0.600616 -0.68569297 0.41120026
vn 0.48770425 -0.5513411 0.67688084
vn 0.4260222 -0.47866893 0.76771176
vn -0.17441568 -0.7153284 -0.6766716
vn -0.29677373 -0.5678395 -0.76777834
vn 0.004535861 -0.9116652 -0.41090873
vn 0.24441367 -0.9696711 5.733828E-06
vn 0.42571348 -0.8060741 0.4111115
vn 0.34588367 -0.6498428 0.6768078
vn 0.30214956 -0.56499445 0.7677806
vn -0.3396746 -0.6531141 -0.6768037
vn -0.4215392 -0.48262602 -0.7677088
vn -0.21451591 -0.88605726 -0.41095674
vn 0.0049927216 -0.9999876 3.594903E-07
vn 0.2232272 -0.8839003 0.41096222
vn 0.18140021 -0.7135854 0.67667556
vn 0.15839441 -0.62074476 0.7678458
vn -0.48251686 -0.55588853 -0.6768791
vn -0.5222208 -0.37151372 -0.76763475
vn -0.41795582 -0.81012625 -0.41110614
vn -0.2348374 -0.9720347 -6.0453067E-06
vn 0.004549154 -0.9116652 0.41090852
vn 0.0036675076 -0.73632485 0.6766183
vn 0.0031978171 -0.64057946 0.76788515
vn -0.5980686 -0.42917457 -0.67684793
vn -0.594947 -0.23851524 -0.76756006
vn -0.59411526 -0.691334 -0.41119882
vn -0.45762685 -0.8891444 -1.3873908E-05
vn -0.21448982 -0.8860725 0.41093755
vn -0.17435083 -0.7153748 0.67663926
vn -0.15220441 -0.62217605 0.7679394
vn -0.68199724 -0.27736488 -0.676719
vn -0.6348299 -0.08911103 -0.7674961
vn -0.73710424 -0.53629297 -0.41117775
vn -0.6506502 -0.75937754 -1.9806905E-05
vn -0.41794413 -0.810153 0.41106534
vn -0.33964694 -0.6531963 0.6767382
vn -0.29658467 -0.56766826 0.76797813
vn -0.7286328 -0.106490895 -0.6765752
vn -0.6375281 0.06759597 -0.767456
vn -0.84165984 -0.35020614 -0.4110528
vn -0.80747056 -0.5899079 -2.5036563E-05
vn -0.5941189 -0.6913665 0.41113877
vn -0.48253348 -0.5559909 0.6767833
vn -0.42126593 -0.48240274 0.76799905
vn -0.73272586 0.073012136 -0.67659605
vn -0.6022683 0.2199623 -0.7673913
vn -0.9008205 -0.1402554 -0.4109148
vn -0.9223386 -0.38638243 -3.0090489E-05
vn -0.73712236 -0.53632694 0.41110104
vn -0.5981314 -0.42928162 0.6767245
vn -0.5218408 -0.3712827 0.7680048
vn -0.69343466 0.2475851 -0.67664605
vn -0.57117516 0.29399604 -0.7663715
vn -0.6613552 0.33066076 -0.6732554
vn -0.90809155 0.08062756 -0.41093683
vn -0.86231107 0.2957753 -0.411019
vn -0.82194096 0.3976728 -0.40776142
vn -0.98766077 -0.15660807 -3.4198012E-05
vn -0.8416917 -0.35023636 0.41096178
vn -0.6821051 -0.27745798 0.676572
vn -0.5944587 -0.2383165 0.76799995
vn -0.9471154 0.32089317 -3.9994535E-05
vn -0.90186906 0.43200955 -4.4163982E-05
vn -0.9963613 0.08522955 -3.7013888E-05
vn -0.9008648 -0.14027105 0.4108122
vn -0.7287776 -0.10653826 0.6764117
vn -0.6342578 -0.08897106 0.76798517
vn -0.90814215 0.0806273 0.4108249
vn -0.86236453 0.2957872 0.41089815
vn -0.82184935 0.39798546 0.4076412
vn -0.7328904 0.0730053 0.6764185
vn -0.6368906 0.06761501 0.7679834
vn -0.69360715 0.24762529 0.6764546
vn -0.661101 0.33151025 0.67308724
vn -0.601587 0.219851 0.7679574
vn -0.56982905 0.29489487 0.7670279
g Eff_Sweep_01_0
f 3/3/3 2/2/2 1/1/1
f 2/2/2 3/3/3 4/4/4
f 4/4/4 5/5/5 2/2/2
f 6/6/6 4/4/4 3/3/3
f 5/5/5 4/4/4 7/7/7
f 7/7/7 8/8/8 5/5/5
f 4/4/4 6/6/6 9/9/9
f 9/9/9 7/7/7 4/4/4
f 10/10/10 9/9/9 6/6/6
f 8/8/8 7/7/7 11/11/11
f 11/11/11 12/12/12 8/8/8
f 7/7/7 9/9/9 13/13/13
f 13/13/13 11/11/11 7/7/7
f 9/9/9 10/10/10 14/14/14
f 14/14/14 13/13/13 9/9/9
f 15/15/15 14/14/14 10/10/10
f 12/12/12 11/11/11 16/16/16
f 16/16/16 17/17/17 12/12/12
f 11/11/11 13/13/13 18/18/18
f 18/18/18 16/16/16 11/11/11
f 13/13/13 14/14/14 19/19/19
f 19/19/19 18/18/18 13/13/13
f 14/14/14 15/15/15 20/20/20
f 20/20/20 19/19/19 14/14/14
f 21/21/21 20/20/20 15/15/15
f 17/17/17 16/16/16 22/22/22
f 22/22/22 23/23/23 17/17/17
f 16/16/16 18/18/18 24/24/24
f 24/24/24 22/22/22 16/16/16
f 18/18/18 19/19/19 25/25/25
f 25/25/25 24/24/24 18/18/18
f 19/19/19 20/20/20 26/26/26
f 26/26/26 25/25/25 19/19/19
f 20/20/20 21/21/21 27/27/27
f 27/27/27 26/26/26 20/20/20
f 28/28/28 27/27/27 21/21/21
f 27/27/27 28/28/28 29/29/29
f 29/29/29 30/30/30 27/27/27
f 26/26/26 27/27/27 30/30/30
f 30/30/30 29/29/29 31/31/31
f 23/23/23 22/22/22 32/32/32
f 32/32/32 33/33/33 23/23/23
f 22/22/22 24/24/24 34/34/34
f 34/34/34 32/32/32 22/22/22
f 24/24/24 25/25/25 35/35/35
f 35/35/35 34/34/34 24/24/24
f 25/25/25 26/26/26 36/36/36
f 30/30/30 36/36/36 26/26/26
f 36/36/36 35/35/35 25/25/25
f 31/31/31 37/37/37 30/30/30
f 36/36/36 30/30/30 37/37/37
f 37/37/37 31/31/31 38/38/38
f 33/33/33 32/32/32 39/39/39
f 39/39/39 40/40/40 33/33/33
f 32/32/32 34/34/34 41/41/41
f 41/41/41 39/39/39 32/32/32
f 34/34/34 35/35/35 42/42/42
f 42/42/42 41/41/41 34/34/34
f 35/35/35 36/36/36 43/43/43
f 37/37/37 43/43/43 36/36/36
f 43/43/43 42/42/42 35/35/35
f 38/38/38 44/44/44 37/37/37
f 43/43/43 37/37/37 44/44/44
f 44/44/44 38/38/38 45/45/45
f 40/40/40 39/39/39 46/46/46
f 46/46/46 47/47/47 40/40/40
f 39/39/39 41/41/41 48/48/48
f 48/48/48 46/46/46 39/39/39
f 41/41/41 42/42/42 49/49/49
f 49/49/49 48/48/48 41/41/41
f 42/42/42 43/43/43 50/50/50
f 44/44/44 50/50/50 43/43/43
f 50/50/50 49/49/49 42/42/42
f 45/45/45 51/51/51 44/44/44
f 50/50/50 44/44/44 51/51/51
f 51/51/51 45/45/45 52/52/52
f 47/47/47 46/46/46 53/53/53
f 53/53/53 54/54/54 47/47/47
f 46/46/46 48/48/48 55/55/55
f 55/55/55 53/53/53 46/46/46
f 48/48/48 49/49/49 56/56/56
f 56/56/56 55/55/55 48/48/48
f 49/49/49 50/50/50 57/57/57
f 51/51/51 57/57/57 50/50/50
f 57/57/57 56/56/56 49/49/49
f 52/52/52 58/58/58 51/51/51
f 57/57/57 51/51/51 58/58/58
f 58/58/58 52/52/52 59/59/59
f 54/54/54 53/53/53 60/60/60
f 60/60/60 61/61/61 54/54/54
f 53/53/53 55/55/55 62/62/62
f 62/62/62 60/60/60 53/53/53
f 55/55/55 56/56/56 63/63/63
f 63/63/63 62/62/62 55/55/55
f 56/56/56 57/57/57 64/64/64
f 58/58/58 64/64/64 57/57/57
f 64/64/64 63/63/63 56/56/56
f 59/59/59 65/65/65 58/58/58
f 64/64/64 58/58/58 65/65/65
f 65/65/65 59/59/59 66/66/66
f 61/61/61 60/60/60 67/67/67
f 67/67/67 68/68/68 61/61/61
f 60/60/60 62/62/62 69/69/69
f 69/69/69 67/67/67 60/60/60
f 62/62/62 63/63/63 70/70/70
f 70/70/70 69/69/69 62/62/62
f 63/63/63 64/64/64 71/71/71
f 65/65/65 71/71/71 64/64/64
f 71/71/71 70/70/70 63/63/63
f 66/66/66 72/72/72 65/65/65
f 71/71/71 65/65/65 72/72/72
f 72/72/72 66/66/66 73/73/73
f 68/68/68 67/67/67 74/74/74
f 74/74/74 75/75/75 68/68/68
f 67/67/67 69/69/69 76/76/76
f 76/76/76 74/74/74 67/67/67
f 69/69/69 70/70/70 77/77/77
f 77/77/77 76/76/76 69/69/69
f 70/70/70 71/71/71 78/78/78
f 72/72/72 78/78/78 71/71/71
f 78/78/78 77/77/77 70/70/70
f 73/73/73 79/79/79 72/72/72
f 78/78/78 72/72/72 79/79/79
f 79/79/79 73/73/73 80/80/80
f 75/75/75 74/74/74 81/81/81
f 81/81/81 82/82/82 75/75/75
f 74/74/74 76/76/76 83/83/83
f 83/83/83 81/81/81 74/74/74
f 76/76/76 77/77/77 84/84/84
f 84/84/84 83/83/83 76/76/76
f 77/77/77 78/78/78 85/85/85
f 79/79/79 85/85/85 78/78/78
f 85/85/85 84/84/84 77/77/77
f 80/80/80 86/86/86 79/79/79
f 85/85/85 79/79/79 86/86/86
f 86/86/86 80/80/80 87/87/87
f 82/82/82 81/81/81 88/88/88
f 88/88/88 89/89/89 82/82/82
f 81/81/81 83/83/83 90/90/90
f 90/90/90 88/88/88 81/81/81
f 83/83/83 84/84/84 91/91/91
f 91/91/91 90/90/90 83/83/83
f 84/84/84 85/85/85 92/92/92
f 86/86/86 92/92/92 85/85/85
f 92/92/92 91/91/91 84/84/84
f 87/87/87 93/93/93 86/86/86
f 92/92/92 86/86/86 93/93/93
f 93/93/93 87/87/87 94/94/94
f 89/89/89 88/88/88 95/95/95
f 95/95/95 96/96/96 89/89/89
f 88/88/88 90/90/90 97/97/97
f 97/97/97 95/95/95 88/88/88
f 90/90/90 91/91/91 98/98/98
f 98/98/98 97/97/97 90/90/90
f 91/91/91 92/92/92 99/99/99
f 93/93/93 99/99/99 92/92/92
f 99/99/99 98/98/98 91/91/91
f 94/94/94 100/100/100 93/93/93
f 99/99/99 93/93/93 100/100/100
f 100/100/100 94/94/94 101/101/101
f 96/96/96 95/95/95 102/102/102
f 102/102/102 103/103/103 96/96/96
f 95/95/95 97/97/97 104/104/104
f 104/104/104 102/102/102 95/95/95
f 97/97/97 98/98/98 105/105/105
f 105/105/105 104/104/104 97/97/97
f 98/98/98 99/99/99 106/106/106
f 100/100/100 106/106/106 99/99/99
f 106/106/106 105/105/105 98/98/98
f 101/101/101 107/107/107 100/100/100
f 106/106/106 100/100/100 107/107/107
f 107/107/107 101/101/101 108/108/108
f 103/103/103 102/102/102 109/109/109
f 109/109/109 110/110/110 103/103/103
f 110/110/110 109/109/109 111/111/111
f 102/102/102 104/104/104 112/112/112
f 112/112/112 109/109/109 102/102/102
f 113/113/113 111/111/111 109/109/109
f 109/109/109 112/112/112 113/113/113
f 111/111/111 113/113/113 114/114/114
f 104/104/104 105/105/105 115/115/115
f 115/115/115 112/112/112 104/104/104
f 105/105/105 106/106/106 116/116/116
f 107/107/107 116/116/116 106/106/106
f 116/116/116 115/115/115 105/105/105
f 108/108/108 117/117/117 107/107/107
f 116/116/116 107/107/107 117/117/117
f 117/117/117 108/108/108 118/118/118
f 119/119/119 114/114/114 113/113/113
f 114/114/114 119/119/119 120/120/120
f 121/121/121 113/113/113 112/112/112
f 112/112/112 115/115/115 121/121/121
f 113/113/113 121/121/121 119/119/119
f 115/115/115 116/116/116 122/122/122
f 117/117/117 122/122/122 116/116/116
f 122/122/122 121/121/121 115/115/115
f 118/118/118 123/123/123 117/117/117
f 122/122/122 117/117/117 123/123/123
f 123/123/123 118/118/118 124/124/124
f 121/121/121 122/122/122 125/125/125
f 125/125/125 119/119/119 121/121/121
f 123/123/123 125/125/125 122/122/122
f 126/126/126 120/120/120 119/119/119
f 119/119/119 125/125/125 126/126/126
f 120/120/120 126/126/126 127/127/127
f 124/124/124 128/128/128 123/123/123
f 125/125/125 123/123/123 128/128/128
f 128/128/128 126/126/126 125/125/125
f 128/128/128 124/124/124 129/129/129
f 130/130/130 127/127/127 126/126/126
f 126/126/126 128/128/128 130/130/130
f 129/129/129 130/130/130 128/128/128
f 127/127/127 130/130/130 131/131/131
f 130/130/130 129/129/129 132/132/132
f 132/132/132 131/131/131 130/130/130
f 131/131/131 132/132/132 133/133/133
