g Eff_TrailCone_02a
v 0.034162197 0.9782798 -0.11174469
v -0.19335371 1.8396341 -2.0235292E-07
v -0.10232058 0.9735138 -0.11174469
v 0.06455571 1.8486401 -2.0235292E-07
v -0.10232058 0.9735138 0.111745395
v 0.16998006 0.96400493 -0.11174469
v 0.034162197 0.9782798 0.111745395
v 0.3212086 1.821665 -2.0235292E-07
v 0.30248946 0.9309666 -0.11174469
v 0.16998006 0.96400493 0.111745395
v 0.57160956 1.7592332 -2.0235292E-07
v 0.42911115 0.879808 -0.11174469
v 0.30248946 0.9309666 0.111745395
v 0.8108847 1.6625596 -2.0235292E-07
v 0.5473808 0.81152517 -0.11174469
v 0.42911115 0.879808 0.111745395
v 1.034377 1.5335264 -2.0235292E-07
v 0.65499616 0.7274468 -0.11174469
v 0.5473808 0.81152517 0.111745395
v 1.237736 1.3746448 -2.0235292E-07
v 0.7498629 0.6292094 -0.11174469
v 0.65499616 0.7274468 0.111745395
v 1.4170042 1.189007 -2.0235292E-07
v 0.83013433 0.5187253 -0.11174469
v 0.7498629 0.6292094 0.111745395
v 1.568692 0.98022693 -2.0235292E-07
v 0.8942481 0.39814466 -0.11174469
v 0.83013433 0.5187253 0.111745395
v 1.6898468 0.75236785 -2.0235292E-07
v 0.9409564 0.26981467 -0.11174469
v 0.8942481 0.39814466 0.111745395
v 1.7781107 0.5098646 -2.0235292E-07
v 0.96935004 0.13623303 -0.11174469
v 0.9409564 0.26981467 0.111745395
v 1.8317657 0.2574374 -2.0235292E-07
v 0.9788765 -2.2737699E-07 -0.11174469
v 0.96935004 0.13623303 0.111745395
v 1.8497676 -4.678887E-07 -2.0235292E-07
v 0.96935034 -0.13623165 -0.11174469
v 0.9788765 -2.2737699E-07 0.111745395
v 1.8317664 -0.25743484 -2.0235292E-07
v 0.94095683 -0.2698135 -0.11174469
v 0.96935034 -0.13623165 0.111745395
v 1.7781116 -0.50986236 -2.0235292E-07
v 0.89424866 -0.39814368 -0.11174469
v 0.94095683 -0.2698135 0.111745395
v 1.689848 -0.752366 -2.0235292E-07
v 0.8301349 -0.51872456 -0.11174469
v 0.89424866 -0.39814368 0.111745395
v 1.5686934 -0.9802258 -2.0235292E-07
v 0.74986374 -0.6292089 -0.11174469
v 0.8301349 -0.51872456 0.111745395
v 1.4170058 -1.1890062 -2.0235292E-07
v 0.65499693 -0.7274464 -0.11174469
v 0.74986374 -0.6292089 0.111745395
v 1.2377377 -1.3746443 -2.0235292E-07
v 0.5473816 -0.8115251 -0.11174469
v 0.65499693 -0.7274464 0.111745395
v 1.0343783 -1.5335264 -2.0235292E-07
v 0.42911184 -0.87980825 -0.11174469
v 0.5473816 -0.8115251 0.111745395
v 0.81088597 -1.66256 -2.0235292E-07
v 0.30249003 -0.93096685 -0.11174469
v 0.42911184 -0.87980825 0.111745395
v 0.5716106 -1.7592337 -2.0235292E-07
v 0.16998059 -0.96400535 -0.11174469
v 0.30249003 -0.93096685 0.111745395
v 0.32120955 -1.8216658 -2.0235292E-07
v 0.034162596 -0.9782803 -0.11174469
v 0.16998059 -0.96400535 0.111745395
v 0.06455647 -1.848641 -2.0235292E-07
v -0.10232028 -0.97351426 -0.11174469
v 0.034162596 -0.9782803 0.111745395
v -0.19335315 -1.839635 -2.0235292E-07
v -0.23681167 -0.9497998 -0.11174469
v -0.10232028 -0.97351426 0.111745395
v -0.4474994 -1.7948221 -2.0235292E-07
v -0.36669376 -0.9075986 -0.11174469
v -0.23681167 -0.9497998 0.111745395
v -0.6929355 -1.715075 -2.0235292E-07
v -0.48943847 -0.847732 -0.11174469
v -0.36669376 -0.9075986 0.111745395
v -0.9248843 -1.6019456 -2.0235292E-07
v -0.6026569 -0.77136505 -0.11174469
v -0.48943847 -0.847732 0.111745395
v -1.1388313 -1.4576367 -2.0235292E-07
v -0.70414525 -0.67998445 -0.11174469
v -0.6026569 -0.77136505 0.111745395
v -1.3306123 -1.284956 -2.0235292E-07
v -0.7919281 -0.5753689 -0.11174469
v -0.70414525 -0.67998445 0.111745395
v -1.496494 -1.0872657 -2.0235292E-07
v -0.8642969 -0.45955443 -0.11174469
v -0.7919281 -0.5753689 0.111745395
v -1.6332482 -0.86841285 -2.0235292E-07
v -0.91984314 -0.3347952 -0.11174469
v -0.8642969 -0.45955443 0.111745395
v -1.7382133 -0.63265747 -2.0235292E-07
v -0.9574856 -0.2035197 -0.11174469
v -0.91984314 -0.3347952 0.111745395
v -1.809346 -0.38458803 -2.0235292E-07
v -0.9764919 -0.06828289 -0.11174469
v -0.9574856 -0.2035197 0.111745395
v -1.8452618 -0.12903316 -2.0235292E-07
v -0.9764919 0.068282984 -0.11174469
v -0.9764919 -0.06828289 0.111745395
v -1.8452615 0.12903324 -2.0235292E-07
v -0.9574856 0.20351979 -0.11174469
v -0.9764919 0.068282984 0.111745395
v -1.8093457 0.38458815 -2.0235292E-07
v -0.91984296 0.3347953 -0.11174469
v -0.9574856 0.20351979 0.111745395
v -1.7382128 0.63265747 -2.0235292E-07
v -0.8642966 0.4595544 -0.11174469
v -0.91984296 0.3347953 0.111745395
v -1.6332476 0.86841273 -2.0235292E-07
v -0.79192793 0.5753688 -0.11174469
v -0.8642966 0.4595544 0.111745395
v -1.4964937 1.0872655 -2.0235292E-07
v -0.7041449 0.6799845 -0.11174469
v -0.79192793 0.5753688 0.111745395
v -1.3306116 1.2849559 -2.0235292E-07
v -0.6026568 0.77136487 -0.11174469
v -0.7041449 0.6799845 0.111745395
v -1.1388309 1.4576359 -2.0235292E-07
v -0.48943847 0.84773135 -0.11174469
v -0.6026568 0.77136487 0.111745395
v -0.92488426 1.601945 -2.0235292E-07
v -0.36669376 0.907598 -0.11174469
v -0.48943847 0.84773135 0.111745395
v -0.6929355 1.715074 -2.0235292E-07
v -0.23681186 0.9497994 -0.11174469
v -0.36669376 0.907598 0.111745395
v -0.4474997 1.7948211 -2.0235292E-07
v -0.10232058 0.9735138 -0.11174469
v -0.23681186 0.9497994 0.111745395
v -0.19335371 1.8396341 -2.0235292E-07
v -0.10232058 0.9735138 0.111745395
vt 0.97438514 0.99592954
vt 0.9964914 0.5
vt 0.9964914 0.99592954
vt 0.97438514 0.5
vt 0.9964914 0.0017677784
vt 0.9522792 0.99592954
vt 0.97438514 0.0017677784
vt 0.9522792 0.5
vt 0.9301733 0.99592954
vt 0.9522792 0.0017677784
vt 0.9301733 0.5
vt 0.90806735 0.99592954
vt 0.9301733 0.0017677784
vt 0.90806735 0.5
vt 0.8859613 0.99592954
vt 0.90806735 0.0017677784
vt 0.8859613 0.5
vt 0.8638553 0.99592954
vt 0.8859613 0.0017677784
vt 0.8638553 0.5
vt 0.8417492 0.99592954
vt 0.8638553 0.0017677784
vt 0.8417492 0.5
vt 0.8196432 0.99592954
vt 0.8417492 0.0017677784
vt 0.8196432 0.5
vt 0.7975373 0.99592954
vt 0.8196432 0.0017677784
vt 0.7975373 0.5
vt 0.7754313 0.99592954
vt 0.7975373 0.0017677784
vt 0.7754313 0.5
vt 0.7533253 0.99592954
vt 0.7754313 0.0017677784
vt 0.7533253 0.5
vt 0.7312193 0.99592954
vt 0.7533253 0.0017677784
vt 0.7312193 0.5
vt 0.7091136 0.99592954
vt 0.7312193 0.0017677784
vt 0.7091136 0.5
vt 0.68700755 0.99592954
vt 0.7091136 0.0017677784
vt 0.68700755 0.5
vt 0.6649015 0.99592954
vt 0.68700755 0.0017677784
vt 0.6649015 0.5
vt 0.6427955 0.99592954
vt 0.6649015 0.0017677784
vt 0.6427955 0.5
vt 0.6206896 0.99592954
vt 0.6427955 0.0017677784
vt 0.6206896 0.5
vt 0.5985836 0.99592954
vt 0.6206896 0.0017677784
vt 0.5985836 0.5
vt 0.57647747 0.99592954
vt 0.5985836 0.0017677784
vt 0.57647747 0.5
vt 0.5543714 0.99592954
vt 0.57647747 0.0017677784
vt 0.5543714 0.5
vt 0.5322655 0.99592954
vt 0.5543714 0.0017677784
vt 0.5322655 0.5
vt 0.51015943 0.99592954
vt 0.5322655 0.0017677784
vt 0.51015943 0.5
vt 0.48805344 0.99592954
vt 0.51015943 0.0017677784
vt 0.48805344 0.5
vt 0.46594745 0.99592954
vt 0.48805344 0.0017677784
vt 0.46594745 0.5
vt 0.44384146 0.99592954
vt 0.46594745 0.0017677784
vt 0.44384146 0.5
vt 0.4217354 0.99592954
vt 0.44384146 0.0017677784
vt 0.4217354 0.5
vt 0.3996294 0.99592954
vt 0.4217354 0.0017677784
vt 0.3996294 0.5
vt 0.3775234 0.99592954
vt 0.3996294 0.0017677784
vt 0.3775234 0.5
vt 0.3554174 0.99592954
vt 0.3775234 0.0017677784
vt 0.3554174 0.5
vt 0.3333114 0.99592954
vt 0.3554174 0.0017677784
vt 0.3333114 0.5
vt 0.3112054 0.99592954
vt 0.3333114 0.0017677784
vt 0.3112054 0.5
vt 0.28909943 0.99592954
vt 0.3112054 0.0017677784
vt 0.28909943 0.5
vt 0.26699343 0.99592954
vt 0.28909943 0.0017677784
vt 0.26699343 0.5
vt 0.24488747 0.99592954
vt 0.26699343 0.0017677784
vt 0.24488747 0.5
vt 0.22278152 0.99592954
vt 0.24488747 0.0017677784
vt 0.22278152 0.5
vt 0.20067556 0.99592954
vt 0.22278152 0.0017677784
vt 0.20067556 0.5
vt 0.17856954 0.99592954
vt 0.20067556 0.0017677784
vt 0.17856954 0.5
vt 0.15646356 0.99592954
vt 0.17856954 0.0017677784
vt 0.15646356 0.5
vt 0.13435759 0.99592954
vt 0.15646356 0.0017677784
vt 0.13435759 0.5
vt 0.11225157 0.99592954
vt 0.13435759 0.0017677784
vt 0.11225157 0.5
vt 0.09014562 0.99592954
vt 0.11225157 0.0017677784
vt 0.09014562 0.5
vt 0.068039596 0.99592954
vt 0.09014562 0.0017677784
vt 0.068039596 0.5
vt 0.045933634 0.99592954
vt 0.068039596 0.0017677784
vt 0.045933634 0.5
vt 0.023827612 0.99592954
vt 0.045933634 0.0017677784
vt 0.023827612 0.5
vt 0.0017216497 0.99592954
vt 0.023827612 0.0017677784
vt 0.0017216497 0.5
vt 0.0017216497 0.0017677784
vn 0.0044400403 0.1272123 -0.9918656
vn -0.10454404 0.99452025 0
vn -0.013301317 0.12661126 -0.99186325
vn 0.0348914 0.9993911 0
vn -0.013301317 0.12661126 0.99186325
vn 0.022115773 0.12533523 -0.99186796
vn 0.0044400403 0.1272123 0.9918656
vn 0.17365895 0.9848059 0
vn 0.03935057 0.12098048 -0.99187464
vn 0.022115773 0.12533523 0.99186796
vn 0.30906567 0.9510407 0
vn 0.055796437 0.11437143 -0.9918699
vn 0.03935057 0.12098048 0.99187464
vn 0.43836153 0.8987987 0
vn 0.07115356 0.10551002 -0.99186933
vn 0.055796437 0.11437143 0.9918699
vn 0.5591453 0.82906973 0
vn 0.08515917 0.09454621 -0.9918715
vn 0.07115356 0.10551002 0.99186933
vn 0.669197 0.743085 0
vn 0.09747502 0.0817799 -0.99187225
vn 0.08515917 0.09454621 0.9918715
vn 0.7660006 0.6428398 0
vn 0.10798745 0.06743583 -0.9918624
vn 0.09747502 0.0817799 0.99187225
vn 0.8480152 0.52997196 0
vn 0.11632288 0.05177833 -0.9918609
vn 0.10798745 0.06743583 0.9918624
vn 0.9135358 0.40675846 0
vn 0.12233156 0.035069883 -0.99186945
vn 0.11632288 0.05177833 0.9918609
vn 0.96125996 0.2756433 0
vn 0.12608533 0.01771315 -0.9918612
vn 0.12233156 0.035069883 0.99186945
vn 0.99027014 0.13915817 0
vn 0.12728746 0 -0.99186593
vn 0.12608533 0.01771315 0.9918612
vn 1 4.8245664E-07 0
vn 0.12608533 -0.01771315 -0.9918612
vn 0.12736133 0 0.99185646
vn 0.99027014 -0.13915817 0
vn 0.12233156 -0.035069883 -0.99186945
vn 0.12608533 -0.01771315 0.9918612
vn 0.96125996 -0.2756433 0
vn 0.116248794 -0.051778775 -0.99186957
vn 0.12233156 -0.035069883 0.99186945
vn 0.9135636 -0.40669575 0
vn 0.10798745 -0.06743583 -0.9918624
vn 0.116248794 -0.051778775 0.99186957
vn 0.8480152 -0.52997196 0
vn 0.097474426 -0.081854485 -0.9918662
vn 0.10798745 -0.06743583 0.9918624
vn 0.7660627 -0.6427658 0
vn 0.08515917 -0.09454621 -0.9918715
vn 0.097474426 -0.081854485 0.9918662
vn 0.66911405 -0.7431597 0
vn 0.07115356 -0.10551002 -0.99186933
vn 0.08515917 -0.09454621 0.9918715
vn 0.5592149 -0.82902277 0
vn 0.05575901 -0.11437168 -0.991872
vn 0.07115356 -0.10551002 0.99186933
vn 0.43836153 -0.8987987 0
vn 0.03935021 -0.12105446 -0.9918656
vn 0.05575901 -0.11437168 0.991872
vn 0.30906567 -0.9510407 0
vn 0.022097003 -0.12533526 -0.99186826
vn 0.03935021 -0.12105446 0.9918656
vn 0.17362253 -0.98481226 0
vn 0.004439998 -0.1272862 -0.9918561
vn 0.022097003 -0.12533526 0.99186826
vn 0.0348914 -0.9993911 0
vn -0.013301317 -0.12661126 -0.99186325
vn 0.004439998 -0.1272862 0.9918561
vn -0.10454404 -0.99452025 0
vn -0.030789487 -0.12345833 -0.991872
vn -0.013301317 -0.12661126 0.99186325
vn -0.24193479 -0.97029257 0
vn -0.047686096 -0.11797616 -0.99187076
vn -0.030789487 -0.12345833 0.991872
vn -0.3745475 -0.92720777 0
vn -0.063606285 -0.11024087 -0.9918675
vn -0.047686096 -0.11797616 0.99187076
vn -0.49999985 -0.8660255 0
vn -0.07832502 -0.10032812 -0.99186665
vn -0.06364368 -0.110240616 0.9918651
vn -0.6156703 -0.7880039 0
vn -0.09161675 -0.088387646 -0.99186397
vn -0.07832502 -0.10032812 0.99186665
vn -0.71938854 -0.6946079 0
vn -0.1030308 -0.07483251 -0.99185926
vn -0.09161675 -0.088387646 0.99186397
vn -0.8090444 -0.5877474 0
vn -0.11234407 -0.059739113 -0.991872
vn -0.1030308 -0.07483251 0.99185926
vn -0.8829426 -0.46948096 0
vn -0.11962733 -0.043555457 -0.991863
vn -0.11234407 -0.059739113 0.991872
vn -0.93971014 -0.34197214 0
vn -0.12450884 -0.02647127 -0.99186534
vn -0.11962733 -0.043555457 0.991863
vn -0.9781375 -0.20795935 0
vn -0.1269869 -0.008875378 -0.9918646
vn -0.12450884 -0.02647127 0.99186534
vn -0.9975636 -0.06976337 0
vn -0.1269869 0.008875378 -0.9918646
vn -0.1269869 -0.008875378 0.9918646
vn -0.9975636 0.06976337 0
vn -0.12450889 0.026452506 -0.9918658
vn -0.1269869 0.008875378 0.9918646
vn -0.9781516 0.2078929 0
vn -0.11955351 0.04351838 -0.99187356
vn -0.12450889 0.026452506 0.9918658
vn -0.93972766 0.34192392 0
vn -0.11234407 0.059739113 -0.991872
vn -0.11955351 0.04351838 0.99187356
vn -0.88291144 0.46953955 0
vn -0.10295651 0.07483309 -0.9918669
vn -0.11234407 0.059739113 0.991872
vn -0.8090444 0.5877474 0
vn -0.09154167 0.08846275 -0.9918642
vn -0.10295651 0.07483309 0.9918669
vn -0.7193135 0.69468564 0
vn -0.07832502 0.10032812 -0.99186665
vn -0.09154167 0.08846275 0.9918642
vn -0.6156703 0.7880039 0
vn -0.063606285 0.11024087 -0.9918675
vn -0.07832502 0.10032812 0.99186665
vn -0.5000561 0.86599296 0
vn -0.047686096 0.11797616 -0.99187076
vn -0.06364368 0.110240616 0.9918651
vn -0.37466422 0.9271606 0
vn -0.030770442 0.12353234 -0.99186337
vn -0.047686096 0.11797616 0.99187076
vn -0.24189942 0.97030133 0
vn -0.013301317 0.12661126 -0.99186325
vn -0.030770442 0.12353234 0.99186337
vn -0.10454404 0.99452025 0
vn -0.013301317 0.12661126 0.99186325
g Eff_TrailCone_02a_0
f 3/3/3 2/2/2 1/1/1
f 2/2/2 4/4/4 1/1/1
f 2/2/2 5/5/5 4/4/4
f 1/1/1 4/4/4 6/6/6
f 5/5/5 7/7/7 4/4/4
f 4/4/4 8/8/8 6/6/6
f 4/4/4 7/7/7 8/8/8
f 6/6/6 8/8/8 9/9/9
f 7/7/7 10/10/10 8/8/8
f 8/8/8 11/11/11 9/9/9
f 8/8/8 10/10/10 11/11/11
f 9/9/9 11/11/11 12/12/12
f 10/10/10 13/13/13 11/11/11
f 11/11/11 14/14/14 12/12/12
f 11/11/11 13/13/13 14/14/14
f 12/12/12 14/14/14 15/15/15
f 13/13/13 16/16/16 14/14/14
f 14/14/14 17/17/17 15/15/15
f 14/14/14 16/16/16 17/17/17
f 15/15/15 17/17/17 18/18/18
f 16/16/16 19/19/19 17/17/17
f 17/17/17 20/20/20 18/18/18
f 17/17/17 19/19/19 20/20/20
f 18/18/18 20/20/20 21/21/21
f 19/19/19 22/22/22 20/20/20
f 20/20/20 23/23/23 21/21/21
f 20/20/20 22/22/22 23/23/23
f 21/21/21 23/23/23 24/24/24
f 22/22/22 25/25/25 23/23/23
f 23/23/23 26/26/26 24/24/24
f 23/23/23 25/25/25 26/26/26
f 24/24/24 26/26/26 27/27/27
f 25/25/25 28/28/28 26/26/26
f 26/26/26 29/29/29 27/27/27
f 26/26/26 28/28/28 29/29/29
f 27/27/27 29/29/29 30/30/30
f 28/28/28 31/31/31 29/29/29
f 29/29/29 32/32/32 30/30/30
f 29/29/29 31/31/31 32/32/32
f 30/30/30 32/32/32 33/33/33
f 31/31/31 34/34/34 32/32/32
f 32/32/32 35/35/35 33/33/33
f 32/32/32 34/34/34 35/35/35
f 33/33/33 35/35/35 36/36/36
f 34/34/34 37/37/37 35/35/35
f 35/35/35 38/38/38 36/36/36
f 35/35/35 37/37/37 38/38/38
f 36/36/36 38/38/38 39/39/39
f 37/37/37 40/40/40 38/38/38
f 38/38/38 41/41/41 39/39/39
f 38/38/38 40/40/40 41/41/41
f 39/39/39 41/41/41 42/42/42
f 40/40/40 43/43/43 41/41/41
f 41/41/41 44/44/44 42/42/42
f 41/41/41 43/43/43 44/44/44
f 42/42/42 44/44/44 45/45/45
f 43/43/43 46/46/46 44/44/44
f 44/44/44 47/47/47 45/45/45
f 44/44/44 46/46/46 47/47/47
f 45/45/45 47/47/47 48/48/48
f 46/46/46 49/49/49 47/47/47
f 47/47/47 50/50/50 48/48/48
f 47/47/47 49/49/49 50/50/50
f 48/48/48 50/50/50 51/51/51
f 49/49/49 52/52/52 50/50/50
f 50/50/50 53/53/53 51/51/51
f 50/50/50 52/52/52 53/53/53
f 51/51/51 53/53/53 54/54/54
f 52/52/52 55/55/55 53/53/53
f 53/53/53 56/56/56 54/54/54
f 53/53/53 55/55/55 56/56/56
f 54/54/54 56/56/56 57/57/57
f 55/55/55 58/58/58 56/56/56
f 56/56/56 59/59/59 57/57/57
f 56/56/56 58/58/58 59/59/59
f 57/57/57 59/59/59 60/60/60
f 58/58/58 61/61/61 59/59/59
f 59/59/59 62/62/62 60/60/60
f 59/59/59 61/61/61 62/62/62
f 60/60/60 62/62/62 63/63/63
f 61/61/61 64/64/64 62/62/62
f 62/62/62 65/65/65 63/63/63
f 62/62/62 64/64/64 65/65/65
f 63/63/63 65/65/65 66/66/66
f 64/64/64 67/67/67 65/65/65
f 65/65/65 68/68/68 66/66/66
f 65/65/65 67/67/67 68/68/68
f 66/66/66 68/68/68 69/69/69
f 67/67/67 70/70/70 68/68/68
f 68/68/68 71/71/71 69/69/69
f 68/68/68 70/70/70 71/71/71
f 69/69/69 71/71/71 72/72/72
f 70/70/70 73/73/73 71/71/71
f 71/71/71 74/74/74 72/72/72
f 71/71/71 73/73/73 74/74/74
f 72/72/72 74/74/74 75/75/75
f 73/73/73 76/76/76 74/74/74
f 74/74/74 77/77/77 75/75/75
f 74/74/74 76/76/76 77/77/77
f 75/75/75 77/77/77 78/78/78
f 76/76/76 79/79/79 77/77/77
f 77/77/77 80/80/80 78/78/78
f 77/77/77 79/79/79 80/80/80
f 78/78/78 80/80/80 81/81/81
f 79/79/79 82/82/82 80/80/80
f 80/80/80 83/83/83 81/81/81
f 80/80/80 82/82/82 83/83/83
f 81/81/81 83/83/83 84/84/84
f 82/82/82 85/85/85 83/83/83
f 83/83/83 86/86/86 84/84/84
f 83/83/83 85/85/85 86/86/86
f 84/84/84 86/86/86 87/87/87
f 85/85/85 88/88/88 86/86/86
f 86/86/86 89/89/89 87/87/87
f 86/86/86 88/88/88 89/89/89
f 87/87/87 89/89/89 90/90/90
f 88/88/88 91/91/91 89/89/89
f 89/89/89 92/92/92 90/90/90
f 89/89/89 91/91/91 92/92/92
f 90/90/90 92/92/92 93/93/93
f 91/91/91 94/94/94 92/92/92
f 92/92/92 95/95/95 93/93/93
f 92/92/92 94/94/94 95/95/95
f 93/93/93 95/95/95 96/96/96
f 94/94/94 97/97/97 95/95/95
f 95/95/95 98/98/98 96/96/96
f 95/95/95 97/97/97 98/98/98
f 96/96/96 98/98/98 99/99/99
f 97/97/97 100/100/100 98/98/98
f 98/98/98 101/101/101 99/99/99
f 98/98/98 100/100/100 101/101/101
f 99/99/99 101/101/101 102/102/102
f 100/100/100 103/103/103 101/101/101
f 101/101/101 104/104/104 102/102/102
f 101/101/101 103/103/103 104/104/104
f 102/102/102 104/104/104 105/105/105
f 103/103/103 106/106/106 104/104/104
f 104/104/104 107/107/107 105/105/105
f 104/104/104 106/106/106 107/107/107
f 105/105/105 107/107/107 108/108/108
f 106/106/106 109/109/109 107/107/107
f 107/107/107 110/110/110 108/108/108
f 107/107/107 109/109/109 110/110/110
f 108/108/108 110/110/110 111/111/111
f 109/109/109 112/112/112 110/110/110
f 110/110/110 113/113/113 111/111/111
f 110/110/110 112/112/112 113/113/113
f 111/111/111 113/113/113 114/114/114
f 112/112/112 115/115/115 113/113/113
f 113/113/113 116/116/116 114/114/114
f 113/113/113 115/115/115 116/116/116
f 114/114/114 116/116/116 117/117/117
f 115/115/115 118/118/118 116/116/116
f 116/116/116 119/119/119 117/117/117
f 116/116/116 118/118/118 119/119/119
f 117/117/117 119/119/119 120/120/120
f 118/118/118 121/121/121 119/119/119
f 119/119/119 122/122/122 120/120/120
f 119/119/119 121/121/121 122/122/122
f 120/120/120 122/122/122 123/123/123
f 121/121/121 124/124/124 122/122/122
f 122/122/122 125/125/125 123/123/123
f 122/122/122 124/124/124 125/125/125
f 123/123/123 125/125/125 126/126/126
f 124/124/124 127/127/127 125/125/125
f 125/125/125 128/128/128 126/126/126
f 125/125/125 127/127/127 128/128/128
f 126/126/126 128/128/128 129/129/129
f 127/127/127 130/130/130 128/128/128
f 128/128/128 131/131/131 129/129/129
f 128/128/128 130/130/130 131/131/131
f 129/129/129 131/131/131 132/132/132
f 130/130/130 133/133/133 131/131/131
f 131/131/131 134/134/134 132/132/132
f 131/131/131 133/133/133 134/134/134
f 132/132/132 134/134/134 135/135/135
f 133/133/133 136/136/136 134/134/134
f 134/134/134 137/137/137 135/135/135
f 134/134/134 136/136/136 137/137/137
f 136/136/136 138/138/138 137/137/137
