g Eff_Cone_04
v 0.47615093 2.3937995 0.55537766
v -1.066862E-07 2.4406958 0.55537766
v -1.0049624E-07 2.2990851 0.36185494
v 0.4485244 2.25491 0.36185494
v 0.93400913 2.254911 0.55537766
v -9.3716714E-08 2.1091597 0.19601735
v 0.8798174 2.1240795 0.36185494
v 1.3559738 2.029367 0.55537754
v 0.4114721 2.0686338 0.19601735
v -7.3784236E-08 1.6940825 -1.3772127E-08
v 0.33049548 1.6615318 5.9679245E-08
v 0.80713636 1.9486109 0.19601737
v 0.64829415 1.5651294 5.9679245E-08
v 1.2772995 1.9116219 0.36185488
v 1.7258291 1.7258358 0.5553775
v 1.1717829 1.7537045 0.19601743
v 0.94117904 1.4085798 5.9679245E-08
v 1.6256956 1.6257019 0.36185488
v 2.0293617 1.3559817 0.5553775
v 1.4913981 1.4914038 0.19601743
v 1.1978949 1.1978996 2.2953556E-08
v 1.911617 1.2773067 0.36185488
v 2.2549071 0.9340179 0.5553774
v 1.7536999 1.1717895 0.19601743
v 1.4085765 0.9411846 2.2953559E-08
v 2.1240761 0.8798254 0.36185485
v 2.3937976 0.47616008 0.5553775
v 1.9486079 0.80714387 0.1960174
v 1.565127 0.6483002 2.2953556E-08
v 2.254908 0.448533 0.36185488
v 2.4406958 3.8726907E-06 0.5553775
v 2.068632 0.41147998 0.1960174
v 1.6615307 0.33050185 2.2953556E-08
v 2.2990851 3.6334077E-06 0.36185482
v 2.393799 -0.4761525 0.5553775
v 2.1091597 3.3003937E-06 0.19601735
v 1.6940826 2.6702514E-06 -1.3772134E-08
v 2.2549095 -0.44852588 0.36185482
v 2.2549102 -0.93401045 0.55537754
v 2.0686333 -0.41147357 0.19601732
v 1.6615317 -0.33049664 -1.3772133E-08
v 2.124079 -0.87981886 0.36185485
v 2.0293663 -1.3559752 0.5553775
v 1.9486105 -0.80713767 0.19601732
v 1.565129 -0.648295 -5.0497817E-08
v 1.9116212 -1.2773008 0.36185482
v 1.7258346 -1.7258303 0.5553775
v 1.7537037 -1.1717839 0.19601728
v 1.4085793 -0.9411799 2.2953554E-08
v 1.6257008 -1.6256967 0.36185482
v 1.3559804 -2.0293627 0.5553774
v 1.4914029 -1.4913992 0.19601728
v 1.1978987 -1.1978956 2.2953563E-08
v 1.2773056 -1.9116179 0.36185482
v 0.93401635 -2.2549078 0.5553775
v 1.1717885 -1.7537007 0.19601728
v 0.9411835 -1.4085772 -5.0497825E-08
v 0.8798242 -2.1240768 0.36185473
v 0.47615862 -2.393798 0.5553774
v 0.8071426 -1.9486084 0.19601735
v 0.6482991 -1.5651277 -8.722351E-08
v 0.44853163 -2.2549083 0.36185476
v 2.3567336E-06 -2.4406958 0.5553774
v 0.41147876 -2.0686324 0.19601735
v 0.33050087 -1.661531 -8.722351E-08
v 2.2199947E-06 -2.2990851 0.36185476
v -0.476154 -2.3937988 0.5553774
v 2.0350801E-06 -2.1091597 0.19601735
v 1.636071E-06 -1.6940827 -1.3772133E-08
v -0.44852728 -2.2549093 0.36185473
v -0.934012 -2.2549095 0.5553775
v -0.41147482 -2.068633 0.19601735
v -0.33049765 -1.6615317 -8.7223505E-08
v -0.8798201 -2.1240785 0.36185476
v -1.3559766 -2.0293653 0.5553774
v -0.80713886 -1.9486101 0.19601735
v -0.64829606 -1.5651289 -8.7223505E-08
v -1.2773019 -1.9116205 0.36185482
v -1.7258314 -1.7258337 0.5553775
v -1.171785 -1.753703 0.19601728
v -0.9411809 -1.4085789 -5.0497817E-08
v -1.6256977 -1.6256998 0.36185482
v -2.0293634 -1.3559791 0.5553775
v -1.4914001 -1.4914019 0.19601728
v -1.1978966 -1.197898 2.2953559E-08
v -1.9116187 -1.2773045 0.36185482
v -2.2549083 -0.9340148 0.55537754
v -1.7537014 -1.1717874 0.19601728
v -1.4085777 -0.9411826 2.2953554E-08
v -2.1240773 -0.87982297 0.36185485
v -2.3937984 -0.4761572 0.5553775
v -1.948609 -0.8071414 0.19601732
v -1.5651278 -0.648298 -5.0497825E-08
v -2.2549088 -0.44853026 0.36185482
v -2.4406958 -8.4077715E-07 0.5553775
v -2.0686324 -0.41147757 0.19601732
v -1.6615312 -0.33049986 -1.3772134E-08
v -2.2990851 -8.065808E-07 0.36185482
v -2.3937984 0.47615546 0.5553775
v -2.1091597 -7.7281175E-07 0.19601735
v -1.6940826 -6.013582E-07 -1.3772134E-08
v -2.254909 0.44852865 0.36185488
v -2.254909 0.9340135 0.5553774
v -2.0686328 0.41147602 0.1960174
v -1.6615313 0.3304986 2.2953556E-08
v -2.124078 0.8798213 0.36185485
v -2.0293643 1.3559778 0.5553775
v -1.9486096 0.80714005 0.1960174
v -1.5651284 0.64829713 2.2953556E-08
v -1.9116195 1.2773031 0.36185488
v -1.7258325 1.7258325 0.5553775
v -1.7537022 1.1717861 0.19601743
v -1.4085783 0.94118184 2.2953563E-08
v -1.6256987 1.6256987 0.36185488
v -1.3559778 2.0293643 0.55537754
v -1.4914011 1.4914011 0.19601743
v -1.1978973 1.1978974 2.295356E-08
v -1.2773032 1.9116195 0.36185488
v -0.9340137 2.2549088 0.55537766
v -1.1717862 1.7537022 0.19601743
v -0.9411818 1.4085782 5.967925E-08
v -0.8798218 2.1240778 0.36185494
v -0.47615612 2.3937984 0.55537766
v -0.80714035 1.9486095 0.19601735
v -0.64829725 1.5651281 5.9679245E-08
v -0.44852927 2.2549088 0.36185494
v -1.066862E-07 2.4406958 0.55537766
v -1.0049624E-07 2.2990851 0.36185494
v -0.4114766 2.0686326 0.19601735
v -0.3304991 1.6615312 5.967925E-08
v -9.3716714E-08 2.1091597 0.19601735
v -7.3784236E-08 1.6940825 -1.3772127E-08
vt 0.9668749 0.99859804
vt 0.99799997 0.99859804
vt 0.99799997 0.66639876
vt 0.9668749 0.66639876
vt 0.93574995 0.99859804
vt 0.99799997 0.33419964
vt 0.93574995 0.66639876
vt 0.9046249 0.99859804
vt 0.9668749 0.33419964
vt 0.99799997 0.0020000634
vt 0.9668749 0.0020000634
vt 0.93574995 0.33419964
vt 0.93574995 0.0020000634
vt 0.9046249 0.66639876
vt 0.87349993 0.99859804
vt 0.9046249 0.33419964
vt 0.9046249 0.0020000634
vt 0.87349993 0.66639876
vt 0.84237504 0.99859804
vt 0.87349993 0.33419964
vt 0.87349993 0.0020000634
vt 0.84237504 0.66639876
vt 0.8112499 0.99859804
vt 0.84237504 0.33419964
vt 0.84237504 0.0020000634
vt 0.8112499 0.66639876
vt 0.7801249 0.99859804
vt 0.8112499 0.33419964
vt 0.8112499 0.0020000634
vt 0.7801249 0.66639876
vt 0.7489999 0.99859804
vt 0.7801249 0.33419964
vt 0.7801249 0.0020000634
vt 0.7489999 0.66639876
vt 0.7178749 0.99859804
vt 0.7489999 0.33419964
vt 0.7489999 0.0020000634
vt 0.7178749 0.66639876
vt 0.68674994 0.99859804
vt 0.7178749 0.33419964
vt 0.7178749 0.0020000634
vt 0.68674994 0.66639876
vt 0.65562487 0.99859804
vt 0.68674994 0.33419964
vt 0.68674994 0.0020000634
vt 0.65562487 0.66639876
vt 0.62449986 0.99859804
vt 0.65562487 0.33419964
vt 0.65562487 0.0020000634
vt 0.62449986 0.66639876
vt 0.5933749 0.99859804
vt 0.62449986 0.33419964
vt 0.62449986 0.0020000634
vt 0.5933749 0.66639876
vt 0.5622499 0.99859804
vt 0.5933749 0.33419964
vt 0.5933749 0.0020000634
vt 0.5622499 0.66639876
vt 0.5311249 0.99859804
vt 0.5622499 0.33419964
vt 0.5622499 0.0020000634
vt 0.5311249 0.66639876
vt 0.49999994 0.99859804
vt 0.5311249 0.33419964
vt 0.5311249 0.0020000634
vt 0.49999994 0.66639876
vt 0.4688749 0.99859804
vt 0.49999994 0.33419964
vt 0.49999994 0.0020000634
vt 0.4688749 0.66639876
vt 0.4377499 0.99859804
vt 0.4688749 0.33419964
vt 0.4688749 0.0020000634
vt 0.4377499 0.66639876
vt 0.4066249 0.99859804
vt 0.4377499 0.33419964
vt 0.4377499 0.0020000634
vt 0.4066249 0.66639876
vt 0.3754999 0.99859804
vt 0.4066249 0.33419964
vt 0.4066249 0.0020000634
vt 0.3754999 0.66639876
vt 0.3443749 0.99859804
vt 0.3754999 0.33419964
vt 0.3754999 0.0020000634
vt 0.3443749 0.66639876
vt 0.31324992 0.99859804
vt 0.3443749 0.33419964
vt 0.3443749 0.0020000634
vt 0.31324992 0.66639876
vt 0.2821249 0.99859804
vt 0.31324992 0.33419964
vt 0.31324992 0.0020000634
vt 0.2821249 0.66639876
vt 0.25099993 0.99859804
vt 0.2821249 0.33419964
vt 0.2821249 0.0020000634
vt 0.25099993 0.66639876
vt 0.21987495 0.99859804
vt 0.25099993 0.33419964
vt 0.25099993 0.0020000634
vt 0.21987495 0.66639876
vt 0.18874995 0.99859804
vt 0.21987495 0.33419964
vt 0.21987495 0.0020000634
vt 0.18874995 0.66639876
vt 0.15762497 0.99859804
vt 0.18874995 0.33419964
vt 0.18874995 0.0020000634
vt 0.15762497 0.66639876
vt 0.12649994 0.99859804
vt 0.15762497 0.33419964
vt 0.15762497 0.0020000634
vt 0.12649994 0.66639876
vt 0.09537497 0.99859804
vt 0.12649994 0.33419964
vt 0.12649994 0.0020000634
vt 0.09537497 0.66639876
vt 0.064249985 0.99859804
vt 0.09537497 0.33419964
vt 0.09537497 0.0020000634
vt 0.064249985 0.66639876
vt 0.03312496 0.99859804
vt 0.064249985 0.33419964
vt 0.064249985 0.0020000634
vt 0.03312496 0.66639876
vt 0.002 0.99859804
vt 0.002 0.66639876
vt 0.03312496 0.33419964
vt 0.03312496 0.0020000634
vt 0.002 0.33419964
vt 0.002 0.0020000634
vn 0.15743916 0.79150707 -0.59053326
vn -5.6072315E-07 0.8070134 -0.59053314
vn -5.3144083E-07 0.7399942 -0.6726132
vn 0.14436454 0.7257756 -0.67261326
vn 0.308829 0.74558365 -0.5905334
vn -3.8129141E-07 0.5535751 -0.83279926
vn 0.28318208 0.683666 -0.6726133
vn 0.44835111 0.67100793 -0.5905333
vn 0.10799636 0.5429384 -0.83279926
vn -2.741038E-07 0.4270217 -0.9042413
vn 0.083307244 0.41881666 -0.90424144
vn 0.21184297 0.51143706 -0.83279926
vn 0.1634134 0.39451694 -0.9042413
vn 0.41111743 0.6152835 -0.6726134
vn 0.57064337 0.57064563 -0.59053344
vn 0.3075489 0.4602815 -0.83279926
vn 0.23723994 0.35505617 -0.9042413
vn 0.5232538 0.52325577 -0.6726135
vn 0.6710059 0.44835365 -0.59053373
vn 0.39143592 0.39143744 -0.8327994
vn 0.30194953 0.3019508 -0.90424114
vn 0.61528164 0.41111967 -0.67261356
vn 0.7455822 0.3088318 -0.5905338
vn 0.46028033 0.30755076 -0.83279926
vn 0.35505545 0.23724148 -0.90424114
vn 0.68366474 0.2831846 -0.67261356
vn 0.79150623 0.15744172 -0.5905336
vn 0.51143634 0.21184497 -0.8327992
vn 0.39451665 0.163415 -0.90424126
vn 0.7257749 0.14436692 -0.6726135
vn 0.80701315 1.2202526E-06 -0.5905335
vn 0.5429381 0.10799812 -0.83279926
vn 0.4188168 0.08330863 -0.90424126
vn 0.739994 1.1470466E-06 -0.67261344
vn 0.79150695 -0.15743928 -0.5905333
vn 0.5535751 8.842587E-07 -0.83279926
vn 0.42702192 6.830125E-07 -0.90424126
vn 0.72577554 -0.1443646 -0.6726134
vn 0.7455836 -0.3088294 -0.5905332
vn 0.5429384 -0.107996345 -0.83279926
vn 0.4188169 -0.08330722 -0.90424126
vn 0.68366593 -0.28318244 -0.6726134
vn 0.67100763 -0.4483517 -0.59053314
vn 0.511437 -0.21184318 -0.8327994
vn 0.39451694 -0.16341354 -0.9042413
vn 0.61528313 -0.41111794 -0.67261326
vn 0.5706452 -0.5706439 -0.5905333
vn 0.4602812 -0.30754918 -0.8327994
vn 0.3550559 -0.23724005 -0.9042413
vn 0.52325547 -0.5232542 -0.6726133
vn 0.44835335 -0.6710063 -0.5905334
vn 0.3914372 -0.3914362 -0.83279926
vn 0.3019504 -0.30194953 -0.9042413
vn 0.41111943 -0.61528206 -0.67261344
vn 0.30883142 -0.74558264 -0.5905334
vn 0.30755043 -0.46028048 -0.83279926
vn 0.2372412 -0.35505548 -0.90424126
vn 0.2831842 -0.683665 -0.6726135
vn 0.1574413 -0.79150647 -0.59053344
vn 0.21184461 -0.51143646 -0.83279926
vn 0.16341472 -0.3945169 -0.90424114
vn 0.14436644 -0.72577506 -0.6726135
vn 7.435142E-07 -0.80701333 -0.5905333
vn 0.10799773 -0.54293823 -0.8327992
vn 0.08330833 -0.4188169 -0.90424114
vn 7.0938944E-07 -0.73999405 -0.67261344
vn -0.1574398 -0.791507 -0.5905331
vn 5.4212046E-07 -0.55357516 -0.8327992
vn 3.9318152E-07 -0.42702207 -0.90424114
vn -0.14436504 -0.7257755 -0.6726134
vn -0.30882993 -0.7455834 -0.59053326
vn -0.10799666 -0.54293835 -0.83279926
vn -0.08330749 -0.4188171 -0.90424114
vn -0.28318286 -0.6836656 -0.67261344
vn -0.44835195 -0.6710073 -0.5905335
vn -0.21184362 -0.51143694 -0.8327992
vn -0.16341396 -0.39451712 -0.90424114
vn -0.41111815 -0.6152829 -0.6726135
vn -0.57064414 -0.57064486 -0.5905334
vn -0.3075496 -0.46028107 -0.83279926
vn -0.23724046 -0.3550559 -0.90424126
vn -0.52325445 -0.5232551 -0.6726134
vn -0.67100686 -0.44835287 -0.59053314
vn -0.39143643 -0.39143696 -0.8327994
vn -0.30194983 -0.30195016 -0.9042413
vn -0.6152824 -0.41111904 -0.67261326
vn -0.74558294 -0.30883092 -0.59053326
vn -0.46028063 -0.30755004 -0.83279926
vn -0.35505545 -0.23724075 -0.9042413
vn -0.6836653 -0.2831838 -0.6726133
vn -0.79150665 -0.15744086 -0.59053344
vn -0.5114366 -0.2118442 -0.83279926
vn -0.39451668 -0.16341436 -0.9042413
vn -0.72577524 -0.14436606 -0.67261344
vn -0.8070132 -1.6796999E-07 -0.5905334
vn -0.54293823 -0.10799739 -0.83279926
vn -0.41881672 -0.08330802 -0.90424126
vn -0.73999405 -1.6472264E-07 -0.6726134
vn -0.7915068 0.15744023 -0.5905333
vn -0.5535751 -1.2288064E-07 -0.83279926
vn -0.42702195 0 -0.90424126
vn -0.7257754 0.14436547 -0.6726133
vn -0.745583 0.30883047 -0.59053344
vn -0.54293835 0.107997015 -0.83279926
vn -0.41881695 0.08330776 -0.90424126
vn -0.68366534 0.28318328 -0.67261344
vn -0.67100686 0.44835252 -0.5905336
vn -0.5114367 0.21184394 -0.83279926
vn -0.39451697 0.16341418 -0.90424126
vn -0.6152824 0.41111866 -0.67261356
vn -0.57064444 0.57064444 -0.59053355
vn -0.46028095 0.3075499 -0.8327992
vn -0.35505587 0.23724078 -0.90424114
vn -0.52325475 0.52325475 -0.6726135
vn -0.4483525 0.671007 -0.5905333
vn -0.39143676 0.39143676 -0.8327992
vn -0.3019501 0.30195025 -0.90424114
vn -0.41111872 0.6152826 -0.6726134
vn -0.30883053 0.74558324 -0.590533
vn -0.30754983 0.46028084 -0.83279926
vn -0.2372406 0.35505575 -0.90424126
vn -0.28318343 0.6836656 -0.67261314
vn -0.1574405 0.79150695 -0.590533
vn -0.21184397 0.51143664 -0.83279926
vn -0.16341418 0.3945166 -0.9042413
vn -0.14436571 0.7257755 -0.67261314
vn -5.6072315E-07 0.8070134 -0.59053314
vn -5.3144083E-07 0.7399942 -0.6726132
vn -0.107997164 0.54293835 -0.83279926
vn -0.08330786 0.41881663 -0.9042413
vn -3.8129141E-07 0.5535751 -0.83279926
vn -2.741038E-07 0.4270217 -0.9042413
g Eff_Cone_04_0
f 3/3/3 2/2/2 1/1/1
f 4/4/4 3/3/3 1/1/1
f 4/4/4 1/1/1 5/5/5
f 6/6/6 3/3/3 4/4/4
f 7/7/7 4/4/4 5/5/5
f 7/7/7 5/5/5 8/8/8
f 9/9/9 6/6/6 4/4/4
f 9/9/9 4/4/4 7/7/7
f 10/10/10 6/6/6 9/9/9
f 11/11/11 10/10/10 9/9/9
f 11/11/11 9/9/9 12/12/12
f 12/12/12 9/9/9 7/7/7
f 13/13/13 11/11/11 12/12/12
f 14/14/14 7/7/7 8/8/8
f 12/12/12 7/7/7 14/14/14
f 14/14/14 8/8/8 15/15/15
f 13/13/13 12/12/12 16/16/16
f 16/16/16 12/12/12 14/14/14
f 17/17/17 13/13/13 16/16/16
f 18/18/18 14/14/14 15/15/15
f 16/16/16 14/14/14 18/18/18
f 18/18/18 15/15/15 19/19/19
f 17/17/17 16/16/16 20/20/20
f 20/20/20 16/16/16 18/18/18
f 21/21/21 17/17/17 20/20/20
f 22/22/22 18/18/18 19/19/19
f 20/20/20 18/18/18 22/22/22
f 22/22/22 19/19/19 23/23/23
f 21/21/21 20/20/20 24/24/24
f 24/24/24 20/20/20 22/22/22
f 25/25/25 21/21/21 24/24/24
f 26/26/26 22/22/22 23/23/23
f 24/24/24 22/22/22 26/26/26
f 26/26/26 23/23/23 27/27/27
f 25/25/25 24/24/24 28/28/28
f 28/28/28 24/24/24 26/26/26
f 29/29/29 25/25/25 28/28/28
f 30/30/30 26/26/26 27/27/27
f 28/28/28 26/26/26 30/30/30
f 30/30/30 27/27/27 31/31/31
f 29/29/29 28/28/28 32/32/32
f 32/32/32 28/28/28 30/30/30
f 33/33/33 29/29/29 32/32/32
f 34/34/34 30/30/30 31/31/31
f 32/32/32 30/30/30 34/34/34
f 34/34/34 31/31/31 35/35/35
f 33/33/33 32/32/32 36/36/36
f 36/36/36 32/32/32 34/34/34
f 37/37/37 33/33/33 36/36/36
f 38/38/38 34/34/34 35/35/35
f 36/36/36 34/34/34 38/38/38
f 38/38/38 35/35/35 39/39/39
f 37/37/37 36/36/36 40/40/40
f 40/40/40 36/36/36 38/38/38
f 41/41/41 37/37/37 40/40/40
f 42/42/42 38/38/38 39/39/39
f 40/40/40 38/38/38 42/42/42
f 42/42/42 39/39/39 43/43/43
f 41/41/41 40/40/40 44/44/44
f 44/44/44 40/40/40 42/42/42
f 45/45/45 41/41/41 44/44/44
f 46/46/46 42/42/42 43/43/43
f 44/44/44 42/42/42 46/46/46
f 46/46/46 43/43/43 47/47/47
f 45/45/45 44/44/44 48/48/48
f 48/48/48 44/44/44 46/46/46
f 49/49/49 45/45/45 48/48/48
f 50/50/50 46/46/46 47/47/47
f 48/48/48 46/46/46 50/50/50
f 50/50/50 47/47/47 51/51/51
f 49/49/49 48/48/48 52/52/52
f 52/52/52 48/48/48 50/50/50
f 53/53/53 49/49/49 52/52/52
f 54/54/54 50/50/50 51/51/51
f 52/52/52 50/50/50 54/54/54
f 54/54/54 51/51/51 55/55/55
f 53/53/53 52/52/52 56/56/56
f 56/56/56 52/52/52 54/54/54
f 57/57/57 53/53/53 56/56/56
f 58/58/58 54/54/54 55/55/55
f 56/56/56 54/54/54 58/58/58
f 58/58/58 55/55/55 59/59/59
f 57/57/57 56/56/56 60/60/60
f 60/60/60 56/56/56 58/58/58
f 61/61/61 57/57/57 60/60/60
f 62/62/62 58/58/58 59/59/59
f 60/60/60 58/58/58 62/62/62
f 62/62/62 59/59/59 63/63/63
f 61/61/61 60/60/60 64/64/64
f 64/64/64 60/60/60 62/62/62
f 65/65/65 61/61/61 64/64/64
f 66/66/66 62/62/62 63/63/63
f 64/64/64 62/62/62 66/66/66
f 66/66/66 63/63/63 67/67/67
f 65/65/65 64/64/64 68/68/68
f 68/68/68 64/64/64 66/66/66
f 69/69/69 65/65/65 68/68/68
f 70/70/70 66/66/66 67/67/67
f 68/68/68 66/66/66 70/70/70
f 70/70/70 67/67/67 71/71/71
f 69/69/69 68/68/68 72/72/72
f 72/72/72 68/68/68 70/70/70
f 73/73/73 69/69/69 72/72/72
f 74/74/74 70/70/70 71/71/71
f 72/72/72 70/70/70 74/74/74
f 74/74/74 71/71/71 75/75/75
f 73/73/73 72/72/72 76/76/76
f 76/76/76 72/72/72 74/74/74
f 77/77/77 73/73/73 76/76/76
f 78/78/78 74/74/74 75/75/75
f 76/76/76 74/74/74 78/78/78
f 78/78/78 75/75/75 79/79/79
f 77/77/77 76/76/76 80/80/80
f 80/80/80 76/76/76 78/78/78
f 81/81/81 77/77/77 80/80/80
f 82/82/82 78/78/78 79/79/79
f 80/80/80 78/78/78 82/82/82
f 82/82/82 79/79/79 83/83/83
f 81/81/81 80/80/80 84/84/84
f 84/84/84 80/80/80 82/82/82
f 85/85/85 81/81/81 84/84/84
f 86/86/86 82/82/82 83/83/83
f 84/84/84 82/82/82 86/86/86
f 86/86/86 83/83/83 87/87/87
f 85/85/85 84/84/84 88/88/88
f 88/88/88 84/84/84 86/86/86
f 89/89/89 85/85/85 88/88/88
f 90/90/90 86/86/86 87/87/87
f 88/88/88 86/86/86 90/90/90
f 90/90/90 87/87/87 91/91/91
f 89/89/89 88/88/88 92/92/92
f 92/92/92 88/88/88 90/90/90
f 93/93/93 89/89/89 92/92/92
f 94/94/94 90/90/90 91/91/91
f 92/92/92 90/90/90 94/94/94
f 94/94/94 91/91/91 95/95/95
f 93/93/93 92/92/92 96/96/96
f 96/96/96 92/92/92 94/94/94
f 97/97/97 93/93/93 96/96/96
f 98/98/98 94/94/94 95/95/95
f 96/96/96 94/94/94 98/98/98
f 98/98/98 95/95/95 99/99/99
f 97/97/97 96/96/96 100/100/100
f 100/100/100 96/96/96 98/98/98
f 101/101/101 97/97/97 100/100/100
f 102/102/102 98/98/98 99/99/99
f 100/100/100 98/98/98 102/102/102
f 102/102/102 99/99/99 103/103/103
f 101/101/101 100/100/100 104/104/104
f 104/104/104 100/100/100 102/102/102
f 105/105/105 101/101/101 104/104/104
f 106/106/106 102/102/102 103/103/103
f 104/104/104 102/102/102 106/106/106
f 106/106/106 103/103/103 107/107/107
f 105/105/105 104/104/104 108/108/108
f 108/108/108 104/104/104 106/106/106
f 109/109/109 105/105/105 108/108/108
f 110/110/110 106/106/106 107/107/107
f 108/108/108 106/106/106 110/110/110
f 110/110/110 107/107/107 111/111/111
f 109/109/109 108/108/108 112/112/112
f 112/112/112 108/108/108 110/110/110
f 113/113/113 109/109/109 112/112/112
f 114/114/114 110/110/110 111/111/111
f 112/112/112 110/110/110 114/114/114
f 114/114/114 111/111/111 115/115/115
f 113/113/113 112/112/112 116/116/116
f 116/116/116 112/112/112 114/114/114
f 117/117/117 113/113/113 116/116/116
f 118/118/118 114/114/114 115/115/115
f 116/116/116 114/114/114 118/118/118
f 118/118/118 115/115/115 119/119/119
f 117/117/117 116/116/116 120/120/120
f 120/120/120 116/116/116 118/118/118
f 121/121/121 117/117/117 120/120/120
f 122/122/122 118/118/118 119/119/119
f 120/120/120 118/118/118 122/122/122
f 122/122/122 119/119/119 123/123/123
f 121/121/121 120/120/120 124/124/124
f 124/124/124 120/120/120 122/122/122
f 125/125/125 121/121/121 124/124/124
f 126/126/126 122/122/122 123/123/123
f 124/124/124 122/122/122 126/126/126
f 126/126/126 123/123/123 127/127/127
f 128/128/128 126/126/126 127/127/127
f 125/125/125 124/124/124 129/129/129
f 129/129/129 124/124/124 126/126/126
f 129/129/129 126/126/126 128/128/128
f 130/130/130 125/125/125 129/129/129
f 131/131/131 129/129/129 128/128/128
f 130/130/130 129/129/129 131/131/131
f 132/132/132 130/130/130 131/131/131
