g smoke_01_alpha_l
v 1.1347736 0.0038608217 0.105909124
v 1.3572253 0.20412572 0.2668089
v 1.2174436 0.0038608217 0.1134397
v 1.2603831 0.18056999 0.23882368
v 1.3650935 0.38720253 0.33034992
v 1.0434971 0.0038608217 0.09759455
v 1.2768043 0.34463722 0.29766518
v 1.241087 0.55309135 0.3395221
v 1.158432 0.1588705 0.21142472
v 0.9436141 0.0038608217 0.08849602
v 1.1839551 0.49606246 0.31241524
v 0.9867273 0.7017921 0.29473174
v 0.9830438 0.63484585 0.2836237
v 1.0513674 0.13902721 0.1847353
v 0.8351245 0.0038608192 0.0786135
v 1.1843432 0.3051141 0.2657014
v 1.1211033 0.44259155 0.28499016
v 0.96965957 0.57130295 0.2698818
v 0.93918717 0.12104016 0.15887113
v 0.7180286 0.0038608192 0.067947
v 1.0877033 0.26863322 0.23458871
v 1.0525043 0.39267868 0.2574232
v 0.9465011 0.51116383 0.2537762
v 0.8218935 0.10490937 0.13393472
v 0.5923262 0.0038608192 0.056496516
v 0.9868805 0.23519452 0.20445548
v 0.97813195 0.3463239 0.22989424
v 0.91349715 0.45442832 0.23558605
v 0.69949275 0.09063477 0.11000676
v 0.45801735 0.0038608192 0.04426205
v 0.88187516 0.20479812 0.17542559
v 0.8979638 0.3035272 0.20258556
v 0.87058073 0.4010965 0.21560083
v 0.5719969 0.078216396 0.08713478
v 0.31510216 0.0038608192 0.031243613
v 0.77269095 0.177444 0.14761254
v 0.8119816 0.2642885 0.17568037
v 0.8176875 0.35116827 0.19412054
v 0.4394247 0.06765427 0.065317504
v 0.16358039 0.0038608168 0.017441195
v 0.6593376 0.1531321 0.12111209
v 0.72017175 0.22860783 0.14935912
v 0.7547575 0.30464366 0.17145656
v 0.30180207 0.0589484 0.044485703
v 0.0034521697 0.0038608168 0.0028547922
v 0.15916418 0.052098732 0.02448136
v 0.5418304 0.1318624 0.09599032
v 0.62252533 0.19648519 0.12379425
v 0.681735 0.26152274 0.1479323
v 0.42019293 0.113635026 0.072267346
v 0.29445758 0.098449856 0.049894884
v 0.5190404 0.16792072 0.0991418
v 0.5985687 0.2218054 0.12388339
v 0.40972248 0.14291419 0.07552817
v 0.50521296 0.18549176 0.09965741
vt 0.9000001 0
vt 1.0000001 0.25
vt 1.0000001 0
vt 0.9000001 0.25
vt 1.0000001 0.5
vt 0.8000001 0
vt 0.9000001 0.5
vt 1.0000001 0.75
vt 0.8000001 0.25
vt 0.70000005 0
vt 0.9000001 0.75
vt 1.0000001 1
vt 0.9000001 1
vt 0.70000005 0.25
vt 0.6 0
vt 0.8000001 0.5
vt 0.8000001 0.75
vt 0.8000001 1
vt 0.6 0.25
vt 0.5 0
vt 0.70000005 0.5
vt 0.70000005 0.75
vt 0.70000005 1
vt 0.5 0.25
vt 0.4 0
vt 0.6 0.5
vt 0.6 0.75
vt 0.6 1
vt 0.4 0.25
vt 0.3 0
vt 0.5 0.5
vt 0.5 0.75
vt 0.5 1
vt 0.3 0.25
vt 0.2 0
vt 0.4 0.5
vt 0.4 0.75
vt 0.4 1
vt 0.2 0.25
vt 0.1 0
vt 0.3 0.5
vt 0.3 0.75
vt 0.3 1
vt 0.1 0.25
vt 0 0
vt 0 0.25
vt 0.2 0.5
vt 0.2 0.75
vt 0.2 1
vt 0.1 0.5
vt 0 0.5
vt 0.1 0.75
vt 0.1 1
vt 0 0.75
vt 0 1
vn -0.0907851 0 0.99587053
vn -0.18921526 0 0.9819357
vn -0.0907851 0 0.99587053
vn -0.18160424 0 0.9833717
vn -0.23048541 0 0.9730758
vn -0.0907851 0 0.99587053
vn -0.22278339 0 0.97486806
vn -0.2586598 0 0.96596843
vn -0.17546059 0 0.9844865
vn -0.0907851 0 0.99587053
vn -0.24948575 0 0.9683784
vn -0.27920166 0 0.96023244
vn -0.27008268 0 0.96283716
vn -0.16860385 0 0.9856839
vn -0.09078941 0 0.99587005
vn -0.21438514 0 0.9767493
vn -0.24105455 0 0.97051156
vn -0.26093784 0 0.9653556
vn -0.1624966 0 0.9867091
vn -0.09078941 0 0.99587005
vn -0.20601049 0 0.9785498
vn -0.23188695 0 0.9727428
vn -0.252484 0 0.9676011
vn -0.15563935 0 0.98781395
vn -0.09078941 0 0.99587005
vn -0.1976199 0 0.98027873
vn -0.22278339 0 0.97486806
vn -0.2426254 0 0.9701201
vn -0.14953418 0 0.9887566
vn -0.09078941 0 0.99587005
vn -0.18921526 0 0.9819357
vn -0.21365708 0 0.97690874
vn -0.23341621 0 0.9723769
vn -0.1438108 0 0.9896052
vn -0.090787254 0 0.9958703
vn -0.18157017 0 0.98337793
vn -0.20520306 0 0.9787194
vn -0.22354983 0 0.97469246
vn -0.13847667 0 0.9903656
vn -0.09078941 0 0.99587005
vn -0.17393221 0 0.98475766
vn -0.1960611 0 0.9805917
vn -0.21438514 0 0.9767493
vn -0.13389386 0 0.9909957
vn -0.090718195 0 0.99587655
vn -0.12988956 0 0.9915285
vn -0.16631629 0 0.9860724
vn -0.1869193 0 0.9823753
vn -0.20445308 0 0.97887635
vn -0.1594483 0 0.9872062
vn -0.15296723 0 0.98823124
vn -0.17853293 0 0.98393387
vn -0.19417171 0 0.9809676
vn -0.17013365 0 0.985421
vn -0.18386818 0 0.98295087
g smoke_01_alpha_l_0
f 3/3/3 2/2/2 1/1/1
f 4/4/4 1/1/1 2/2/2
f 2/2/2 5/5/5 4/4/4
f 1/1/1 4/4/4 6/6/6
f 7/7/7 4/4/4 5/5/5
f 5/5/5 8/8/8 7/7/7
f 9/9/9 6/6/6 4/4/4
f 4/4/4 7/7/7 9/9/9
f 6/6/6 9/9/9 10/10/10
f 11/11/11 7/7/7 8/8/8
f 8/8/8 12/12/12 11/11/11
f 13/13/13 11/11/11 12/12/12
f 14/14/14 10/10/10 9/9/9
f 10/10/10 14/14/14 15/15/15
f 16/16/16 9/9/9 7/7/7
f 7/7/7 11/11/11 16/16/16
f 9/9/9 16/16/16 14/14/14
f 11/11/11 13/13/13 17/17/17
f 17/17/17 16/16/16 11/11/11
f 18/18/18 17/17/17 13/13/13
f 19/19/19 15/15/15 14/14/14
f 15/15/15 19/19/19 20/20/20
f 21/21/21 14/14/14 16/16/16
f 16/16/16 17/17/17 21/21/21
f 14/14/14 21/21/21 19/19/19
f 17/17/17 18/18/18 22/22/22
f 22/22/22 21/21/21 17/17/17
f 23/23/23 22/22/22 18/18/18
f 24/24/24 20/20/20 19/19/19
f 20/20/20 24/24/24 25/25/25
f 26/26/26 19/19/19 21/21/21
f 21/21/21 22/22/22 26/26/26
f 19/19/19 26/26/26 24/24/24
f 22/22/22 23/23/23 27/27/27
f 27/27/27 26/26/26 22/22/22
f 28/28/28 27/27/27 23/23/23
f 29/29/29 25/25/25 24/24/24
f 25/25/25 29/29/29 30/30/30
f 31/31/31 24/24/24 26/26/26
f 26/26/26 27/27/27 31/31/31
f 24/24/24 31/31/31 29/29/29
f 27/27/27 28/28/28 32/32/32
f 32/32/32 31/31/31 27/27/27
f 33/33/33 32/32/32 28/28/28
f 34/34/34 30/30/30 29/29/29
f 30/30/30 34/34/34 35/35/35
f 36/36/36 29/29/29 31/31/31
f 31/31/31 32/32/32 36/36/36
f 29/29/29 36/36/36 34/34/34
f 32/32/32 33/33/33 37/37/37
f 37/37/37 36/36/36 32/32/32
f 38/38/38 37/37/37 33/33/33
f 39/39/39 35/35/35 34/34/34
f 35/35/35 39/39/39 40/40/40
f 41/41/41 34/34/34 36/36/36
f 36/36/36 37/37/37 41/41/41
f 34/34/34 41/41/41 39/39/39
f 37/37/37 38/38/38 42/42/42
f 42/42/42 41/41/41 37/37/37
f 43/43/43 42/42/42 38/38/38
f 44/44/44 40/40/40 39/39/39
f 40/40/40 44/44/44 45/45/45
f 46/46/46 45/45/45 44/44/44
f 47/47/47 39/39/39 41/41/41
f 41/41/41 42/42/42 47/47/47
f 39/39/39 47/47/47 44/44/44
f 42/42/42 43/43/43 48/48/48
f 48/48/48 47/47/47 42/42/42
f 49/49/49 48/48/48 43/43/43
f 44/44/44 50/50/50 46/46/46
f 50/50/50 44/44/44 47/47/47
f 47/47/47 48/48/48 50/50/50
f 51/51/51 46/46/46 50/50/50
f 48/48/48 49/49/49 52/52/52
f 52/52/52 50/50/50 48/48/48
f 50/50/50 52/52/52 51/51/51
f 53/53/53 52/52/52 49/49/49
f 54/54/54 51/51/51 52/52/52
f 52/52/52 53/53/53 54/54/54
f 55/55/55 54/54/54 53/53/53
