g Eff_Spe_003_LC
v 7.699095E-08 -0.27851 -5E-07
v 1.4617119E-07 -0.52876526 -4.78122E-07
v -0.10315685 -0.5186053 -4.7059262E-07
v -0.05433454 -0.2731586 -4.9439456E-07
v -0.20234959 -0.4885155 -4.6410776E-07
v -0.10658111 -0.25730976 -4.8933924E-07
v -0.29376614 -0.43965235 -4.5878338E-07
v -0.15473182 -0.23157267 -4.848952E-07
v -0.3738934 -0.37389362 -4.54691E-07
v -0.19693628 -0.19693641 -4.811001E-07
v -0.4396522 -0.29376635 -4.5185476E-07
v -0.23157258 -0.15473194 -4.779666E-07
v -0.48851538 -0.20234984 -4.502505E-07
v -0.25730968 -0.10658126 -4.75482E-07
v -0.5186052 -0.10315712 -4.4980678E-07
v -0.27315852 -0.054334678 -4.736087E-07
v -0.52876526 -1.5258789E-07 -4.5040753E-07
v -0.27851003 -7.6293944E-08 -4.7228554E-07
v -0.51860523 0.10315685 -4.5189643E-07
v -0.27315855 0.054334525 -4.7143016E-07
v -0.4885155 0.2023496 -4.5408328E-07
v -0.25730973 0.10658109 -4.709424E-07
v -0.43965235 0.29376614 -4.5675077E-07
v -0.23157266 0.15473182 -4.7070785E-07
v -0.37389362 0.3738934 -4.5966334E-07
v -0.19693637 0.19693628 -4.7060234E-07
v -0.29376635 0.4396522 -4.625759E-07
v -0.15473193 0.23157258 -4.7049687E-07
v -0.20234981 0.48851538 -4.6524346E-07
v -0.106581226 0.25730968 -4.702623E-07
v -0.10315709 0.5186052 -4.6743025E-07
v -0.054334663 0.27315852 -4.6977453E-07
v -8.745192E-08 0.52876526 -4.6891918E-07
v -4.606248E-08 0.27851 -4.6891918E-07
v 0.10315692 0.51860523 -4.695199E-07
v 0.054334573 0.27315852 -4.6759604E-07
v 0.20234966 0.48851547 -4.690762E-07
v 0.106581144 0.2573097 -4.6572268E-07
v 0.2937662 0.43965232 -4.6747198E-07
v 0.15473185 0.23157263 -4.6323814E-07
v 0.3738935 0.3738936 -4.6463572E-07
v 0.1969363 0.19693634 -4.6010462E-07
v 0.43965223 0.2937663 -4.6054333E-07
v 0.23157263 0.15473188 -4.5630952E-07
v 0.48851544 0.20234974 -4.5521898E-07
v 0.2573097 0.106581174 -4.5186547E-07
v 0.51860523 0.103157006 -4.4873408E-07
v 0.27315852 0.0543346 -4.468102E-07
v 0.52876526 0 -4.4120475E-07
v 0.27851003 0 -4.4120475E-07
v 0.51860523 -0.10315704 -4.327872E-07
v 0.27315852 -0.05433464 -4.3513145E-07
v 0.48851544 -0.20234977 -4.2367176E-07
v 0.2573097 -0.10658119 -4.2869064E-07
v 0.4396523 -0.2937663 -4.1407566E-07
v 0.23157263 -0.1547319 -4.219966E-07
v 0.3738935 -0.37389353 -4.0423444E-07
v 0.19693632 -0.19693637 -4.1517347E-07
v 0.29376623 -0.4396523 -3.9439328E-07
v 0.15473185 -0.23157264 -4.0835033E-07
v 0.20234968 -0.4885155 -3.8479715E-07
v 0.10658115 -0.25730976 -4.016563E-07
v 0.10315695 -0.51860523 -3.7568174E-07
v 0.05433459 -0.27315852 -3.9521547E-07
v -4.6226127E-08 -0.52876526 -3.6726416E-07
v -2.4348116E-08 -0.27851 -3.8914217E-07
vt 0 0
vt 0 1
vt 0.03125 1
vt 0.03125 0
vt 0.0625 1
vt 0.0625 0
vt 0.09375 1
vt 0.09375 0
vt 0.125 1
vt 0.125 0
vt 0.15625 1
vt 0.15625 0
vt 0.1875 1
vt 0.1875 0
vt 0.21875 1
vt 0.21875 0
vt 0.25 1
vt 0.25 0
vt 0.28125 1
vt 0.28125 0
vt 0.3125 1
vt 0.3125 0
vt 0.34375 1
vt 0.34375 0
vt 0.375 1
vt 0.375 0
vt 0.40625 1
vt 0.40625 0
vt 0.4375 1
vt 0.4375 0
vt 0.46875 1
vt 0.46875 0
vt 0.5 1
vt 0.5 0
vt 0.53125 1
vt 0.53125 0
vt 0.5625 1
vt 0.5625 0
vt 0.59375 1
vt 0.59375 0
vt 0.625 1
vt 0.625 0
vt 0.65625 1
vt 0.65625 0
vt 0.6875 1
vt 0.6875 0
vt 0.71875 1
vt 0.71875 0
vt 0.75 1
vt 0.75 0
vt 0.78125 1
vt 0.78125 0
vt 0.8125 1
vt 0.8125 0
vt 0.84375 1
vt 0.84375 0
vt 0.875 1
vt 0.875 0
vt 0.90625 1
vt 0.90625 0
vt 0.9375 1
vt 0.9375 0
vt 0.96875 1
vt 0.96875 0
vt 1 1
vt 1 0
vn -0 0 1
vn -0 0 1
vn -0 0 1
vn -0 0 1
vn 1.0069324E-07 0 1
vn 1.0069324E-07 0 1
vn 1.04224E-07 0 1
vn 1.04224E-07 0 1
vn 1.0542928E-07 0 1
vn 1.0542928E-07 0 1
vn 1.04262746E-07 0 1
vn 1.04262746E-07 0 1
vn 1.0076931E-07 0 1
vn 1.00769306E-07 0 1
vn -0 0 1
vn -0 0 1
vn -0 0 1
vn -0 0 1
vn -0 0 1
vn -0 0 1
vn -0 0 1
vn -0 0 1
vn -0 0 1
vn -0 0 1
vn -0 0 1
vn -0 0 1
vn -0 0 1
vn -0 0 1
vn -0 0 1
vn -0 0 1
vn -0 0 1
vn -0 0 1
vn -0 0 1
vn -0 0 1
vn -0 0 1
vn -0 0 1
vn -0 0 1
vn -0 0 1
vn -0 0 1
vn -0 0 1
vn -0 0 1
vn -0 0 1
vn -0 0 1
vn -0 0 1
vn -0 0 1
vn -0 0 1
vn -0 0 1
vn -0 0 1
vn -0 0 1
vn -0 0 1
vn -0 0 1
vn -0 0 1
vn -0 1.0069327E-07 1
vn -0 1.00693256E-07 1
vn -0 1.04224E-07 1
vn -0 1.04224E-07 1
vn -0 1.05429265E-07 1
vn -0 1.0542925E-07 1
vn -0 1.0426276E-07 1
vn -0 1.0426276E-07 1
vn -0 1.00769306E-07 1
vn -0 1.00769306E-07 1
vn -0 0 1
vn -0 0 1
vn -0 0 1
vn -0 0 1
g Eff_Spe_003_LC_0
f 3/3/3 2/2/2 1/1/1
f 4/4/4 3/3/3 1/1/1
f 5/5/5 3/3/3 4/4/4
f 6/6/6 5/5/5 4/4/4
f 7/7/7 5/5/5 6/6/6
f 8/8/8 7/7/7 6/6/6
f 9/9/9 7/7/7 8/8/8
f 10/10/10 9/9/9 8/8/8
f 11/11/11 9/9/9 10/10/10
f 12/12/12 11/11/11 10/10/10
f 13/13/13 11/11/11 12/12/12
f 14/14/14 13/13/13 12/12/12
f 15/15/15 13/13/13 14/14/14
f 16/16/16 15/15/15 14/14/14
f 17/17/17 15/15/15 16/16/16
f 18/18/18 17/17/17 16/16/16
f 19/19/19 17/17/17 18/18/18
f 20/20/20 19/19/19 18/18/18
f 21/21/21 19/19/19 20/20/20
f 22/22/22 21/21/21 20/20/20
f 23/23/23 21/21/21 22/22/22
f 24/24/24 23/23/23 22/22/22
f 25/25/25 23/23/23 24/24/24
f 26/26/26 25/25/25 24/24/24
f 27/27/27 25/25/25 26/26/26
f 28/28/28 27/27/27 26/26/26
f 29/29/29 27/27/27 28/28/28
f 30/30/30 29/29/29 28/28/28
f 31/31/31 29/29/29 30/30/30
f 32/32/32 31/31/31 30/30/30
f 33/33/33 31/31/31 32/32/32
f 34/34/34 33/33/33 32/32/32
f 35/35/35 33/33/33 34/34/34
f 36/36/36 35/35/35 34/34/34
f 37/37/37 35/35/35 36/36/36
f 38/38/38 37/37/37 36/36/36
f 39/39/39 37/37/37 38/38/38
f 40/40/40 39/39/39 38/38/38
f 41/41/41 39/39/39 40/40/40
f 42/42/42 41/41/41 40/40/40
f 43/43/43 41/41/41 42/42/42
f 44/44/44 43/43/43 42/42/42
f 45/45/45 43/43/43 44/44/44
f 46/46/46 45/45/45 44/44/44
f 47/47/47 45/45/45 46/46/46
f 48/48/48 47/47/47 46/46/46
f 49/49/49 47/47/47 48/48/48
f 50/50/50 49/49/49 48/48/48
f 51/51/51 49/49/49 50/50/50
f 52/52/52 51/51/51 50/50/50
f 53/53/53 51/51/51 52/52/52
f 54/54/54 53/53/53 52/52/52
f 55/55/55 53/53/53 54/54/54
f 56/56/56 55/55/55 54/54/54
f 57/57/57 55/55/55 56/56/56
f 58/58/58 57/57/57 56/56/56
f 59/59/59 57/57/57 58/58/58
f 60/60/60 59/59/59 58/58/58
f 61/61/61 59/59/59 60/60/60
f 62/62/62 61/61/61 60/60/60
f 63/63/63 61/61/61 62/62/62
f 64/64/64 63/63/63 62/62/62
f 65/65/65 63/63/63 64/64/64
f 66/66/66 65/65/65 64/64/64
