g Daoguang_main01
v -0.82117623 -0.43892923 -0.07558632
v -1.5382178 -1.0278064 -3.0517577E-07
v -0.7741994 -0.517305 -0.07558632
v -1.6315534 -0.8720856 -2.8610228E-07
v -0.7741994 -0.517305 0.075586244
v -0.8602446 -0.35632637 -0.07558632
v -0.82117623 -0.43892923 0.075586244
v -1.7091764 -0.70796597 -2.8610228E-07
v -0.89102817 -0.27029184 -0.07558632
v -0.8602446 -0.35632637 0.075586244
v -1.770339 -0.53702825 -2.8610228E-07
v -0.91323096 -0.18165426 -0.07558632
v -0.89102817 -0.2702918 0.075586244
v -1.8144525 -0.36091867 -2.8610228E-07
v -0.9266386 -0.09126725 -0.075586334
v -0.91323096 -0.18165421 0.0755862
v -1.8410915 -0.18133326 -2.670288E-07
v -0.93112236 -1.2772982E-06 -0.0755863
v -0.9266386 -0.09126723 0.0755862
v -1.8499999 -1.484955E-06 -2.670288E-07
v -0.9266387 0.09126467 -0.0755863
v -0.93112236 -1.2729062E-06 0.0755862
v -1.8410918 0.1813303 -2.670288E-07
v -0.9132312 0.1816517 -0.07558628
v -0.9266387 0.091264695 0.07558632
v -1.8144529 0.36091578 -2.479553E-07
v -0.89102864 0.27028933 -0.07558632
v -0.9132312 0.18165174 0.07558632
v -1.77034 0.53702545 -2.479553E-07
v -0.86024517 0.35632393 -0.07558632
v -0.89102864 0.27028936 0.07558628
v -1.7091776 0.7079632 -2.479553E-07
v -0.8211769 0.43892688 -0.07558632
v -0.86024517 0.35632393 0.07558628
v -1.6315548 0.87208295 -2.479553E-07
v -0.77420026 0.51730275 -0.07558632
v -0.8211769 0.43892688 0.07558628
v -1.5382195 1.0278041 -2.2888183E-07
v -0.7197677 0.5906967 -0.07558628
v -0.77420026 0.51730275 0.07558628
v -1.43007 1.1736268 -2.2888183E-07
v -0.6584033 0.6584019 -0.07558632
v -0.7197677 0.5906967 0.07558628
v -1.3081481 1.308147 -2.2888183E-07
v -0.5906981 0.7197663 -0.0755863
v -0.6584033 0.6584019 0.07558616
v -1.1736282 1.4300687 -2.2888183E-07
v -0.5173042 0.77419895 -0.0755863
v -0.5906981 0.7197663 0.075586244
v -1.0278054 1.5382184 -2.0980835E-07
v -0.43892837 0.82117575 -0.0755863
v -0.5173042 0.77419895 0.075586244
v -0.8720845 1.6315541 -2.0980835E-07
v -0.35632545 0.860244 -0.0755863
v -0.43892837 0.82117575 0.075586356
v -0.70796484 1.7091768 -2.0980835E-07
v -0.27029094 0.8910277 -0.0755863
v -0.35632545 0.860244 0.075586356
v -0.5370272 1.7703395 -2.0980835E-07
v -0.18165334 0.91323024 -0.0755863
v -0.27029094 0.8910277 0.075586356
v -0.36091754 1.8144526 -2.0980835E-07
v -0.09126633 0.92663795 -0.0755863
v -0.18165334 0.91323024 0.075586356
v -0.18133208 1.8410918 -2.0980835E-07
v -3.6248719E-07 0.9311216 -0.0755863
v -0.09126633 0.92663795 0.075586356
v -3.0140328E-07 1.8499999 -2.0980835E-07
v 0.0912656 0.92663795 -0.0755863
v -3.6248719E-07 0.9311216 0.075586356
v 0.18133147 1.8410918 -2.0980835E-07
v 0.18165262 0.91323036 -0.0755863
v 0.0912656 0.92663795 0.075586356
v 0.36091694 1.8144528 -2.0980835E-07
v 0.27029023 0.89102775 -0.0755863
v 0.18165262 0.91323036 0.075586356
v 0.5370265 1.7703396 -2.0980835E-07
v 0.3563248 0.8602441 -0.0755863
v 0.27029023 0.89102775 0.075586356
v 0.7079643 1.709177 -2.0980835E-07
v 0.43892777 0.8211758 -0.0755863
v 0.3563248 0.8602441 0.075586356
v 0.872084 1.6315542 -2.0980835E-07
v 0.5173036 0.7741991 -0.0755863
v 0.43892777 0.8211758 0.075586356
v 1.0278051 1.5382186 -2.0980835E-07
v 0.59069747 0.7197665 -0.0755863
v 0.5173036 0.7741991 0.075586244
v 1.1736276 1.4300692 -2.2888183E-07
v 0.65840256 0.65840226 -0.07558632
v 0.59069747 0.7197665 0.075586244
v 1.3081475 1.3081475 -2.2888183E-07
v 0.7197669 0.59069705 -0.07558628
v 0.65840256 0.65840226 0.07558616
v 1.4300694 1.1736275 -2.2888183E-07
v 0.7741994 0.51730317 -0.07558632
v 0.7197669 0.59069705 0.07558628
v 1.5382186 1.027805 -2.2888183E-07
v 0.8211761 0.43892738 -0.07558632
v 0.7741994 0.51730317 0.07558628
v 1.6315542 0.87208396 -2.479553E-07
v 0.86024445 0.3563245 -0.07558632
v 0.8211761 0.43892738 0.07558628
v 1.709177 0.70796436 -2.479553E-07
v 0.89102805 0.2702899 -0.07558632
v 0.86024445 0.3563245 0.07558628
v 1.7703396 0.53702664 -2.479553E-07
v 0.9132306 0.18165235 -0.07558628
v 0.89102805 0.27028996 0.07558628
v 1.8144526 0.3609171 -2.479553E-07
v 0.92663825 0.09126538 -0.0755863
v 0.9132306 0.18165238 0.07558632
v 1.8410918 0.18133171 -2.670288E-07
v 0.9311219 -5.299066E-07 -0.0755863
v 0.92663825 0.0912654 0.07558632
v 1.8499999 0 -2.670288E-07
v 0.9266378 -0.09126965 -0.075586334
v 0.9311219 -5.2551434E-07 0.0755862
v 1.8410909 -0.18133804 -2.670288E-07
v 0.91323006 -0.18165642 -0.07558632
v 0.9266378 -0.091269635 0.0755862
v 1.8144516 -0.36092296 -2.8610228E-07
v 0.8910272 -0.2702937 -0.07558632
v 0.91323006 -0.18165638 0.0755862
v 1.7703379 -0.537032 -2.8610228E-07
v 0.8602434 -0.35632795 -0.07558632
v 0.8910272 -0.27029368 0.075586244
v 1.7091751 -0.7079692 -2.8610228E-07
v 0.82117504 -0.43893063 -0.07558632
v 0.8602434 -0.35632795 0.075586244
v 1.6315521 -0.8720882 -2.8610228E-07
v 0.77419823 -0.51730615 -0.07558632
v 0.82117504 -0.43893063 0.075586244
v 1.5382162 -1.0278087 -3.0517577E-07
v 0.77419823 -0.51730615 0.075586244
vt 0.964924 0.014671059
vt 0.98901844 0.98732895
vt 0.98706234 0.014671059
vt 0.9668801 0.98732895
vt 0.98706234 0.014671059
vt 0.94278586 0.014671059
vt 0.964924 0.014671059
vt 0.94474185 0.98732895
vt 0.92064774 0.014671059
vt 0.94278586 0.014671059
vt 0.9226037 0.98732895
vt 0.8985095 0.014671059
vt 0.92064774 0.014671059
vt 0.9004655 0.98732895
vt 0.87637126 0.014671059
vt 0.8985095 0.014671059
vt 0.87832737 0.98732895
vt 0.85423315 0.014671059
vt 0.87637126 0.014671059
vt 0.85618913 0.98732895
vt 0.8320949 0.014671059
vt 0.85423315 0.014671059
vt 0.8340509 0.98732895
vt 0.8099568 0.014671059
vt 0.8320949 0.014671059
vt 0.8119128 0.98732895
vt 0.78781855 0.014671059
vt 0.8099568 0.014671059
vt 0.78977466 0.98732895
vt 0.76568043 0.014671059
vt 0.78781855 0.014671059
vt 0.7676364 0.98732895
vt 0.7435422 0.014671059
vt 0.76568043 0.014671059
vt 0.7454983 0.98732895
vt 0.7214041 0.014671059
vt 0.7435422 0.014671059
vt 0.72336006 0.98732895
vt 0.69926584 0.014671059
vt 0.7214041 0.014671059
vt 0.70122194 0.98732895
vt 0.6771277 0.014671059
vt 0.69926584 0.014671059
vt 0.6790837 0.98732895
vt 0.6549895 0.014671059
vt 0.6771277 0.014671059
vt 0.6569456 0.98732895
vt 0.63285136 0.014671059
vt 0.6549895 0.014671059
vt 0.63480735 0.98732895
vt 0.6107131 0.014671059
vt 0.63285136 0.014671059
vt 0.6126691 0.98732895
vt 0.58857477 0.014671059
vt 0.6107131 0.014671059
vt 0.5905309 0.98732895
vt 0.56643665 0.014671059
vt 0.58857477 0.014671059
vt 0.56839263 0.98732895
vt 0.5442984 0.014671059
vt 0.56643665 0.014671059
vt 0.5462544 0.98732895
vt 0.5221602 0.014671059
vt 0.5442984 0.014671059
vt 0.52411616 0.98732895
vt 0.50002205 0.014671059
vt 0.5221602 0.014671059
vt 0.50197804 0.98732895
vt 0.47788388 0.014671059
vt 0.50049686 0.014671059
vt 0.47983992 0.98732895
vt 0.45574573 0.014671059
vt 0.47788388 0.014671059
vt 0.45770174 0.98732895
vt 0.43360737 0.014671059
vt 0.45574573 0.014671059
vt 0.4355634 0.98732895
vt 0.4114692 0.014671059
vt 0.43360737 0.014671059
vt 0.4134252 0.98732895
vt 0.3893312 0.014671059
vt 0.4114692 0.014671059
vt 0.3912872 0.98732895
vt 0.3671928 0.014671059
vt 0.3893312 0.014671059
vt 0.36914882 0.98732895
vt 0.3450548 0.014671059
vt 0.3671928 0.014671059
vt 0.34701082 0.98732895
vt 0.3229166 0.014671059
vt 0.3450548 0.014671059
vt 0.3248726 0.98732895
vt 0.30077845 0.014671059
vt 0.3229166 0.014671059
vt 0.30273446 0.98732895
vt 0.27864024 0.014671059
vt 0.30077845 0.014671059
vt 0.28059626 0.98732895
vt 0.25650206 0.014671059
vt 0.27864024 0.014671059
vt 0.25845808 0.98732895
vt 0.2343639 0.014671059
vt 0.25650206 0.014671059
vt 0.23631991 0.98732895
vt 0.21222554 0.014671059
vt 0.2343639 0.014671059
vt 0.21418156 0.98732895
vt 0.19008753 0.014671059
vt 0.21222554 0.014671059
vt 0.19204354 0.98732895
vt 0.16794935 0.014671059
vt 0.19008753 0.014671059
vt 0.16990536 0.98732895
vt 0.14581117 0.014671059
vt 0.16794935 0.014671059
vt 0.14776719 0.98732895
vt 0.12367222 0.014671059
vt 0.14581117 0.014671059
vt 0.12562823 0.98732895
vt 0.10153408 0.014671059
vt 0.12367222 0.014671059
vt 0.1034901 0.98732895
vt 0.0793959 0.014671059
vt 0.10153408 0.014671059
vt 0.08135191 0.98732895
vt 0.057257757 0.014671059
vt 0.0793959 0.014671059
vt 0.059213776 0.98732895
vt 0.03511962 0.014671059
vt 0.057257757 0.014671059
vt 0.03707564 0.98732895
vt 0.012981564 0.014671059
vt 0.03511962 0.014671059
vt 0.014937582 0.98732895
vt 0.012981564 0.014671059
vn -0.07230183 -0.038646188 -0.9966338
vn -0.857728 -0.5141037 -4.7715594E-07
vn -0.0704027 -0.042197783 -0.9966258
vn -0.88192075 -0.47139764 -7.1659724E-07
vn -0.07040309 -0.042198192 0.99662566
vn -0.07574165 -0.031373274 -0.9966338
vn -0.07230225 -0.038646508 0.9966337
vn -0.9238793 -0.38268396 0
vn -0.07845206 -0.023798255 -0.9966338
vn -0.07574214 -0.03137347 0.9966337
vn -0.9569401 -0.29028517 2.3886565E-07
vn -0.08040692 -0.015994027 -0.9966338
vn -0.07845256 -0.023798332 0.9966337
vn -0.98078513 -0.19509126 -2.388659E-07
vn -0.081587434 -0.008035653 -0.9966338
vn -0.0804074 -0.015994092 0.9966337
vn -0.9951847 -0.09801766 0
vn -0.08198219 0 -0.9966338
vn -0.08158787 -0.008035803 0.9966337
vn -1 -1.2335183E-06 -2.3886588E-07
vn -0.0815874 0.008035686 -0.9966338
vn -0.08198268 -2.4020406E-07 0.9966337
vn -0.99518484 0.09801555 0
vn -0.080406934 0.015993854 -0.9966338
vn -0.08158799 0.008035424 0.9966337
vn -0.9807854 0.19508961 -2.3886574E-07
vn -0.07845212 0.023798017 -0.9966338
vn -0.08040747 0.015993992 0.9966337
vn -0.95694065 0.2902836 0
vn -0.0757417 0.03137316 -0.9966338
vn -0.078452565 0.0237983 0.9966337
vn -0.9238798 0.38268262 2.3886588E-07
vn -0.07230186 0.038646128 -0.9966338
vn -0.075742155 0.03137335 0.9966337
vn -0.88192147 0.47139627 0
vn -0.06816567 0.045546908 -0.9966338
vn -0.072302304 0.0386463 0.9966337
vn -0.8314697 0.5555701 2.3886594E-07
vn -0.06337312 0.052008927 -0.9966338
vn -0.06816612 0.04554706 0.9966337
vn -0.77300996 0.634394 -2.388659E-07
vn -0.057970192 0.057970107 -0.9966338
vn -0.063373305 0.05200935 0.9966337
vn -0.7071069 0.70710665 0
vn -0.052008897 0.06337311 -0.9966338
vn -0.05797042 0.05797047 0.9966337
vn -0.634394 0.77300996 -2.3886602E-07
vn -0.045546874 0.06816568 -0.9966338
vn -0.05200934 0.06337327 0.9966337
vn -0.5555717 0.83146864 0
vn -0.038646154 0.07230183 -0.9966338
vn -0.04554734 0.0681659 0.9966337
vn -0.471398 0.8819206 0
vn -0.031373248 0.07574168 -0.9966338
vn -0.038646545 0.07230213 0.9966337
vn -0.3826836 0.92387944 -4.7773125E-07
vn -0.023798222 0.078452036 -0.9966338
vn -0.031373437 0.07574214 0.9966337
vn -0.2902853 0.9569401 0
vn -0.01599396 0.08040692 -0.9966338
vn -0.023798369 0.07845254 0.9966337
vn -0.19509062 0.98078525 2.3886574E-07
vn -0.008035688 0.08158743 -0.9966338
vn -0.015994057 0.08040742 0.9966337
vn -0.098017365 0.9951847 -2.388659E-07
vn -0 0.08198218 -0.9966338
vn -0.008035723 0.08158793 0.9966337
vn -0 1 2.3886582E-07
vn 0.008035648 0.081587404 -0.9966338
vn -0 0.081982695 0.9966337
vn 0.09801695 0.9951847 -2.3886585E-07
vn 0.015993914 0.080406904 -0.9966338
vn 0.008035685 0.0815879 0.9966337
vn 0.19509014 0.98078537 2.388659E-07
vn 0.023798183 0.07845206 -0.9966338
vn 0.015994009 0.0804074 0.9966337
vn 0.29028475 0.95694035 0
vn 0.03137322 0.075741656 -0.9966338
vn 0.023798322 0.07845254 0.9966337
vn 0.38268343 0.9238795 0
vn 0.038646124 0.07230183 -0.9966338
vn 0.031373415 0.075742126 0.9966337
vn 0.4713978 0.88192064 2.3886588E-07
vn 0.045546826 0.068165705 -0.9966338
vn 0.03864653 0.07230213 0.9966337
vn 0.55557126 0.8314689 2.38866E-07
vn 0.05200887 0.06337311 -0.9966338
vn 0.045547295 0.06816591 0.9966337
vn 0.63439363 0.77301013 0
vn 0.057970166 0.057970118 -0.9966338
vn 0.052009314 0.06337325 0.9966337
vn 0.7071066 0.7071069 2.3886602E-07
vn 0.06337309 0.052008912 -0.9966338
vn 0.05797037 0.057970468 0.9966337
vn 0.77300996 0.634394 2.3886608E-07
vn 0.06816564 0.045546915 -0.9966338
vn 0.06337328 0.05200934 0.9966337
vn 0.8314695 0.5555704 -4.777318E-07
vn 0.072301805 0.038646176 -0.9966338
vn 0.0681661 0.045547064 0.9966337
vn 0.8819211 0.47139698 -2.388659E-07
vn 0.07574165 0.03137323 -0.9966338
vn 0.072302245 0.038646344 0.9966337
vn 0.92387944 0.38268363 0
vn 0.078452066 0.023798078 -0.9966338
vn 0.075742096 0.031373426 0.9966337
vn 0.95694035 0.29028445 -2.3886597E-07
vn 0.08040689 0.01599393 -0.9966338
vn 0.07845253 0.023798367 0.9966337
vn 0.98078525 0.19509056 0
vn 0.08158735 0.00803575 -0.9966338
vn 0.080407426 0.015994063 0.9966337
vn 0.99518484 0.09801642 2.3886597E-07
vn 0.08198215 0 -0.9966338
vn 0.08158794 0.008035492 0.9966337
vn 1 -2.0266295E-06 -2.388661E-07
vn 0.08158739 -0.0080358 -0.9966338
vn 0.081982665 -3.074783E-07 0.9966337
vn 0.9951845 -0.098019525 -4.77732E-07
vn 0.08040685 -0.015994169 -0.9966338
vn 0.08158783 -0.008035945 0.9966337
vn 0.9807848 -0.19509304 -4.7773193E-07
vn 0.078451954 -0.023798417 -0.9966338
vn 0.08040733 -0.01599423 0.9966337
vn 0.9569396 -0.29028732 -7.1659764E-07
vn 0.07574156 -0.031373408 -0.9966338
vn 0.078452475 -0.023798494 0.9966337
vn 0.9238786 -0.38268575 0
vn 0.07230173 -0.03864628 -0.9966338
vn 0.07574204 -0.031373605 0.9966337
vn 0.88192004 -0.47139904 0
vn 0.07040258 -0.04219791 -0.9966258
vn 0.07230216 -0.0386466 0.9966337
vn 0.85772693 -0.51410544 -4.771559E-07
vn 0.07040299 -0.04219831 0.99662566
g Daoguang_main01_0
f 3/3/3 2/2/2 1/1/1
f 2/2/2 4/4/4 1/1/1
f 2/2/2 5/5/5 4/4/4
f 1/1/1 4/4/4 6/6/6
f 5/5/5 7/7/7 4/4/4
f 4/4/4 8/8/8 6/6/6
f 4/4/4 7/7/7 8/8/8
f 6/6/6 8/8/8 9/9/9
f 7/7/7 10/10/10 8/8/8
f 8/8/8 11/11/11 9/9/9
f 8/8/8 10/10/10 11/11/11
f 9/9/9 11/11/11 12/12/12
f 10/10/10 13/13/13 11/11/11
f 11/11/11 14/14/14 12/12/12
f 11/11/11 13/13/13 14/14/14
f 12/12/12 14/14/14 15/15/15
f 13/13/13 16/16/16 14/14/14
f 14/14/14 17/17/17 15/15/15
f 14/14/14 16/16/16 17/17/17
f 15/15/15 17/17/17 18/18/18
f 16/16/16 19/19/19 17/17/17
f 17/17/17 20/20/20 18/18/18
f 17/17/17 19/19/19 20/20/20
f 18/18/18 20/20/20 21/21/21
f 19/19/19 22/22/22 20/20/20
f 20/20/20 23/23/23 21/21/21
f 20/20/20 22/22/22 23/23/23
f 21/21/21 23/23/23 24/24/24
f 22/22/22 25/25/25 23/23/23
f 23/23/23 26/26/26 24/24/24
f 23/23/23 25/25/25 26/26/26
f 24/24/24 26/26/26 27/27/27
f 25/25/25 28/28/28 26/26/26
f 26/26/26 29/29/29 27/27/27
f 26/26/26 28/28/28 29/29/29
f 27/27/27 29/29/29 30/30/30
f 28/28/28 31/31/31 29/29/29
f 29/29/29 32/32/32 30/30/30
f 29/29/29 31/31/31 32/32/32
f 30/30/30 32/32/32 33/33/33
f 31/31/31 34/34/34 32/32/32
f 32/32/32 35/35/35 33/33/33
f 32/32/32 34/34/34 35/35/35
f 33/33/33 35/35/35 36/36/36
f 34/34/34 37/37/37 35/35/35
f 35/35/35 38/38/38 36/36/36
f 35/35/35 37/37/37 38/38/38
f 36/36/36 38/38/38 39/39/39
f 37/37/37 40/40/40 38/38/38
f 38/38/38 41/41/41 39/39/39
f 38/38/38 40/40/40 41/41/41
f 39/39/39 41/41/41 42/42/42
f 40/40/40 43/43/43 41/41/41
f 41/41/41 44/44/44 42/42/42
f 41/41/41 43/43/43 44/44/44
f 42/42/42 44/44/44 45/45/45
f 43/43/43 46/46/46 44/44/44
f 44/44/44 47/47/47 45/45/45
f 44/44/44 46/46/46 47/47/47
f 45/45/45 47/47/47 48/48/48
f 46/46/46 49/49/49 47/47/47
f 47/47/47 50/50/50 48/48/48
f 47/47/47 49/49/49 50/50/50
f 48/48/48 50/50/50 51/51/51
f 49/49/49 52/52/52 50/50/50
f 50/50/50 53/53/53 51/51/51
f 50/50/50 52/52/52 53/53/53
f 51/51/51 53/53/53 54/54/54
f 52/52/52 55/55/55 53/53/53
f 53/53/53 56/56/56 54/54/54
f 53/53/53 55/55/55 56/56/56
f 54/54/54 56/56/56 57/57/57
f 55/55/55 58/58/58 56/56/56
f 56/56/56 59/59/59 57/57/57
f 56/56/56 58/58/58 59/59/59
f 57/57/57 59/59/59 60/60/60
f 58/58/58 61/61/61 59/59/59
f 59/59/59 62/62/62 60/60/60
f 59/59/59 61/61/61 62/62/62
f 60/60/60 62/62/62 63/63/63
f 61/61/61 64/64/64 62/62/62
f 62/62/62 65/65/65 63/63/63
f 62/62/62 64/64/64 65/65/65
f 63/63/63 65/65/65 66/66/66
f 64/64/64 67/67/67 65/65/65
f 65/65/65 68/68/68 66/66/66
f 65/65/65 67/67/67 68/68/68
f 66/66/66 68/68/68 69/69/69
f 67/67/67 70/70/70 68/68/68
f 68/68/68 71/71/71 69/69/69
f 68/68/68 70/70/70 71/71/71
f 69/69/69 71/71/71 72/72/72
f 70/70/70 73/73/73 71/71/71
f 71/71/71 74/74/74 72/72/72
f 71/71/71 73/73/73 74/74/74
f 72/72/72 74/74/74 75/75/75
f 73/73/73 76/76/76 74/74/74
f 74/74/74 77/77/77 75/75/75
f 74/74/74 76/76/76 77/77/77
f 75/75/75 77/77/77 78/78/78
f 76/76/76 79/79/79 77/77/77
f 77/77/77 80/80/80 78/78/78
f 77/77/77 79/79/79 80/80/80
f 78/78/78 80/80/80 81/81/81
f 79/79/79 82/82/82 80/80/80
f 80/80/80 83/83/83 81/81/81
f 80/80/80 82/82/82 83/83/83
f 81/81/81 83/83/83 84/84/84
f 82/82/82 85/85/85 83/83/83
f 83/83/83 86/86/86 84/84/84
f 83/83/83 85/85/85 86/86/86
f 84/84/84 86/86/86 87/87/87
f 85/85/85 88/88/88 86/86/86
f 86/86/86 89/89/89 87/87/87
f 86/86/86 88/88/88 89/89/89
f 87/87/87 89/89/89 90/90/90
f 88/88/88 91/91/91 89/89/89
f 89/89/89 92/92/92 90/90/90
f 89/89/89 91/91/91 92/92/92
f 90/90/90 92/92/92 93/93/93
f 91/91/91 94/94/94 92/92/92
f 92/92/92 95/95/95 93/93/93
f 92/92/92 94/94/94 95/95/95
f 93/93/93 95/95/95 96/96/96
f 94/94/94 97/97/97 95/95/95
f 95/95/95 98/98/98 96/96/96
f 95/95/95 97/97/97 98/98/98
f 96/96/96 98/98/98 99/99/99
f 97/97/97 100/100/100 98/98/98
f 98/98/98 101/101/101 99/99/99
f 98/98/98 100/100/100 101/101/101
f 99/99/99 101/101/101 102/102/102
f 100/100/100 103/103/103 101/101/101
f 101/101/101 104/104/104 102/102/102
f 101/101/101 103/103/103 104/104/104
f 102/102/102 104/104/104 105/105/105
f 103/103/103 106/106/106 104/104/104
f 104/104/104 107/107/107 105/105/105
f 104/104/104 106/106/106 107/107/107
f 105/105/105 107/107/107 108/108/108
f 106/106/106 109/109/109 107/107/107
f 107/107/107 110/110/110 108/108/108
f 107/107/107 109/109/109 110/110/110
f 108/108/108 110/110/110 111/111/111
f 109/109/109 112/112/112 110/110/110
f 110/110/110 113/113/113 111/111/111
f 110/110/110 112/112/112 113/113/113
f 111/111/111 113/113/113 114/114/114
f 112/112/112 115/115/115 113/113/113
f 113/113/113 116/116/116 114/114/114
f 113/113/113 115/115/115 116/116/116
f 114/114/114 116/116/116 117/117/117
f 115/115/115 118/118/118 116/116/116
f 116/116/116 119/119/119 117/117/117
f 116/116/116 118/118/118 119/119/119
f 117/117/117 119/119/119 120/120/120
f 118/118/118 121/121/121 119/119/119
f 119/119/119 122/122/122 120/120/120
f 119/119/119 121/121/121 122/122/122
f 120/120/120 122/122/122 123/123/123
f 121/121/121 124/124/124 122/122/122
f 122/122/122 125/125/125 123/123/123
f 122/122/122 124/124/124 125/125/125
f 123/123/123 125/125/125 126/126/126
f 124/124/124 127/127/127 125/125/125
f 125/125/125 128/128/128 126/126/126
f 125/125/125 127/127/127 128/128/128
f 126/126/126 128/128/128 129/129/129
f 127/127/127 130/130/130 128/128/128
f 128/128/128 131/131/131 129/129/129
f 128/128/128 130/130/130 131/131/131
f 129/129/129 131/131/131 132/132/132
f 130/130/130 133/133/133 131/131/131
f 131/131/131 134/134/134 132/132/132
f 131/131/131 133/133/133 134/134/134
f 133/133/133 135/135/135 134/134/134
