g Daoguang_edge01
v -1.6691527 -0.7610908 -0.0158159
v -1.6315534 -0.8720856 -2.8610228E-07
v -1.5933475 -0.9213675 -0.00786025
v -1.5382178 -1.0278064 -3.0517577E-07
v -1.5933475 -0.9213675 0.007860007
v -1.7091764 -0.70796597 -2.8610228E-07
v -1.728883 -0.594156 -0.020956513
v -1.6691527 -0.7610908 0.015815672
v -1.770339 -0.53702825 -2.8610228E-07
v -1.7719635 -0.4221703 -0.026313582
v -1.728883 -0.59415585 0.020956306
v -1.8144525 -0.36091867 -2.8610228E-07
v -1.7979788 -0.2467903 -0.027997307
v -1.7719635 -0.4221703 0.026313366
v -1.8410915 -0.18133326 -2.670288E-07
v -1.8066788 -0.06970474 -0.027997283
v -1.7979788 -0.24679016 0.027997097
v -1.8499999 -1.484955E-06 -2.670288E-07
v -1.7979788 0.10738083 -0.027997274
v -1.8066788 -0.06970474 0.027997103
v -1.8410918 0.1813303 -2.670288E-07
v -1.7719641 0.282761 -0.027997265
v -1.7979788 0.107380904 0.02799715
v -1.8144529 0.36091578 -2.479553E-07
v -1.7288841 0.4547467 -0.027997268
v -1.7719641 0.28276107 0.027997155
v -1.77034 0.53702545 -2.479553E-07
v -1.669154 0.6216817 -0.027997265
v -1.7288841 0.4547468 0.02799715
v -1.7091776 0.7079632 -2.479553E-07
v -1.5933489 0.7819583 -0.027997259
v -1.669154 0.6216817 0.027997155
v -1.6315548 0.87208295 -2.479553E-07
v -1.5021989 0.93403286 -0.027997255
v -1.5933489 0.7819583 0.027997158
v -1.5382195 1.0278041 -2.2888183E-07
v -1.3965821 1.0764407 -0.027997235
v -1.5021989 0.93403286 0.027997164
v -1.43007 1.1736268 -2.2888183E-07
v -1.2775156 1.2078111 -0.027997246
v -1.3965821 1.0764407 0.027997173
v -1.3081481 1.308147 -2.2888183E-07
v -1.1461456 1.3268777 -0.027997231
v -1.2775156 1.2078111 0.02799713
v -1.1736282 1.4300687 -2.2888183E-07
v -1.0037377 1.4324948 -0.027997231
v -1.1461456 1.3268777 0.027997164
v -1.0278054 1.5382184 -2.0980835E-07
v -0.8516632 1.523645 -0.027997226
v -1.0037377 1.4324948 0.02799717
v -0.8720845 1.6315541 -2.0980835E-07
v -0.69138646 1.5994499 -0.027997222
v -0.8516632 1.523645 0.027997216
v -0.70796484 1.7091768 -2.0980835E-07
v -0.5244517 1.6591803 -0.027997222
v -0.69138646 1.5994499 0.027997212
v -0.5370272 1.7703395 -2.0980835E-07
v -0.35246605 1.7022605 -0.027997222
v -0.5244517 1.6591803 0.027997216
v -0.36091754 1.8144526 -2.0980835E-07
v -0.17708588 1.7282758 -0.027997222
v -0.35246605 1.7022605 0.027997216
v -0.18133208 1.8410918 -2.0980835E-07
v -3.334641E-07 1.7369757 -0.027997222
v -0.17708588 1.7282758 0.027997216
v -3.0140328E-07 1.8499999 -2.0980835E-07
v 0.17708522 1.7282758 -0.027997222
v -3.334641E-07 1.7369757 0.027997222
v 0.18133147 1.8410918 -2.0980835E-07
v 0.3524653 1.7022607 -0.027997222
v 0.17708522 1.7282758 0.027997216
v 0.36091694 1.8144528 -2.0980835E-07
v 0.524451 1.6591804 -0.027997222
v 0.3524653 1.7022607 0.027997216
v 0.5370265 1.7703396 -2.0980835E-07
v 0.6913859 1.5994502 -0.027997222
v 0.524451 1.6591804 0.027997216
v 0.7079643 1.709177 -2.0980835E-07
v 0.8516623 1.5236452 -0.027997226
v 0.6913859 1.5994502 0.027997212
v 0.872084 1.6315542 -2.0980835E-07
v 1.0037369 1.4324951 -0.027997231
v 0.8516623 1.5236452 0.027997216
v 1.0278051 1.5382186 -2.0980835E-07
v 1.1461447 1.3268781 -0.027997231
v 1.0037369 1.4324951 0.02799717
v 1.1736276 1.4300692 -2.2888183E-07
v 1.2775145 1.2078116 -0.027997246
v 1.1461447 1.3268781 0.027997164
v 1.3081475 1.3081475 -2.2888183E-07
v 1.3965816 1.0764416 -0.027997235
v 1.2775145 1.2078116 0.02799713
v 1.4300694 1.1736275 -2.2888183E-07
v 1.5021983 0.93403363 -0.027997255
v 1.3965816 1.0764416 0.027997173
v 1.5382186 1.027805 -2.2888183E-07
v 1.5933485 0.78195924 -0.027997259
v 1.5021983 0.93403363 0.027997164
v 1.6315542 0.87208396 -2.479553E-07
v 1.6691537 0.6216828 -0.027997265
v 1.5933485 0.78195924 0.027997158
v 1.709177 0.70796436 -2.479553E-07
v 1.7288837 0.4547478 -0.027997268
v 1.6691537 0.6216828 0.027997155
v 1.7703396 0.53702664 -2.479553E-07
v 1.7719637 0.28276223 -0.027997265
v 1.7288837 0.45474792 0.02799715
v 1.8144526 0.3609171 -2.479553E-07
v 1.7979791 0.10738224 -0.027997274
v 1.7719637 0.2827623 0.027997155
v 1.8410918 0.18133171 -2.670288E-07
v 1.8066788 -0.06970329 -0.027997283
v 1.7979791 0.107382275 0.02799715
v 1.8499999 0 -2.670288E-07
v 1.7979785 -0.24679488 -0.027997307
v 1.8066788 -0.06970329 0.027997103
v 1.8410909 -0.18133804 -2.670288E-07
v 1.7719629 -0.42217466 -0.026313582
v 1.7979785 -0.24679488 0.027997097
v 1.8144516 -0.36092296 -2.8610228E-07
v 1.7288821 -0.59415966 -0.020956513
v 1.7719629 -0.4221745 0.026313366
v 1.7703379 -0.537032 -2.8610228E-07
v 1.6691513 -0.7610939 -0.0158159
v 1.7288821 -0.59415954 0.020956306
v 1.7091751 -0.7079692 -2.8610228E-07
v 1.5933464 -0.92136925 -0.00786025
v 1.6691513 -0.7610939 0.015815672
v 1.6315521 -0.8720882 -2.8610228E-07
v 1.5382162 -1.0278087 -3.0517577E-07
v 1.5933464 -0.92136925 0.007860007
vt 0.95606405 0.020332076
vt 0.9604432 0.9833371
vt 0.9788355 0.020332076
vt 0.9823389 0.9833371
vt 0.9788355 0.020332243
vt 0.93854755 0.9833371
vt 0.9332926 0.020332076
vt 0.95606405 0.020332243
vt 0.91665196 0.9833371
vt 0.91052127 0.020332076
vt 0.9332926 0.020332243
vt 0.89475644 0.9833371
vt 0.8877498 0.020332076
vt 0.91052127 0.020332243
vt 0.8728607 0.9833371
vt 0.86497825 0.020332076
vt 0.8877498 0.020332243
vt 0.8509651 0.9833371
vt 0.8422069 0.020332076
vt 0.86497825 0.020332243
vt 0.82906955 0.9833371
vt 0.8194354 0.020332076
vt 0.8422069 0.020332243
vt 0.80717385 0.9833371
vt 0.7966639 0.020332076
vt 0.8194354 0.020332243
vt 0.7852782 0.9833371
vt 0.7738925 0.020332076
vt 0.7966639 0.020332243
vt 0.7633826 0.9833371
vt 0.7511211 0.020332076
vt 0.7738925 0.020332243
vt 0.741487 0.9833371
vt 0.72834957 0.020332076
vt 0.7511211 0.020332243
vt 0.7195913 0.9833371
vt 0.70557815 0.020332076
vt 0.72834957 0.020332243
vt 0.69769573 0.9833371
vt 0.6828067 0.020332076
vt 0.70557815 0.020332243
vt 0.6758001 0.9833371
vt 0.6600354 0.020332076
vt 0.6828067 0.020332243
vt 0.65390456 0.9833371
vt 0.63726383 0.020332076
vt 0.6600354 0.020332243
vt 0.63200885 0.9833371
vt 0.61449236 0.020332076
vt 0.63726383 0.020332243
vt 0.61011326 0.9833371
vt 0.591721 0.020332076
vt 0.61449236 0.020332243
vt 0.5882177 0.9833371
vt 0.5689496 0.020332076
vt 0.591721 0.020332243
vt 0.5663221 0.9833371
vt 0.54617816 0.020332076
vt 0.5689496 0.020332243
vt 0.5444265 0.9833371
vt 0.5234067 0.020332076
vt 0.54617816 0.020332243
vt 0.52253085 0.9833371
vt 0.50063545 0.020332076
vt 0.5234067 0.020332243
vt 0.50063545 0.9833371
vt 0.4778644 0.020332076
vt 0.50063545 0.020332243
vt 0.4787402 0.9833371
vt 0.45509294 0.020332076
vt 0.4778644 0.020332243
vt 0.45684454 0.9833371
vt 0.43232137 0.020332076
vt 0.45509294 0.020332243
vt 0.4349488 0.9833371
vt 0.40954998 0.020332076
vt 0.43232137 0.020332243
vt 0.41305324 0.9833371
vt 0.38677868 0.020332076
vt 0.40954998 0.020332243
vt 0.39115775 0.9833371
vt 0.36400715 0.020332076
vt 0.38677868 0.020332243
vt 0.36926204 0.9833371
vt 0.34123576 0.020332076
vt 0.36400715 0.020332243
vt 0.34736648 0.9833371
vt 0.31846437 0.020332076
vt 0.34123576 0.020332243
vt 0.32547092 0.9833371
vt 0.29569295 0.020332076
vt 0.31846437 0.020332243
vt 0.30357534 0.9833371
vt 0.27292147 0.020332076
vt 0.29569295 0.020332243
vt 0.28167966 0.9833371
vt 0.25015014 0.020332076
vt 0.27292147 0.020332243
vt 0.25978413 0.9833371
vt 0.22737865 0.020332076
vt 0.25015014 0.020332243
vt 0.2378885 0.9833371
vt 0.2046071 0.020332076
vt 0.22737865 0.020332243
vt 0.21599276 0.9833371
vt 0.18183577 0.020332076
vt 0.2046071 0.020332243
vt 0.19409725 0.9833371
vt 0.1590643 0.020332076
vt 0.18183577 0.020332243
vt 0.1722016 0.9833371
vt 0.13629293 0.020332076
vt 0.1590643 0.020332243
vt 0.15030606 0.9833371
vt 0.1135207 0.020332076
vt 0.13629293 0.020332243
vt 0.12840968 0.9833371
vt 0.09074936 0.020332076
vt 0.1135207 0.020332243
vt 0.10651416 0.9833371
vt 0.06797792 0.020332076
vt 0.09074936 0.020332243
vt 0.08461855 0.9833371
vt 0.04520649 0.020332076
vt 0.06797792 0.020332243
vt 0.06272295 0.9833371
vt 0.022435121 0.020332076
vt 0.04520649 0.020332243
vt 0.0408274 0.9833371
vt 0.018931892 0.9833371
vt 0.022435121 0.020332243
vn -0.63042295 -0.30544528 -0.71363163
vn -0.89213175 -0.45177534 -6.5419877E-06
vn -0.6235723 -0.36835238 -0.6895463
vn -0.85772806 -0.5141036 -3.9230704E-06
vn -0.6235848 -0.3683598 0.6895311
vn -0.932704 -0.3606428 -4.3098635E-06
vn -0.65549123 -0.23457988 -0.7178464
vn -0.63043106 -0.30544874 0.71362305
vn -0.96260947 -0.27089298 -3.5297512E-06
vn -0.65553796 -0.16259335 -0.73745066
vn -0.65549684 -0.23458157 0.71784073
vn -0.9853792 -0.17037572 -3.0301699E-06
vn -0.6212367 -0.08400198 -0.77910763
vn -0.6555428 -0.16259441 0.73744595
vn -0.9976004 -0.06923528 -2.714403E-06
vn -0.5618185 -0.016968504 -0.8270865
vn -0.62124115 -0.08400253 0.77910393
vn -0.99960274 0.028185999 -3.0022672E-06
vn -0.50138116 0.034996863 -0.8645185
vn -0.56182325 -0.016968694 0.82708323
vn -0.9922387 0.12434846 -3.1065968E-06
vn -0.44665468 0.07650796 -0.8914293
vn -0.5013864 0.034997128 0.86451536
vn -0.9756541 0.21931474 -2.536421E-06
vn -0.3973341 0.10981795 -0.9110794
vn -0.4466599 0.07650876 0.8914266
vn -0.95001006 0.31221917 -2.3727641E-06
vn -0.3527911 0.13671243 -0.92566085
vn -0.39733863 0.10981924 0.91107726
vn -0.9155467 0.40221176 -2.2471097E-06
vn -0.3123324 0.15856177 -0.9366465
vn -0.3527953 0.13671409 0.9256591
vn -0.8725848 0.48846266 -2.1255505E-06
vn -0.27530685 0.17640214 -0.9450335
vn -0.3123362 0.15856364 0.93664485
vn -0.82152194 0.57017696 -2.2037996E-06
vn -0.24113931 0.1910163 -0.9515065
vn -0.27531028 0.17640424 0.9450321
vn -0.76283145 0.6465974 -1.9105662E-06
vn -0.20933615 0.20299578 -0.9565412
vn -0.24114227 0.19101866 0.95150524
vn -0.6970555 0.7170172 -1.7012886E-06
vn -0.17947622 0.2127891 -0.96047336
vn -0.20933868 0.20299827 0.9565401
vn -0.62480533 0.78078055 -1.9180677E-06
vn -0.15120314 0.22073758 -0.9635416
vn -0.17947854 0.21279164 0.96047235
vn -0.54675114 0.8372951 -1.9897973E-06
vn -0.12420866 0.22710133 -0.9659178
vn -0.15120514 0.22074032 0.96354073
vn -0.46361503 0.88603675 -1.7478435E-06
vn -0.09822587 0.23207629 -0.96772534
vn -0.124210365 0.2271043 0.9659168
vn -0.37617165 0.92655003 -1.4802146E-06
vn -0.07301918 0.23580888 -0.9690523
vn -0.09822725 0.2320795 0.96772444
vn -0.28523222 0.9584585 -1.9059573E-06
vn -0.048374932 0.23840483 -0.9699602
vn -0.0730202 0.23581216 0.9690514
vn -0.19164057 0.98146516 -1.8515867E-06
vn -0.024097249 0.2399351 -0.9704898
vn -0.048375618 0.23840816 0.96995944
vn -0.0962681 0.9953555 -1.7855566E-06
vn -0 0.24044077 -0.97066385
vn -0.024097592 0.23993847 0.970489
vn -0 1 -1.7903963E-06
vn 0.024097139 0.2399351 -0.9704898
vn -0 0.24044414 0.97066295
vn 0.096267715 0.9953555 -1.8667179E-06
vn 0.04837482 0.2384048 -0.96996033
vn 0.02409748 0.23993842 0.970489
vn 0.19164015 0.9814652 -1.6905799E-06
vn 0.07301902 0.23580891 -0.9690523
vn 0.048375495 0.23840812 0.96995944
vn 0.28523174 0.9584586 -1.826542E-06
vn 0.098225884 0.23207615 -0.96772534
vn 0.07302005 0.23581217 0.96905154
vn 0.37617153 0.92655003 -1.7139341E-06
vn 0.12420843 0.22710101 -0.96591794
vn 0.09822724 0.23207931 0.96772444
vn 0.46361536 0.8860366 -1.6718517E-06
vn 0.15120262 0.22073707 -0.96354187
vn 0.12421013 0.22710396 0.96591705
vn 0.5467508 0.8372954 -1.6213207E-06
vn 0.17947564 0.21278836 -0.96047366
vn 0.15120462 0.22073981 0.96354085
vn 0.6248055 0.78078043 -1.7759942E-06
vn 0.20933509 0.2029955 -0.95654154
vn 0.17947794 0.21279092 0.9604727
vn 0.69705516 0.71701753 -2.0415532E-06
vn 0.24113935 0.19101644 -0.95150644
vn 0.20933755 0.20299794 0.9565404
vn 0.7628305 0.64659846 -1.9429522E-06
vn 0.2753071 0.17640261 -0.94503343
vn 0.2411423 0.19101875 0.95150524
vn 0.82152194 0.57017696 -1.9589286E-06
vn 0.31233296 0.1585623 -0.9366462
vn 0.27531052 0.1764047 0.945032
vn 0.87258416 0.4884638 -2.182995E-06
vn 0.35279155 0.13671288 -0.9256607
vn 0.3123368 0.15856421 0.9366446
vn 0.9155464 0.4022123 -2.3541086E-06
vn 0.39733404 0.109818086 -0.9110794
vn 0.35279572 0.13671453 0.9256589
vn 0.9500099 0.31221977 -2.2738986E-06
vn 0.4466543 0.076508865 -0.89142936
vn 0.39733857 0.109819375 0.91107726
vn 0.975654 0.2193155 -2.627007E-06
vn 0.50138235 0.03499686 -0.8645178
vn 0.4466594 0.07650965 0.8914268
vn 0.99223846 0.12435032 -2.9625835E-06
vn 0.5618204 -0.016969074 -0.8270852
vn 0.50138766 0.03499712 0.86451477
vn 0.99960274 0.028185202 -3.0393237E-06
vn 0.6212408 -0.08400371 -0.77910405
vn 0.5618252 -0.016969252 0.82708186
vn 0.99760026 -0.06923632 -2.7890997E-06
vn 0.6555425 -0.16259585 -0.73744595
vn 0.6212455 -0.08400439 0.7791003
vn 0.98537886 -0.17037751 -3.127893E-06
vn 0.65549403 -0.23458324 -0.7178428
vn 0.6555472 -0.1625968 0.73744166
vn 0.9626089 -0.27089489 -3.3170936E-06
vn 0.63041955 -0.30544513 -0.71363467
vn 0.65549946 -0.23458488 0.7178374
vn 0.93270284 -0.36064577 -4.2508063E-06
vn 0.6235621 -0.36834794 -0.6895579
vn 0.63042766 -0.3054486 0.71362615
vn 0.89213085 -0.45177707 -6.426044E-06
vn 0.8577271 -0.5141053 -3.1270793E-07
vn 0.6235743 -0.36835515 0.68954295
g Daoguang_edge01_0
f 3/3/3 2/2/2 1/1/1
f 4/4/4 2/2/2 3/3/3
f 4/4/4 5/5/5 2/2/2
f 2/2/2 6/6/6 1/1/1
f 2/2/2 5/5/5 6/6/6
f 1/1/1 6/6/6 7/7/7
f 5/5/5 8/8/8 6/6/6
f 6/6/6 9/9/9 7/7/7
f 6/6/6 8/8/8 9/9/9
f 7/7/7 9/9/9 10/10/10
f 8/8/8 11/11/11 9/9/9
f 9/9/9 12/12/12 10/10/10
f 9/9/9 11/11/11 12/12/12
f 10/10/10 12/12/12 13/13/13
f 11/11/11 14/14/14 12/12/12
f 12/12/12 15/15/15 13/13/13
f 12/12/12 14/14/14 15/15/15
f 13/13/13 15/15/15 16/16/16
f 14/14/14 17/17/17 15/15/15
f 15/15/15 18/18/18 16/16/16
f 15/15/15 17/17/17 18/18/18
f 16/16/16 18/18/18 19/19/19
f 17/17/17 20/20/20 18/18/18
f 18/18/18 21/21/21 19/19/19
f 18/18/18 20/20/20 21/21/21
f 19/19/19 21/21/21 22/22/22
f 20/20/20 23/23/23 21/21/21
f 21/21/21 24/24/24 22/22/22
f 21/21/21 23/23/23 24/24/24
f 22/22/22 24/24/24 25/25/25
f 23/23/23 26/26/26 24/24/24
f 24/24/24 27/27/27 25/25/25
f 24/24/24 26/26/26 27/27/27
f 25/25/25 27/27/27 28/28/28
f 26/26/26 29/29/29 27/27/27
f 27/27/27 30/30/30 28/28/28
f 27/27/27 29/29/29 30/30/30
f 28/28/28 30/30/30 31/31/31
f 29/29/29 32/32/32 30/30/30
f 30/30/30 33/33/33 31/31/31
f 30/30/30 32/32/32 33/33/33
f 31/31/31 33/33/33 34/34/34
f 32/32/32 35/35/35 33/33/33
f 33/33/33 36/36/36 34/34/34
f 33/33/33 35/35/35 36/36/36
f 34/34/34 36/36/36 37/37/37
f 35/35/35 38/38/38 36/36/36
f 36/36/36 39/39/39 37/37/37
f 36/36/36 38/38/38 39/39/39
f 37/37/37 39/39/39 40/40/40
f 38/38/38 41/41/41 39/39/39
f 39/39/39 42/42/42 40/40/40
f 39/39/39 41/41/41 42/42/42
f 40/40/40 42/42/42 43/43/43
f 41/41/41 44/44/44 42/42/42
f 42/42/42 45/45/45 43/43/43
f 42/42/42 44/44/44 45/45/45
f 43/43/43 45/45/45 46/46/46
f 44/44/44 47/47/47 45/45/45
f 45/45/45 48/48/48 46/46/46
f 45/45/45 47/47/47 48/48/48
f 46/46/46 48/48/48 49/49/49
f 47/47/47 50/50/50 48/48/48
f 48/48/48 51/51/51 49/49/49
f 48/48/48 50/50/50 51/51/51
f 49/49/49 51/51/51 52/52/52
f 50/50/50 53/53/53 51/51/51
f 51/51/51 54/54/54 52/52/52
f 51/51/51 53/53/53 54/54/54
f 52/52/52 54/54/54 55/55/55
f 53/53/53 56/56/56 54/54/54
f 54/54/54 57/57/57 55/55/55
f 54/54/54 56/56/56 57/57/57
f 55/55/55 57/57/57 58/58/58
f 56/56/56 59/59/59 57/57/57
f 57/57/57 60/60/60 58/58/58
f 57/57/57 59/59/59 60/60/60
f 58/58/58 60/60/60 61/61/61
f 59/59/59 62/62/62 60/60/60
f 60/60/60 63/63/63 61/61/61
f 60/60/60 62/62/62 63/63/63
f 61/61/61 63/63/63 64/64/64
f 62/62/62 65/65/65 63/63/63
f 63/63/63 66/66/66 64/64/64
f 63/63/63 65/65/65 66/66/66
f 64/64/64 66/66/66 67/67/67
f 65/65/65 68/68/68 66/66/66
f 66/66/66 69/69/69 67/67/67
f 66/66/66 68/68/68 69/69/69
f 67/67/67 69/69/69 70/70/70
f 68/68/68 71/71/71 69/69/69
f 69/69/69 72/72/72 70/70/70
f 69/69/69 71/71/71 72/72/72
f 70/70/70 72/72/72 73/73/73
f 71/71/71 74/74/74 72/72/72
f 72/72/72 75/75/75 73/73/73
f 72/72/72 74/74/74 75/75/75
f 73/73/73 75/75/75 76/76/76
f 74/74/74 77/77/77 75/75/75
f 75/75/75 78/78/78 76/76/76
f 75/75/75 77/77/77 78/78/78
f 76/76/76 78/78/78 79/79/79
f 77/77/77 80/80/80 78/78/78
f 78/78/78 81/81/81 79/79/79
f 78/78/78 80/80/80 81/81/81
f 79/79/79 81/81/81 82/82/82
f 80/80/80 83/83/83 81/81/81
f 81/81/81 84/84/84 82/82/82
f 81/81/81 83/83/83 84/84/84
f 82/82/82 84/84/84 85/85/85
f 83/83/83 86/86/86 84/84/84
f 84/84/84 87/87/87 85/85/85
f 84/84/84 86/86/86 87/87/87
f 85/85/85 87/87/87 88/88/88
f 86/86/86 89/89/89 87/87/87
f 87/87/87 90/90/90 88/88/88
f 87/87/87 89/89/89 90/90/90
f 88/88/88 90/90/90 91/91/91
f 89/89/89 92/92/92 90/90/90
f 90/90/90 93/93/93 91/91/91
f 90/90/90 92/92/92 93/93/93
f 91/91/91 93/93/93 94/94/94
f 92/92/92 95/95/95 93/93/93
f 93/93/93 96/96/96 94/94/94
f 93/93/93 95/95/95 96/96/96
f 94/94/94 96/96/96 97/97/97
f 95/95/95 98/98/98 96/96/96
f 96/96/96 99/99/99 97/97/97
f 96/96/96 98/98/98 99/99/99
f 97/97/97 99/99/99 100/100/100
f 98/98/98 101/101/101 99/99/99
f 99/99/99 102/102/102 100/100/100
f 99/99/99 101/101/101 102/102/102
f 100/100/100 102/102/102 103/103/103
f 101/101/101 104/104/104 102/102/102
f 102/102/102 105/105/105 103/103/103
f 102/102/102 104/104/104 105/105/105
f 103/103/103 105/105/105 106/106/106
f 104/104/104 107/107/107 105/105/105
f 105/105/105 108/108/108 106/106/106
f 105/105/105 107/107/107 108/108/108
f 106/106/106 108/108/108 109/109/109
f 107/107/107 110/110/110 108/108/108
f 108/108/108 111/111/111 109/109/109
f 108/108/108 110/110/110 111/111/111
f 109/109/109 111/111/111 112/112/112
f 110/110/110 113/113/113 111/111/111
f 111/111/111 114/114/114 112/112/112
f 111/111/111 113/113/113 114/114/114
f 112/112/112 114/114/114 115/115/115
f 113/113/113 116/116/116 114/114/114
f 114/114/114 117/117/117 115/115/115
f 114/114/114 116/116/116 117/117/117
f 115/115/115 117/117/117 118/118/118
f 116/116/116 119/119/119 117/117/117
f 117/117/117 120/120/120 118/118/118
f 117/117/117 119/119/119 120/120/120
f 118/118/118 120/120/120 121/121/121
f 119/119/119 122/122/122 120/120/120
f 120/120/120 123/123/123 121/121/121
f 120/120/120 122/122/122 123/123/123
f 121/121/121 123/123/123 124/124/124
f 122/122/122 125/125/125 123/123/123
f 123/123/123 126/126/126 124/124/124
f 123/123/123 125/125/125 126/126/126
f 124/124/124 126/126/126 127/127/127
f 125/125/125 128/128/128 126/126/126
f 126/126/126 129/129/129 127/127/127
f 126/126/126 128/128/128 129/129/129
f 129/129/129 130/130/130 127/127/127
f 128/128/128 131/131/131 129/129/129
f 129/129/129 131/131/131 130/130/130
