g Eff_Trail_Cone_Zy_009
v -0.040630255 -0.30125582 0.06926483
v 0.0085467845 0.017643174 -0.004332733
v -0.008546849 0.017643174 -0.004332733
v 0.040630244 -0.3012563 0.069264986
v -0.066872075 -0.5893563 0.20872696
v 0.066871986 -0.58935624 0.20872696
v -0.087264046 -0.83982426 0.40458968
v 0.08726402 -0.83982426 0.4045896
v -0.10179823 -1.0464272 0.64899266
v 0.10179823 -1.0464275 0.64899313
v -0.11046653 -1.202716 0.9361394
v 0.11046656 -1.2027161 0.93613994
v -0.11326093 -1.300887 1.2623912
v 0.11326093 -1.300887 1.2623912
v -0.110173225 -1.3311381 1.6190245
v 0.11017327 -1.3311381 1.6190245
v -0.10119547 -1.2901464 1.9756031
v 0.10119549 -1.2901464 1.9756031
v -0.086319566 -1.179454 2.324822
v 0.08631956 -1.1794535 2.3248224
v -0.06553742 -0.99796957 2.6608362
v 0.06553736 -0.99796903 2.6608367
v -0.038840964 -0.74122155 2.9750829
v 0.03884087 -0.74122155 2.9750829
v -0.0062220413 -0.40153044 3.2540479
v 0.006221953 -0.40153053 3.2540479
v -3.3696004E-08 -0.31495795 0.031014709
v -6.344045E-08 0.018596267 0.0041607665
v -4.2916287E-08 0.016690083 -0.012826232
v -4.077967E-08 -0.28755414 0.107515104
v -3.4933915E-08 -0.625453 0.152434
v -3.972345E-08 -0.5532597 0.2650199
v -1.4800513E-08 -0.9019466 0.3433048
v -2.8442996E-08 -0.7777019 0.4658744
v 5.3553406E-09 -1.1328669 0.5952241
v -7.0165225E-09 -0.9599878 0.70276177
v -6.4508985E-09 -1.3072253 0.9003531
v -2.8700626E-08 -1.0982066 0.9719263
v -7.754047E-09 -1.4136118 1.2513841
v -2.9759484E-08 -1.1881624 1.2733989
v 1.3683824E-09 -1.4402634 1.6341848
v -3.1542662E-08 -1.222013 1.6038641
v -4.3248155E-10 -1.3845068 2.0121634
v -3.4128384E-08 -1.195786 1.939043
v -2.5984703E-09 -1.250929 2.3732202
v -3.7594866E-08 -1.1079781 2.276425
v -4.7749804E-08 -1.0428239 2.7086194
v -5.2656016E-08 -0.9531137 2.6130545
v -5.0878597E-08 -0.7609021 3.008569
v -4.7483013E-08 -0.72154045 2.941598
v -5.4605064E-08 -0.4033937 3.259984
v -6.46968E-08 -0.39966652 3.2481115
vt -1.1920929E-07 0.2780188
vt 0.9999999 1.7881393E-07
vt -1.1920929E-07 2.5431183E-07
vt 0.9999999 0.2780187
vt -5.9604645E-08 0.46137014
vt 0.99999994 0.46137005
vt -5.9604645E-08 0.60754436
vt 0.99999994 0.6075443
vt -5.9604645E-08 0.7048223
vt 0.99999994 0.70482224
vt -5.9604645E-08 0.7507747
vt 0.99999994 0.7507746
vt -5.9604645E-08 0.78637826
vt 0.99999994 0.7863782
vt -5.9604645E-08 0.82198197
vt 0.99999994 0.8219819
vt -5.9604645E-08 0.8575856
vt 0.99999994 0.85758555
vt -5.9604645E-08 0.8931893
vt 0.99999994 0.89318925
vt -5.9604645E-08 0.9287929
vt 0.99999994 0.92879283
vt -5.9604645E-08 0.96439654
vt 0.99999994 0.9643965
vt -5.9604645E-08 1
vt 0.99999994 1
vt -1.1920929E-07 0.2780188
vt 0.9999999 1.7881393E-07
vt -1.1920929E-07 2.5431183E-07
vt 0.9999999 0.2780187
vt -5.9604645E-08 0.46137014
vt 0.99999994 0.46137005
vt -5.9604645E-08 0.60754436
vt 0.99999994 0.6075443
vt -5.9604645E-08 0.7048223
vt 0.99999994 0.70482224
vt -5.9604645E-08 0.7507747
vt 0.99999994 0.7507746
vt -5.9604645E-08 0.78637826
vt 0.99999994 0.7863782
vt -5.9604645E-08 0.82198197
vt 0.99999994 0.8219819
vt -5.9604645E-08 0.8575856
vt 0.99999994 0.85758555
vt -5.9604645E-08 0.8931893
vt 0.99999994 0.89318925
vt -5.9604645E-08 0.9287929
vt 0.99999994 0.92879283
vt -5.9604645E-08 0.96439654
vt 0.99999994 0.9643965
vt -5.9604645E-08 1
vt 0.99999994 1
vn -3.0616408E-07 -0.33846027 -0.94098073
vn -0 -0.22487545 -0.9743876
vn -0 -0.22487544 -0.9743876
vn -1.720146E-07 -0.33846122 -0.9409803
vn -0 -0.533075 -0.846068
vn -0 -0.533075 -0.846068
vn -2.7090897E-07 -0.6960983 -0.7179464
vn -2.0406837E-07 -0.6960983 -0.7179464
vn -0 -0.82659674 -0.56279474
vn 1.7968561E-07 -0.826597 -0.56279427
vn 1.5094719E-07 -0.9232982 -0.38408393
vn 2.8409073E-07 -0.9232983 -0.3840836
vn -0 -0.9822923 -0.1873551
vn -0 -0.9822923 -0.1873551
vn -0 -0.99990416 0.013842006
vn -0 -0.99990416 0.013842015
vn -0 -0.9783054 0.20716773
vn 2.3997387E-07 -0.9783054 0.20716788
vn 1.13108E-06 -0.9217528 0.38777795
vn 1.5045825E-06 -0.9217525 0.38777846
vn 1.3424103E-06 -0.8328961 0.5534294
vn 1.4043388E-06 -0.83289576 0.55342996
vn -0 -0.7111211 0.7030696
vn -1.02881074E-07 -0.7111213 0.7030694
vn -1.0197848E-05 -0.6346489 0.7728006
vn -1.1421566E-05 -0.634649 0.7728005
vn 1 0 0
vn 1 1.722919E-07 1.0324089E-06
vn 1 1.847775E-07 1.187493E-06
vn 1 0 0
vn 1 0 0
vn 1 0 0
vn 1 0 0
vn 1 0 0
vn 1 0 0
vn 1 0 0
vn 1 0 0
vn 1 0 0
vn 1 0 0
vn 1 1.05052194E-07 0
vn 1 1.408313E-07 0
vn 1 1.5513463E-07 0
vn 1 1.6149129E-07 0
vn 1 1.7471149E-07 0
vn 1 2.1725761E-07 0
vn 1 2.0935393E-07 0
vn 1 0 0
vn 1 0 0
vn 1 0 0
vn 1 0 0
vn 1 5.7088E-07 -5.4808135E-07
vn 1 6.6432153E-07 -6.4145263E-07
g Eff_Trail_Cone_Zy_009_0
f 3/3/3 2/2/2 1/1/1
f 4/4/4 1/1/1 2/2/2
f 1/1/1 4/4/4 5/5/5
f 6/6/6 5/5/5 4/4/4
f 5/5/5 6/6/6 7/7/7
f 8/8/8 7/7/7 6/6/6
f 7/7/7 8/8/8 9/9/9
f 10/10/10 9/9/9 8/8/8
f 9/9/9 10/10/10 11/11/11
f 12/12/12 11/11/11 10/10/10
f 11/11/11 12/12/12 13/13/13
f 14/14/14 13/13/13 12/12/12
f 13/13/13 14/14/14 15/15/15
f 16/16/16 15/15/15 14/14/14
f 15/15/15 16/16/16 17/17/17
f 18/18/18 17/17/17 16/16/16
f 17/17/17 18/18/18 19/19/19
f 20/20/20 19/19/19 18/18/18
f 19/19/19 20/20/20 21/21/21
f 22/22/22 21/21/21 20/20/20
f 21/21/21 22/22/22 23/23/23
f 24/24/24 23/23/23 22/22/22
f 23/23/23 24/24/24 25/25/25
f 26/26/26 25/25/25 24/24/24
f 29/29/29 28/28/28 27/27/27
f 30/30/30 27/27/27 28/28/28
f 27/27/27 30/30/30 31/31/31
f 32/32/32 31/31/31 30/30/30
f 31/31/31 32/32/32 33/33/33
f 34/34/34 33/33/33 32/32/32
f 33/33/33 34/34/34 35/35/35
f 36/36/36 35/35/35 34/34/34
f 35/35/35 36/36/36 37/37/37
f 38/38/38 37/37/37 36/36/36
f 37/37/37 38/38/38 39/39/39
f 40/40/40 39/39/39 38/38/38
f 39/39/39 40/40/40 41/41/41
f 42/42/42 41/41/41 40/40/40
f 41/41/41 42/42/42 43/43/43
f 44/44/44 43/43/43 42/42/42
f 43/43/43 44/44/44 45/45/45
f 46/46/46 45/45/45 44/44/44
f 45/45/45 46/46/46 47/47/47
f 48/48/48 47/47/47 46/46/46
f 47/47/47 48/48/48 49/49/49
f 50/50/50 49/49/49 48/48/48
f 49/49/49 50/50/50 51/51/51
f 52/52/52 51/51/51 50/50/50
