g Eff_Trail_Cone_tt_074
v 0.18490721 0.6900803 1.4671955
v -3.8146972E-08 0.71442384 1.4671953
v -3.8146972E-08 0.652407 1.0936972
v 0.16885597 0.63017654 1.0936973
v 0.3572126 0.6187089 1.4671955
v -3.8146972E-08 0.5531693 0.72982204
v 0.32620406 0.5650006 1.0936973
v 0.5051745 0.50517344 1.4671955
v 0.14317138 0.53432053 0.7298219
v -3.8146972E-08 0.42777908 0.41618785
v 0.46132183 0.46132076 1.0936973
v 0.6187097 0.35721135 1.4671957
v 0.27658516 0.47905836 0.72982204
v 0.11071789 0.41320282 0.4161879
v -0 0.2882695 0.1807258
v 0.07460979 0.2784467 0.18072584
v 0.21389 0.37046745 0.4161879
v 0.14413494 0.24964866 0.18072581
v 0.56500125 0.32620284 1.0936973
v 0.69008076 0.18490589 1.467196
v 0.39115027 0.39114928 0.7298219
v 0.30248594 0.30248535 0.4161879
v 0.20383757 0.20383717 0.18072581
v 0.6301769 0.16885471 1.0936974
v 0.7144239 -6.484985E-07 1.467196
v 0.4790589 0.27658412 0.729822
v 0.3704679 0.21388927 0.41618785
v 0.249649 0.14413458 0.18072584
v 0.6524069 -5.722046E-07 1.0936972
v 0.69008046 -0.18490712 1.4671962
v 0.53432083 0.14317031 0.72982204
v 0.41320312 0.110717006 0.4161879
v 0.27844697 0.07460944 0.18072584
v 0.63017637 -0.16885588 1.0936973
v 0.61870915 -0.35721248 1.4671962
v 0.55316925 -4.959106E-07 0.729822
v 0.42777923 -3.8146973E-07 0.41618785
v 0.28826973 -1.9073487E-07 0.1807259
v 0.5650006 -0.32620394 1.0936973
v 0.5051736 -0.5051744 1.467196
v 0.53432035 -0.14317127 0.729822
v 0.41320312 -0.11071776 0.41618797
v 0.27844694 -0.07460987 0.18072584
v 0.46132088 -0.4613218 1.0936973
v 0.3572116 -0.61870956 1.467196
v 0.4790585 -0.27658507 0.7298219
v 0.37046766 -0.21388993 0.41618797
v 0.24964866 -0.14413504 0.1807258
v 0.32620314 -0.56500125 1.0936974
v 0.18490615 -0.6900807 1.4671962
v 0.3911495 -0.3911502 0.72982204
v 0.3024854 -0.30248588 0.41618785
v 0.20383725 -0.20383753 0.1807258
v 0.16885506 -0.6301769 1.0936975
v -3.8146973E-07 -0.71442395 1.4671962
v 0.27658448 -0.47905904 0.7298222
v 0.21388935 -0.3704679 0.4161879
v 0.14413464 -0.24964885 0.18072584
v -2.2888182E-07 -0.65240705 1.0936977
v -0.1849068 -0.6900804 1.4671962
v 0.14317046 -0.5343208 0.72982234
v 0.110717125 -0.41320318 0.41618782
v 0.07460949 -0.27844712 0.1807258
v -0.16885552 -0.63017666 1.0936977
v -0.3572122 -0.61870915 1.467196
v -1.9073487E-07 -0.5531695 0.7298223
v -2.2888182E-07 -0.42777935 0.416188
v -1.1444091E-07 -0.28826964 0.18072584
v -0.32620364 -0.56500095 1.0936973
v -0.5051742 -0.505174 1.4671962
v -0.14317095 -0.53432065 0.72982204
v -0.110717565 -0.41320306 0.4161879
v -0.07460981 -0.27844706 0.18072584
v -0.4613215 -0.46132135 1.0936972
v -0.6187092 -0.35721186 1.4671957
v -0.27658483 -0.47905874 0.7298222
v -0.21388973 -0.37046775 0.41618812
v -0.14413486 -0.24964873 0.18072577
v -0.56500113 -0.3262034 1.0936975
v -0.69008064 -0.18490642 1.4671957
v -0.39115 -0.39114982 0.72982204
v -0.30248573 -0.30248562 0.4161879
v -0.20383744 -0.20383732 0.18072578
v -0.63017666 -0.16885525 1.0936974
v -0.71442395 3.8146972E-08 1.467196
v -0.47905883 -0.27658466 0.7298221
v -0.37046775 -0.21388958 0.41618797
v -0.24964881 -0.14413472 0.18072581
v -0.65240705 1.1444091E-07 1.0936977
v -0.6900805 0.1849065 1.467196
v -0.5343207 -0.1431707 0.7298217
v -0.41320303 -0.11071741 0.41618797
v -0.27844703 -0.07460966 0.1807258
v -0.63017666 0.16885528 1.0936977
v -0.6187092 0.35721183 1.4671957
v -0.5531693 1.1444091E-07 0.7298223
v -0.42777926 3.8146972E-08 0.41618812
v -0.28826958 3.8146972E-08 0.1807259
v -0.56500095 0.3262036 1.0936973
v -0.505174 0.50517386 1.4671957
v -0.53432065 0.14317085 0.72982156
v -0.41320303 0.110717535 0.41618785
v -0.27844697 0.074609526 0.18072577
v -0.46132135 0.46132115 1.0936973
v -0.35721195 0.6187091 1.4671952
v -0.47905877 0.27658468 0.72982204
v -0.37046772 0.21388981 0.416188
v -0.24964873 0.14413482 0.18072584
v -0.3262035 0.5650009 1.0936973
v -0.18490657 0.6900804 1.4671952
v -0.39114982 0.39114973 0.7298219
v -0.30248564 0.30248535 0.41618785
v -0.20383734 0.20383751 0.1807258
v -0.16885544 0.6301766 1.0936973
v -3.8146972E-08 0.71442384 1.4671953
v -3.8146972E-08 0.652407 1.0936972
v -0.27658477 0.47905868 0.7298219
v -0.21388966 0.3704675 0.4161879
v -0.1441348 0.24964873 0.1807258
v -0.14317086 0.53432065 0.72982204
v -3.8146972E-08 0.5531693 0.72982204
v -0.110717475 0.41320297 0.41618785
v -0.07460976 0.27844688 0.18072581
v -3.8146972E-08 0.42777908 0.41618785
v -0 0.2882695 0.1807258
vt 0.9583332 0.9982998
vt 0.9999998 0.9982998
vt 0.9999998 0.83191663
vt 0.9583332 0.83191663
vt 0.9166665 0.9982998
vt 0.9999998 0.6655333
vt 0.9166665 0.83191663
vt 0.8749999 0.9982998
vt 0.9583332 0.6655333
vt 0.9999998 0.49915007
vt 0.8749999 0.83191663
vt 0.8333332 0.9982998
vt 0.9166665 0.6655333
vt 0.9583332 0.49915007
vt 0.9999998 0.33276677
vt 0.9583332 0.33276677
vt 0.9166665 0.49915007
vt 0.9166665 0.33276677
vt 0.8333332 0.83191663
vt 0.79166657 0.9982998
vt 0.8749999 0.6655333
vt 0.8749999 0.49915007
vt 0.8749999 0.33276677
vt 0.79166657 0.83191663
vt 0.7499999 0.9982998
vt 0.8333332 0.6655333
vt 0.8333332 0.49915007
vt 0.8333332 0.33276677
vt 0.7499999 0.83191663
vt 0.70833325 0.9982998
vt 0.79166657 0.6655333
vt 0.79166657 0.49915007
vt 0.79166657 0.33276677
vt 0.70833325 0.83191663
vt 0.66666657 0.9982998
vt 0.7499999 0.6655333
vt 0.7499999 0.49915007
vt 0.7499999 0.33276677
vt 0.66666657 0.83191663
vt 0.6249999 0.9982998
vt 0.70833325 0.6655333
vt 0.70833325 0.49915007
vt 0.70833325 0.33276677
vt 0.6249999 0.83191663
vt 0.58333325 0.9982998
vt 0.66666657 0.6655333
vt 0.66666657 0.49915007
vt 0.66666657 0.33276677
vt 0.58333325 0.83191663
vt 0.54166657 0.9982998
vt 0.6249999 0.6655333
vt 0.6249999 0.49915007
vt 0.6249999 0.33276677
vt 0.54166657 0.83191663
vt 0.4999999 0.9982998
vt 0.58333325 0.6655333
vt 0.58333325 0.49915007
vt 0.58333325 0.33276677
vt 0.4999999 0.83191663
vt 0.45833325 0.9982998
vt 0.54166657 0.6655333
vt 0.54166657 0.49915007
vt 0.54166657 0.33276677
vt 0.45833325 0.83191663
vt 0.4166666 0.9982998
vt 0.4999999 0.6655333
vt 0.4999999 0.49915007
vt 0.4999999 0.33276677
vt 0.4166666 0.83191663
vt 0.37499994 0.9982998
vt 0.45833325 0.6655333
vt 0.45833325 0.49915007
vt 0.45833325 0.33276677
vt 0.37499994 0.83191663
vt 0.33333328 0.9982998
vt 0.4166666 0.6655333
vt 0.4166666 0.49915007
vt 0.4166666 0.33276677
vt 0.33333328 0.83191663
vt 0.29166663 0.9982998
vt 0.37499994 0.6655333
vt 0.37499994 0.49915007
vt 0.37499994 0.33276677
vt 0.29166663 0.83191663
vt 0.24999999 0.9982998
vt 0.33333328 0.6655333
vt 0.33333328 0.49915007
vt 0.33333328 0.33276677
vt 0.24999999 0.83191663
vt 0.20833333 0.9982998
vt 0.29166663 0.6655333
vt 0.29166663 0.49915007
vt 0.29166663 0.33276677
vt 0.20833333 0.83191663
vt 0.16666667 0.9982998
vt 0.24999999 0.6655333
vt 0.24999999 0.49915007
vt 0.24999999 0.33276677
vt 0.16666667 0.83191663
vt 0.125 0.9982998
vt 0.20833333 0.6655333
vt 0.20833333 0.49915007
vt 0.20833333 0.33276677
vt 0.125 0.83191663
vt 0.083333336 0.9982998
vt 0.16666667 0.6655333
vt 0.16666667 0.49915007
vt 0.16666667 0.33276677
vt 0.083333336 0.83191663
vt 0.041666668 0.9982998
vt 0.125 0.6655333
vt 0.125 0.49915007
vt 0.125 0.33276677
vt 0.041666668 0.83191663
vt 0 0.9982998
vt 0 0.83191663
vt 0.083333336 0.6655333
vt 0.083333336 0.49915007
vt 0.083333336 0.33276677
vt 0.041666668 0.6655333
vt 0 0.6655333
vt 0.041666668 0.49915007
vt 0.041666668 0.33276677
vt 0 0.49915007
vt 0 0.33276677
vn 0.25541788 0.9530133 -0.16287239
vn -0 0.9866454 -0.16288327
vn -0 0.976997 -0.21325316
vn 0.25285545 0.943714 -0.21323204
vn 0.4931743 0.854543 -0.16289724
vn -0 0.9484924 -0.31679994
vn 0.48848128 0.846116 -0.21324565
vn 0.6976643 0.6976643 -0.16287735
vn 0.24553706 0.91615033 -0.31682813
vn 3.9979236E-07 0.89809656 -0.4397984
vn 0.69084287 0.69084287 -0.21324193
vn 0.8544625 0.4933186 -0.16288194
vn 0.47415322 0.82147145 -0.3168015
vn 0.23241565 0.8676724 -0.439463
vn 6.46929E-07 0.79337144 -0.6087378
vn 0.20533118 0.7662964 -0.6087931
vn 0.449174 0.7779007 -0.43944666
vn 0.39668632 0.68703645 -0.6087864
vn 0.84603715 0.48862654 -0.2132258
vn 0.9530133 0.25541788 -0.16287239
vn 0.6706364 0.6706364 -0.3170073
vn 0.6351653 0.6351653 -0.4394657
vn 0.5610462 0.56085545 -0.60882527
vn 0.94394183 0.25296077 -0.21209604
vn 0.9866454 -1.1983186E-06 -0.16288327
vn 0.82164514 0.47423884 -0.31622276
vn 0.7779007 0.449174 -0.43944666
vn 0.6870104 0.39676663 -0.60876334
vn 0.977085 -1.2728641E-06 -0.21284929
vn 0.9528886 -0.2553879 -0.16364661
vn 0.91615033 0.24553706 -0.31682813
vn 0.8676435 0.23255095 -0.43944833
vn 0.76637644 0.2053509 -0.6086856
vn 0.943714 -0.25285545 -0.21323204
vn 0.8544625 -0.4933186 -0.16288194
vn 0.94862604 -1.1154813E-06 -0.3163994
vn 0.898284 -4.961777E-07 -0.43941537
vn 0.7932901 0 -0.60884386
vn 0.8463367 -0.488594 -0.21210872
vn 0.6976643 -0.6976643 -0.16287735
vn 0.9163362 -0.24558343 -0.31625426
vn 0.8676724 -0.23241565 -0.439463
vn 0.76638764 -0.20528242 -0.60869455
vn 0.69084287 -0.69084287 -0.21324193
vn 0.4933186 -0.8544625 -0.16288194
vn 0.82147145 -0.47415322 -0.3168015
vn 0.7779007 -0.449174 -0.43944666
vn 0.68694013 -0.39678118 -0.6088332
vn 0.488594 -0.8463367 -0.21210872
vn 0.25541788 -0.9530133 -0.16287239
vn 0.67082477 -0.67053866 -0.31681547
vn 0.6351653 -0.6351653 -0.4394657
vn 0.56096715 -0.56096715 -0.6087953
vn 0.25285545 -0.943714 -0.21323204
vn -7.127975E-07 -0.98651737 -0.16365659
vn 0.4740909 -0.82171947 -0.31625134
vn 0.449174 -0.7779007 -0.43944666
vn 0.39667478 -0.6870165 -0.6088164
vn -5.552767E-07 -0.976997 -0.21325316
vn -0.2553879 -0.9528886 -0.16364661
vn 0.2456582 -0.9162594 -0.31641847
vn 0.23230647 -0.86781144 -0.4392461
vn 0.20524767 -0.76634693 -0.60875756
vn -0.25298938 -0.9436799 -0.21322437
vn -0.4933186 -0.8544625 -0.16288194
vn -3.2463316E-07 -0.9484924 -0.31679994
vn -4.1678564E-07 -0.898284 -0.43941537
vn -4.070877E-07 -0.79345286 -0.60863173
vn -0.4889632 -0.84612477 -0.21210341
vn -0.69757235 -0.69757235 -0.1636634
vn -0.24553706 -0.91615033 -0.31682813
vn -0.23241565 -0.8676724 -0.439463
vn -0.20537995 -0.76620495 -0.60889167
vn -0.69084287 -0.69084287 -0.21324193
vn -0.854543 -0.4931743 -0.16289724
vn -0.4744609 -0.8215088 -0.3162437
vn -0.449174 -0.7779007 -0.43944666
vn -0.39667478 -0.6870165 -0.6088164
vn -0.846116 -0.48848128 -0.21324565
vn -0.9529609 -0.255598 -0.16289604
vn -0.67053866 -0.67082477 -0.31681547
vn -0.6351653 -0.6351653 -0.4394657
vn -0.5607739 -0.56105995 -0.60888785
vn -0.9436799 -0.25298938 -0.21322437
vn -0.9866454 0 -0.16288327
vn -0.82164514 -0.47423884 -0.31622276
vn -0.7777963 -0.44935948 -0.43944156
vn -0.6870104 -0.39676663 -0.60876334
vn -0.9772521 0 -0.21208125
vn -0.9530133 0.25541788 -0.16287239
vn -0.91623634 -0.245509 -0.31660125
vn -0.86778253 -0.23244174 -0.43923146
vn -0.76634693 -0.20524767 -0.60875756
vn -0.943714 0.25285545 -0.21323204
vn -0.8544625 0.4933186 -0.16288194
vn -0.9484924 0 -0.31679994
vn -0.898284 0 -0.43941537
vn -0.79337144 0 -0.6087378
vn -0.84621835 0.48881173 -0.21207908
vn -0.6976643 0.6976643 -0.16287735
vn -0.9162809 0.24556865 -0.3164259
vn -0.86778253 0.23244174 -0.43923146
vn -0.766194 0.20530547 -0.60893065
vn -0.6910197 0.6910197 -0.21209325
vn -0.49304065 0.8544767 -0.16364753
vn -0.82147145 0.47415322 -0.3168015
vn -0.7779007 0.449174 -0.43944666
vn -0.68694013 0.39678118 -0.6088332
vn -0.48848128 0.846116 -0.21324565
vn -0.25529873 0.95291185 -0.16365059
vn -0.67082477 0.67053866 -0.31681547
vn -0.6351653 0.6351653 -0.4394657
vn -0.56096715 0.56096715 -0.6087953
vn -0.25296077 0.94394183 -0.21209604
vn -0 0.9866454 -0.16288327
vn -0 0.976997 -0.21325316
vn -0.47437543 0.82133514 -0.3168225
vn -0.449174 0.7779007 -0.43944666
vn -0.39667478 0.6870165 -0.6088164
vn -0.2456267 0.9161289 -0.31682077
vn -0 0.9484924 -0.31679994
vn -0.23255095 0.8676435 -0.43944833
vn -0.2053252 0.7662741 -0.60882306
vn 3.9979236E-07 0.89809656 -0.4397984
vn 6.46929E-07 0.79337144 -0.6087378
g Eff_Trail_Cone_tt_074_0
f 3/3/3 2/2/2 1/1/1
f 4/4/4 3/3/3 1/1/1
f 4/4/4 1/1/1 5/5/5
f 6/6/6 3/3/3 4/4/4
f 7/7/7 4/4/4 5/5/5
f 7/7/7 5/5/5 8/8/8
f 9/9/9 6/6/6 4/4/4
f 9/9/9 4/4/4 7/7/7
f 10/10/10 6/6/6 9/9/9
f 11/11/11 7/7/7 8/8/8
f 11/11/11 8/8/8 12/12/12
f 13/13/13 9/9/9 7/7/7
f 13/13/13 7/7/7 11/11/11
f 14/14/14 10/10/10 9/9/9
f 14/14/14 9/9/9 13/13/13
f 15/15/15 10/10/10 14/14/14
f 16/16/16 15/15/15 14/14/14
f 16/16/16 14/14/14 17/17/17
f 17/17/17 14/14/14 13/13/13
f 18/18/18 16/16/16 17/17/17
f 19/19/19 11/11/11 12/12/12
f 19/19/19 12/12/12 20/20/20
f 21/21/21 13/13/13 11/11/11
f 17/17/17 13/13/13 21/21/21
f 21/21/21 11/11/11 19/19/19
f 18/18/18 17/17/17 22/22/22
f 22/22/22 17/17/17 21/21/21
f 23/23/23 18/18/18 22/22/22
f 24/24/24 19/19/19 20/20/20
f 24/24/24 20/20/20 25/25/25
f 26/26/26 21/21/21 19/19/19
f 22/22/22 21/21/21 26/26/26
f 26/26/26 19/19/19 24/24/24
f 23/23/23 22/22/22 27/27/27
f 27/27/27 22/22/22 26/26/26
f 28/28/28 23/23/23 27/27/27
f 29/29/29 24/24/24 25/25/25
f 29/29/29 25/25/25 30/30/30
f 31/31/31 26/26/26 24/24/24
f 27/27/27 26/26/26 31/31/31
f 31/31/31 24/24/24 29/29/29
f 28/28/28 27/27/27 32/32/32
f 32/32/32 27/27/27 31/31/31
f 33/33/33 28/28/28 32/32/32
f 34/34/34 29/29/29 30/30/30
f 34/34/34 30/30/30 35/35/35
f 36/36/36 31/31/31 29/29/29
f 32/32/32 31/31/31 36/36/36
f 36/36/36 29/29/29 34/34/34
f 33/33/33 32/32/32 37/37/37
f 37/37/37 32/32/32 36/36/36
f 38/38/38 33/33/33 37/37/37
f 39/39/39 34/34/34 35/35/35
f 39/39/39 35/35/35 40/40/40
f 41/41/41 36/36/36 34/34/34
f 37/37/37 36/36/36 41/41/41
f 41/41/41 34/34/34 39/39/39
f 38/38/38 37/37/37 42/42/42
f 42/42/42 37/37/37 41/41/41
f 43/43/43 38/38/38 42/42/42
f 44/44/44 39/39/39 40/40/40
f 44/44/44 40/40/40 45/45/45
f 46/46/46 41/41/41 39/39/39
f 42/42/42 41/41/41 46/46/46
f 46/46/46 39/39/39 44/44/44
f 43/43/43 42/42/42 47/47/47
f 47/47/47 42/42/42 46/46/46
f 48/48/48 43/43/43 47/47/47
f 49/49/49 44/44/44 45/45/45
f 49/49/49 45/45/45 50/50/50
f 51/51/51 46/46/46 44/44/44
f 47/47/47 46/46/46 51/51/51
f 51/51/51 44/44/44 49/49/49
f 48/48/48 47/47/47 52/52/52
f 52/52/52 47/47/47 51/51/51
f 53/53/53 48/48/48 52/52/52
f 54/54/54 49/49/49 50/50/50
f 54/54/54 50/50/50 55/55/55
f 56/56/56 51/51/51 49/49/49
f 52/52/52 51/51/51 56/56/56
f 56/56/56 49/49/49 54/54/54
f 53/53/53 52/52/52 57/57/57
f 57/57/57 52/52/52 56/56/56
f 58/58/58 53/53/53 57/57/57
f 59/59/59 54/54/54 55/55/55
f 59/59/59 55/55/55 60/60/60
f 61/61/61 56/56/56 54/54/54
f 57/57/57 56/56/56 61/61/61
f 61/61/61 54/54/54 59/59/59
f 58/58/58 57/57/57 62/62/62
f 62/62/62 57/57/57 61/61/61
f 63/63/63 58/58/58 62/62/62
f 64/64/64 59/59/59 60/60/60
f 64/64/64 60/60/60 65/65/65
f 66/66/66 61/61/61 59/59/59
f 62/62/62 61/61/61 66/66/66
f 66/66/66 59/59/59 64/64/64
f 63/63/63 62/62/62 67/67/67
f 67/67/67 62/62/62 66/66/66
f 68/68/68 63/63/63 67/67/67
f 69/69/69 64/64/64 65/65/65
f 69/69/69 65/65/65 70/70/70
f 71/71/71 66/66/66 64/64/64
f 67/67/67 66/66/66 71/71/71
f 71/71/71 64/64/64 69/69/69
f 68/68/68 67/67/67 72/72/72
f 72/72/72 67/67/67 71/71/71
f 73/73/73 68/68/68 72/72/72
f 74/74/74 69/69/69 70/70/70
f 74/74/74 70/70/70 75/75/75
f 76/76/76 71/71/71 69/69/69
f 72/72/72 71/71/71 76/76/76
f 76/76/76 69/69/69 74/74/74
f 73/73/73 72/72/72 77/77/77
f 77/77/77 72/72/72 76/76/76
f 78/78/78 73/73/73 77/77/77
f 79/79/79 74/74/74 75/75/75
f 79/79/79 75/75/75 80/80/80
f 81/81/81 76/76/76 74/74/74
f 77/77/77 76/76/76 81/81/81
f 81/81/81 74/74/74 79/79/79
f 78/78/78 77/77/77 82/82/82
f 82/82/82 77/77/77 81/81/81
f 83/83/83 78/78/78 82/82/82
f 84/84/84 79/79/79 80/80/80
f 84/84/84 80/80/80 85/85/85
f 86/86/86 81/81/81 79/79/79
f 82/82/82 81/81/81 86/86/86
f 86/86/86 79/79/79 84/84/84
f 83/83/83 82/82/82 87/87/87
f 87/87/87 82/82/82 86/86/86
f 88/88/88 83/83/83 87/87/87
f 89/89/89 84/84/84 85/85/85
f 89/89/89 85/85/85 90/90/90
f 91/91/91 86/86/86 84/84/84
f 87/87/87 86/86/86 91/91/91
f 91/91/91 84/84/84 89/89/89
f 88/88/88 87/87/87 92/92/92
f 92/92/92 87/87/87 91/91/91
f 93/93/93 88/88/88 92/92/92
f 94/94/94 89/89/89 90/90/90
f 94/94/94 90/90/90 95/95/95
f 96/96/96 91/91/91 89/89/89
f 92/92/92 91/91/91 96/96/96
f 96/96/96 89/89/89 94/94/94
f 93/93/93 92/92/92 97/97/97
f 97/97/97 92/92/92 96/96/96
f 98/98/98 93/93/93 97/97/97
f 99/99/99 94/94/94 95/95/95
f 99/99/99 95/95/95 100/100/100
f 101/101/101 96/96/96 94/94/94
f 97/97/97 96/96/96 101/101/101
f 101/101/101 94/94/94 99/99/99
f 98/98/98 97/97/97 102/102/102
f 102/102/102 97/97/97 101/101/101
f 103/103/103 98/98/98 102/102/102
f 104/104/104 99/99/99 100/100/100
f 104/104/104 100/100/100 105/105/105
f 106/106/106 101/101/101 99/99/99
f 102/102/102 101/101/101 106/106/106
f 106/106/106 99/99/99 104/104/104
f 103/103/103 102/102/102 107/107/107
f 107/107/107 102/102/102 106/106/106
f 108/108/108 103/103/103 107/107/107
f 109/109/109 104/104/104 105/105/105
f 109/109/109 105/105/105 110/110/110
f 111/111/111 106/106/106 104/104/104
f 107/107/107 106/106/106 111/111/111
f 111/111/111 104/104/104 109/109/109
f 108/108/108 107/107/107 112/112/112
f 112/112/112 107/107/107 111/111/111
f 113/113/113 108/108/108 112/112/112
f 114/114/114 109/109/109 110/110/110
f 114/114/114 110/110/110 115/115/115
f 116/116/116 114/114/114 115/115/115
f 117/117/117 111/111/111 109/109/109
f 112/112/112 111/111/111 117/117/117
f 117/117/117 109/109/109 114/114/114
f 113/113/113 112/112/112 118/118/118
f 118/118/118 112/112/112 117/117/117
f 119/119/119 113/113/113 118/118/118
f 120/120/120 114/114/114 116/116/116
f 120/120/120 117/117/117 114/114/114
f 118/118/118 117/117/117 120/120/120
f 121/121/121 120/120/120 116/116/116
f 119/119/119 118/118/118 122/122/122
f 122/122/122 118/118/118 120/120/120
f 122/122/122 120/120/120 121/121/121
f 123/123/123 119/119/119 122/122/122
f 124/124/124 122/122/122 121/121/121
f 123/123/123 122/122/122 124/124/124
f 125/125/125 123/123/123 124/124/124
