g Eff_Trail_Cone_tt_033
v 0.3300313 2.9291086 -0.19511347
v -3.2678057E-07 2.9476438 -0.19511338
v -4.1873545E-07 1.7746385 -0.09791999
v 0.19869624 1.7634788 -0.09792011
v 3.6288117E-07 0.10719515 -0.0007266998
v 0.6559124 2.8737392 -0.19511355
v 0.012002316 0.10652089 -0.0007267967
v 0.39489412 1.7301439 -0.09792014
v 0.97354496 2.7822309 -0.19511355
v 0.023853464 0.104507074 -0.0007267967
v 0.58612573 1.6750507 -0.0979203
v 1.2789341 2.6557343 -0.19511355
v 0.035404608 0.101179 -0.0007267967
v 0.7699867 1.598893 -0.097920254
v 1.5682408 2.4958396 -0.19511367
v 0.046510458 0.096578956 -0.0007267967
v 0.94416463 1.5026281 -0.09792019
v 1.8378258 2.3045592 -0.19511367
v 0.05703171 0.090764195 -0.0007266998
v 1.1064693 1.3874675 -0.09792029
v 2.0842986 2.0842981 -0.19511355
v 0.06683571 0.08380781 -0.0007267967
v 1.2548592 1.2548581 -0.09792029
v 2.3045595 1.8378241 -0.19511396
v 0.07579879 0.07579762 -0.0007267967
v 1.3874681 1.1064675 -0.097920455
v 2.4958413 1.5682403 -0.19511367
v 0.08380874 0.06683385 -0.00072699046
v 1.5026299 0.94416374 -0.097920254
v 2.6557348 1.2789336 -0.19511387
v 0.09076559 0.05703054 -0.0007266998
v 1.598894 0.769986 -0.09792038
v 2.7822313 0.9735436 -0.19511396
v 0.09658013 0.04650929 -0.0007267967
v 1.6750517 0.58612514 -0.097920485
v 2.8737395 0.6559114 -0.19511396
v 0.10118018 0.035402976 -0.0007267967
v 1.7301446 0.39489332 -0.097920366
v 2.929109 0.33003035 -0.19511396
v 0.10450824 0.023852292 -0.0007267967
v 1.7634798 0.19869547 -0.09792045
v 2.9476433 -1.0368541E-06 -0.19511406
v 0.10652161 0.0120006865 -0.0007267967
v 1.7746388 -1.0368541E-06 -0.097920366
v 2.9291093 -0.33002627 -0.19511406
v 0.10719586 -1.2667413E-06 -0.0007267967
v 1.7634802 -0.19869405 -0.097920485
v 2.8737404 -0.6559073 -0.19511406
v 0.10652161 -0.012003449 -0.00072699046
v 1.730145 -0.39489204 -0.097920634
v 2.7822332 -0.9735402 -0.19511406
v 0.10450824 -0.023855057 -0.00072699046
v 1.6750528 -0.5861238 -0.09792062
v 2.6557376 -1.2789303 -0.19511396
v 0.101180635 -0.0354062 -0.0007267967
v 1.5988957 -0.7699845 -0.097920366
v 2.4958436 -1.568237 -0.19511406
v 0.09658059 -0.046511825 -0.0007266998
v 1.5026312 -0.9441628 -0.0979204
v 2.3045642 -1.8378221 -0.19511406
v 0.09076559 -0.057032842 -0.0007267967
v 1.3874704 -1.1064675 -0.09792052
v 2.0843022 -2.0842955 -0.19511415
v 0.08380943 -0.06683685 -0.0007266998
v 1.254861 -1.2548577 -0.09792052
v 1.8378292 -2.304558 -0.19511406
v 0.07579879 -0.07580038 -0.0007267967
v 1.1064707 -1.3874675 -0.097920604
v 1.5682449 -2.4958389 -0.19511387
v 0.066835485 -0.08381079 -0.0007267967
v 0.94416755 -1.5026288 -0.0979204
v 1.2789383 -2.6557333 -0.19511406
v 0.05703194 -0.0907665 -0.0007267967
v 0.769989 -1.5988939 -0.097920455
v 0.9735487 -2.7822304 -0.19511406
v 0.04651092 -0.09658173 -0.0007267967
v 0.5861279 -1.675052 -0.09792071
v 0.6559165 -2.8737392 -0.19511415
v 0.035404608 -0.10118223 -0.00072699046
v 0.39489636 -1.7301451 -0.09792056
v 0.33003548 -2.929109 -0.19511396
v 0.023853464 -0.10450962 -0.0007267967
v 0.19869862 -1.7634808 -0.09792071
v 4.0410773E-06 -2.9476438 -0.19511396
v 0.012002316 -0.10652321 -0.00072699046
v 2.3858888E-06 -1.7746396 -0.09792049
v -0.33002758 -2.92911 -0.19511415
v 3.6288117E-07 -0.10719701 -0.0007266998
v -0.19869451 -1.7634817 -0.09792083
v -0.6559084 -2.8737411 -0.19511406
v -0.012002279 -0.10652366 -0.00072699046
v -0.39489216 -1.7301462 -0.09792049
v -0.97354156 -2.7822332 -0.19511406
v -0.023852969 -0.10450939 -0.0007266998
v -0.586124 -1.6750537 -0.09792063
v -1.2789315 -2.655737 -0.19511415
v -0.03540457 -0.101181775 -0.00072699046
v -0.7699853 -1.5988961 -0.097920634
v -1.5682375 -2.4958434 -0.19511406
v -0.04651065 -0.09658195 -0.0007267967
v -0.944163 -1.5026313 -0.0979204
v -1.8378227 -2.304563 -0.19511367
v -0.05703121 -0.09076695 -0.0007266998
v -1.1064675 -1.3874705 -0.09792049
v -2.0842965 -2.0843015 -0.19511406
v -0.06683522 -0.08381057 -0.0007266998
v -1.254858 -1.2548615 -0.09792062
v -2.304558 -1.8378285 -0.19511396
v -0.07579875 -0.07580015 -0.0007267967
v -1.3874673 -1.1064714 -0.09792045
v -2.4958396 -1.5682441 -0.19511406
v -0.083808936 -0.06683707 -0.0007267967
v -1.5026289 -0.9441674 -0.09792038
v -2.6557336 -1.278938 -0.19511406
v -0.09076556 -0.05703307 -0.0007267967
v -1.5988938 -0.76998967 -0.09792049
v -2.7822304 -0.9735482 -0.19511406
v -0.09658032 -0.046512056 -0.0007267967
v -1.6750516 -0.5861289 -0.097920634
v -2.8737392 -0.6559156 -0.19511406
v -0.10118037 -0.0354062 -0.00072699046
v -1.7301446 -0.39489678 -0.09792056
v -2.9291089 -0.33003497 -0.19511406
v -0.10450821 -0.023854597 -0.0007267967
v -1.7634803 -0.19869913 -0.09792052
v -2.9476433 -3.1058394E-06 -0.19511396
v -0.10652203 -0.012003679 -0.00072699046
v -1.7746391 -2.5541099E-06 -0.09792052
v -2.9291093 0.33002785 -0.19511387
v -0.10719606 -1.4966286E-06 -0.00072699046
v -1.7634805 0.19869429 -0.09792053
v -2.8737404 0.65590936 -0.19511406
v -0.10652203 0.0120006865 -0.0007267967
v -1.7301452 0.39489216 -0.09792036
v -2.782232 0.9735418 -0.19511396
v -0.104508676 0.023851832 -0.0007267967
v -1.6750524 0.5861234 -0.09792047
v -2.6557357 1.2789317 -0.19511415
v -0.10118083 0.035403438 -0.00072699046
v -1.5988951 0.76998466 -0.0979206
v -2.495842 1.568238 -0.19511396
v -0.09658102 0.04650883 -0.00072699046
v -1.5026306 0.94416267 -0.097920336
v -2.3045614 1.8378236 -0.19511355
v -0.09076556 0.05703008 -0.0007267967
v -1.3874692 1.1064672 -0.097920455
v -2.0842993 2.0842967 -0.19511355
v -0.08380917 0.066834085 -0.0007267967
v -1.2548597 1.2548578 -0.09792042
v -1.8378265 2.304558 -0.19511355
v -0.07579875 0.07579808 -0.0007267967
v -1.10647 1.3874669 -0.09792032
v -1.5682418 2.4958396 -0.19511355
v -0.06683591 0.08380781 -0.0007267967
v -0.9441652 1.5026284 -0.09792009
v -1.2789353 2.6557343 -0.19511355
v -0.057031445 0.090764195 -0.0007266998
v -0.7699874 1.5988933 -0.09792019
v -0.9735459 2.7822301 -0.19511355
v -0.04651065 0.096579425 -0.0007266998
v -0.5861267 1.6750507 -0.09792035
v -0.65591276 2.8737385 -0.19511338
v -0.035404343 0.101179 -0.0007266998
v -0.394895 1.7301439 -0.09792021
v -0.3300322 2.929108 -0.19511338
v -0.023853196 0.1045073 -0.0007267967
v -0.1986972 1.763479 -0.09792022
v -3.2678057E-07 2.9476438 -0.19511338
v -0.012002279 0.10652089 -0.0007267967
v -4.1873545E-07 1.7746385 -0.09791999
v 3.6288117E-07 0.10719515 -0.0007266998
vt 0.9821429 0
vt 1 0
vt 1 0.5
vt 0.9821429 0.5
vt 1 1
vt 0.9642857 0
vt 0.9821429 1
vt 0.9642857 0.5
vt 0.94642854 0
vt 0.9642857 1
vt 0.9464285 0.5
vt 0.9285714 0
vt 0.94642854 1
vt 0.9285714 0.5
vt 0.9107143 0
vt 0.9285714 1
vt 0.9107143 0.5
vt 0.8928572 0
vt 0.9107143 1
vt 0.8928572 0.5
vt 0.875 0
vt 0.8928572 1
vt 0.875 0.5
vt 0.85714287 0
vt 0.875 1
vt 0.85714287 0.5
vt 0.83928573 0
vt 0.85714287 1
vt 0.8392858 0.5
vt 0.8214286 0
vt 0.83928573 1
vt 0.8214286 0.5
vt 0.8035714 0
vt 0.8214286 1
vt 0.8035714 0.5
vt 0.78571427 0
vt 0.8035714 1
vt 0.78571427 0.5
vt 0.76785713 0
vt 0.78571427 1
vt 0.76785713 0.5
vt 0.75 0
vt 0.76785713 1
vt 0.75 0.5
vt 0.7321431 0
vt 0.75 1
vt 0.7321431 0.5
vt 0.714286 0
vt 0.7321431 1
vt 0.714286 0.5
vt 0.69642884 0
vt 0.714286 1
vt 0.69642884 0.5
vt 0.6785717 0
vt 0.69642884 1
vt 0.6785717 0.5
vt 0.6607145 0
vt 0.6785717 1
vt 0.66071457 0.5
vt 0.64285743 0
vt 0.6607145 1
vt 0.6428575 0.5
vt 0.6250003 0
vt 0.64285743 1
vt 0.6250003 0.5
vt 0.6071431 0
vt 0.6250003 1
vt 0.6071431 0.5
vt 0.58928597 0
vt 0.6071431 1
vt 0.58928597 0.5
vt 0.57142884 0
vt 0.58928597 1
vt 0.57142884 0.5
vt 0.55357164 0
vt 0.57142884 1
vt 0.55357164 0.5
vt 0.5357145 0
vt 0.55357164 1
vt 0.53571457 0.5
vt 0.5178574 0
vt 0.5357145 1
vt 0.5178574 0.5
vt 0.50000024 0
vt 0.5178574 1
vt 0.50000024 0.5
vt 0.48214307 0
vt 0.50000024 1
vt 0.48214307 0.5
vt 0.4642859 0
vt 0.48214307 1
vt 0.4642859 0.5
vt 0.44642878 0
vt 0.4642859 1
vt 0.44642878 0.5
vt 0.4285716 0
vt 0.44642878 1
vt 0.4285716 0.5
vt 0.41071448 0
vt 0.4285716 1
vt 0.41071448 0.5
vt 0.3928573 0
vt 0.41071448 1
vt 0.3928573 0.5
vt 0.3750002 0
vt 0.3928573 1
vt 0.3750002 0.5
vt 0.357143 0
vt 0.3750002 1
vt 0.357143 0.5
vt 0.3392859 0
vt 0.357143 1
vt 0.3392859 0.5
vt 0.32142878 0
vt 0.3392859 1
vt 0.32142878 0.5
vt 0.3035716 0
vt 0.32142878 1
vt 0.3035716 0.5
vt 0.28571442 0
vt 0.3035716 1
vt 0.28571445 0.5
vt 0.26785728 0
vt 0.28571442 1
vt 0.26785728 0.5
vt 0.25000012 0
vt 0.26785728 1
vt 0.25000012 0.5
vt 0.23214298 0
vt 0.25000012 1
vt 0.23214297 0.5
vt 0.21428584 0
vt 0.23214298 1
vt 0.21428584 0.5
vt 0.19642869 0
vt 0.21428584 1
vt 0.19642869 0.5
vt 0.17857154 0
vt 0.19642869 1
vt 0.17857154 0.5
vt 0.16071439 0
vt 0.17857154 1
vt 0.16071439 0.5
vt 0.14285724 0
vt 0.16071439 1
vt 0.14285724 0.5
vt 0.12500009 0
vt 0.14285724 1
vt 0.1250001 0.5
vt 0.10714293 0
vt 0.12500009 1
vt 0.10714294 0.5
vt 0.08928578 0
vt 0.10714293 1
vt 0.08928579 0.5
vt 0.071428634 0
vt 0.08928578 1
vt 0.071428634 0.5
vt 0.053571485 0
vt 0.071428634 1
vt 0.05357149 0.5
vt 0.035714336 0
vt 0.053571485 1
vt 0.035714336 0.5
vt 0.017857186 0
vt 0.035714336 1
vt 0.017857186 0.5
vt 3.7945494E-08 0
vt 0.017857186 1
vt 3.7945494E-08 0.5
vt 3.7945494E-08 1
vn -0.009245946 -0.08205621 -0.9965848
vn -0 -0.08257537 -0.9965848
vn 1.2578285E-07 -0.07082232 -0.997489
vn -0.007930162 -0.070377 -0.997489
vn 2.1482455E-07 -0.058189996 -0.99830556
vn -0.018375002 -0.08050504 -0.9965848
vn -0.006515988 -0.057824146 -0.99830556
vn -0.015759816 -0.06904664 -0.997489
vn -0.027273068 -0.07794151 -0.9965848
vn -0.012949025 -0.056731027 -0.99830556
vn -0.02339136 -0.06684801 -0.997489
vn -0.035828196 -0.074397855 -0.9965848
vn -0.019219283 -0.054924645 -0.99830556
vn -0.030728504 -0.06380888 -0.997489
vn -0.04393294 -0.06991862 -0.9965848
vn -0.02524729 -0.052427776 -0.99830556
vn -0.037679885 -0.059967015 -0.997489
vn -0.051484905 -0.0645602 -0.9965848
vn -0.030959055 -0.049270976 -0.99830556
vn -0.04415721 -0.05537114 -0.997489
vn -0.058390033 -0.05838927 -0.9965848
vn -0.03628136 -0.045494646 -0.99830556
vn -0.05007955 -0.050078448 -0.997489
vn -0.06456025 -0.051485013 -0.9965848
vn -0.041147396 -0.04114585 -0.99830556
vn -0.055371188 -0.04415725 -0.997489
vn -0.06991853 -0.043933038 -0.9965848
vn -0.04549477 -0.0362814 -0.99830556
vn -0.05996679 -0.037680246 -0.997489
vn -0.074398264 -0.03582769 -0.9965848
vn -0.04927053 -0.0309597 -0.99830556
vn -0.0638092 -0.030728081 -0.997489
vn -0.07794179 -0.027272914 -0.9965848
vn -0.05242803 -0.025246955 -0.99830556
vn -0.06684824 -0.023391189 -0.997489
vn -0.08050527 -0.018374838 -0.9965848
vn -0.054924835 -0.01921909 -0.99830556
vn -0.06904684 -0.015759557 -0.997489
vn -0.08205644 -0.009245484 -0.9965848
vn -0.056731246 -0.012948641 -0.99830556
vn -0.07037724 -0.007929599 -0.997489
vn -0.08257568 1.1865378E-07 -0.9965848
vn -0.057824384 -0.0065152724 -0.99830556
vn -0.07082255 3.182002E-07 -0.997489
vn -0.082056426 0.009245763 -0.9965848
vn -0.05819017 5.308353E-07 -0.99830556
vn -0.070377156 0.007930258 -0.997489
vn -0.08050526 0.01837473 -0.9965848
vn -0.057824243 0.006516336 -0.99830556
vn -0.069046944 0.015759312 -0.997489
vn -0.07794192 0.027272426 -0.9965848
vn -0.056731474 0.012948214 -0.99830556
vn -0.066848606 0.023390234 -0.997489
vn -0.07439823 0.0358279 -0.9965848
vn -0.05492543 0.019217618 -0.99830556
vn -0.06380913 0.03072832 -0.997489
vn -0.069918804 0.04393296 -0.9965848
vn -0.052427866 0.02524728 -0.99830556
vn -0.05996714 0.037680022 -0.997489
vn -0.064560205 0.051485118 -0.9965848
vn -0.04927101 0.030959342 -0.99830556
vn -0.05537126 0.04415727 -0.997489
vn -0.058389794 0.058389813 -0.9965848
vn -0.0454949 0.036281254 -0.99830556
vn -0.050079014 0.05007929 -0.997489
vn -0.05148548 0.064559884 -0.9965848
vn -0.04114653 0.041147094 -0.99830556
vn -0.044157527 0.055371035 -0.997489
vn -0.04393308 0.0699186 -0.9965848
vn -0.03628143 0.04549483 -0.99830556
vn -0.03768019 0.05996696 -0.997489
vn -0.035827897 0.074398234 -0.9965848
vn -0.030959537 0.04927084 -0.99830556
vn -0.030728117 0.063809216 -0.997489
vn -0.027272943 0.07794176 -0.9965848
vn -0.025246896 0.052428063 -0.99830556
vn -0.023391107 0.06684835 -0.997489
vn -0.018374998 0.08050519 -0.9965848
vn -0.019218855 0.054925073 -0.99830556
vn -0.015759608 0.069046825 -0.997489
vn -0.009245877 0.0820563 -0.9965848
vn -0.012948539 0.05673132 -0.99830556
vn -0.007930008 0.07037724 -0.997489
vn 1.3924908E-07 0.08257551 -0.9965848
vn -0.006515685 0.05782453 -0.99830556
vn 1.0473256E-07 0.07082246 -0.997489
vn 0.00924551 0.0820564 -0.9965848
vn -0 0.058190234 -0.99830556
vn 0.007929586 0.07037738 -0.997489
vn 0.01837443 0.08050533 -0.9965848
vn 0.006515221 0.05782465 -0.99830556
vn 0.015759094 0.06904692 -0.997489
vn 0.027273085 0.07794171 -0.9965848
vn 0.012948151 0.056731373 -0.99830556
vn 0.023391435 0.06684822 -0.997489
vn 0.035828013 0.07439822 -0.9965848
vn 0.019219361 0.05492487 -0.99830556
vn 0.03072814 0.063809305 -0.997489
vn 0.043932345 0.069919124 -0.9965848
vn 0.02524676 0.052428246 -0.99830556
vn 0.03767939 0.059967477 -0.997489
vn 0.051485 0.06456008 -0.9965848
vn 0.03095872 0.04927139 -0.99830556
vn 0.04415736 0.05537106 -0.997489
vn 0.05838985 0.05838965 -0.9965848
vn 0.036281597 0.045494653 -0.99830556
vn 0.0500792 0.05007909 -0.997489
vn 0.06456004 0.05148533 -0.9965848
vn 0.041146833 0.04114682 -0.99830556
vn 0.05537099 0.044157542 -0.997489
vn 0.06991883 0.043932937 -0.9965848
vn 0.045494534 0.036281627 -0.99830556
vn 0.05996719 0.037679914 -0.997489
vn 0.07439819 0.035828087 -0.9965848
vn 0.049271066 0.03095912 -0.99830556
vn 0.063809186 0.030728228 -0.997489
vn 0.07794175 0.027273005 -0.9965848
vn 0.052428067 0.025246857 -0.99830556
vn 0.06684831 0.023391156 -0.997489
vn 0.08050521 0.018374983 -0.9965848
vn 0.054924987 0.019218888 -0.99830556
vn 0.06904679 0.01575976 -0.997489
vn 0.08205638 0.009245752 -0.9965848
vn 0.0567312 0.012948911 -0.99830556
vn 0.07037722 0.007929602 -0.997489
vn 0.08257556 2.3131336E-07 -0.9965848
vn 0.057824396 0.0065150163 -0.99830556
vn 0.070822515 3.471814E-07 -0.997489
vn 0.08205637 -0.009245408 -0.9965848
vn 0.058190253 4.6815364E-07 -0.99830556
vn 0.07037725 -0.007929119 -0.997489
vn 0.080505304 -0.018374814 -0.9965848
vn 0.05782448 -0.006514344 -0.99830556
vn 0.069046825 -0.015759626 -0.997489
vn 0.077941686 -0.027273254 -0.9965848
vn 0.056731176 -0.012948771 -0.99830556
vn 0.066848025 -0.023391752 -0.997489
vn 0.07439823 -0.035828058 -0.9965848
vn 0.054924496 -0.019219868 -0.99830556
vn 0.063809186 -0.030728312 -0.997489
vn 0.06991914 -0.043932226 -0.9965848
vn 0.052427992 -0.0252471 -0.99830556
vn 0.0599675 -0.0376792 -0.997489
vn 0.06456026 -0.051484644 -0.9965848
vn 0.04927138 -0.030958435 -0.99830556
vn 0.055371262 -0.044156954 -0.997489
vn 0.05838967 -0.05838948 -0.9965848
vn 0.04549491 -0.036281124 -0.99830556
vn 0.050079163 -0.050078817 -0.997489
vn 0.05148522 -0.06455987 -0.9965848
vn 0.041146994 -0.041146435 -0.99830556
vn 0.044157576 -0.055370793 -0.997489
vn 0.043933023 -0.069918536 -0.9965848
vn 0.03628177 -0.045494344 -0.99830556
vn 0.037680157 -0.059966806 -0.997489
vn 0.03582795 -0.07439801 -0.9965848
vn 0.03095955 -0.049270608 -0.99830556
vn 0.03072831 -0.06380897 -0.997489
vn 0.027273055 -0.07794151 -0.9965848
vn 0.025247164 -0.052427806 -0.99830556
vn 0.02339109 -0.06684812 -0.997489
vn 0.018375022 -0.0805049 -0.9965848
vn 0.019218711 -0.05492491 -0.99830556
vn 0.015759684 -0.06904663 -0.997489
vn 0.009245869 -0.08205611 -0.9965848
vn 0.012948727 -0.05673116 -0.99830556
vn 0.007930191 -0.07037697 -0.997489
vn -0 -0.08257537 -0.9965848
vn 0.0065161046 -0.05782418 -0.99830556
vn 1.2578285E-07 -0.07082232 -0.997489
vn 2.1482455E-07 -0.058189996 -0.99830556
g Eff_Trail_Cone_tt_033_0
f 3/3/3 2/2/2 1/1/1
f 4/4/4 3/3/3 1/1/1
f 5/5/5 3/3/3 4/4/4
f 4/4/4 1/1/1 6/6/6
f 7/7/7 5/5/5 4/4/4
f 8/8/8 4/4/4 6/6/6
f 7/7/7 4/4/4 8/8/8
f 8/8/8 6/6/6 9/9/9
f 10/10/10 7/7/7 8/8/8
f 11/11/11 8/8/8 9/9/9
f 10/10/10 8/8/8 11/11/11
f 11/11/11 9/9/9 12/12/12
f 13/13/13 10/10/10 11/11/11
f 14/14/14 11/11/11 12/12/12
f 13/13/13 11/11/11 14/14/14
f 14/14/14 12/12/12 15/15/15
f 16/16/16 13/13/13 14/14/14
f 17/17/17 14/14/14 15/15/15
f 16/16/16 14/14/14 17/17/17
f 17/17/17 15/15/15 18/18/18
f 19/19/19 16/16/16 17/17/17
f 20/20/20 17/17/17 18/18/18
f 19/19/19 17/17/17 20/20/20
f 20/20/20 18/18/18 21/21/21
f 22/22/22 19/19/19 20/20/20
f 23/23/23 20/20/20 21/21/21
f 22/22/22 20/20/20 23/23/23
f 23/23/23 21/21/21 24/24/24
f 25/25/25 22/22/22 23/23/23
f 26/26/26 23/23/23 24/24/24
f 25/25/25 23/23/23 26/26/26
f 26/26/26 24/24/24 27/27/27
f 28/28/28 25/25/25 26/26/26
f 29/29/29 26/26/26 27/27/27
f 28/28/28 26/26/26 29/29/29
f 29/29/29 27/27/27 30/30/30
f 31/31/31 28/28/28 29/29/29
f 32/32/32 29/29/29 30/30/30
f 31/31/31 29/29/29 32/32/32
f 32/32/32 30/30/30 33/33/33
f 34/34/34 31/31/31 32/32/32
f 35/35/35 32/32/32 33/33/33
f 34/34/34 32/32/32 35/35/35
f 35/35/35 33/33/33 36/36/36
f 37/37/37 34/34/34 35/35/35
f 38/38/38 35/35/35 36/36/36
f 37/37/37 35/35/35 38/38/38
f 38/38/38 36/36/36 39/39/39
f 40/40/40 37/37/37 38/38/38
f 41/41/41 38/38/38 39/39/39
f 40/40/40 38/38/38 41/41/41
f 41/41/41 39/39/39 42/42/42
f 43/43/43 40/40/40 41/41/41
f 44/44/44 41/41/41 42/42/42
f 43/43/43 41/41/41 44/44/44
f 44/44/44 42/42/42 45/45/45
f 46/46/46 43/43/43 44/44/44
f 47/47/47 44/44/44 45/45/45
f 46/46/46 44/44/44 47/47/47
f 47/47/47 45/45/45 48/48/48
f 49/49/49 46/46/46 47/47/47
f 50/50/50 47/47/47 48/48/48
f 49/49/49 47/47/47 50/50/50
f 50/50/50 48/48/48 51/51/51
f 52/52/52 49/49/49 50/50/50
f 53/53/53 50/50/50 51/51/51
f 52/52/52 50/50/50 53/53/53
f 53/53/53 51/51/51 54/54/54
f 55/55/55 52/52/52 53/53/53
f 56/56/56 53/53/53 54/54/54
f 55/55/55 53/53/53 56/56/56
f 56/56/56 54/54/54 57/57/57
f 58/58/58 55/55/55 56/56/56
f 59/59/59 56/56/56 57/57/57
f 58/58/58 56/56/56 59/59/59
f 59/59/59 57/57/57 60/60/60
f 61/61/61 58/58/58 59/59/59
f 62/62/62 59/59/59 60/60/60
f 61/61/61 59/59/59 62/62/62
f 62/62/62 60/60/60 63/63/63
f 64/64/64 61/61/61 62/62/62
f 65/65/65 62/62/62 63/63/63
f 64/64/64 62/62/62 65/65/65
f 65/65/65 63/63/63 66/66/66
f 67/67/67 64/64/64 65/65/65
f 68/68/68 65/65/65 66/66/66
f 67/67/67 65/65/65 68/68/68
f 68/68/68 66/66/66 69/69/69
f 70/70/70 67/67/67 68/68/68
f 71/71/71 68/68/68 69/69/69
f 70/70/70 68/68/68 71/71/71
f 71/71/71 69/69/69 72/72/72
f 73/73/73 70/70/70 71/71/71
f 74/74/74 71/71/71 72/72/72
f 73/73/73 71/71/71 74/74/74
f 74/74/74 72/72/72 75/75/75
f 76/76/76 73/73/73 74/74/74
f 77/77/77 74/74/74 75/75/75
f 76/76/76 74/74/74 77/77/77
f 77/77/77 75/75/75 78/78/78
f 79/79/79 76/76/76 77/77/77
f 80/80/80 77/77/77 78/78/78
f 79/79/79 77/77/77 80/80/80
f 80/80/80 78/78/78 81/81/81
f 82/82/82 79/79/79 80/80/80
f 83/83/83 80/80/80 81/81/81
f 82/82/82 80/80/80 83/83/83
f 83/83/83 81/81/81 84/84/84
f 85/85/85 82/82/82 83/83/83
f 86/86/86 83/83/83 84/84/84
f 85/85/85 83/83/83 86/86/86
f 86/86/86 84/84/84 87/87/87
f 88/88/88 85/85/85 86/86/86
f 89/89/89 86/86/86 87/87/87
f 88/88/88 86/86/86 89/89/89
f 89/89/89 87/87/87 90/90/90
f 91/91/91 88/88/88 89/89/89
f 92/92/92 89/89/89 90/90/90
f 91/91/91 89/89/89 92/92/92
f 92/92/92 90/90/90 93/93/93
f 94/94/94 91/91/91 92/92/92
f 95/95/95 92/92/92 93/93/93
f 94/94/94 92/92/92 95/95/95
f 95/95/95 93/93/93 96/96/96
f 97/97/97 94/94/94 95/95/95
f 98/98/98 95/95/95 96/96/96
f 97/97/97 95/95/95 98/98/98
f 98/98/98 96/96/96 99/99/99
f 100/100/100 97/97/97 98/98/98
f 101/101/101 98/98/98 99/99/99
f 100/100/100 98/98/98 101/101/101
f 101/101/101 99/99/99 102/102/102
f 103/103/103 100/100/100 101/101/101
f 104/104/104 101/101/101 102/102/102
f 103/103/103 101/101/101 104/104/104
f 104/104/104 102/102/102 105/105/105
f 106/106/106 103/103/103 104/104/104
f 107/107/107 104/104/104 105/105/105
f 106/106/106 104/104/104 107/107/107
f 107/107/107 105/105/105 108/108/108
f 109/109/109 106/106/106 107/107/107
f 110/110/110 107/107/107 108/108/108
f 109/109/109 107/107/107 110/110/110
f 110/110/110 108/108/108 111/111/111
f 112/112/112 109/109/109 110/110/110
f 113/113/113 110/110/110 111/111/111
f 112/112/112 110/110/110 113/113/113
f 113/113/113 111/111/111 114/114/114
f 115/115/115 112/112/112 113/113/113
f 116/116/116 113/113/113 114/114/114
f 115/115/115 113/113/113 116/116/116
f 116/116/116 114/114/114 117/117/117
f 118/118/118 115/115/115 116/116/116
f 119/119/119 116/116/116 117/117/117
f 118/118/118 116/116/116 119/119/119
f 119/119/119 117/117/117 120/120/120
f 121/121/121 118/118/118 119/119/119
f 122/122/122 119/119/119 120/120/120
f 121/121/121 119/119/119 122/122/122
f 122/122/122 120/120/120 123/123/123
f 124/124/124 121/121/121 122/122/122
f 125/125/125 122/122/122 123/123/123
f 124/124/124 122/122/122 125/125/125
f 125/125/125 123/123/123 126/126/126
f 127/127/127 124/124/124 125/125/125
f 128/128/128 125/125/125 126/126/126
f 127/127/127 125/125/125 128/128/128
f 128/128/128 126/126/126 129/129/129
f 130/130/130 127/127/127 128/128/128
f 131/131/131 128/128/128 129/129/129
f 130/130/130 128/128/128 131/131/131
f 131/131/131 129/129/129 132/132/132
f 133/133/133 130/130/130 131/131/131
f 134/134/134 131/131/131 132/132/132
f 133/133/133 131/131/131 134/134/134
f 134/134/134 132/132/132 135/135/135
f 136/136/136 133/133/133 134/134/134
f 137/137/137 134/134/134 135/135/135
f 136/136/136 134/134/134 137/137/137
f 137/137/137 135/135/135 138/138/138
f 139/139/139 136/136/136 137/137/137
f 140/140/140 137/137/137 138/138/138
f 139/139/139 137/137/137 140/140/140
f 140/140/140 138/138/138 141/141/141
f 142/142/142 139/139/139 140/140/140
f 143/143/143 140/140/140 141/141/141
f 142/142/142 140/140/140 143/143/143
f 143/143/143 141/141/141 144/144/144
f 145/145/145 142/142/142 143/143/143
f 146/146/146 143/143/143 144/144/144
f 145/145/145 143/143/143 146/146/146
f 146/146/146 144/144/144 147/147/147
f 148/148/148 145/145/145 146/146/146
f 149/149/149 146/146/146 147/147/147
f 148/148/148 146/146/146 149/149/149
f 149/149/149 147/147/147 150/150/150
f 151/151/151 148/148/148 149/149/149
f 152/152/152 149/149/149 150/150/150
f 151/151/151 149/149/149 152/152/152
f 152/152/152 150/150/150 153/153/153
f 154/154/154 151/151/151 152/152/152
f 155/155/155 152/152/152 153/153/153
f 154/154/154 152/152/152 155/155/155
f 155/155/155 153/153/153 156/156/156
f 157/157/157 154/154/154 155/155/155
f 158/158/158 155/155/155 156/156/156
f 157/157/157 155/155/155 158/158/158
f 158/158/158 156/156/156 159/159/159
f 160/160/160 157/157/157 158/158/158
f 161/161/161 158/158/158 159/159/159
f 160/160/160 158/158/158 161/161/161
f 161/161/161 159/159/159 162/162/162
f 163/163/163 160/160/160 161/161/161
f 164/164/164 161/161/161 162/162/162
f 163/163/163 161/161/161 164/164/164
f 164/164/164 162/162/162 165/165/165
f 166/166/166 163/163/163 164/164/164
f 167/167/167 164/164/164 165/165/165
f 166/166/166 164/164/164 167/167/167
f 167/167/167 165/165/165 168/168/168
f 169/169/169 166/166/166 167/167/167
f 170/170/170 167/167/167 168/168/168
f 169/169/169 167/167/167 170/170/170
f 171/171/171 169/169/169 170/170/170
