g Eff_Trail_Cone_tt_001
v -1.0203838 1.3166981 -0.14729026
v -2.0249562 1.2617972 -0.022869186
v -2.0011199 1.4427245 -0.02765274
v -1.0476573 1.1365579 -0.14252616
v -2.0480776 1.082653 -0.018159866
v -1.0734307 0.96245956 -0.13794036
v -2.0697682 0.9033703 -0.013538055
v -1.096937 0.793568 -0.13356194
v -2.089031 0.7239125 -0.0090702055
v -1.1173528 0.6298537 -0.12943825
v -2.1048675 0.54424745 -0.004822769
v -1.1339427 0.4713037 -0.12561141
v -2.1162753 0.36434385 -0.00086265564
v -1.1460589 0.3179048 -0.12211746
v -2.1222496 0.18417525 0.0027431487
v -1.1531434 0.16960998 -0.11898597
v -2.121782 0.0037158201 0.005927429
v -1.1547205 0.026301421 -0.11623901
v -2.113863 -0.17705017 0.008622589
v -1.1503848 -0.11224396 -0.11389297
v -2.09748 -0.35813645 0.010761032
v -1.1397696 -0.24640578 -0.111958236
v -2.0716207 -0.5395494 0.012274857
v -1.1225052 -0.3767482 -0.11044227
v -2.035275 -0.721286 0.013096084
v -1.0981567 -0.5040426 -0.10935325
v -1.9874356 -0.9033377 0.0131568145
v -1.0661583 -0.6292567 -0.1087043
v -1.9271019 -1.08569 0.012389755
v -1.0257473 -0.75351375 -0.10851921
v -1.8532791 -1.2683264 0.010727462
v -0.97591877 -0.8780188 -0.10883652
v -1.7608719 -1.4579724 0.008110046
v -0.9180831 -0.9980145 -0.10955406
v -1.64427 -1.6471844 0.005897293
v -0.85611814 -1.0987744 -0.10967178
v -1.5126141 -1.8168517 0.004632492
v -0.786197 -1.1887262 -0.10912559
v -1.368372 -1.9675524 0.0041545867
v -0.7084681 -1.269516 -0.10797722
v -1.2140088 -2.0998893 0.004302826
v -0.6232823 -1.3419262 -0.10626777
v -1.0519743 -2.2144866 0.004916153
v -0.53145087 -1.4060882 -0.10403076
v -0.8847066 -2.311981 0.0058325194
v -0.43436435 -1.461749 -0.101299204
v -0.7146247 -2.393013 0.006891632
v -0.33399907 -1.5085049 -0.09810417
v -0.5441383 -2.458225 0.007931366
v -0.23289007 -1.5459906 -0.094468765
v -0.375641 -2.5082564 0.0087908935
v -0.1340972 -1.5740054 -0.09039161
v -0.2115154 -2.5437417 0.009307632
v -0.04122448 -1.59263 -0.085820004
v -0.05413245 -2.5653057 0.009317627
v 0.041476592 -1.6023602 -0.08060295
v 0.09415085 -2.5735607 0.008653717
v 0.10888135 -1.6043508 -0.074401855
v 0.23100069 -2.5690973 0.00714241
v 0.15458354 -1.6009213 -0.06650917
v 0.4488617 -2.5401971 0.004671173
v 0.27163327 -1.5837649 -0.064230196
v 0.6470506 -2.4920137 0.0039067077
v 0.36791885 -1.5586209 -0.060972594
v 0.8254416 -2.427809 0.004627914
v 0.45092762 -1.52677 -0.056756057
v 0.9875126 -2.35061 0.006559219
v 0.5312646 -1.4863039 -0.05165756
v 1.1367978 -2.2634597 0.009422989
v 0.617353 -1.4336916 -0.045599896
v 1.2768915 -2.1693792 0.012941513
v 0.7150548 -1.365664 -0.038471296
v 1.4114239 -2.0713456 0.016839828
v 0.82852036 -1.280607 -0.030238189
v -2.0011199 1.4427245 -0.02765274
v -1.0476581 1.1430507 0.10323921
v -1.0203838 1.3231969 0.09847755
v -2.0249562 1.2617972 -0.022869186
v -1.0734409 0.9688738 0.107808985
v -2.0480776 1.082653 -0.018159866
v -1.0969665 0.7998123 0.11214294
v -2.0697682 0.9033703 -0.013538055
v -1.117409 0.63583523 0.11617752
v -2.089031 0.7239125 -0.0090702055
v -1.1340282 0.4769287 0.119855344
v -2.1048675 0.54424745 -0.004822769
v -1.1461704 0.3230789 0.12312438
v -2.1162753 0.36434385 -0.00086265564
v -1.1532704 0.17423904 0.1259391
v -2.1222496 0.18417525 0.0027431487
v -1.1548432 0.030293884 0.12826118
v -2.121782 0.0037158201 0.005927429
v -1.1504735 -0.10897552 0.13005821
v -2.113863 -0.17705017 0.008622589
v -1.1397837 -0.24394134 0.13130333
v -2.09748 -0.35813645 0.010761032
v -1.1223941 -0.37515548 0.13197258
v -2.0716207 -0.5395494 0.012274857
v -1.0978607 -0.50337446 0.1320417
v -2.035275 -0.721286 0.013096084
v -1.0656116 -0.62954557 0.13148093
v -1.9874356 -0.9033377 0.0131568145
v -1.0248816 -0.7547711 0.13025108
v -1.9271019 -1.08569 0.012389755
v -0.9746686 -0.8802316 0.12829705
v -1.8532791 -1.2683264 0.010727462
v -0.91671836 -1.0005093 0.12571616
v -1.7608719 -1.4579724 0.008110046
v -0.85527843 -1.1004171 0.12350059
v -1.64427 -1.6471844 0.005897293
v -0.78589493 -1.1896808 0.12168129
v -1.5126141 -1.8168517 0.004632492
v -0.7086771 -1.2699554 0.120181955
v -1.368372 -1.9675524 0.0041545867
v -0.62394017 -1.342019 0.11894768
v -1.2140088 -2.0998893 0.004302826
v -0.5324654 -1.4059942 0.11793022
v -1.0519743 -2.2144866 0.004916153
v -0.43561885 -1.4616144 0.11708244
v -0.8847066 -2.311981 0.0058325194
v -0.33535513 -1.5084649 0.116358414
v -0.7146247 -2.393013 0.006891632
v -0.23418805 -1.546169 0.11571945
v -0.5441383 -2.458225 0.007931366
v -0.13515174 -1.5745233 0.11515144
v -0.375641 -2.5082564 0.0087908935
v -0.041814614 -1.5936059 0.114690244
v -0.2115154 -2.5437417 0.009307632
v 0.041626405 -1.6039194 0.114468835
v -0.05413245 -2.5653057 0.009317627
v 0.110135406 -1.6066278 0.11480499
v 0.09415085 -2.5735607 0.008653717
v 0.15745816 -1.6040652 0.116379395
v 0.23100069 -2.5690973 0.00714241
v 0.27357402 -1.5869452 0.11193306
v 0.4488617 -2.5401971 0.004671173
v 0.36888382 -1.5618877 0.10799599
v 0.6470506 -2.4920137 0.0039067077
v 0.45105106 -1.5301727 0.10453125
v 0.8254416 -2.427809 0.004627914
v 0.53073627 -1.4898382 0.10144889
v 0.9875126 -2.35061 0.006559219
v 0.61638737 -1.4372952 0.098814465
v 1.1367978 -2.2634597 0.009422989
v 0.7138609 -1.3692303 0.09672691
v 1.2768915 -2.1693792 0.012941513
v 0.827283 -1.2840091 0.09520637
v 1.4114239 -2.0713456 0.016839828
vt -0.0003606612 0.0012913719
vt 0.02738928 0.9989884
vt -0.0003607059 0.9989884
vt 0.027389325 0.0012913719
vt 0.05513922 0.9989884
vt 0.055139266 0.0012913719
vt 0.08288921 0.9989884
vt 0.08288925 0.0012913719
vt 0.11063919 0.9989884
vt 0.11063924 0.0012913719
vt 0.1383892 0.9989884
vt 0.13838924 0.0012913719
vt 0.16613922 0.9989884
vt 0.16613926 0.0012913719
vt 0.19388917 0.9989884
vt 0.19388922 0.0012913719
vt 0.22163916 0.9989884
vt 0.2216392 0.0012914017
vt 0.24938916 0.9989884
vt 0.24938919 0.0012914017
vt 0.27713916 0.9989884
vt 0.2771392 0.0012914017
vt 0.30488917 0.9989884
vt 0.3048892 0.0012914017
vt 0.33263916 0.9989884
vt 0.3326392 0.0012914017
vt 0.36038917 0.9989884
vt 0.3603892 0.0012914017
vt 0.38813916 0.9989884
vt 0.3881392 0.0012914017
vt 0.41588914 0.9989885
vt 0.41588917 0.0012914017
vt 0.4436392 0.9989885
vt 0.44363922 0.0012914017
vt 0.47138917 0.9989885
vt 0.4713892 0.0012914017
vt 0.49913922 0.9989885
vt 0.49913925 0.0012914017
vt 0.5268892 0.9989885
vt 0.5268892 0.0012914017
vt 0.5546391 0.9989885
vt 0.5546392 0.0012914017
vt 0.58238924 0.9989885
vt 0.58238924 0.0012914017
vt 0.61013913 0.9989885
vt 0.61013925 0.0012914985
vt 0.63788915 0.9989885
vt 0.63788927 0.0012914985
vt 0.66563916 0.9989885
vt 0.6656393 0.0012914985
vt 0.6933892 0.9989885
vt 0.6933892 0.0012914985
vt 0.7211392 0.9989885
vt 0.7211393 0.0012914985
vt 0.7488892 0.9989885
vt 0.7488892 0.0012914985
vt 0.7766392 0.9989885
vt 0.7766392 0.0012914985
vt 0.80438924 0.9989885
vt 0.80438936 0.0012914985
vt 0.83213925 0.9989885
vt 0.8321394 0.0012914985
vt 0.85988915 0.9989885
vt 0.85988915 0.0012914985
vt 0.88763916 0.9989885
vt 0.8876393 0.0012914985
vt 0.9153892 0.9989885
vt 0.9153893 0.0012914985
vt 0.9431392 0.9989885
vt 0.9431393 0.0012914985
vt 0.9708892 0.9989885
vt 0.97088933 0.0012914985
vt 0.99863935 0.9989885
vt 0.99863935 0.0012915358
vt -0.0003607059 0.9989884
vt 0.027389325 0.00015684962
vt -0.0003606612 0.00015684962
vt 0.02738928 0.9989884
vt 0.055139266 0.00015684962
vt 0.05513922 0.9989884
vt 0.08288925 0.00015684962
vt 0.08288921 0.9989884
vt 0.11063924 0.00015684962
vt 0.11063919 0.9989884
vt 0.13838924 0.00015684962
vt 0.1383892 0.9989884
vt 0.16613926 0.00015684962
vt 0.16613922 0.9989884
vt 0.19388922 0.00015684962
vt 0.19388917 0.9989884
vt 0.2216392 0.00015687943
vt 0.22163916 0.9989884
vt 0.24938919 0.00015687943
vt 0.24938916 0.9989884
vt 0.2771392 0.00015687943
vt 0.27713916 0.9989884
vt 0.3048892 0.00015687943
vt 0.30488917 0.9989884
vt 0.3326392 0.00015687943
vt 0.33263916 0.9989884
vt 0.3603892 0.00015687943
vt 0.36038917 0.9989884
vt 0.3881392 0.00015687943
vt 0.38813916 0.9989884
vt 0.41588917 0.00015687943
vt 0.41588914 0.9989885
vt 0.44363922 0.00015687943
vt 0.4436392 0.9989885
vt 0.4713892 0.00015687943
vt 0.47138917 0.9989885
vt 0.49913925 0.00015687943
vt 0.49913922 0.9989885
vt 0.5268892 0.00015687943
vt 0.5268892 0.9989885
vt 0.5546392 0.00015687943
vt 0.5546391 0.9989885
vt 0.58238924 0.00015687943
vt 0.58238924 0.9989885
vt 0.61013925 0.00015694648
vt 0.61013913 0.9989885
vt 0.63788927 0.00015694648
vt 0.63788915 0.9989885
vt 0.6656393 0.00015694648
vt 0.66563916 0.9989885
vt 0.6933892 0.00015694648
vt 0.6933892 0.9989885
vt 0.7211393 0.00015694648
vt 0.7211392 0.9989885
vt 0.7488892 0.00015694648
vt 0.7488892 0.9989885
vt 0.7766392 0.00015694648
vt 0.7766392 0.9989885
vt 0.80438936 0.00015694648
vt 0.80438924 0.9989885
vt 0.8321394 0.00015694648
vt 0.83213925 0.9989885
vt 0.85988915 0.00015694648
vt 0.85988915 0.9989885
vt 0.8876393 0.00015694648
vt 0.88763916 0.9989885
vt 0.9153893 0.00015694648
vt 0.9153892 0.9989885
vt 0.9431393 0.00015694648
vt 0.9431392 0.9989885
vt 0.97088933 0.00015694648
vt 0.9708892 0.9989885
vt 0.99863935 0.00015701354
vt 0.99863935 0.9989885
vn 0.12243099 0.008912493 0.99243706
vn 0.99036777 -0.13841447 0.0036110713
vn 0.9901404 -0.14002964 0.0037004896
vn 0.12265017 0.009007299 0.9924091
vn 0.9911857 -0.13243721 0.0033388103
vn 0.12309919 0.009369569 0.99235016
vn 0.9926643 -0.12086858 0.0029151458
vn 0.12354759 0.010080224 0.9922874
vn 0.99461704 -0.10359285 0.0023574156
vn 0.12397569 0.011147549 0.9922226
vn 0.99675 -0.08053985 0.0016826431
vn 0.124356695 0.012579782 0.9921578
vn 0.998665 -0.05164726 0.0009181673
vn 0.12465685 0.014381915 0.99209565
vn 0.9998572 -0.016902287 9.704225E-05
vn 0.12483525 0.01655399 0.99203944
vn 0.9997209 0.0236131 -0.0007365619
vn 0.12484448 0.019084835 0.9919927
vn 0.9975684 0.069676846 -0.0015305284
vn 0.12463248 0.021949958 0.9919601
vn 0.99266475 0.12087882 -0.0022261941
vn 0.12414565 0.025109157 0.9919463
vn 0.98428464 0.17656755 -0.0027606334
vn 0.12333344 0.028500915 0.9919559
vn 0.97178644 0.23584276 -0.0030712816
vn 0.12215419 0.03204429 0.99199367
vn 0.9546988 0.29755765 -0.003102088
vn 0.1205817 0.035640076 0.99206334
vn 0.93279743 0.3603902 -0.0028130494
vn 0.118611105 0.039175652 0.99216765
vn 0.905615 0.42409623 -0.0020122286
vn 0.11608883 0.042925585 0.9923109
vn 0.86525846 0.5013251 0.001009643
vn 0.11051625 0.05124275 0.9925525
vn 0.8060002 0.5919101 0.002459383
vn 0.100758865 0.064310655 0.9928302
vn 0.7356226 0.67738545 0.002876935
vn 0.08904461 0.07676731 0.99306494
vn 0.65945715 0.7517366 0.0029088971
vn 0.07670237 0.08693591 0.9932567
vn 0.5798124 0.8147456 0.002684513
vn 0.0641819 0.09478479 0.9934267
vn 0.49839893 0.8669447 0.0023379466
vn 0.05183793 0.100401886 0.99359566
vn 0.4161721 0.90928364 0.0020049377
vn 0.03990129 0.103941195 0.9937828
vn 0.3332984 0.94281965 0.0018045718
vn 0.028482644 0.10556554 0.9940044
vn 0.2491647 0.96845937 0.0018696438
vn 0.017569106 0.10540176 0.99427456
vn 0.16229206 0.98674 0.0023295518
vn 0.006997422 0.10350113 0.99460465
vn 0.07010717 0.9975339 0.0033377928
vn -0.0036254234 0.09977545 0.9950034
vn -0.03168188 0.99948525 0.0050406335
vn -0.015186596 0.093868464 0.99546874
vn -0.150711 0.98855025 0.007396843
vn -0.029898137 0.084769465 0.9959519
vn -0.22854239 0.97341645 0.015129509
vn -0.02361922 0.07594891 0.99683195
vn -0.30403104 0.95240706 0.022043534
vn -0.017057236 0.06862475 0.99749666
vn -0.42922807 0.9029401 0.02150586
vn -0.031845864 0.05968661 0.99770904
vn -0.5431431 0.8394108 0.01962098
vn -0.044690233 0.049301457 0.9977836
vn -0.6351397 0.7722118 0.016927218
vn -0.05402208 0.038647078 0.99779165
vn -0.7023603 0.7116828 0.014060137
vn -0.05952728 0.028901417 0.99780816
vn -0.7466976 0.6650627 0.011586054
vn -0.061489448 0.020874681 0.99788946
vn -0.76389533 0.6452565 0.010396965
vn -0.061649967 0.017382372 0.99794644
vn 0.9901404 -0.14002964 0.0037004896
vn 0.12266898 -0.043300584 -0.99150264
vn 0.12243153 -0.043541923 -0.99152136
vn 0.99036777 -0.13841447 0.0036110713
vn 0.12319578 -0.042296637 -0.9914806
vn 0.9911857 -0.13243721 0.0033388103
vn 0.123799056 -0.040225968 -0.9914916
vn 0.9926643 -0.12086858 0.0029151458
vn 0.124439 -0.03705774 -0.99153495
vn 0.99461704 -0.10359285 0.0023574156
vn 0.12505409 -0.0327769 -0.9916083
vn 0.99675 -0.08053985 0.0016826431
vn 0.12556304 -0.027372207 -0.991708
vn 0.998665 -0.05164726 0.0009181673
vn 0.12586418 -0.020846058 -0.99182844
vn 0.9998572 -0.016902287 9.704225E-05
vn 0.12583745 -0.01322045 -0.99196285
vn 0.9997209 0.0236131 -0.0007365619
vn 0.12534784 -0.004547156 -0.99210244
vn 0.9975684 0.069676846 -0.0015305284
vn 0.124252714 0.005082357 -0.9922376
vn 0.99266475 0.12087882 -0.0022261941
vn 0.12241304 0.015529197 -0.9923577
vn 0.98428464 0.17656755 -0.0027606334
vn 0.119707845 0.026604407 -0.9924527
vn 0.97178644 0.23584276 -0.0030712816
vn 0.116050735 0.038070362 -0.99251336
vn 0.9546988 0.29755765 -0.003102088
vn 0.11140377 0.049656536 -0.9925338
vn 0.93279743 0.3603902 -0.0028130494
vn 0.10583239 0.060986593 -0.9925121
vn 0.905615 0.42409623 -0.0020122286
vn 0.09986251 0.07070653 -0.99248576
vn 0.86525846 0.5013251 0.001009643
vn 0.09357412 0.07837515 -0.99252266
vn 0.8060002 0.5919101 0.002459383
vn 0.086548366 0.08491207 -0.9926225
vn 0.7356226 0.67738545 0.002876935
vn 0.078911394 0.09045999 -0.9927689
vn 0.65945715 0.7517366 0.0029088971
vn 0.0708639 0.09500919 -0.9929509
vn 0.5798124 0.8147456 0.002684513
vn 0.06254917 0.098626435 -0.99315685
vn 0.49839893 0.8669447 0.0023379466
vn 0.054048933 0.10142168 -0.99337417
vn 0.4161721 0.90928364 0.0020049377
vn 0.04538185 0.10352867 -0.9935907
vn 0.3332984 0.94281965 0.0018045718
vn 0.036521506 0.10508981 -0.9937919
vn 0.2491647 0.96845937 0.0018696438
vn 0.027421415 0.106254674 -0.99396074
vn 0.16229206 0.98674 0.0023295518
vn 0.018066559 0.10719768 -0.99407357
vn 0.07010717 0.9975339 0.0033377928
vn 0.008631828 0.10817178 -0.9940948
vn -0.03168188 0.99948525 0.0050406335
vn -6.654388E-06 0.10970775 -0.9939639
vn -0.150711 0.98855025 0.007396843
vn -0.019874768 0.10910474 -0.9938315
vn -0.22854239 0.97341645 0.015129509
vn -0.038365986 0.10454642 -0.9937797
vn -0.30403104 0.95240706 0.022043534
vn -0.043344807 0.09816197 -0.99422604
vn -0.42922807 0.9029401 0.02150586
vn -0.046409488 0.09125879 -0.99474525
vn -0.5431431 0.8394108 0.01962098
vn -0.047401275 0.084522836 -0.99529344
vn -0.6351397 0.7722118 0.016927218
vn -0.046500403 0.07845946 -0.99583226
vn -0.7023603 0.7116828 0.014060137
vn -0.044215135 0.07324052 -0.9963337
vn -0.7466976 0.6650627 0.011586054
vn -0.042811066 0.07085654 -0.99656737
vn -0.76389533 0.6452565 0.010396965
g Eff_Trail_Cone_tt_001_0
f 3/3/3 2/2/2 1/1/1
f 2/2/2 4/4/4 1/1/1
f 2/2/2 5/5/5 4/4/4
f 5/5/5 6/6/6 4/4/4
f 5/5/5 7/7/7 6/6/6
f 7/7/7 8/8/8 6/6/6
f 7/7/7 9/9/9 8/8/8
f 9/9/9 10/10/10 8/8/8
f 9/9/9 11/11/11 10/10/10
f 11/11/11 12/12/12 10/10/10
f 11/11/11 13/13/13 12/12/12
f 13/13/13 14/14/14 12/12/12
f 13/13/13 15/15/15 14/14/14
f 15/15/15 16/16/16 14/14/14
f 15/15/15 17/17/17 16/16/16
f 17/17/17 18/18/18 16/16/16
f 17/17/17 19/19/19 18/18/18
f 19/19/19 20/20/20 18/18/18
f 19/19/19 21/21/21 20/20/20
f 21/21/21 22/22/22 20/20/20
f 21/21/21 23/23/23 22/22/22
f 23/23/23 24/24/24 22/22/22
f 23/23/23 25/25/25 24/24/24
f 25/25/25 26/26/26 24/24/24
f 25/25/25 27/27/27 26/26/26
f 27/27/27 28/28/28 26/26/26
f 27/27/27 29/29/29 28/28/28
f 29/29/29 30/30/30 28/28/28
f 29/29/29 31/31/31 30/30/30
f 31/31/31 32/32/32 30/30/30
f 31/31/31 33/33/33 32/32/32
f 33/33/33 34/34/34 32/32/32
f 33/33/33 35/35/35 34/34/34
f 35/35/35 36/36/36 34/34/34
f 35/35/35 37/37/37 36/36/36
f 37/37/37 38/38/38 36/36/36
f 37/37/37 39/39/39 38/38/38
f 39/39/39 40/40/40 38/38/38
f 39/39/39 41/41/41 40/40/40
f 41/41/41 42/42/42 40/40/40
f 41/41/41 43/43/43 42/42/42
f 43/43/43 44/44/44 42/42/42
f 43/43/43 45/45/45 44/44/44
f 45/45/45 46/46/46 44/44/44
f 45/45/45 47/47/47 46/46/46
f 47/47/47 48/48/48 46/46/46
f 47/47/47 49/49/49 48/48/48
f 49/49/49 50/50/50 48/48/48
f 49/49/49 51/51/51 50/50/50
f 51/51/51 52/52/52 50/50/50
f 51/51/51 53/53/53 52/52/52
f 53/53/53 54/54/54 52/52/52
f 53/53/53 55/55/55 54/54/54
f 55/55/55 56/56/56 54/54/54
f 55/55/55 57/57/57 56/56/56
f 57/57/57 58/58/58 56/56/56
f 57/57/57 59/59/59 58/58/58
f 59/59/59 60/60/60 58/58/58
f 59/59/59 61/61/61 60/60/60
f 61/61/61 62/62/62 60/60/60
f 61/61/61 63/63/63 62/62/62
f 63/63/63 64/64/64 62/62/62
f 63/63/63 65/65/65 64/64/64
f 65/65/65 66/66/66 64/64/64
f 65/65/65 67/67/67 66/66/66
f 67/67/67 68/68/68 66/66/66
f 67/67/67 69/69/69 68/68/68
f 69/69/69 70/70/70 68/68/68
f 69/69/69 71/71/71 70/70/70
f 71/71/71 72/72/72 70/70/70
f 71/71/71 73/73/73 72/72/72
f 73/73/73 74/74/74 72/72/72
f 77/77/77 76/76/76 75/75/75
f 76/76/76 78/78/78 75/75/75
f 76/76/76 79/79/79 78/78/78
f 79/79/79 80/80/80 78/78/78
f 79/79/79 81/81/81 80/80/80
f 81/81/81 82/82/82 80/80/80
f 81/81/81 83/83/83 82/82/82
f 83/83/83 84/84/84 82/82/82
f 83/83/83 85/85/85 84/84/84
f 85/85/85 86/86/86 84/84/84
f 85/85/85 87/87/87 86/86/86
f 87/87/87 88/88/88 86/86/86
f 87/87/87 89/89/89 88/88/88
f 89/89/89 90/90/90 88/88/88
f 89/89/89 91/91/91 90/90/90
f 91/91/91 92/92/92 90/90/90
f 91/91/91 93/93/93 92/92/92
f 93/93/93 94/94/94 92/92/92
f 93/93/93 95/95/95 94/94/94
f 95/95/95 96/96/96 94/94/94
f 95/95/95 97/97/97 96/96/96
f 97/97/97 98/98/98 96/96/96
f 97/97/97 99/99/99 98/98/98
f 99/99/99 100/100/100 98/98/98
f 99/99/99 101/101/101 100/100/100
f 101/101/101 102/102/102 100/100/100
f 101/101/101 103/103/103 102/102/102
f 103/103/103 104/104/104 102/102/102
f 103/103/103 105/105/105 104/104/104
f 105/105/105 106/106/106 104/104/104
f 105/105/105 107/107/107 106/106/106
f 107/107/107 108/108/108 106/106/106
f 107/107/107 109/109/109 108/108/108
f 109/109/109 110/110/110 108/108/108
f 109/109/109 111/111/111 110/110/110
f 111/111/111 112/112/112 110/110/110
f 111/111/111 113/113/113 112/112/112
f 113/113/113 114/114/114 112/112/112
f 113/113/113 115/115/115 114/114/114
f 115/115/115 116/116/116 114/114/114
f 115/115/115 117/117/117 116/116/116
f 117/117/117 118/118/118 116/116/116
f 117/117/117 119/119/119 118/118/118
f 119/119/119 120/120/120 118/118/118
f 119/119/119 121/121/121 120/120/120
f 121/121/121 122/122/122 120/120/120
f 121/121/121 123/123/123 122/122/122
f 123/123/123 124/124/124 122/122/122
f 123/123/123 125/125/125 124/124/124
f 125/125/125 126/126/126 124/124/124
f 125/125/125 127/127/127 126/126/126
f 127/127/127 128/128/128 126/126/126
f 127/127/127 129/129/129 128/128/128
f 129/129/129 130/130/130 128/128/128
f 129/129/129 131/131/131 130/130/130
f 131/131/131 132/132/132 130/130/130
f 131/131/131 133/133/133 132/132/132
f 133/133/133 134/134/134 132/132/132
f 133/133/133 135/135/135 134/134/134
f 135/135/135 136/136/136 134/134/134
f 135/135/135 137/137/137 136/136/136
f 137/137/137 138/138/138 136/136/136
f 137/137/137 139/139/139 138/138/138
f 139/139/139 140/140/140 138/138/138
f 139/139/139 141/141/141 140/140/140
f 141/141/141 142/142/142 140/140/140
f 141/141/141 143/143/143 142/142/142
f 143/143/143 144/144/144 142/142/142
f 143/143/143 145/145/145 144/144/144
f 145/145/145 146/146/146 144/144/144
f 145/145/145 147/147/147 146/146/146
f 147/147/147 148/148/148 146/146/146
