g Eff_Trail_Cone_tt_021
v 0.08622337 -4.6398883 0
v 0.36299706 -2.3199894 0
v 0.092997774 -4.6398883 0
v 0.11010872 -2.3199894 0
v 0.079448946 -4.6398883 0
v 0.008056888 -9.048462E-05 0
v -0.12139099 -2.3199894 0
v 7.1144104E-06 -9.048462E-05 0
v -0.00804266 -9.048462E-05 0
vt 0.49705276 0.008321533
vt 0.9981704 0.5045949
vt 0.9981704 0.008321533
vt 0.49705276 0.5045949
vt -0.004064816 0.008321533
vt 0.9981704 1.0008681
vt -0.004064816 0.5045949
vt 0.49705276 1.0008681
vt -0.004064816 1.0008681
vn -0 0 1
vn -0 0 1
vn -0 0 1
vn -0 0 1
vn -0 0 1
vn -0 0 1
vn -0 0 1
vn -0 0 1
vn -0 0 1
g Eff_Trail_Cone_tt_021_0
f 3/3/3 2/2/2 1/1/1
f 2/2/2 4/4/4 1/1/1
f 1/1/1 4/4/4 5/5/5
f 2/2/2 6/6/6 4/4/4
f 4/4/4 7/7/7 5/5/5
f 6/6/6 8/8/8 4/4/4
f 4/4/4 8/8/8 7/7/7
f 8/8/8 9/9/9 7/7/7
