g Eff_Trail_Cone_tt_032
v -0.038658038 0.012560756 0
v -0.04056726 0.002552273 0.054415956
v -0.04056726 0.002552273 0
v -0.038658038 0.012560756 0.054415956
v -0.034319792 0.021779997 0
v -0.04056726 0.002552273 0.10883191
v -0.034319792 0.021779997 0.054415956
v -0.027825112 0.029630722 0
v -0.038658038 0.012560756 0.10883191
v -0.04056726 0.002552273 0.16324787
v -0.027825112 0.029630722 0.054415956
v -0.019582069 0.035619646 0
v -0.034319792 0.021779997 0.10883191
v -0.038658038 0.012560756 0.16324787
v -0.04056726 0.002552273 0.21766382
v -0.019582069 0.035619646 0.054415956
v -0.010108615 0.03937045 0
v -0.027825112 0.029630722 0.10883191
v -0.034319792 0.021779997 0.16324787
v -0.038658038 0.012560756 0.21766382
v -0.04056726 0.002552273 0.27207977
v -0.038658038 0.012560756 0.27207977
v -0.034319792 0.021779997 0.21766382
v -0.034319792 0.021779997 0.27207977
v -0.010108615 0.03937045 0.054415956
v -1.7767571E-09 0.04064747 0
v -0.019582069 0.035619646 0.10883191
v -0.027825112 0.029630722 0.16324787
v -0.027825112 0.029630722 0.21766382
v -0.027825112 0.029630722 0.27207977
v -1.7767571E-09 0.04064747 0.054415956
v 0.010108553 0.039370466 0
v -0.010108615 0.03937045 0.10883191
v -0.019582069 0.035619646 0.16324787
v -0.019582069 0.035619646 0.21766382
v -0.019582069 0.035619646 0.27207977
v 0.010108553 0.039370466 0.054415956
v 0.019582016 0.035619676 0
v -1.7767571E-09 0.04064747 0.10883191
v -0.010108615 0.03937045 0.16324787
v -0.010108615 0.03937045 0.21766382
v -0.010108615 0.03937045 0.27207977
v 0.019582016 0.035619676 0.054415956
v 0.027825065 0.029630765 0
v 0.010108553 0.039370466 0.10883191
v -1.7767571E-09 0.04064747 0.16324787
v -1.7767571E-09 0.04064747 0.21766382
v -1.7767571E-09 0.04064747 0.27207977
v 0.027825065 0.029630765 0.054415956
v 0.034319766 0.021780044 0
v 0.019582016 0.035619676 0.10883191
v 0.010108553 0.039370466 0.16324787
v 0.010108553 0.039370466 0.21766382
v 0.010108553 0.039370466 0.27207977
v 0.034319766 0.021780044 0.054415956
v 0.038658023 0.0125608025 0
v 0.027825065 0.029630765 0.10883191
v 0.019582016 0.035619676 0.16324787
v 0.019582016 0.035619676 0.21766382
v 0.019582016 0.035619676 0.27207977
v 0.038658023 0.0125608025 0.054415956
v 0.04056726 0.0025523177 0
v 0.034319766 0.021780044 0.10883191
v 0.027825065 0.029630765 0.16324787
v 0.027825065 0.029630765 0.21766382
v 0.027825065 0.029630765 0.27207977
v 0.04056726 0.0025523177 0.054415956
v 0.039927498 -0.007616539 0
v 0.038658023 0.0125608025 0.10883191
v 0.034319766 0.021780044 0.16324787
v 0.034319766 0.021780044 0.21766382
v 0.034319766 0.021780044 0.27207977
v 0.039927498 -0.007616539 0.054415956
v 0.03677894 -0.017306818 0
v 0.04056726 0.0025523177 0.10883191
v 0.038658023 0.0125608025 0.16324787
v 0.038658023 0.0125608025 0.21766382
v 0.038658023 0.0125608025 0.27207977
v 0.03677894 -0.017306818 0.054415956
v 0.03131943 -0.025909645 0
v 0.039927498 -0.007616539 0.10883191
v 0.04056726 0.0025523177 0.16324787
v 0.04056726 0.0025523177 0.21766382
v 0.04056726 0.0025523177 0.27207977
v 0.03131943 -0.025909645 0.054415956
v 0.023892011 -0.032884475 0
v 0.03677894 -0.017306818 0.10883191
v 0.039927498 -0.007616539 0.16324787
v 0.039927498 -0.007616539 0.21766382
v 0.039927498 -0.007616539 0.27207977
v 0.023892011 -0.032884475 0.054415956
v 0.014963359 -0.037793048 0
v 0.03131943 -0.025909645 0.10883191
v 0.03677894 -0.017306818 0.16324787
v 0.03677894 -0.017306818 0.21766382
v 0.03677894 -0.017306818 0.27207977
v 0.014963359 -0.037793048 0.054415956
v 0.005094505 -0.04032694 0
v 0.023892011 -0.032884475 0.10883191
v 0.03131943 -0.025909645 0.16324787
v 0.03131943 -0.025909645 0.21766382
v 0.03131943 -0.025909645 0.27207977
v 0.005094505 -0.04032694 0.054415956
v -0.005094456 -0.040326953 0
v 0.014963359 -0.037793048 0.10883191
v 0.023892011 -0.032884475 0.16324787
v 0.023892011 -0.032884475 0.21766382
v 0.023892011 -0.032884475 0.27207977
v -0.005094456 -0.040326953 0.054415956
v -0.014963313 -0.037793063 0
v 0.005094505 -0.04032694 0.10883191
v 0.014963359 -0.037793048 0.16324787
v 0.014963359 -0.037793048 0.21766382
v 0.014963359 -0.037793048 0.27207977
v -0.014963313 -0.037793063 0.054415956
v -0.023891969 -0.0328845 0
v -0.005094456 -0.040326953 0.10883191
v 0.005094505 -0.04032694 0.16324787
v 0.005094505 -0.04032694 0.21766382
v 0.005094505 -0.04032694 0.27207977
v -0.023891969 -0.0328845 0.054415956
v -0.031319406 -0.02590968 0
v -0.014963313 -0.037793063 0.10883191
v -0.005094456 -0.040326953 0.16324787
v -0.005094456 -0.040326953 0.21766382
v -0.005094456 -0.040326953 0.27207977
v -0.031319406 -0.02590968 0.054415956
v -0.036778923 -0.017306853 0
v -0.023891969 -0.0328845 0.10883191
v -0.014963313 -0.037793063 0.16324787
v -0.014963313 -0.037793063 0.21766382
v -0.014963313 -0.037793063 0.27207977
v -0.036778923 -0.017306853 0.054415956
v -0.039927486 -0.0076165777 0
v -0.031319406 -0.02590968 0.10883191
v -0.023891969 -0.0328845 0.16324787
v -0.023891969 -0.0328845 0.21766382
v -0.023891969 -0.0328845 0.27207977
v -0.039927486 -0.0076165777 0.054415956
v -0.04056726 0.002552273 0
v -0.04056726 0.002552273 0.054415956
v -0.036778923 -0.017306853 0.10883191
v -0.031319406 -0.02590968 0.16324787
v -0.031319406 -0.02590968 0.21766382
v -0.031319406 -0.02590968 0.27207977
v -0.039927486 -0.0076165777 0.10883191
v -0.04056726 0.002552273 0.10883191
v -0.036778923 -0.017306853 0.16324787
v -0.036778923 -0.017306853 0.21766382
v -0.036778923 -0.017306853 0.27207977
v -0.039927486 -0.0076165777 0.16324787
v -0.04056726 0.002552273 0.16324787
v -0.039927486 -0.0076165777 0.21766382
v -0.039927486 -0.0076165777 0.27207977
v -0.04056726 0.002552273 0.21766382
v -0.04056726 0.002552273 0.27207977
vt 0.9595399 0.0005010469
vt 0.99950004 0.20092441
vt 0.99950004 0.0005010469
vt 0.9595399 0.20092441
vt 0.9195798 0.0005010469
vt 0.99950004 0.40134782
vt 0.9195798 0.20092441
vt 0.8796199 0.0005010469
vt 0.9595399 0.40134782
vt 0.99950004 0.60177124
vt 0.8796199 0.20092441
vt 0.8396599 0.0005010469
vt 0.9195798 0.40134782
vt 0.9595399 0.60177124
vt 0.99950004 0.80219454
vt 0.8396599 0.20092441
vt 0.79969984 0.0005010469
vt 0.8796199 0.40134782
vt 0.9195798 0.60177124
vt 0.9595399 0.80219454
vt 0.99950004 1.0026181
vt 0.9595399 1.0026181
vt 0.9195798 0.80219454
vt 0.9195798 1.0026181
vt 0.79969984 0.20092441
vt 0.75973994 0.0005010469
vt 0.8396599 0.40134782
vt 0.8796199 0.60177124
vt 0.8796199 0.80219454
vt 0.8796199 1.0026181
vt 0.75973994 0.20092441
vt 0.71978015 0.0005010469
vt 0.79969984 0.40134782
vt 0.8396599 0.60177124
vt 0.8396599 0.80219454
vt 0.8396599 1.0026181
vt 0.71978015 0.20092441
vt 0.6798201 0.0005010469
vt 0.75973994 0.40134782
vt 0.79969984 0.60177124
vt 0.79969984 0.80219454
vt 0.79969984 1.0026181
vt 0.6798201 0.20092441
vt 0.63986015 0.0005010469
vt 0.71978015 0.40134782
vt 0.75973994 0.60177124
vt 0.75973994 0.80219454
vt 0.75973994 1.0026181
vt 0.63986015 0.20092441
vt 0.5999002 0.0005010469
vt 0.6798201 0.40134782
vt 0.71978015 0.60177124
vt 0.71978015 0.80219454
vt 0.71978015 1.0026181
vt 0.5999002 0.20092441
vt 0.55994016 0.0005010469
vt 0.63986015 0.40134782
vt 0.6798201 0.60177124
vt 0.6798201 0.80219454
vt 0.6798201 1.0026181
vt 0.55994016 0.20092441
vt 0.5199801 0.0005010469
vt 0.5999002 0.40134782
vt 0.63986015 0.60177124
vt 0.63986015 0.80219454
vt 0.63986015 1.0026181
vt 0.5199801 0.20092441
vt 0.48002008 0.0005010469
vt 0.55994016 0.40134782
vt 0.5999002 0.60177124
vt 0.5999002 0.80219454
vt 0.5999002 1.0026181
vt 0.48002008 0.20092441
vt 0.44006002 0.0005010469
vt 0.5199801 0.40134782
vt 0.55994016 0.60177124
vt 0.55994016 0.80219454
vt 0.55994016 1.0026181
vt 0.44006002 0.20092441
vt 0.40010002 0.0005010469
vt 0.48002008 0.40134782
vt 0.5199801 0.60177124
vt 0.5199801 0.80219454
vt 0.5199801 1.0026181
vt 0.40010002 0.20092441
vt 0.36014006 0.0005010469
vt 0.44006002 0.40134782
vt 0.48002008 0.60177124
vt 0.48002008 0.80219454
vt 0.48002008 1.0026181
vt 0.36014006 0.20092441
vt 0.32018006 0.0005010469
vt 0.40010002 0.40134782
vt 0.44006002 0.60177124
vt 0.44006002 0.80219454
vt 0.44006002 1.0026181
vt 0.32018006 0.20092441
vt 0.28022006 0.0005010469
vt 0.36014006 0.40134782
vt 0.40010002 0.60177124
vt 0.40010002 0.80219454
vt 0.40010002 1.0026181
vt 0.28022006 0.20092441
vt 0.24025999 0.0005010469
vt 0.32018006 0.40134782
vt 0.36014006 0.60177124
vt 0.36014006 0.80219454
vt 0.36014006 1.0026181
vt 0.24025999 0.20092441
vt 0.20030004 0.0005010469
vt 0.28022006 0.40134782
vt 0.32018006 0.60177124
vt 0.32018006 0.80219454
vt 0.32018006 1.0026181
vt 0.20030004 0.20092441
vt 0.16034007 0.0005010469
vt 0.24025999 0.40134782
vt 0.28022006 0.60177124
vt 0.28022006 0.80219454
vt 0.28022006 1.0026181
vt 0.16034007 0.20092441
vt 0.120380014 0.0005010469
vt 0.20030004 0.40134782
vt 0.24025999 0.60177124
vt 0.24025999 0.80219454
vt 0.24025999 1.0026181
vt 0.120380014 0.20092441
vt 0.08042001 0.0005010469
vt 0.16034007 0.40134782
vt 0.20030004 0.60177124
vt 0.20030004 0.80219454
vt 0.20030004 1.0026181
vt 0.08042001 0.20092441
vt 0.040460005 0.0005010469
vt 0.120380014 0.40134782
vt 0.16034007 0.60177124
vt 0.16034007 0.80219454
vt 0.16034007 1.0026181
vt 0.040460005 0.20092441
vt 0.0005 0.0005010469
vt 0.0005 0.20092441
vt 0.08042001 0.40134782
vt 0.120380014 0.60177124
vt 0.120380014 0.80219454
vt 0.120380014 1.0026181
vt 0.040460005 0.40134782
vt 0.0005 0.40134782
vt 0.08042001 0.60177124
vt 0.08042001 0.80219454
vt 0.08042001 1.0026181
vt 0.040460005 0.60177124
vt 0.0005 0.60177124
vt 0.040460005 0.80219454
vt 0.040460005 1.0026181
vt 0.0005 0.80219454
vt 0.0005 1.0026181
vn -0.9510565 0.3090171 0
vn -0.99802667 0.06279039 0
vn -0.99802667 0.06279038 0
vn -0.9510565 0.3090171 0
vn -0.844328 0.5358268 0
vn -0.99802667 0.06279039 0
vn -0.844328 0.53582674 0
vn -0.6845473 0.7289684 0
vn -0.95105654 0.3090171 0
vn -0.99802667 0.062790394 0
vn -0.6845473 0.7289684 0
vn -0.48175377 0.8763067 0
vn -0.844328 0.5358267 0
vn -0.95105654 0.3090171 0
vn -0.99802667 0.062790394 0
vn -0.48175377 0.8763067 0
vn -0.24868992 0.96858317 0
vn -0.68454736 0.7289684 0
vn -0.844328 0.53582656 0
vn -0.95105654 0.3090171 0
vn -0.99802667 0.062790394 0
vn -0.95105654 0.3090171 0
vn -0.844328 0.5358268 0
vn -0.844328 0.5358268 0
vn -0.24868995 0.96858317 0
vn -2.1513985E-07 1 0
vn -0.48175377 0.8763067 0
vn -0.6845474 0.7289683 0
vn -0.6845473 0.7289684 0
vn -0.6845473 0.7289684 0
vn -2.2231117E-07 1 0
vn 0.24868879 0.96858346 0
vn -0.24868995 0.96858317 0
vn -0.48175377 0.8763067 0
vn -0.48175377 0.8763067 0
vn -0.48175377 0.8763067 0
vn 0.24868879 0.96858346 0
vn 0.48175234 0.8763074 0
vn -2.2709206E-07 1 0
vn -0.24868989 0.96858317 0
vn -0.24868989 0.96858317 0
vn -0.24868989 0.96858317 0
vn 0.48175234 0.8763074 0
vn 0.6845462 0.72896945 0
vn 0.24868879 0.96858346 0
vn -2.2231117E-07 1 0
vn -2.1992074E-07 1 0
vn -2.1992074E-07 1 0
vn 0.6845462 0.72896945 0
vn 0.8443272 0.5358279 0
vn 0.48175234 0.8763074 0
vn 0.24868879 0.96858346 0
vn 0.24868879 0.96858346 0
vn 0.24868879 0.96858346 0
vn 0.8443272 0.5358279 0
vn 0.9510561 0.30901816 0
vn 0.6845462 0.72896945 0
vn 0.48175234 0.8763074 0
vn 0.48175234 0.8763074 0
vn 0.48175234 0.8763074 0
vn 0.9510561 0.30901816 0
vn 0.99802667 0.06279155 0
vn 0.8443272 0.5358279 0
vn 0.6845461 0.7289695 0
vn 0.6845462 0.7289696 0
vn 0.6845462 0.7289696 0
vn 0.99802667 0.06279155 0
vn 0.98228747 -0.18738051 0
vn 0.9510561 0.30901822 0
vn 0.8443272 0.53582793 0
vn 0.8443272 0.53582793 0
vn 0.8443272 0.53582793 0
vn 0.98228747 -0.18738054 0
vn 0.90482736 -0.42577872 0
vn 0.99802667 0.062791556 0
vn 0.9510561 0.30901822 0
vn 0.9510561 0.30901822 0
vn 0.9510561 0.30901822 0
vn 0.90482736 -0.42577878 0
vn 0.7705138 -0.6374233 0
vn 0.98228747 -0.18738054 0
vn 0.99802667 0.06279155 0
vn 0.99802667 0.062791556 0
vn 0.99802667 0.062791556 0
vn 0.7705138 -0.63742334 0
vn 0.587786 -0.8090164 0
vn 0.90482736 -0.42577878 0
vn 0.98228747 -0.18738054 0
vn 0.98228747 -0.18738054 0
vn 0.98228747 -0.18738051 0
vn 0.5877861 -0.80901635 0
vn 0.36812496 -0.92977625 0
vn 0.7705138 -0.63742334 0
vn 0.90482736 -0.42577878 0
vn 0.90482736 -0.42577878 0
vn 0.90482736 -0.42577878 0
vn 0.36812496 -0.92977625 0
vn 0.12533382 -0.9921146 0
vn 0.5877861 -0.80901635 0
vn 0.7705138 -0.63742334 0
vn 0.7705138 -0.63742334 0
vn 0.7705138 -0.63742334 0
vn 0.12533382 -0.9921146 0
vn -0.12533264 -0.9921147 0
vn 0.36812496 -0.92977625 0
vn 0.5877861 -0.80901635 0
vn 0.5877861 -0.80901635 0
vn 0.5877861 -0.80901635 0
vn -0.12533262 -0.9921147 0
vn -0.3681242 -0.9297766 0
vn 0.12533382 -0.9921146 0
vn 0.36812496 -0.92977625 0
vn 0.36812496 -0.92977625 0
vn 0.36812496 -0.92977625 0
vn -0.3681242 -0.9297766 0
vn -0.5877848 -0.80901736 0
vn -0.12533262 -0.9921147 0
vn 0.12533382 -0.9921146 0
vn 0.12533382 -0.9921146 0
vn 0.12533382 -0.9921146 0
vn -0.5877848 -0.80901736 0
vn -0.7705131 -0.6374242 0
vn -0.3681242 -0.9297766 0
vn -0.12533262 -0.9921147 0
vn -0.12533262 -0.9921147 0
vn -0.12533264 -0.9921147 0
vn -0.7705131 -0.6374242 0
vn -0.90482706 -0.4257793 0
vn -0.5877848 -0.80901736 0
vn -0.36812416 -0.92977667 0
vn -0.3681242 -0.9297766 0
vn -0.3681242 -0.9297766 0
vn -0.90482706 -0.42577928 0
vn -0.9822872 -0.18738155 0
vn -0.7705131 -0.6374242 0
vn -0.5877848 -0.80901736 0
vn -0.5877848 -0.80901736 0
vn -0.5877848 -0.80901736 0
vn -0.9822872 -0.18738152 0
vn -0.99802667 0.06279038 0
vn -0.99802667 0.06279039 0
vn -0.9048271 -0.42577925 0
vn -0.7705131 -0.6374242 0
vn -0.7705131 -0.6374242 0
vn -0.7705131 -0.6374242 0
vn -0.9822872 -0.18738149 0
vn -0.99802667 0.06279039 0
vn -0.90482706 -0.42577928 0
vn -0.90482706 -0.4257793 0
vn -0.90482706 -0.4257793 0
vn -0.9822872 -0.18738149 0
vn -0.99802667 0.062790394 0
vn -0.9822872 -0.18738152 0
vn -0.9822872 -0.18738152 0
vn -0.99802667 0.062790394 0
vn -0.99802667 0.062790394 0
g Eff_Trail_Cone_tt_032_0
f 3/3/3 2/2/2 1/1/1
f 2/2/2 4/4/4 1/1/1
f 1/1/1 4/4/4 5/5/5
f 2/2/2 6/6/6 4/4/4
f 4/4/4 7/7/7 5/5/5
f 5/5/5 7/7/7 8/8/8
f 6/6/6 9/9/9 4/4/4
f 4/4/4 9/9/9 7/7/7
f 6/6/6 10/10/10 9/9/9
f 7/7/7 11/11/11 8/8/8
f 8/8/8 11/11/11 12/12/12
f 9/9/9 13/13/13 7/7/7
f 7/7/7 13/13/13 11/11/11
f 10/10/10 14/14/14 9/9/9
f 9/9/9 14/14/14 13/13/13
f 10/10/10 15/15/15 14/14/14
f 11/11/11 16/16/16 12/12/12
f 12/12/12 16/16/16 17/17/17
f 13/13/13 18/18/18 11/11/11
f 11/11/11 18/18/18 16/16/16
f 14/14/14 19/19/19 13/13/13
f 13/13/13 19/19/19 18/18/18
f 15/15/15 20/20/20 14/14/14
f 14/14/14 20/20/20 19/19/19
f 15/15/15 21/21/21 20/20/20
f 21/21/21 22/22/22 20/20/20
f 20/20/20 22/22/22 23/23/23
f 20/20/20 23/23/23 19/19/19
f 22/22/22 24/24/24 23/23/23
f 16/16/16 25/25/25 17/17/17
f 17/17/17 25/25/25 26/26/26
f 18/18/18 27/27/27 16/16/16
f 16/16/16 27/27/27 25/25/25
f 19/19/19 28/28/28 18/18/18
f 19/19/19 23/23/23 28/28/28
f 18/18/18 28/28/28 27/27/27
f 23/23/23 24/24/24 29/29/29
f 23/23/23 29/29/29 28/28/28
f 24/24/24 30/30/30 29/29/29
f 25/25/25 31/31/31 26/26/26
f 26/26/26 31/31/31 32/32/32
f 27/27/27 33/33/33 25/25/25
f 25/25/25 33/33/33 31/31/31
f 28/28/28 34/34/34 27/27/27
f 28/28/28 29/29/29 34/34/34
f 27/27/27 34/34/34 33/33/33
f 29/29/29 30/30/30 35/35/35
f 29/29/29 35/35/35 34/34/34
f 30/30/30 36/36/36 35/35/35
f 31/31/31 37/37/37 32/32/32
f 32/32/32 37/37/37 38/38/38
f 33/33/33 39/39/39 31/31/31
f 31/31/31 39/39/39 37/37/37
f 34/34/34 40/40/40 33/33/33
f 34/34/34 35/35/35 40/40/40
f 33/33/33 40/40/40 39/39/39
f 35/35/35 36/36/36 41/41/41
f 35/35/35 41/41/41 40/40/40
f 36/36/36 42/42/42 41/41/41
f 37/37/37 43/43/43 38/38/38
f 38/38/38 43/43/43 44/44/44
f 39/39/39 45/45/45 37/37/37
f 37/37/37 45/45/45 43/43/43
f 40/40/40 46/46/46 39/39/39
f 40/40/40 41/41/41 46/46/46
f 39/39/39 46/46/46 45/45/45
f 41/41/41 42/42/42 47/47/47
f 41/41/41 47/47/47 46/46/46
f 42/42/42 48/48/48 47/47/47
f 43/43/43 49/49/49 44/44/44
f 44/44/44 49/49/49 50/50/50
f 45/45/45 51/51/51 43/43/43
f 43/43/43 51/51/51 49/49/49
f 46/46/46 52/52/52 45/45/45
f 46/46/46 47/47/47 52/52/52
f 45/45/45 52/52/52 51/51/51
f 47/47/47 48/48/48 53/53/53
f 47/47/47 53/53/53 52/52/52
f 48/48/48 54/54/54 53/53/53
f 49/49/49 55/55/55 50/50/50
f 50/50/50 55/55/55 56/56/56
f 51/51/51 57/57/57 49/49/49
f 49/49/49 57/57/57 55/55/55
f 52/52/52 58/58/58 51/51/51
f 52/52/52 53/53/53 58/58/58
f 51/51/51 58/58/58 57/57/57
f 53/53/53 54/54/54 59/59/59
f 53/53/53 59/59/59 58/58/58
f 54/54/54 60/60/60 59/59/59
f 55/55/55 61/61/61 56/56/56
f 56/56/56 61/61/61 62/62/62
f 57/57/57 63/63/63 55/55/55
f 55/55/55 63/63/63 61/61/61
f 58/58/58 64/64/64 57/57/57
f 58/58/58 59/59/59 64/64/64
f 57/57/57 64/64/64 63/63/63
f 59/59/59 60/60/60 65/65/65
f 59/59/59 65/65/65 64/64/64
f 60/60/60 66/66/66 65/65/65
f 61/61/61 67/67/67 62/62/62
f 62/62/62 67/67/67 68/68/68
f 63/63/63 69/69/69 61/61/61
f 61/61/61 69/69/69 67/67/67
f 64/64/64 70/70/70 63/63/63
f 64/64/64 65/65/65 70/70/70
f 63/63/63 70/70/70 69/69/69
f 65/65/65 66/66/66 71/71/71
f 65/65/65 71/71/71 70/70/70
f 66/66/66 72/72/72 71/71/71
f 67/67/67 73/73/73 68/68/68
f 68/68/68 73/73/73 74/74/74
f 69/69/69 75/75/75 67/67/67
f 67/67/67 75/75/75 73/73/73
f 70/70/70 76/76/76 69/69/69
f 70/70/70 71/71/71 76/76/76
f 69/69/69 76/76/76 75/75/75
f 71/71/71 72/72/72 77/77/77
f 71/71/71 77/77/77 76/76/76
f 72/72/72 78/78/78 77/77/77
f 73/73/73 79/79/79 74/74/74
f 74/74/74 79/79/79 80/80/80
f 75/75/75 81/81/81 73/73/73
f 73/73/73 81/81/81 79/79/79
f 76/76/76 82/82/82 75/75/75
f 76/76/76 77/77/77 82/82/82
f 75/75/75 82/82/82 81/81/81
f 77/77/77 78/78/78 83/83/83
f 77/77/77 83/83/83 82/82/82
f 78/78/78 84/84/84 83/83/83
f 79/79/79 85/85/85 80/80/80
f 80/80/80 85/85/85 86/86/86
f 81/81/81 87/87/87 79/79/79
f 79/79/79 87/87/87 85/85/85
f 82/82/82 88/88/88 81/81/81
f 82/82/82 83/83/83 88/88/88
f 81/81/81 88/88/88 87/87/87
f 83/83/83 84/84/84 89/89/89
f 83/83/83 89/89/89 88/88/88
f 84/84/84 90/90/90 89/89/89
f 85/85/85 91/91/91 86/86/86
f 86/86/86 91/91/91 92/92/92
f 87/87/87 93/93/93 85/85/85
f 85/85/85 93/93/93 91/91/91
f 88/88/88 94/94/94 87/87/87
f 88/88/88 89/89/89 94/94/94
f 87/87/87 94/94/94 93/93/93
f 89/89/89 90/90/90 95/95/95
f 89/89/89 95/95/95 94/94/94
f 90/90/90 96/96/96 95/95/95
f 91/91/91 97/97/97 92/92/92
f 92/92/92 97/97/97 98/98/98
f 93/93/93 99/99/99 91/91/91
f 91/91/91 99/99/99 97/97/97
f 94/94/94 100/100/100 93/93/93
f 94/94/94 95/95/95 100/100/100
f 93/93/93 100/100/100 99/99/99
f 95/95/95 96/96/96 101/101/101
f 95/95/95 101/101/101 100/100/100
f 96/96/96 102/102/102 101/101/101
f 97/97/97 103/103/103 98/98/98
f 98/98/98 103/103/103 104/104/104
f 99/99/99 105/105/105 97/97/97
f 97/97/97 105/105/105 103/103/103
f 100/100/100 106/106/106 99/99/99
f 100/100/100 101/101/101 106/106/106
f 99/99/99 106/106/106 105/105/105
f 101/101/101 102/102/102 107/107/107
f 101/101/101 107/107/107 106/106/106
f 102/102/102 108/108/108 107/107/107
f 103/103/103 109/109/109 104/104/104
f 104/104/104 109/109/109 110/110/110
f 105/105/105 111/111/111 103/103/103
f 103/103/103 111/111/111 109/109/109
f 106/106/106 112/112/112 105/105/105
f 106/106/106 107/107/107 112/112/112
f 105/105/105 112/112/112 111/111/111
f 107/107/107 108/108/108 113/113/113
f 107/107/107 113/113/113 112/112/112
f 108/108/108 114/114/114 113/113/113
f 109/109/109 115/115/115 110/110/110
f 110/110/110 115/115/115 116/116/116
f 111/111/111 117/117/117 109/109/109
f 109/109/109 117/117/117 115/115/115
f 112/112/112 118/118/118 111/111/111
f 112/112/112 113/113/113 118/118/118
f 111/111/111 118/118/118 117/117/117
f 113/113/113 114/114/114 119/119/119
f 113/113/113 119/119/119 118/118/118
f 114/114/114 120/120/120 119/119/119
f 115/115/115 121/121/121 116/116/116
f 116/116/116 121/121/121 122/122/122
f 117/117/117 123/123/123 115/115/115
f 115/115/115 123/123/123 121/121/121
f 118/118/118 124/124/124 117/117/117
f 118/118/118 119/119/119 124/124/124
f 117/117/117 124/124/124 123/123/123
f 119/119/119 120/120/120 125/125/125
f 119/119/119 125/125/125 124/124/124
f 120/120/120 126/126/126 125/125/125
f 121/121/121 127/127/127 122/122/122
f 122/122/122 127/127/127 128/128/128
f 123/123/123 129/129/129 121/121/121
f 121/121/121 129/129/129 127/127/127
f 124/124/124 130/130/130 123/123/123
f 124/124/124 125/125/125 130/130/130
f 123/123/123 130/130/130 129/129/129
f 125/125/125 126/126/126 131/131/131
f 125/125/125 131/131/131 130/130/130
f 126/126/126 132/132/132 131/131/131
f 127/127/127 133/133/133 128/128/128
f 128/128/128 133/133/133 134/134/134
f 129/129/129 135/135/135 127/127/127
f 127/127/127 135/135/135 133/133/133
f 130/130/130 136/136/136 129/129/129
f 130/130/130 131/131/131 136/136/136
f 129/129/129 136/136/136 135/135/135
f 131/131/131 132/132/132 137/137/137
f 131/131/131 137/137/137 136/136/136
f 132/132/132 138/138/138 137/137/137
f 133/133/133 139/139/139 134/134/134
f 134/134/134 139/139/139 140/140/140
f 139/139/139 141/141/141 140/140/140
f 135/135/135 142/142/142 133/133/133
f 133/133/133 142/142/142 139/139/139
f 136/136/136 143/143/143 135/135/135
f 136/136/136 137/137/137 143/143/143
f 135/135/135 143/143/143 142/142/142
f 137/137/137 138/138/138 144/144/144
f 137/137/137 144/144/144 143/143/143
f 138/138/138 145/145/145 144/144/144
f 139/139/139 146/146/146 141/141/141
f 142/142/142 146/146/146 139/139/139
f 146/146/146 147/147/147 141/141/141
f 143/143/143 148/148/148 142/142/142
f 143/143/143 144/144/144 148/148/148
f 142/142/142 148/148/148 146/146/146
f 144/144/144 145/145/145 149/149/149
f 144/144/144 149/149/149 148/148/148
f 145/145/145 150/150/150 149/149/149
f 146/146/146 151/151/151 147/147/147
f 148/148/148 151/151/151 146/146/146
f 148/148/148 149/149/149 151/151/151
f 151/151/151 152/152/152 147/147/147
f 149/149/149 150/150/150 153/153/153
f 149/149/149 153/153/153 151/151/151
f 151/151/151 153/153/153 152/152/152
f 150/150/150 154/154/154 153/153/153
f 153/153/153 155/155/155 152/152/152
f 153/153/153 154/154/154 155/155/155
f 154/154/154 156/156/156 155/155/155
