g Eff__Unagi_Ghost_Fire
v -0 -0.24170814 0
v 0.15834445 -0.20142345 0
v 0.15834445 -0.24170814 0
v -0 -0.20142345 0
v -0.15834445 -0.24170814 0
v 0.15834445 -0.16113876 0
v -0.15834445 -0.20142345 0
v -0 -0.16113876 0
v 0.15834445 -0.12085407 0
v -0.15834445 -0.16113876 0
v -0 -0.12085407 0
v 0.15834445 -0.08056938 0
v -0.15834445 -0.12085407 0
v -0 -0.08056938 0
v 0.15834445 -0.04028469 0
v -0.15834445 -0.08056938 0
v -0 -0.04028469 0
v 0.15834445 0 0
v -0.15834445 -0.04028469 0
v -0 0 0
v 0.15834445 0.04028469 0
v -0.15834445 0 0
v -0 0.04028469 0
v 0.15834445 0.08056938 0
v -0.15834445 0.04028469 0
v -0 0.08056938 0
v 0.15834445 0.12085407 0
v -0.15834445 0.08056938 0
v -0 0.12085407 0
v 0.15834445 0.16113876 0
v -0.15834445 0.12085407 0
v -0 0.16113876 0
v 0.15834445 0.20142345 0
v -0.15834445 0.16113876 0
v -0 0.20142345 0
v 0.15834445 0.24170814 0
v -0.15834445 0.20142345 0
v -0 0.24170814 0
v -0.15834445 0.24170814 0
vt 0.5 0
vt 1 0.083333336
vt 1 0
vt 0.5 0.083333336
vt 0 0
vt 1 0.16666667
vt 0 0.083333336
vt 0.5 0.16666667
vt 1 0.25
vt 0 0.16666667
vt 0.5 0.25
vt 1 0.33333334
vt 0 0.25
vt 0.5 0.33333334
vt 1 0.4166667
vt 0 0.33333334
vt 0.5 0.4166667
vt 1 0.5
vt 0 0.4166667
vt 0.5 0.5
vt 1 0.5833333
vt 0 0.5
vt 0.5 0.5833333
vt 1 0.6666666
vt 0 0.5833333
vt 0.5 0.6666666
vt 1 0.74999994
vt 0 0.6666666
vt 0.5 0.74999994
vt 1 0.83333325
vt 0 0.74999994
vt 0.5 0.83333325
vt 1 0.91666657
vt 0 0.83333325
vt 0.5 0.91666657
vt 1 0.9999999
vt 0 0.91666657
vt 0.5 0.9999999
vt 0 0.9999999
vn -0 0 1
vn -0 0 1
vn -0 0 1
vn -0 0 1
vn -0 0 1
vn -0 0 1
vn -0 0 1
vn -0 0 1
vn -0 0 1
vn -0 0 1
vn -0 0 1
vn -0 0 1
vn -0 0 1
vn -0 0 1
vn -0 0 1
vn -0 0 1
vn -0 0 1
vn -0 0 1
vn -0 0 1
vn -0 0 1
vn -0 0 1
vn -0 0 1
vn -0 0 1
vn -0 0 1
vn -0 0 1
vn -0 0 1
vn -0 0 1
vn -0 0 1
vn -0 0 1
vn -0 0 1
vn -0 0 1
vn -0 0 1
vn -0 0 1
vn -0 0 1
vn -0 0 1
vn -0 0 1
vn -0 0 1
vn -0 0 1
vn -0 0 1
g Eff__Unagi_Ghost_Fire_0
f 3/3/3 2/2/2 1/1/1
f 2/2/2 4/4/4 1/1/1
f 1/1/1 4/4/4 5/5/5
f 2/2/2 6/6/6 4/4/4
f 4/4/4 7/7/7 5/5/5
f 6/6/6 8/8/8 4/4/4
f 4/4/4 8/8/8 7/7/7
f 6/6/6 9/9/9 8/8/8
f 8/8/8 10/10/10 7/7/7
f 9/9/9 11/11/11 8/8/8
f 8/8/8 11/11/11 10/10/10
f 9/9/9 12/12/12 11/11/11
f 11/11/11 13/13/13 10/10/10
f 12/12/12 14/14/14 11/11/11
f 11/11/11 14/14/14 13/13/13
f 12/12/12 15/15/15 14/14/14
f 14/14/14 16/16/16 13/13/13
f 15/15/15 17/17/17 14/14/14
f 14/14/14 17/17/17 16/16/16
f 15/15/15 18/18/18 17/17/17
f 17/17/17 19/19/19 16/16/16
f 18/18/18 20/20/20 17/17/17
f 17/17/17 20/20/20 19/19/19
f 18/18/18 21/21/21 20/20/20
f 20/20/20 22/22/22 19/19/19
f 21/21/21 23/23/23 20/20/20
f 20/20/20 23/23/23 22/22/22
f 21/21/21 24/24/24 23/23/23
f 23/23/23 25/25/25 22/22/22
f 24/24/24 26/26/26 23/23/23
f 23/23/23 26/26/26 25/25/25
f 24/24/24 27/27/27 26/26/26
f 26/26/26 28/28/28 25/25/25
f 27/27/27 29/29/29 26/26/26
f 26/26/26 29/29/29 28/28/28
f 27/27/27 30/30/30 29/29/29
f 29/29/29 31/31/31 28/28/28
f 30/30/30 32/32/32 29/29/29
f 29/29/29 32/32/32 31/31/31
f 30/30/30 33/33/33 32/32/32
f 32/32/32 34/34/34 31/31/31
f 33/33/33 35/35/35 32/32/32
f 32/32/32 35/35/35 34/34/34
f 33/33/33 36/36/36 35/35/35
f 35/35/35 37/37/37 34/34/34
f 36/36/36 38/38/38 35/35/35
f 35/35/35 38/38/38 37/37/37
f 38/38/38 39/39/39 37/37/37
