g Eff_Trail_Cone_tt_022
v -0 0 0.05297065
v -0.039727986 0.022936968 0.026485324
v -2.0052133E-09 0.045873933 0.026485324
v -0.039727986 0.022936968 -0.026485328
v -2.0052133E-09 0.045873933 -0.026485328
v -0 0 -0.05297065
v -0.039727986 -0.022936966 -0.026485328
v -0 0 -0.05297065
v -0.039727986 -0.022936966 0.026485324
v -0 0 0.05297065
v 5.4704113E-10 -0.045873933 -0.026485328
v -0 0 -0.05297065
v 5.4704113E-10 -0.045873933 0.026485324
v -0 0 0.05297065
v 0.039727986 -0.022936976 -0.026485328
v -0 0 -0.05297065
v 0.039727986 -0.022936976 0.026485324
v -0 0 0.05297065
v 0.039728 0.02293695 -0.026485328
v -0 0 -0.05297065
v 0.039728 0.02293695 0.026485324
v -0 0 0.05297065
v -2.0052133E-09 0.045873933 -0.026485328
v -0 0 -0.05297065
v -2.0052133E-09 0.045873933 0.026485324
v -0 0 0.05297065
vt 0 277.78943
vt 92.59648 185.19295
vt 0 185.19295
vt 92.59648 92.59647
vt 0 92.59647
vt 0 0
vt 185.19296 92.59647
vt 92.59648 0
vt 185.19296 185.19295
vt 92.59648 277.78943
vt 277.78943 92.59647
vt 185.19296 0
vt 277.78943 185.19295
vt 185.19296 277.78943
vt 370.38593 92.59647
vt 277.78943 0
vt 370.38593 185.19295
vt 277.78943 277.78943
vt 462.98236 92.59647
vt 370.38593 0
vt 462.98236 185.19295
vt 370.38593 277.78943
vt 555.5788 92.59647
vt 462.98236 0
vt 555.5788 185.19295
vt 462.98236 277.78943
vn -0 0 1
vn -0.7771226 0.44867194 0.44133207
vn -0 0.8973438 0.44133204
vn -0.7771226 0.44867194 -0.4413321
vn -0 0.8973438 -0.4413321
vn -0 0 -1
vn -0.77712256 -0.44867197 -0.44133207
vn -0 0 -1
vn -0.7771226 -0.4486719 0.44133207
vn -0 0 1
vn -0 -0.8973438 -0.44133204
vn -0 0 -1
vn -0 -0.8973438 0.441332
vn -0 0 1
vn 0.77712244 -0.44867212 -0.44133204
vn -0 0 -1
vn 0.77712244 -0.4486721 0.441332
vn -0 0 1
vn 0.7771227 0.4486718 -0.4413321
vn -0 0 -1
vn 0.7771227 0.4486718 0.4413321
vn -0 0 1
vn -0 0.8973438 -0.4413321
vn -0 0 -1
vn -0 0.8973438 0.44133204
vn -0 0 1
g Eff_Trail_Cone_tt_022_0
f 3/3/3 2/2/2 1/1/1
f 4/4/4 2/2/2 3/3/3
f 5/5/5 4/4/4 3/3/3
f 4/4/4 5/5/5 6/6/6
f 4/4/4 7/7/7 2/2/2
f 7/7/7 4/4/4 8/8/8
f 7/7/7 9/9/9 2/2/2
f 2/2/2 9/9/9 10/10/10
f 7/7/7 11/11/11 9/9/9
f 11/11/11 7/7/7 12/12/12
f 11/11/11 13/13/13 9/9/9
f 9/9/9 13/13/13 14/14/14
f 11/11/11 15/15/15 13/13/13
f 15/15/15 11/11/11 16/16/16
f 15/15/15 17/17/17 13/13/13
f 13/13/13 17/17/17 18/18/18
f 15/15/15 19/19/19 17/17/17
f 19/19/19 15/15/15 20/20/20
f 19/19/19 21/21/21 17/17/17
f 17/17/17 21/21/21 22/22/22
f 19/19/19 23/23/23 21/21/21
f 23/23/23 19/19/19 24/24/24
f 23/23/23 25/25/25 21/21/21
f 21/21/21 25/25/25 26/26/26
