g Eff_Trail_Edge_02
v -0.5304563 -1.7635536 -0.0020463367
v -0.29006034 -1.8313717 -9.2278424E-10
v -0.268534 -1.8264356 -0.0016386051
v -0.57297903 -1.763449 -8.998632E-10
v -0.7793169 -1.6604725 -0.0032756843
v -0.84178895 -1.6521046 -8.3771745E-10
v -1.0089879 -1.5197297 -0.0051364023
v -1.0898712 -1.5000795 -7.466605E-10
v -1.2138146 -1.3447912 -0.0074274824
v -1.3111172 -1.3111175 -6.370654E-10
v -1.388753 -1.1399645 -0.0099546295
v -1.5000792 -1.0898715 -5.188267E-10
v -1.5294958 -0.91029346 -0.012539625
v -1.6521041 -0.8417895 -4.0088183E-10
v -1.6325771 -0.66143304 -0.015028083
v -1.763449 -0.5729795 -2.9081682E-10
v -1.6954595 -0.39951083 -0.017295359
v -1.8313717 -0.29006106 -1.9457473E-10
v -1.7165935 -0.13097645 -0.019250285
v -1.8542 -2.7997643E-07 0
v -1.6954598 0.13755447 -0.023514986
v -1.8313723 0.29005682 0
v -1.6325783 0.3994769 -0.023514986
v -1.7634501 0.57297564 0
v -1.5294975 0.6483378 -0.023514986
v -1.6521062 0.8417858 0
v -1.3887551 0.8780092 -0.023514986
v -1.5000815 1.0898684 0
v -1.2138171 1.0828363 -0.023514986
v -1.3111199 1.3111148 0
v -1.0089909 1.257775 -0.023514986
v -1.0898741 1.5000772 0
v -0.77931976 1.3985182 -0.023514986
v -0.8417921 1.6521026 0
v -0.5304594 1.5016 -0.023514986
v -0.5729823 1.763448 0
v -0.26853725 1.5644827 -0.023514986
v -0.2900638 1.8313713 0
v -2.777942E-06 1.5856173 -0.023514986
v -2.9545417E-06 1.8542 0
v 0.2685317 1.5644834 -0.023514986
v 0.290058 1.8313721 0
v 0.53045404 1.5016019 -0.023514986
v 0.57297677 1.7634497 0
v 0.77931494 1.3985206 -0.023514986
v 0.8417868 1.6521056 0
v 1.0089864 1.2577784 -0.023514986
v 1.0898694 1.5000808 0
v 1.2138133 1.0828402 -0.023514986
v 1.3111157 1.3111191 0
v 1.3887519 0.87801373 -0.023514986
v 1.5000778 1.0898732 0
v 1.5294949 0.6483427 -0.023514986
v 1.6521032 0.84179115 0
v 1.6325768 0.39948207 -0.023514986
v 1.7634486 0.5729812 0
v 1.6954589 0.13755989 -0.023514986
v 1.8313713 0.29006267 0
v 1.7165933 -0.13097458 -0.019250289
v 1.8542 1.7683029E-06 0
v 1.6954595 -0.39950904 -0.017295362
v 1.8313719 -0.29005912 -1.9457444E-10
v 1.6325777 -0.66143125 -0.015028087
v 1.7634493 -0.5729778 -2.9081665E-10
v 1.5294963 -0.9102921 -0.012539628
v 1.652105 -0.8417879 -4.0088166E-10
v 1.3887539 -1.1399635 -0.0099546295
v 1.50008 -1.0898703 -5.1882654E-10
v 1.2138156 -1.3447902 -0.0074274824
v 1.3111182 -1.3111166 -6.3706523E-10
v 1.0089889 -1.5197288 -0.005136405
v 1.0898722 -1.5000787 -7.4666034E-10
v 0.77931786 -1.6604714 -0.0032756843
v 0.8417901 -1.6521038 -8.377174E-10
v 0.53045714 -1.7635534 -0.0020463367
v 0.57298005 -1.7634487 -8.998632E-10
v 0.26853493 -1.8264356 -0.0016386051
v 0.29006144 -1.8313717 -9.2278424E-10
v -0.57297903 -1.763449 -8.998632E-10
v -0.268534 -1.8264356 0.0016386036
v -0.29006034 -1.8313717 -9.2278424E-10
v -0.5304563 -1.7635536 0.0020463353
v -0.84178895 -1.6521046 -8.3771745E-10
v -0.7793169 -1.6604725 0.0032756813
v -1.0898712 -1.5000795 -7.466605E-10
v -1.0089879 -1.5197297 0.0051364005
v -1.3111172 -1.3111175 -6.370654E-10
v -1.2138146 -1.3447912 0.007427479
v -1.5000792 -1.0898715 -5.188267E-10
v -1.388753 -1.1399645 0.009954625
v -1.6521041 -0.8417895 -4.0088183E-10
v -1.5294958 -0.91029346 0.012539621
v -1.763449 -0.5729795 -2.9081682E-10
v -1.6325771 -0.6614329 0.015028076
v -1.8313717 -0.29006106 -1.9457473E-10
v -1.6954595 -0.39951083 0.017295353
v -1.8542 -2.7997643E-07 0
v -1.7165935 -0.13097645 0.01925028
v -1.8313723 0.29005682 0
v -1.6954598 0.13755447 0.023514979
v -1.7634501 0.57297564 0
v -1.6325783 0.39947695 0.023514979
v -1.6521062 0.8417858 0
v -1.5294975 0.6483378 0.023514979
v -1.5000815 1.0898684 0
v -1.3887551 0.8780092 0.023514979
v -1.3111199 1.3111148 0
v -1.2138171 1.0828363 0.023514979
v -1.0898741 1.5000772 0
v -1.0089909 1.257775 0.023514979
v -0.8417921 1.6521026 0
v -0.77931976 1.3985182 0.023514979
v -0.5729823 1.763448 0
v -0.5304594 1.5016 0.023514979
v -0.2900638 1.8313713 0
v -0.26853725 1.5644827 0.023514979
v -2.9545417E-06 1.8542 0
v -2.777942E-06 1.5856173 0.023514979
v 0.290058 1.8313721 0
v 0.2685317 1.5644834 0.023514979
v 0.57297677 1.7634497 0
v 0.53045404 1.5016019 0.023514979
v 0.8417868 1.6521056 0
v 0.77931494 1.3985206 0.023514979
v 1.0898694 1.5000808 0
v 1.0089864 1.2577784 0.023514979
v 1.3111157 1.3111191 0
v 1.2138133 1.0828402 0.023514979
v 1.5000778 1.0898732 0
v 1.3887519 0.87801373 0.023514979
v 1.6521032 0.84179115 0
v 1.5294949 0.6483427 0.023514979
v 1.7634486 0.5729812 0
v 1.6325768 0.39948213 0.023514979
v 1.8313713 0.29006267 0
v 1.6954589 0.13755989 0.023514979
v 1.8542 1.7683029E-06 0
v 1.7165933 -0.13097458 0.019250283
v 1.8313719 -0.29005912 -1.9457444E-10
v 1.6954595 -0.39950904 0.017295355
v 1.7634493 -0.5729778 -2.9081665E-10
v 1.6325777 -0.66143125 0.015028083
v 1.652105 -0.8417879 -4.0088166E-10
v 1.5294963 -0.9102921 0.012539623
v 1.50008 -1.0898703 -5.1882654E-10
v 1.3887539 -1.1399635 0.009954627
v 1.3111182 -1.3111166 -6.3706523E-10
v 1.2138156 -1.3447902 0.007427479
v 1.0898722 -1.5000787 -7.4666034E-10
v 1.0089889 -1.5197288 0.0051364023
v 0.8417901 -1.6521038 -8.377174E-10
v 0.77931786 -1.6604714 0.0032756813
v 0.57298005 -1.7634487 -8.998632E-10
v 0.53045714 -1.7635534 0.0020463353
v 0.29006144 -1.8313717 -9.2278424E-10
v 0.26853493 -1.8264356 0.0016386036
vt 0.97156024 0.0019999768
vt 0.997748 0.9976881
vt 0.997748 0.0019999768
vt 0.97156024 0.9976881
vt 0.9453724 0.0019999768
vt 0.9453724 0.9976881
vt 0.91918457 0.0019999768
vt 0.91918457 0.9976881
vt 0.89299667 0.0019999768
vt 0.89299667 0.9976881
vt 0.8668089 0.0019999768
vt 0.8668089 0.9976881
vt 0.84062105 0.0019999768
vt 0.84062105 0.9976881
vt 0.8144332 0.0019999768
vt 0.8144332 0.9976881
vt 0.78824526 0.0019999768
vt 0.78824526 0.9976881
vt 0.7620575 0.0019999768
vt 0.7620575 0.9976881
vt 0.73587 0.0019999768
vt 0.73587 0.9976881
vt 0.7096821 0.0019999768
vt 0.7096821 0.9976881
vt 0.6834942 0.0019999768
vt 0.6834942 0.9976881
vt 0.65730643 0.0019999768
vt 0.65730643 0.9976881
vt 0.6311186 0.0019999768
vt 0.6311186 0.9976881
vt 0.6049307 0.0019999768
vt 0.6049307 0.9976881
vt 0.57874286 0.0019999768
vt 0.57874286 0.9976881
vt 0.552555 0.0019999768
vt 0.552555 0.9976881
vt 0.5263671 0.0019999768
vt 0.5263671 0.9976881
vt 0.5001794 0.0019999768
vt 0.5001794 0.9976881
vt 0.47399154 0.0019999768
vt 0.47399154 0.9976881
vt 0.44780368 0.0019999768
vt 0.44780368 0.9976881
vt 0.42161587 0.0019999768
vt 0.42161587 0.9976881
vt 0.395428 0.0019999768
vt 0.395428 0.9976881
vt 0.36924022 0.0019999768
vt 0.36924022 0.9976881
vt 0.34305233 0.0019999768
vt 0.34305233 0.9976881
vt 0.3168645 0.0019999768
vt 0.3168645 0.9976881
vt 0.29067662 0.0019999768
vt 0.29067662 0.9976881
vt 0.26448876 0.0019999768
vt 0.26448876 0.9976881
vt 0.23830085 0.0019999768
vt 0.23830085 0.9976881
vt 0.21211301 0.0019999768
vt 0.21211301 0.9976881
vt 0.18592516 0.0019999768
vt 0.18592516 0.9976881
vt 0.15973732 0.0019999768
vt 0.15973732 0.9976881
vt 0.13354945 0.0019999768
vt 0.13354945 0.9976881
vt 0.10736162 0.0019999768
vt 0.10736162 0.9976881
vt 0.08117377 0.0019999768
vt 0.08117377 0.9976881
vt 0.054985896 0.0019999768
vt 0.054985896 0.9976881
vt 0.028798077 0.0019999768
vt 0.028798077 0.9976881
vt 0.0026101975 0.0019999768
vt 0.0026101975 0.9976881
vt 0.97156024 0.9976881
vt 0.997748 0.002001192
vt 0.997748 0.9976881
vt 0.97156024 0.002001192
vt 0.9453724 0.9976881
vt 0.9453724 0.002001192
vt 0.91918457 0.9976881
vt 0.91918457 0.002001192
vt 0.89299667 0.9976881
vt 0.89299667 0.002001192
vt 0.8668089 0.9976881
vt 0.8668089 0.002001192
vt 0.84062105 0.9976881
vt 0.84062105 0.002001192
vt 0.8144332 0.9976881
vt 0.8144332 0.002001192
vt 0.78824526 0.9976881
vt 0.78824526 0.002001192
vt 0.7620575 0.9976881
vt 0.7620575 0.002001192
vt 0.73587 0.9976881
vt 0.73587 0.002001192
vt 0.7096821 0.9976881
vt 0.7096821 0.002001192
vt 0.6834942 0.9976881
vt 0.6834942 0.002001192
vt 0.65730643 0.9976881
vt 0.65730643 0.002001192
vt 0.6311186 0.9976881
vt 0.6311186 0.002001192
vt 0.6049307 0.9976881
vt 0.6049307 0.002001192
vt 0.57874286 0.9976881
vt 0.57874286 0.002001192
vt 0.552555 0.9976881
vt 0.552555 0.002001192
vt 0.5263671 0.9976881
vt 0.5263671 0.002001192
vt 0.5001794 0.9976881
vt 0.5001794 0.002001192
vt 0.47399154 0.9976881
vt 0.47399154 0.002001192
vt 0.44780368 0.9976881
vt 0.44780368 0.002001192
vt 0.42161587 0.9976881
vt 0.42161587 0.002001192
vt 0.395428 0.9976881
vt 0.395428 0.002001192
vt 0.36924022 0.9976881
vt 0.36924022 0.002001192
vt 0.34305233 0.9976881
vt 0.34305233 0.002001192
vt 0.3168645 0.9976881
vt 0.3168645 0.002001192
vt 0.29067662 0.9976881
vt 0.29067662 0.002001192
vt 0.26448876 0.9976881
vt 0.26448876 0.002001192
vt 0.23830085 0.9976881
vt 0.23830085 0.002001192
vt 0.21211301 0.9976881
vt 0.21211301 0.002001192
vt 0.18592516 0.9976881
vt 0.18592516 0.002001192
vt 0.15973732 0.9976881
vt 0.15973732 0.002001192
vt 0.13354945 0.9976881
vt 0.13354945 0.002001192
vt 0.10736162 0.9976881
vt 0.10736162 0.002001192
vt 0.08117377 0.9976881
vt 0.08117377 0.002001192
vt 0.054985896 0.9976881
vt 0.054985896 0.002001192
vt 0.028798077 0.9976881
vt 0.028798077 0.002001192
vt 0.0026101975 0.9976881
vt 0.0026101975 0.002001192
vn -0.045198373 -0.17854482 -0.98289317
vn -0.2297157 -0.9732578 0
vn -0.042834263 -0.1814799 -0.9824614
vn -0.35881826 -0.9334075 0
vn -0.06568805 -0.15566182 -0.98562384
vn -0.4947325 -0.8690454 0
vn -0.09 -0.14585206 -0.9852041
vn -0.61916375 -0.785262 0
vn -0.11279877 -0.13158816 -0.984866
vn -0.7301255 -0.6833131 0
vn -0.13084333 -0.11124225 -0.9851422
vn -0.8250315 -0.5650866 0
vn -0.14282985 -0.08670891 -0.9859418
vn -0.9014158 -0.4329545 0
vn -0.14853399 -0.060231708 -0.98707134
vn -0.95710707 -0.2897346 0
vn -0.14834596 -0.033733886 -0.98836005
vn -0.99034077 -0.13865483 0
vn -0.1466035 -0.009695906 -0.9891478
vn -0.99999523 -0.0031038553 2.680249E-07
vn -0.14570989 0.01253883 -0.98924786
vn -0.98454165 0.175151 0
vn -0.12869899 0.03723324 -0.99098456
vn -0.9419263 0.3358198 3.1081262E-07
vn -0.108921945 0.051635325 -0.9927084
vn -0.8794721 0.47595036 2.5634006E-07
vn -0.09078224 0.06261283 -0.99390054
vn -0.79632705 0.6048664 0
vn -0.0739257 0.070957266 -0.99473614
vn -0.6944498 0.71954113 0
vn -0.05805871 0.07721358 -0.99532276
vn -0.576238 0.81728184 0
vn -0.042934395 0.08175696 -0.99572706
vn -0.44447297 0.89579225 0
vn -0.028340094 0.08484168 -0.9959913
vn -0.3022544 0.9532273 0
vn -0.014086691 0.086631626 -0.9961408
vn -0.15292636 0.98823756 0
vn -0 0.08721846 -0.9961892
vn -1.353964E-06 1 0
vn 0.014086393 0.08663168 -0.9961408
vn 0.15292321 0.98823816 0
vn 0.02833977 0.08484175 -0.9959913
vn 0.30225107 0.95322835 0
vn 0.042934082 0.081757024 -0.9957272
vn 0.44447008 0.8957938 0
vn 0.058058392 0.0772137 -0.99532276
vn 0.5762354 0.81728387 0
vn 0.07392543 0.07095743 -0.99473614
vn 0.6944477 0.7195433 0
vn 0.09078197 0.06261304 -0.99390054
vn 0.79632527 0.6048686 3.7031398E-07
vn 0.108921506 0.05163568 -0.9927084
vn 0.8794705 0.47595346 3.4178709E-07
vn 0.12869866 0.037233528 -0.99098456
vn 0.941925 0.3358232 0
vn 0.14570947 0.012539163 -0.989248
vn 0.9845412 0.17515308 2.8253012E-07
vn 0.14660318 -0.009695701 -0.9891479
vn 0.99999523 -0.0031017882 2.6802587E-07
vn 0.14834578 -0.033733636 -0.98836005
vn 0.9903409 -0.13865402 -2.7045039E-07
vn 0.14853388 -0.06023151 -0.98707134
vn 0.9571074 -0.28973335 2.5617226E-07
vn 0.14282961 -0.086708516 -0.9859418
vn 0.9014162 -0.43295363 0
vn 0.1308432 -0.11124196 -0.9851423
vn 0.8250322 -0.56508565 0
vn 0.11279849 -0.13158777 -0.984866
vn 0.7301259 -0.68331254 0
vn 0.08999937 -0.145851 -0.98520434
vn 0.6191638 -0.7852618 0
vn 0.06568734 -0.15565932 -0.9856243
vn 0.49473256 -0.8690454 0
vn 0.045198154 -0.1785434 -0.9828934
vn 0.35881972 -0.9334069 0
vn 0.042834114 -0.18147868 -0.98246163
vn 0.22971638 -0.97325766 0
vn -0.35881826 -0.9334075 0
vn -0.042834274 -0.18147993 0.9824614
vn -0.2297157 -0.9732578 0
vn -0.045198377 -0.17854482 0.98289317
vn -0.4947325 -0.8690454 0
vn -0.065688044 -0.15566182 0.98562396
vn -0.61916375 -0.785262 0
vn -0.089999974 -0.14585206 0.9852041
vn -0.7301255 -0.6833131 0
vn -0.11279877 -0.13158812 0.984866
vn -0.8250315 -0.5650866 0
vn -0.1308433 -0.11124221 0.9851422
vn -0.9014158 -0.4329545 0
vn -0.14282979 -0.08670887 0.9859418
vn -0.95710707 -0.2897346 0
vn -0.14853391 -0.060231667 0.98707134
vn -0.99034077 -0.13865483 0
vn -0.1483459 -0.033733882 0.98836005
vn -0.99999523 -0.0031038553 2.680249E-07
vn -0.14660347 -0.009695904 0.9891478
vn -0.98454165 0.175151 0
vn -0.14570984 0.012538829 0.98924786
vn -0.9419263 0.3358198 3.1081262E-07
vn -0.12869897 0.03723323 0.99098456
vn -0.8794721 0.47595036 2.5634006E-07
vn -0.10892193 0.051635314 0.9927084
vn -0.79632705 0.6048664 0
vn -0.09078222 0.06261281 0.99390054
vn -0.6944498 0.71954113 0
vn -0.07392567 0.070957236 0.99473614
vn -0.576238 0.81728184 0
vn -0.058058698 0.077213556 0.99532276
vn -0.44447297 0.89579225 0
vn -0.042934388 0.081756935 0.99572706
vn -0.3022544 0.9532273 0
vn -0.028340084 0.08484167 0.9959913
vn -0.15292636 0.98823756 0
vn -0.014086687 0.08663161 0.9961408
vn -1.353964E-06 1 0
vn -0 0.08721844 0.9961892
vn 0.15292321 0.98823816 0
vn 0.014086388 0.086631656 0.9961408
vn 0.30225107 0.95322835 0
vn 0.02833976 0.08484174 0.9959913
vn 0.44447008 0.8957938 0
vn 0.04293407 0.08175701 0.9957272
vn 0.5762354 0.81728387 0
vn 0.058058366 0.07721366 0.99532276
vn 0.6944477 0.7195433 0
vn 0.0739254 0.0709574 0.99473614
vn 0.79632527 0.6048686 3.7031398E-07
vn 0.09078195 0.06261302 0.99390054
vn 0.8794705 0.47595346 3.4178709E-07
vn 0.10892147 0.051635668 0.9927084
vn 0.941925 0.3358232 0
vn 0.1286986 0.037233513 0.99098456
vn 0.9845412 0.17515308 2.8253012E-07
vn 0.14570941 0.0125391595 0.989248
vn 0.99999523 -0.0031017882 2.6802587E-07
vn 0.14660314 -0.009695699 0.9891479
vn 0.9903409 -0.13865402 -2.7045039E-07
vn 0.14834571 -0.03373362 0.98836005
vn 0.9571074 -0.28973335 2.5617226E-07
vn 0.14853382 -0.060231492 0.98707134
vn 0.9014162 -0.43295363 0
vn 0.14282958 -0.08670851 0.9859418
vn 0.8250322 -0.56508565 0
vn 0.13084318 -0.111241944 0.9851423
vn 0.7301259 -0.68331254 0
vn 0.11279849 -0.13158777 0.984866
vn 0.6191638 -0.7852618 0
vn 0.08999933 -0.14585094 0.98520434
vn 0.49473256 -0.8690454 0
vn 0.06568731 -0.15565924 0.9856243
vn 0.35881972 -0.9334069 0
vn 0.04519816 -0.1785434 0.9828934
vn 0.22971638 -0.97325766 0
vn 0.04283412 -0.18147871 0.98246163
g Eff_Trail_Edge_02_0
f 3/3/3 2/2/2 1/1/1
f 2/2/2 4/4/4 1/1/1
f 1/1/1 4/4/4 5/5/5
f 4/4/4 6/6/6 5/5/5
f 5/5/5 6/6/6 7/7/7
f 6/6/6 8/8/8 7/7/7
f 7/7/7 8/8/8 9/9/9
f 8/8/8 10/10/10 9/9/9
f 9/9/9 10/10/10 11/11/11
f 10/10/10 12/12/12 11/11/11
f 11/11/11 12/12/12 13/13/13
f 12/12/12 14/14/14 13/13/13
f 13/13/13 14/14/14 15/15/15
f 14/14/14 16/16/16 15/15/15
f 15/15/15 16/16/16 17/17/17
f 16/16/16 18/18/18 17/17/17
f 17/17/17 18/18/18 19/19/19
f 18/18/18 20/20/20 19/19/19
f 19/19/19 20/20/20 21/21/21
f 20/20/20 22/22/22 21/21/21
f 21/21/21 22/22/22 23/23/23
f 22/22/22 24/24/24 23/23/23
f 23/23/23 24/24/24 25/25/25
f 24/24/24 26/26/26 25/25/25
f 25/25/25 26/26/26 27/27/27
f 26/26/26 28/28/28 27/27/27
f 27/27/27 28/28/28 29/29/29
f 28/28/28 30/30/30 29/29/29
f 29/29/29 30/30/30 31/31/31
f 30/30/30 32/32/32 31/31/31
f 31/31/31 32/32/32 33/33/33
f 32/32/32 34/34/34 33/33/33
f 33/33/33 34/34/34 35/35/35
f 34/34/34 36/36/36 35/35/35
f 35/35/35 36/36/36 37/37/37
f 36/36/36 38/38/38 37/37/37
f 37/37/37 38/38/38 39/39/39
f 38/38/38 40/40/40 39/39/39
f 39/39/39 40/40/40 41/41/41
f 40/40/40 42/42/42 41/41/41
f 41/41/41 42/42/42 43/43/43
f 42/42/42 44/44/44 43/43/43
f 43/43/43 44/44/44 45/45/45
f 44/44/44 46/46/46 45/45/45
f 45/45/45 46/46/46 47/47/47
f 46/46/46 48/48/48 47/47/47
f 47/47/47 48/48/48 49/49/49
f 48/48/48 50/50/50 49/49/49
f 49/49/49 50/50/50 51/51/51
f 50/50/50 52/52/52 51/51/51
f 51/51/51 52/52/52 53/53/53
f 52/52/52 54/54/54 53/53/53
f 53/53/53 54/54/54 55/55/55
f 54/54/54 56/56/56 55/55/55
f 55/55/55 56/56/56 57/57/57
f 56/56/56 58/58/58 57/57/57
f 57/57/57 58/58/58 59/59/59
f 58/58/58 60/60/60 59/59/59
f 59/59/59 60/60/60 61/61/61
f 60/60/60 62/62/62 61/61/61
f 61/61/61 62/62/62 63/63/63
f 62/62/62 64/64/64 63/63/63
f 63/63/63 64/64/64 65/65/65
f 64/64/64 66/66/66 65/65/65
f 65/65/65 66/66/66 67/67/67
f 66/66/66 68/68/68 67/67/67
f 67/67/67 68/68/68 69/69/69
f 68/68/68 70/70/70 69/69/69
f 69/69/69 70/70/70 71/71/71
f 70/70/70 72/72/72 71/71/71
f 71/71/71 72/72/72 73/73/73
f 72/72/72 74/74/74 73/73/73
f 73/73/73 74/74/74 75/75/75
f 74/74/74 76/76/76 75/75/75
f 75/75/75 76/76/76 77/77/77
f 76/76/76 78/78/78 77/77/77
f 81/81/81 80/80/80 79/79/79
f 80/80/80 82/82/82 79/79/79
f 79/79/79 82/82/82 83/83/83
f 82/82/82 84/84/84 83/83/83
f 83/83/83 84/84/84 85/85/85
f 84/84/84 86/86/86 85/85/85
f 85/85/85 86/86/86 87/87/87
f 86/86/86 88/88/88 87/87/87
f 87/87/87 88/88/88 89/89/89
f 88/88/88 90/90/90 89/89/89
f 89/89/89 90/90/90 91/91/91
f 90/90/90 92/92/92 91/91/91
f 91/91/91 92/92/92 93/93/93
f 92/92/92 94/94/94 93/93/93
f 93/93/93 94/94/94 95/95/95
f 94/94/94 96/96/96 95/95/95
f 95/95/95 96/96/96 97/97/97
f 96/96/96 98/98/98 97/97/97
f 97/97/97 98/98/98 99/99/99
f 98/98/98 100/100/100 99/99/99
f 99/99/99 100/100/100 101/101/101
f 100/100/100 102/102/102 101/101/101
f 101/101/101 102/102/102 103/103/103
f 102/102/102 104/104/104 103/103/103
f 103/103/103 104/104/104 105/105/105
f 104/104/104 106/106/106 105/105/105
f 105/105/105 106/106/106 107/107/107
f 106/106/106 108/108/108 107/107/107
f 107/107/107 108/108/108 109/109/109
f 108/108/108 110/110/110 109/109/109
f 109/109/109 110/110/110 111/111/111
f 110/110/110 112/112/112 111/111/111
f 111/111/111 112/112/112 113/113/113
f 112/112/112 114/114/114 113/113/113
f 113/113/113 114/114/114 115/115/115
f 114/114/114 116/116/116 115/115/115
f 115/115/115 116/116/116 117/117/117
f 116/116/116 118/118/118 117/117/117
f 117/117/117 118/118/118 119/119/119
f 118/118/118 120/120/120 119/119/119
f 119/119/119 120/120/120 121/121/121
f 120/120/120 122/122/122 121/121/121
f 121/121/121 122/122/122 123/123/123
f 122/122/122 124/124/124 123/123/123
f 123/123/123 124/124/124 125/125/125
f 124/124/124 126/126/126 125/125/125
f 125/125/125 126/126/126 127/127/127
f 126/126/126 128/128/128 127/127/127
f 127/127/127 128/128/128 129/129/129
f 128/128/128 130/130/130 129/129/129
f 129/129/129 130/130/130 131/131/131
f 130/130/130 132/132/132 131/131/131
f 131/131/131 132/132/132 133/133/133
f 132/132/132 134/134/134 133/133/133
f 133/133/133 134/134/134 135/135/135
f 134/134/134 136/136/136 135/135/135
f 135/135/135 136/136/136 137/137/137
f 136/136/136 138/138/138 137/137/137
f 137/137/137 138/138/138 139/139/139
f 138/138/138 140/140/140 139/139/139
f 139/139/139 140/140/140 141/141/141
f 140/140/140 142/142/142 141/141/141
f 141/141/141 142/142/142 143/143/143
f 142/142/142 144/144/144 143/143/143
f 143/143/143 144/144/144 145/145/145
f 144/144/144 146/146/146 145/145/145
f 145/145/145 146/146/146 147/147/147
f 146/146/146 148/148/148 147/147/147
f 147/147/147 148/148/148 149/149/149
f 148/148/148 150/150/150 149/149/149
f 149/149/149 150/150/150 151/151/151
f 150/150/150 152/152/152 151/151/151
f 151/151/151 152/152/152 153/153/153
f 152/152/152 154/154/154 153/153/153
f 153/153/153 154/154/154 155/155/155
f 154/154/154 156/156/156 155/155/155
