g Eff_Trail_Edge_03
v -0.5304563 1.7635536 0.002046603
v -0.29006034 1.8313717 2.7745224E-07
v -0.268534 1.8264354 0.0016388809
v -0.572979 1.763449 2.6717325E-07
v -0.268534 1.8264354 -0.0016383278
v -0.7793169 1.6604724 0.0032759346
v -0.5304563 1.7635536 -0.002046069
v -0.84178895 1.6521045 2.5029857E-07
v -1.0089879 1.5197297 0.0051366314
v -0.7793169 1.6604724 -0.0032754305
v -1.0898712 1.5000795 2.2725239E-07
v -1.2138145 1.344791 0.007427685
v -1.0089879 1.5197297 -0.005136171
v -1.311117 1.3111175 1.986103E-07
v -1.388753 1.1399645 0.009954802
v -1.2138145 1.344791 -0.0074272756
v -1.5000792 1.0898715 1.6508486E-07
v -1.5294958 0.9102934 0.012539762
v -1.388753 1.1399645 -0.0099544525
v -1.6521041 0.8417895 1.2750756E-07
v -1.6325771 0.66143304 0.0150281815
v -1.5294958 0.9102934 -0.012539483
v -1.763449 0.5729795 8.680832E-08
v -1.6954594 0.39951083 0.01729542
v -1.6325771 0.6614329 -0.015027976
v -1.8313717 0.29006106 4.399257E-08
v -1.7165934 0.13097644 0.019250305
v -1.6954594 0.39951083 -0.017295292
v -1.8541999 2.799764E-07 4.2275262E-14
v -1.6954598 -0.13755447 0.023514964
v -1.7165934 0.13097644 -0.019250259
v -1.8313721 -0.29005682 -4.379736E-08
v -1.6325783 -0.3994769 0.023514926
v -1.6954598 -0.13755447 -0.023515
v -1.76345 -0.5729756 -8.651692E-08
v -1.5294975 -0.6483378 0.023514887
v -1.6325783 -0.39947692 -0.023515038
v -1.6521062 -0.8417858 -1.2710612E-07
v -1.3887552 -0.87800914 0.023514852
v -1.5294975 -0.6483378 -0.023515075
v -1.5000814 -1.0898684 -1.6456555E-07
v -1.213817 -1.0828362 0.02351482
v -1.3887552 -0.87800914 -0.023515113
v -1.3111198 -1.3111148 -1.9797284E-07
v -1.0089909 -1.257775 0.023514794
v -1.213817 -1.0828362 -0.023515143
v -1.0898741 -1.5000771 -2.2650536E-07
v -0.77931976 -1.3985182 0.023514774
v -1.0089909 -1.257775 -0.023515169
v -0.8417921 -1.6521026 -2.4946056E-07
v -0.53045934 -1.5016 0.023514759
v -0.77931976 -1.3985182 -0.02351519
v -0.5729823 -1.763448 -2.6627322E-07
v -0.26853722 -1.5644827 0.02351475
v -0.53045934 -1.5016 -0.023515204
v -0.2900638 -1.8313713 -2.765294E-07
v -2.777942E-06 -1.5856172 0.023514748
v -0.26853722 -1.5644827 -0.023515215
v -2.9545417E-06 -1.8541999 -2.799764E-07
v 0.2685317 -1.5644834 0.02351475
v -2.777942E-06 -1.5856172 -0.023515217
v 0.290058 -1.831372 -2.765295E-07
v 0.53045404 -1.5016018 0.023514759
v 0.2685317 -1.5644834 -0.023515215
v 0.57297677 -1.7634497 -2.662735E-07
v 0.77931494 -1.3985206 0.023514774
v 0.53045404 -1.5016018 -0.023515204
v 0.8417868 -1.6521056 -2.49461E-07
v 1.0089864 -1.2577784 0.023514794
v 0.77931494 -1.3985206 -0.02351519
v 1.0898694 -1.5000808 -2.265059E-07
v 1.2138133 -1.0828402 0.02351482
v 1.0089864 -1.2577784 -0.023515169
v 1.3111157 -1.3111191 -1.9797348E-07
v 1.3887517 -0.87801373 0.023514852
v 1.2138133 -1.0828402 -0.023515143
v 1.5000778 -1.0898732 -1.6456627E-07
v 1.5294949 -0.6483427 0.023514887
v 1.3887517 -0.87801373 -0.023515113
v 1.6521032 -0.84179115 -1.2710693E-07
v 1.6325768 -0.39948207 0.023514926
v 1.5294949 -0.6483427 -0.023515075
v 1.7634485 -0.5729812 -8.651776E-08
v 1.6954588 -0.13755989 0.023514964
v 1.6325768 -0.3994821 -0.023515038
v 1.8313713 -0.29006267 -4.3798245E-08
v 1.7165933 0.13097456 0.01925031
v 1.6954588 -0.13755989 -0.023515
v 1.8541999 -1.7683028E-06 -2.670063E-13
v 1.6954594 0.39950904 0.017295422
v 1.7165933 0.13097456 -0.019250263
v 1.8313719 0.29005912 4.3992284E-08
v 1.6325777 0.66143125 0.015028187
v 1.6954594 0.39950904 -0.017295295
v 1.7634492 0.5729778 8.6808065E-08
v 1.5294963 0.9102921 0.012539764
v 1.6325777 0.66143125 -0.015027981
v 1.6521049 0.8417879 1.275073E-07
v 1.3887538 1.1399635 0.009954802
v 1.5294963 0.9102921 -0.0125394855
v 1.5000799 1.0898703 1.6508469E-07
v 1.2138155 1.3447902 0.007427685
v 1.3887538 1.1399635 -0.009954454
v 1.3111181 1.3111165 1.9861015E-07
v 1.0089889 1.5197287 0.0051366347
v 1.2138155 1.3447902 -0.0074272756
v 1.0898722 1.5000787 2.2725223E-07
v 0.77931786 1.6604714 0.0032759346
v 1.0089889 1.5197287 -0.0051361728
v 0.8417901 1.6521037 2.5029846E-07
v 0.53045714 1.7635533 0.002046603
v 0.77931786 1.6604714 -0.0032754305
v 0.57298005 1.7634487 2.6717322E-07
v 0.26853493 1.8264354 0.0016388809
v 0.53045714 1.7635533 -0.002046069
v 0.29006144 1.8313717 2.7745224E-07
v 0.26853493 1.8264354 -0.0016383278
vt 0.9703378 0.99799997
vt 0.9965089 0.50000006
vt 0.9965089 0.99799997
vt 0.9703378 0.50000006
vt 0.9965089 0.002
vt 0.94416636 0.99799997
vt 0.9703378 0.002
vt 0.94416636 0.50000006
vt 0.9179953 0.99799997
vt 0.94416636 0.002
vt 0.9179953 0.50000006
vt 0.8918239 0.99799997
vt 0.9179953 0.002
vt 0.8918239 0.50000006
vt 0.8656526 0.99799997
vt 0.8918239 0.002
vt 0.8656526 0.50000006
vt 0.83948123 0.99799997
vt 0.8656526 0.002
vt 0.83948123 0.50000006
vt 0.8133102 0.99799997
vt 0.83948123 0.002
vt 0.8133102 0.50000006
vt 0.78713876 0.99799997
vt 0.8133102 0.002
vt 0.78713876 0.50000006
vt 0.76096755 0.99799997
vt 0.78713876 0.002
vt 0.76096755 0.50000006
vt 0.7347965 0.99799997
vt 0.76096755 0.002
vt 0.7347965 0.50000006
vt 0.7086252 0.99799997
vt 0.7347965 0.002
vt 0.7086252 0.50000006
vt 0.6824538 0.99799997
vt 0.7086252 0.002
vt 0.6824538 0.50000006
vt 0.6562826 0.99799997
vt 0.6824538 0.002
vt 0.6562826 0.50000006
vt 0.6301113 0.99799997
vt 0.6562826 0.002
vt 0.6301113 0.50000006
vt 0.60393995 0.99799997
vt 0.6301113 0.002
vt 0.60393995 0.50000006
vt 0.5777687 0.99799997
vt 0.60393995 0.002
vt 0.5777687 0.50000006
vt 0.5515974 0.99799997
vt 0.5777687 0.002
vt 0.5515974 0.50000006
vt 0.525426 0.99799997
vt 0.5515974 0.002
vt 0.525426 0.50000006
vt 0.49925488 0.99799997
vt 0.525426 0.002
vt 0.49925488 0.50000006
vt 0.47308356 0.99799997
vt 0.49925488 0.002
vt 0.47308356 0.50000006
vt 0.44691226 0.99799997
vt 0.47308356 0.002
vt 0.44691226 0.50000006
vt 0.42074102 0.99799997
vt 0.44691226 0.002
vt 0.42074102 0.50000006
vt 0.39456967 0.99799997
vt 0.42074102 0.002
vt 0.39456967 0.50000006
vt 0.3683984 0.99799997
vt 0.39456967 0.002
vt 0.3683984 0.50000006
vt 0.34222704 0.99799997
vt 0.3683984 0.002
vt 0.34222704 0.50000006
vt 0.31605577 0.99799997
vt 0.34222704 0.002
vt 0.31605577 0.50000006
vt 0.28988445 0.99799997
vt 0.31605577 0.002
vt 0.28988445 0.50000006
vt 0.2637131 0.99799997
vt 0.28988445 0.002
vt 0.2637131 0.50000006
vt 0.23754172 0.99799997
vt 0.2637131 0.002
vt 0.23754172 0.50000006
vt 0.21137042 0.99799997
vt 0.23754172 0.002
vt 0.21137042 0.50000006
vt 0.18519907 0.99799997
vt 0.21137042 0.002
vt 0.18519907 0.50000006
vt 0.15902779 0.99799997
vt 0.18519907 0.002
vt 0.15902779 0.50000006
vt 0.13285647 0.99799997
vt 0.15902779 0.002
vt 0.13285647 0.50000006
vt 0.10668519 0.99799997
vt 0.13285647 0.002
vt 0.10668519 0.50000006
vt 0.08051391 0.99799997
vt 0.10668519 0.002
vt 0.08051391 0.50000006
vt 0.054342557 0.99799997
vt 0.08051391 0.002
vt 0.054342557 0.50000006
vt 0.028171241 0.99799997
vt 0.054342557 0.002
vt 0.028171241 0.50000006
vt 0.0019999787 0.99799997
vt 0.028171241 0.002
vt 0.0019999787 0.50000006
vt 0.0019999787 0.002
vn -0.04520664 0.17842357 0.98291475
vn -0.22972155 0.9732564 1.4703181E-07
vn -0.042803206 0.18142551 0.98247266
vn -0.3589489 0.93335724 1.2631031E-07
vn -0.042803206 0.18142551 -0.98247266
vn -0.065482244 0.1555954 0.98564804
vn -0.04520664 0.17842357 -0.98291475
vn -0.49461815 0.86911047 2.479528E-07
vn -0.09011629 0.1453876 0.9852621
vn -0.065482244 0.1555954 -0.98564804
vn -0.6188554 0.785505 0
vn -0.11293768 0.13156039 0.98485374
vn -0.09011629 0.1453876 -0.9852621
vn -0.7304357 0.68298143 1.898315E-07
vn -0.13095695 0.111433536 0.9851055
vn -0.11293768 0.13156039 -0.98485374
vn -0.825005 0.5651254 0
vn -0.14297202 0.086804435 0.98591274
vn -0.13095632 0.111433014 -0.98510563
vn -0.90140116 0.4329848 2.4873668E-07
vn -0.14897214 0.060369756 0.98699677
vn -0.14297135 0.08680403 -0.98591286
vn -0.9570535 0.28991145 2.3602658E-07
vn -0.14838195 0.033791438 0.9883526
vn -0.14897485 0.060070504 -0.98701465
vn -0.99033934 0.13866553 0
vn -0.14658126 0.0096869785 0.98915124
vn -0.14838126 0.033791278 -0.9883527
vn -0.99999523 0.0031031216 -2.6749296E-07
vn -0.1453858 -0.012541028 0.98929554
vn -0.14658126 0.0096869785 -0.98915124
vn -0.98453695 -0.17517728 0
vn -0.1285604 -0.03724647 0.991002
vn -0.14538714 -0.012541142 -0.9892953
vn -0.94195217 -0.3357468 -3.612729E-07
vn -0.10873647 -0.05166484 0.99272716
vn -0.1285604 -0.03724647 -0.991002
vn -0.8794177 -0.47605094 -3.2821728E-07
vn -0.090713486 -0.062478162 0.99391526
vn -0.10873647 -0.05166484 -0.99272716
vn -0.796382 -0.60479385 0
vn -0.07419065 -0.07088661 0.99472153
vn -0.090713486 -0.062478162 -0.99391526
vn -0.6943801 -0.7196084 -1.08626324E-07
vn -0.05797311 -0.07689698 0.99535215
vn -0.07419065 -0.07088661 -0.99472153
vn -0.57648265 -0.81710935 -1.2340611E-07
vn -0.0429531 -0.081701 0.99573094
vn -0.057973653 -0.076897696 -0.995352
vn -0.44432715 -0.89586455 0
vn -0.02853538 -0.084705025 0.9959974
vn -0.0429531 -0.081701 -0.99573094
vn -0.30244696 -0.9531662 -1.4400302E-07
vn -0.014117555 -0.08650757 0.99615115
vn -0.02853538 -0.084705025 -0.9959974
vn -0.1529656 -0.9882315 -3.7683716E-07
vn -1.2488944E-07 -0.08770453 0.99614656
vn -0.014117555 -0.08650757 -0.99615115
vn -1.3540457E-06 -1 -3.798946E-07
vn 0.014117555 -0.08650757 0.99615115
vn -1.2374366E-07 -0.08770453 -0.99614656
vn 0.1529656 -0.9882315 -1.4924528E-07
vn 0.028385315 -0.08470538 0.99600166
vn 0.014117555 -0.08650757 -0.99615115
vn 0.30231047 -0.9532095 -1.4393792E-07
vn 0.042653274 -0.08170204 0.9957437
vn 0.028385315 -0.08470538 -0.99600166
vn 0.44432715 -0.89586455 -1.3523115E-07
vn 0.05797311 -0.07689698 0.99535215
vn 0.042653274 -0.08170204 -0.9957437
vn 0.57648265 -0.81710935 -3.3211498E-07
vn 0.0738919 -0.07088818 0.9947436
vn 0.057973653 -0.076897696 -0.995352
vn 0.69406885 -0.71990865 -1.0867164E-07
vn 0.090713486 -0.062478162 0.99391526
vn 0.0738919 -0.07088818 -0.9947436
vn 0.796382 -0.60479385 -4.6157862E-07
vn 0.10873647 -0.05166484 0.99272716
vn 0.090713486 -0.062478162 -0.99391526
vn 0.8794177 -0.47605094 -4.1364615E-07
vn 0.1285604 -0.03724647 0.991002
vn 0.10873647 -0.05166484 -0.99272716
vn 0.94195217 -0.3357468 0
vn 0.14597379 -0.01253993 0.989209
vn 0.1285604 -0.03724647 -0.991002
vn 0.9845184 -0.17528094 -3.091546E-07
vn 0.14599401 0.0096878745 0.989238
vn 0.14597514 -0.012540046 -0.98920876
vn 0.99999523 0.0031010548 -2.6749427E-07
vn 0.14838195 0.033791438 0.9883526
vn 0.14599401 0.0096878745 -0.989238
vn 0.9903289 0.1387392 2.9146966E-07
vn 0.14897214 0.060369756 0.98699677
vn 0.14838195 0.033791438 -0.9883526
vn 0.9570623 0.28988236 -2.1246083E-07
vn 0.14297508 0.086505935 0.9859386
vn 0.14897214 0.060369756 -0.98699677
vn 0.9015184 0.43274084 -1.7917527E-07
vn 0.13095695 0.111433536 0.9851055
vn 0.14297508 0.086505935 -0.9859386
vn 0.8251968 0.5648454 0
vn 0.11293768 0.13156039 0.98485374
vn 0.13095604 0.111432776 -0.98510575
vn 0.73013616 0.68330175 -1.2791013E-07
vn 0.09010842 0.14597562 0.98517597
vn 0.11293768 0.13156039 -0.98485374
vn 0.6191474 0.7852748 -1.1173283E-07
vn 0.065482244 0.1555954 0.98564804
vn 0.09010842 0.14597562 -0.98517597
vn 0.49461815 0.86911047 1.3124387E-07
vn 0.04520179 0.17900509 0.98280925
vn 0.065482244 0.1555954 -0.98564804
vn 0.3589489 0.93335724 0
vn 0.042803187 0.18142545 0.9824728
vn 0.04520179 0.17900509 -0.98280925
vn 0.22979268 0.9732396 1.4702928E-07
vn 0.042803187 0.18142545 -0.9824728
g Eff_Trail_Edge_03_0
f 3/3/3 2/2/2 1/1/1
f 2/2/2 4/4/4 1/1/1
f 2/2/2 5/5/5 4/4/4
f 1/1/1 4/4/4 6/6/6
f 5/5/5 7/7/7 4/4/4
f 4/4/4 8/8/8 6/6/6
f 4/4/4 7/7/7 8/8/8
f 6/6/6 8/8/8 9/9/9
f 7/7/7 10/10/10 8/8/8
f 8/8/8 11/11/11 9/9/9
f 8/8/8 10/10/10 11/11/11
f 9/9/9 11/11/11 12/12/12
f 10/10/10 13/13/13 11/11/11
f 11/11/11 14/14/14 12/12/12
f 11/11/11 13/13/13 14/14/14
f 12/12/12 14/14/14 15/15/15
f 13/13/13 16/16/16 14/14/14
f 14/14/14 17/17/17 15/15/15
f 14/14/14 16/16/16 17/17/17
f 15/15/15 17/17/17 18/18/18
f 16/16/16 19/19/19 17/17/17
f 17/17/17 20/20/20 18/18/18
f 17/17/17 19/19/19 20/20/20
f 18/18/18 20/20/20 21/21/21
f 19/19/19 22/22/22 20/20/20
f 20/20/20 23/23/23 21/21/21
f 20/20/20 22/22/22 23/23/23
f 21/21/21 23/23/23 24/24/24
f 22/22/22 25/25/25 23/23/23
f 23/23/23 26/26/26 24/24/24
f 23/23/23 25/25/25 26/26/26
f 24/24/24 26/26/26 27/27/27
f 25/25/25 28/28/28 26/26/26
f 26/26/26 29/29/29 27/27/27
f 26/26/26 28/28/28 29/29/29
f 27/27/27 29/29/29 30/30/30
f 28/28/28 31/31/31 29/29/29
f 29/29/29 32/32/32 30/30/30
f 29/29/29 31/31/31 32/32/32
f 30/30/30 32/32/32 33/33/33
f 31/31/31 34/34/34 32/32/32
f 32/32/32 35/35/35 33/33/33
f 32/32/32 34/34/34 35/35/35
f 33/33/33 35/35/35 36/36/36
f 34/34/34 37/37/37 35/35/35
f 35/35/35 38/38/38 36/36/36
f 35/35/35 37/37/37 38/38/38
f 36/36/36 38/38/38 39/39/39
f 37/37/37 40/40/40 38/38/38
f 38/38/38 41/41/41 39/39/39
f 38/38/38 40/40/40 41/41/41
f 39/39/39 41/41/41 42/42/42
f 40/40/40 43/43/43 41/41/41
f 41/41/41 44/44/44 42/42/42
f 41/41/41 43/43/43 44/44/44
f 42/42/42 44/44/44 45/45/45
f 43/43/43 46/46/46 44/44/44
f 44/44/44 47/47/47 45/45/45
f 44/44/44 46/46/46 47/47/47
f 45/45/45 47/47/47 48/48/48
f 46/46/46 49/49/49 47/47/47
f 47/47/47 50/50/50 48/48/48
f 47/47/47 49/49/49 50/50/50
f 48/48/48 50/50/50 51/51/51
f 49/49/49 52/52/52 50/50/50
f 50/50/50 53/53/53 51/51/51
f 50/50/50 52/52/52 53/53/53
f 51/51/51 53/53/53 54/54/54
f 52/52/52 55/55/55 53/53/53
f 53/53/53 56/56/56 54/54/54
f 53/53/53 55/55/55 56/56/56
f 54/54/54 56/56/56 57/57/57
f 55/55/55 58/58/58 56/56/56
f 56/56/56 59/59/59 57/57/57
f 56/56/56 58/58/58 59/59/59
f 57/57/57 59/59/59 60/60/60
f 58/58/58 61/61/61 59/59/59
f 59/59/59 62/62/62 60/60/60
f 59/59/59 61/61/61 62/62/62
f 60/60/60 62/62/62 63/63/63
f 61/61/61 64/64/64 62/62/62
f 62/62/62 65/65/65 63/63/63
f 62/62/62 64/64/64 65/65/65
f 63/63/63 65/65/65 66/66/66
f 64/64/64 67/67/67 65/65/65
f 65/65/65 68/68/68 66/66/66
f 65/65/65 67/67/67 68/68/68
f 66/66/66 68/68/68 69/69/69
f 67/67/67 70/70/70 68/68/68
f 68/68/68 71/71/71 69/69/69
f 68/68/68 70/70/70 71/71/71
f 69/69/69 71/71/71 72/72/72
f 70/70/70 73/73/73 71/71/71
f 71/71/71 74/74/74 72/72/72
f 71/71/71 73/73/73 74/74/74
f 72/72/72 74/74/74 75/75/75
f 73/73/73 76/76/76 74/74/74
f 74/74/74 77/77/77 75/75/75
f 74/74/74 76/76/76 77/77/77
f 75/75/75 77/77/77 78/78/78
f 76/76/76 79/79/79 77/77/77
f 77/77/77 80/80/80 78/78/78
f 77/77/77 79/79/79 80/80/80
f 78/78/78 80/80/80 81/81/81
f 79/79/79 82/82/82 80/80/80
f 80/80/80 83/83/83 81/81/81
f 80/80/80 82/82/82 83/83/83
f 81/81/81 83/83/83 84/84/84
f 82/82/82 85/85/85 83/83/83
f 83/83/83 86/86/86 84/84/84
f 83/83/83 85/85/85 86/86/86
f 84/84/84 86/86/86 87/87/87
f 85/85/85 88/88/88 86/86/86
f 86/86/86 89/89/89 87/87/87
f 86/86/86 88/88/88 89/89/89
f 87/87/87 89/89/89 90/90/90
f 88/88/88 91/91/91 89/89/89
f 89/89/89 92/92/92 90/90/90
f 89/89/89 91/91/91 92/92/92
f 90/90/90 92/92/92 93/93/93
f 91/91/91 94/94/94 92/92/92
f 92/92/92 95/95/95 93/93/93
f 92/92/92 94/94/94 95/95/95
f 93/93/93 95/95/95 96/96/96
f 94/94/94 97/97/97 95/95/95
f 95/95/95 98/98/98 96/96/96
f 95/95/95 97/97/97 98/98/98
f 96/96/96 98/98/98 99/99/99
f 97/97/97 100/100/100 98/98/98
f 98/98/98 101/101/101 99/99/99
f 98/98/98 100/100/100 101/101/101
f 99/99/99 101/101/101 102/102/102
f 100/100/100 103/103/103 101/101/101
f 101/101/101 104/104/104 102/102/102
f 101/101/101 103/103/103 104/104/104
f 102/102/102 104/104/104 105/105/105
f 103/103/103 106/106/106 104/104/104
f 104/104/104 107/107/107 105/105/105
f 104/104/104 106/106/106 107/107/107
f 105/105/105 107/107/107 108/108/108
f 106/106/106 109/109/109 107/107/107
f 107/107/107 110/110/110 108/108/108
f 107/107/107 109/109/109 110/110/110
f 108/108/108 110/110/110 111/111/111
f 109/109/109 112/112/112 110/110/110
f 110/110/110 113/113/113 111/111/111
f 110/110/110 112/112/112 113/113/113
f 111/111/111 113/113/113 114/114/114
f 112/112/112 115/115/115 113/113/113
f 113/113/113 116/116/116 114/114/114
f 113/113/113 115/115/115 116/116/116
f 115/115/115 117/117/117 116/116/116
