g Eff_Trail_Cone_01
v 0.048602793 1.3918059 -0.057668705
v -0.19316891 1.8378764 0
v -0.14557219 1.3850253 -0.057668705
v 0.06449404 1.846874 0
v -0.14557219 1.3850253 0.057669066
v 0.24183182 1.371497 -0.057668705
v 0.048602793 1.3918059 0.057669066
v 0.32090166 1.8199247 0
v 0.43035388 1.3244932 -0.057668705
v 0.24183182 1.371497 0.057669066
v 0.57106334 1.7575525 0
v 0.6104995 1.2517095 -0.057668705
v 0.43035388 1.3244932 0.057669066
v 0.81010985 1.6609713 0
v 0.7787624 1.1545628 -0.057668705
v 0.6104995 1.2517095 0.057669066
v 1.0333885 1.5320615 0
v 0.9318675 1.0349439 -0.057668705
v 0.7787624 1.1545628 0.057669066
v 1.2365533 1.3733315 0
v 1.066835 0.8951811 -0.057668705
v 0.9318675 1.0349439 0.057669066
v 1.41565 1.1878713 0
v 1.1810379 0.73799443 -0.057668705
v 1.066835 0.8951811 0.057669066
v 1.5671928 0.9792907 0
v 1.272253 0.56644356 -0.057668705
v 1.1810379 0.73799443 0.057669066
v 1.688232 0.7516493 0
v 1.3387051 0.38386768 -0.057668705
v 1.272253 0.56644356 0.057669066
v 1.7764114 0.50937784 0
v 1.379101 0.19382016 -0.057668705
v 1.3387051 0.38386768 0.057669066
v 1.8300152 0.25719187 0
v 1.3926542 1.4210507E-07 -0.057668705
v 1.379101 0.19382016 0.057669066
v 1.8479998 0 0
v 1.3791014 -0.19381721 -0.057668705
v 1.3926542 1.4210507E-07 0.057669066
v 1.8300158 -0.25718835 0
v 1.3387059 -0.38386512 -0.057668705
v 1.3791014 -0.19381721 0.057669066
v 1.7764124 -0.5093747 0
v 1.2722538 -0.56644136 -0.057668705
v 1.3387059 -0.38386512 0.057669066
v 1.6882331 -0.7516466 0
v 1.1810386 -0.7379926 -0.057668705
v 1.2722538 -0.56644136 0.057669066
v 1.5671942 -0.97928864 0
v 1.0668362 -0.89517933 -0.057668705
v 1.1810386 -0.7379926 0.057669066
v 1.4156517 -1.1878695 0
v 0.9318687 -1.0349426 -0.057668705
v 1.0668362 -0.89517933 0.057669066
v 1.2365549 -1.3733302 0
v 0.7787636 -1.1545619 -0.057668705
v 0.9318687 -1.0349426 0.057669066
v 1.0333899 -1.5320605 0
v 0.61050045 -1.2517087 -0.057668705
v 0.7787636 -1.1545619 0.057669066
v 0.81011117 -1.6609707 0
v 0.43035468 -1.3244925 -0.057668705
v 0.61050045 -1.2517087 0.057669066
v 0.5710644 -1.757552 0
v 0.24183255 -1.3714966 -0.057668705
v 0.43035468 -1.3244925 0.057669066
v 0.32090262 -1.8199246 0
v 0.048603363 -1.3918059 -0.057668705
v 0.24183255 -1.3714966 0.057669066
v 0.0644948 -1.846874 0
v -0.14557178 -1.3850251 -0.057668705
v 0.048603363 -1.3918059 0.057669066
v -0.19316836 -1.8378764 0
v -0.33691365 -1.3512863 -0.057668705
v -0.14557178 -1.3850251 0.057669066
v -0.4470717 -1.7931063 0
v -0.5216977 -1.2912463 -0.057668705
v -0.33691365 -1.3512863 0.057669066
v -0.6922733 -1.7134356 0
v -0.69632745 -1.2060736 -0.057668705
v -0.5216977 -1.2912463 0.057669066
v -0.92400044 -1.6004144 0
v -0.85740405 -1.0974259 -0.057668705
v -0.69632745 -1.2060736 0.057669066
v -1.137743 -1.4562432 0
v -1.0017923 -0.967418 -0.057668705
v -0.85740405 -1.0974259 0.057669066
v -1.3293408 -1.2837276 0
v -1.1266816 -0.8185809 -0.057668705
v -1.0017923 -0.967418 0.057669066
v -1.495064 -1.0862262 0
v -1.2296413 -0.65381086 -0.057668705
v -1.1266816 -0.8185809 0.057669066
v -1.6316874 -0.86758256 0
v -1.3086673 -0.47631508 -0.057668705
v -1.2296413 -0.65381086 0.057669066
v -1.7365522 -0.63205236 0
v -1.3622215 -0.2895484 -0.057668705
v -1.3086673 -0.47631508 0.057669066
v -1.8076168 -0.38422006 0
v -1.3892617 -0.09714607 -0.057668705
v -1.3622215 -0.2895484 0.057669066
v -1.8434983 -0.12890938 0
v -1.3892617 0.09714713 -0.057668705
v -1.3892617 -0.09714607 0.057669066
v -1.8434982 0.12891039 0
v -1.3622215 0.2895495 -0.057668705
v -1.3892617 0.09714713 0.057669066
v -1.8076167 0.38422108 0
v -1.3086668 0.47631595 -0.057668705
v -1.3622215 0.2895495 0.057669066
v -1.7365518 0.6320534 0
v -1.2296407 0.65381163 -0.057668705
v -1.3086668 0.47631595 0.057669066
v -1.6316869 0.8675834 0
v -1.1266813 0.8185816 -0.057668705
v -1.2296407 0.65381163 0.057669066
v -1.4950634 1.086227 0
v -1.0017917 0.9674191 -0.057668705
v -1.1266813 0.8185816 0.057669066
v -1.32934 1.2837285 0
v -0.85740393 1.0974265 -0.057668705
v -1.0017917 0.9674191 0.057669066
v -1.1377426 1.4562435 0
v -0.69632745 1.2060738 -0.057668705
v -0.85740393 1.0974265 0.057669066
v -0.9240004 1.6004145 0
v -0.5216977 1.2912464 -0.057668705
v -0.69632745 1.2060738 0.057669066
v -0.6922734 1.7134355 0
v -0.33691382 1.3512866 -0.057668705
v -0.5216977 1.2912464 0.057669066
v -0.44707203 1.7931063 0
v -0.14557219 1.3850253 -0.057668705
v -0.33691382 1.3512866 0.057669066
v -0.19316891 1.8378764 0
v -0.14557219 1.3850253 0.057669066
vt 0.9944444 0
vt 1.0166668 0.5
vt 1.0166668 0
vt 0.9944444 0.5
vt 1.0166668 1
vt 0.9722222 0
vt 0.9944444 1
vt 0.9722222 0.5
vt 0.95 0
vt 0.9722222 1
vt 0.95 0.5
vt 0.9277778 0
vt 0.95 1
vt 0.9277778 0.5
vt 0.90555555 0
vt 0.9277778 1
vt 0.90555555 0.5
vt 0.8833333 0
vt 0.90555555 1
vt 0.8833333 0.5
vt 0.86111104 0
vt 0.8833333 1
vt 0.86111104 0.5
vt 0.8388889 0
vt 0.86111104 1
vt 0.8388889 0.5
vt 0.81666666 0
vt 0.8388889 1
vt 0.81666666 0.5
vt 0.79444444 0
vt 0.81666666 1
vt 0.79444444 0.5
vt 0.7722222 0
vt 0.79444444 1
vt 0.7722222 0.5
vt 0.75 0
vt 0.7722222 1
vt 0.75 0.5
vt 0.7277781 0
vt 0.75 1
vt 0.7277781 0.5
vt 0.7055558 0
vt 0.7277781 1
vt 0.7055558 0.5
vt 0.6833335 0
vt 0.7055558 1
vt 0.6833335 0.5
vt 0.6611113 0
vt 0.6833335 1
vt 0.6611113 0.5
vt 0.63888913 0
vt 0.6611113 1
vt 0.63888913 0.5
vt 0.61666685 0
vt 0.63888913 1
vt 0.61666685 0.5
vt 0.5944446 0
vt 0.61666685 1
vt 0.5944446 0.5
vt 0.57222235 0
vt 0.5944446 1
vt 0.57222235 0.5
vt 0.5500001 0
vt 0.57222235 1
vt 0.5500001 0.5
vt 0.52777785 0
vt 0.5500001 1
vt 0.52777785 0.5
vt 0.50555557 0
vt 0.52777785 1
vt 0.50555557 0.5
vt 0.48333335 0
vt 0.50555557 1
vt 0.48333335 0.5
vt 0.4611111 0
vt 0.48333335 1
vt 0.4611111 0.5
vt 0.43888885 0
vt 0.4611111 1
vt 0.43888885 0.5
vt 0.4166666 0
vt 0.43888885 1
vt 0.4166666 0.5
vt 0.3944444 0
vt 0.4166666 1
vt 0.3944444 0.5
vt 0.37222216 0
vt 0.3944444 1
vt 0.37222216 0.5
vt 0.3499999 0
vt 0.37222216 1
vt 0.3499999 0.5
vt 0.32777768 0
vt 0.3499999 1
vt 0.32777768 0.5
vt 0.3055555 0
vt 0.32777768 1
vt 0.3055555 0.5
vt 0.28333327 0
vt 0.3055555 1
vt 0.28333327 0.5
vt 0.26111105 0
vt 0.28333327 1
vt 0.26111105 0.5
vt 0.23888886 0
vt 0.26111105 1
vt 0.23888886 0.5
vt 0.21666667 0
vt 0.23888886 1
vt 0.21666667 0.5
vt 0.19444443 0
vt 0.21666667 1
vt 0.19444443 0.5
vt 0.17222223 0
vt 0.19444443 1
vt 0.17222223 0.5
vt 0.15000005 0
vt 0.17222223 1
vt 0.15000005 0.5
vt 0.12777781 0
vt 0.15000005 1
vt 0.12777781 0.5
vt 0.1055556 0
vt 0.12777781 1
vt 0.1055556 0.5
vt 0.08333339 0
vt 0.1055556 1
vt 0.08333339 0.5
vt 0.06111118 0
vt 0.08333339 1
vt 0.06111118 0.5
vt 0.03888893 0
vt 0.06111118 1
vt 0.03888893 0.5
vt 0.016666723 0
vt 0.03888893 1
vt 0.016666723 0.5
vt 0.016666723 1
vn 0.024209546 0.69306606 -0.72046745
vn -0.10451821 0.9945229 0
vn -0.07248161 0.6896393 -0.7205166
vn 0.034894273 0.99939096 0
vn -0.072483875 0.6896608 0.72049576
vn 0.12041498 0.682974 -0.720449
vn 0.0242103 0.69308776 0.7204465
vn 0.17365813 0.984806 0
vn 0.21428703 0.65945166 -0.7205586
vn 0.12041876 0.6829954 0.7204281
vn 0.30902264 0.95105475 0
vn 0.30395848 0.6233754 -0.72042507
vn 0.21429373 0.6594723 0.7205377
vn 0.4383407 0.89880896 0
vn 0.38789576 0.5748084 -0.7205082
vn 0.30396798 0.6233949 0.72040415
vn 0.55924594 0.8290018 0
vn 0.46410647 0.5153457 -0.7204332
vn 0.3878692 0.5749427 0.72041535
vn 0.66910154 0.743171 0
vn 0.53120744 0.4457418 -0.7205088
vn 0.4641209 0.51536185 0.72041225
vn 0.7660919 0.6427311 0
vn 0.5880488 0.36742193 -0.72055525
vn 0.53122413 0.44575578 0.7204879
vn 0.8480261 0.52995443 0
vn 0.63350147 0.28209662 -0.7204842
vn 0.5880672 0.36743343 0.7205343
vn 0.9135457 0.4067359 0
vn 0.6666563 0.19106877 -0.7204596
vn 0.6335213 0.28210545 0.7204633
vn 0.9612696 0.2756096 0
vn 0.68678 0.09648617 -0.72043294
vn 0.66667724 0.19107479 0.7204387
vn 0.99026966 0.1391612 0
vn 0.6934497 3.7839413E-07 -0.72050506
vn 0.6868015 0.09648917 0.720412
vn 1 4.7132977E-07 0
vn 0.68678 -0.09648617 -0.72043294
vn 0.6934714 3.6881798E-07 0.7204842
vn 0.9902665 -0.13918397 0
vn 0.6666563 -0.19106877 -0.7204596
vn 0.6868015 -0.09648917 0.720412
vn 0.9612571 -0.27565342 0
vn 0.6336054 -0.28206554 -0.72040486
vn 0.66667724 -0.19107479 0.7204387
vn 0.9135457 -0.4067359 0
vn 0.5880488 -0.36742193 -0.72055525
vn 0.63362527 -0.28207442 0.720384
vn 0.84807247 -0.5298802 0
vn 0.53120744 -0.4457418 -0.7205088
vn 0.5880672 -0.36743343 0.7205343
vn 0.7660512 -0.6427796 0
vn 0.46410647 -0.5153457 -0.7204332
vn 0.53122413 -0.44575578 0.7204879
vn 0.66910154 -0.743171 0
vn 0.38789576 -0.5748084 -0.7205082
vn 0.4641209 -0.51536185 0.72041225
vn 0.5591126 -0.82909167 0
vn 0.30387968 -0.62339187 -0.7204441
vn 0.38790795 -0.5748265 0.7204873
vn 0.4384057 -0.8987771 0
vn 0.21423796 -0.65964794 -0.7203935
vn 0.3038892 -0.6234114 0.7204232
vn 0.30907112 -0.9510389 0
vn 0.12045779 -0.68297046 -0.7204453
vn 0.21424463 -0.6596685 0.72037256
vn 0.17365813 -0.984806 0
vn 0.024215378 -0.6928855 -0.7206409
vn 0.12046156 -0.6829918 0.72042435
vn 0.03488912 -0.9993912 0
vn -0.072459996 -0.6896402 -0.72051775
vn 0.024216134 -0.69290715 0.72062004
vn -0.10451821 -0.9945229 0
vn -0.16770673 -0.67291135 -0.72046155
vn -0.072462276 -0.68966186 0.72049683
vn -0.24187504 -0.97030735 0
vn -0.2597624 -0.6430228 -0.72044784
vn -0.16771199 -0.6729324 0.7204406
vn -0.37464875 -0.9271669 0
vn -0.34673113 -0.60052586 -0.720518
vn -0.2597706 -0.64304286 0.7204269
vn -0.50004655 -0.8659986 0
vn -0.42691883 -0.5465881 -0.72040385
vn -0.346742 -0.60054463 0.7204972
vn -0.61568254 -0.7879943 0
vn -0.49888077 -0.48168397 -0.720485
vn -0.4269322 -0.54660517 0.7203829
vn -0.71938443 -0.69461215 0
vn -0.5610384 -0.40766475 -0.720448
vn -0.49889636 -0.48169902 0.720464
vn -0.8090038 -0.5878034 0
vn -0.612314 -0.32552522 -0.7204894
vn -0.5610559 -0.4076775 0.72042716
vn -0.882951 -0.46946508 0
vn -0.6517 -0.2371792 -0.7204395
vn -0.6123331 -0.3255354 0.7204685
vn -0.93967885 -0.342058 0
vn -0.67841166 -0.14415815 -0.7204
vn -0.6517204 -0.23718666 0.72041863
vn -0.97814673 -0.20791605 0
vn -0.6917354 -0.048379786 -0.7205287
vn -0.67842865 -0.14420517 0.7203745
vn -0.99756396 -0.06975806 0
vn -0.6917354 0.048379786 -0.7205287
vn -0.69175696 -0.048381295 0.7205078
vn -0.99756396 0.06975806 0
vn -0.6784074 0.14420067 -0.7203954
vn -0.69175696 0.048381295 0.7205078
vn -0.97814673 0.20791605 0
vn -0.6517 0.2371792 -0.7204395
vn -0.67842865 0.14420517 0.7203745
vn -0.9397114 0.34196842 0
vn -0.612314 0.32552522 -0.7204894
vn -0.6517204 0.23718666 0.72041863
vn -0.882951 0.46946508 0
vn -0.5609194 0.40770447 -0.72051823
vn -0.6123331 0.3255354 0.7204685
vn -0.8091001 0.5876708 0
vn -0.49888077 0.48168397 -0.720485
vn -0.560937 0.40771723 0.72049737
vn -0.71938443 0.69461215 0
vn -0.42691883 0.5465881 -0.72040385
vn -0.49889636 0.48169902 0.720464
vn -0.61568254 0.7879943 0
vn -0.34673113 0.60052586 -0.720518
vn -0.4269322 0.54660517 0.7203829
vn -0.50004655 0.8659986 0
vn -0.2597624 0.6430228 -0.72044784
vn -0.346742 0.60054463 0.7204972
vn -0.37464875 0.9271669 0
vn -0.16779113 0.6729015 -0.720451
vn -0.2597706 0.64304286 0.7204269
vn -0.24187504 0.97030735 0
vn -0.07248161 0.6896393 -0.7205166
vn -0.16779637 0.6729226 0.72043014
vn -0.10451821 0.9945229 0
vn -0.072483875 0.6896608 0.72049576
g Eff_Trail_Cone_01_0
f 3/3/3 2/2/2 1/1/1
f 2/2/2 4/4/4 1/1/1
f 2/2/2 5/5/5 4/4/4
f 1/1/1 4/4/4 6/6/6
f 5/5/5 7/7/7 4/4/4
f 4/4/4 8/8/8 6/6/6
f 4/4/4 7/7/7 8/8/8
f 6/6/6 8/8/8 9/9/9
f 7/7/7 10/10/10 8/8/8
f 8/8/8 11/11/11 9/9/9
f 8/8/8 10/10/10 11/11/11
f 9/9/9 11/11/11 12/12/12
f 10/10/10 13/13/13 11/11/11
f 11/11/11 14/14/14 12/12/12
f 11/11/11 13/13/13 14/14/14
f 12/12/12 14/14/14 15/15/15
f 13/13/13 16/16/16 14/14/14
f 14/14/14 17/17/17 15/15/15
f 14/14/14 16/16/16 17/17/17
f 15/15/15 17/17/17 18/18/18
f 16/16/16 19/19/19 17/17/17
f 17/17/17 20/20/20 18/18/18
f 17/17/17 19/19/19 20/20/20
f 18/18/18 20/20/20 21/21/21
f 19/19/19 22/22/22 20/20/20
f 20/20/20 23/23/23 21/21/21
f 20/20/20 22/22/22 23/23/23
f 21/21/21 23/23/23 24/24/24
f 22/22/22 25/25/25 23/23/23
f 23/23/23 26/26/26 24/24/24
f 23/23/23 25/25/25 26/26/26
f 24/24/24 26/26/26 27/27/27
f 25/25/25 28/28/28 26/26/26
f 26/26/26 29/29/29 27/27/27
f 26/26/26 28/28/28 29/29/29
f 27/27/27 29/29/29 30/30/30
f 28/28/28 31/31/31 29/29/29
f 29/29/29 32/32/32 30/30/30
f 29/29/29 31/31/31 32/32/32
f 30/30/30 32/32/32 33/33/33
f 31/31/31 34/34/34 32/32/32
f 32/32/32 35/35/35 33/33/33
f 32/32/32 34/34/34 35/35/35
f 33/33/33 35/35/35 36/36/36
f 34/34/34 37/37/37 35/35/35
f 35/35/35 38/38/38 36/36/36
f 35/35/35 37/37/37 38/38/38
f 36/36/36 38/38/38 39/39/39
f 37/37/37 40/40/40 38/38/38
f 38/38/38 41/41/41 39/39/39
f 38/38/38 40/40/40 41/41/41
f 39/39/39 41/41/41 42/42/42
f 40/40/40 43/43/43 41/41/41
f 41/41/41 44/44/44 42/42/42
f 41/41/41 43/43/43 44/44/44
f 42/42/42 44/44/44 45/45/45
f 43/43/43 46/46/46 44/44/44
f 44/44/44 47/47/47 45/45/45
f 44/44/44 46/46/46 47/47/47
f 45/45/45 47/47/47 48/48/48
f 46/46/46 49/49/49 47/47/47
f 47/47/47 50/50/50 48/48/48
f 47/47/47 49/49/49 50/50/50
f 48/48/48 50/50/50 51/51/51
f 49/49/49 52/52/52 50/50/50
f 50/50/50 53/53/53 51/51/51
f 50/50/50 52/52/52 53/53/53
f 51/51/51 53/53/53 54/54/54
f 52/52/52 55/55/55 53/53/53
f 53/53/53 56/56/56 54/54/54
f 53/53/53 55/55/55 56/56/56
f 54/54/54 56/56/56 57/57/57
f 55/55/55 58/58/58 56/56/56
f 56/56/56 59/59/59 57/57/57
f 56/56/56 58/58/58 59/59/59
f 57/57/57 59/59/59 60/60/60
f 58/58/58 61/61/61 59/59/59
f 59/59/59 62/62/62 60/60/60
f 59/59/59 61/61/61 62/62/62
f 60/60/60 62/62/62 63/63/63
f 61/61/61 64/64/64 62/62/62
f 62/62/62 65/65/65 63/63/63
f 62/62/62 64/64/64 65/65/65
f 63/63/63 65/65/65 66/66/66
f 64/64/64 67/67/67 65/65/65
f 65/65/65 68/68/68 66/66/66
f 65/65/65 67/67/67 68/68/68
f 66/66/66 68/68/68 69/69/69
f 67/67/67 70/70/70 68/68/68
f 68/68/68 71/71/71 69/69/69
f 68/68/68 70/70/70 71/71/71
f 69/69/69 71/71/71 72/72/72
f 70/70/70 73/73/73 71/71/71
f 71/71/71 74/74/74 72/72/72
f 71/71/71 73/73/73 74/74/74
f 72/72/72 74/74/74 75/75/75
f 73/73/73 76/76/76 74/74/74
f 74/74/74 77/77/77 75/75/75
f 74/74/74 76/76/76 77/77/77
f 75/75/75 77/77/77 78/78/78
f 76/76/76 79/79/79 77/77/77
f 77/77/77 80/80/80 78/78/78
f 77/77/77 79/79/79 80/80/80
f 78/78/78 80/80/80 81/81/81
f 79/79/79 82/82/82 80/80/80
f 80/80/80 83/83/83 81/81/81
f 80/80/80 82/82/82 83/83/83
f 81/81/81 83/83/83 84/84/84
f 82/82/82 85/85/85 83/83/83
f 83/83/83 86/86/86 84/84/84
f 83/83/83 85/85/85 86/86/86
f 84/84/84 86/86/86 87/87/87
f 85/85/85 88/88/88 86/86/86
f 86/86/86 89/89/89 87/87/87
f 86/86/86 88/88/88 89/89/89
f 87/87/87 89/89/89 90/90/90
f 88/88/88 91/91/91 89/89/89
f 89/89/89 92/92/92 90/90/90
f 89/89/89 91/91/91 92/92/92
f 90/90/90 92/92/92 93/93/93
f 91/91/91 94/94/94 92/92/92
f 92/92/92 95/95/95 93/93/93
f 92/92/92 94/94/94 95/95/95
f 93/93/93 95/95/95 96/96/96
f 94/94/94 97/97/97 95/95/95
f 95/95/95 98/98/98 96/96/96
f 95/95/95 97/97/97 98/98/98
f 96/96/96 98/98/98 99/99/99
f 97/97/97 100/100/100 98/98/98
f 98/98/98 101/101/101 99/99/99
f 98/98/98 100/100/100 101/101/101
f 99/99/99 101/101/101 102/102/102
f 100/100/100 103/103/103 101/101/101
f 101/101/101 104/104/104 102/102/102
f 101/101/101 103/103/103 104/104/104
f 102/102/102 104/104/104 105/105/105
f 103/103/103 106/106/106 104/104/104
f 104/104/104 107/107/107 105/105/105
f 104/104/104 106/106/106 107/107/107
f 105/105/105 107/107/107 108/108/108
f 106/106/106 109/109/109 107/107/107
f 107/107/107 110/110/110 108/108/108
f 107/107/107 109/109/109 110/110/110
f 108/108/108 110/110/110 111/111/111
f 109/109/109 112/112/112 110/110/110
f 110/110/110 113/113/113 111/111/111
f 110/110/110 112/112/112 113/113/113
f 111/111/111 113/113/113 114/114/114
f 112/112/112 115/115/115 113/113/113
f 113/113/113 116/116/116 114/114/114
f 113/113/113 115/115/115 116/116/116
f 114/114/114 116/116/116 117/117/117
f 115/115/115 118/118/118 116/116/116
f 116/116/116 119/119/119 117/117/117
f 116/116/116 118/118/118 119/119/119
f 117/117/117 119/119/119 120/120/120
f 118/118/118 121/121/121 119/119/119
f 119/119/119 122/122/122 120/120/120
f 119/119/119 121/121/121 122/122/122
f 120/120/120 122/122/122 123/123/123
f 121/121/121 124/124/124 122/122/122
f 122/122/122 125/125/125 123/123/123
f 122/122/122 124/124/124 125/125/125
f 123/123/123 125/125/125 126/126/126
f 124/124/124 127/127/127 125/125/125
f 125/125/125 128/128/128 126/126/126
f 125/125/125 127/127/127 128/128/128
f 126/126/126 128/128/128 129/129/129
f 127/127/127 130/130/130 128/128/128
f 128/128/128 131/131/131 129/129/129
f 128/128/128 130/130/130 131/131/131
f 129/129/129 131/131/131 132/132/132
f 130/130/130 133/133/133 131/131/131
f 131/131/131 134/134/134 132/132/132
f 131/131/131 133/133/133 134/134/134
f 132/132/132 134/134/134 135/135/135
f 133/133/133 136/136/136 134/134/134
f 134/134/134 137/137/137 135/135/135
f 134/134/134 136/136/136 137/137/137
f 136/136/136 138/138/138 137/137/137
