g Eff_Slash_Circle_01
v -1.5938257 0.84505326 8.339271E-10
v -1.6275126 0.8629718 -8.33929E-10
v -1.6726117 0.614234 1.8140128E-09
v -1.7505057 0.64289516 -1.8140143E-09
v -1.7213757 0.3751652 2.69066E-09
v -1.8416767 0.40131506 -2.6906624E-09
v -1.73902 0.12970564 3.4651646E-09
v -1.897139 0.1413564 -3.4651682E-09
v -1.724343 -0.1186733 4.1391774E-09
v -1.9132941 -0.13151225 -4.139179E-09
v -1.6781422 -0.35593486 4.7146917E-09
v -1.8891943 -0.4005652 -4.7146966E-09
v -1.6032598 -0.57871056 5.1940656E-09
v -1.8267462 -0.6595362 -5.194074E-09
v -1.5022845 -0.78588974 5.58001E-09
v -1.7283442 -0.9045531 -5.5800164E-09
v -1.3775203 -0.97619575 5.8755782E-09
v -1.5966696 -1.131907 -5.8755836E-09
v -1.2310745 -1.1481565 6.084181E-09
v -1.4345978 -1.338087 -6.084187E-09
v -1.0649226 -1.3001167 6.2095853E-09
v -1.2451369 -1.5197657 -6.2095897E-09
v -0.8809352 -1.4302678 6.2559056E-09
v -1.0314003 -1.6737671 -6.2559113E-09
v -0.68087757 -1.536667 6.2276153E-09
v -0.79660577 -1.7970501 -6.2276193E-09
v -0.46638507 -1.6172376 6.12953E-09
v -0.5441032 -1.8867085 -6.1295355E-09
v -0.23896088 -1.6697214 5.966834E-09
v -0.2773692 -1.9400167 -5.9668386E-09
v 1.3411266E-06 -1.6916233 5.7450507E-09
v 7.8111304E-07 -1.9544864 -5.7450555E-09
v 0.24056233 -1.6809732 5.4700586E-09
v 0.27577332 -1.9287647 -5.4700626E-09
v 0.47260883 -1.6388103 5.148091E-09
v 0.53788275 -1.8651348 -5.1480953E-09
v 0.6942761 -1.5668098 4.7857385E-09
v 0.783211 -1.7669059 -4.7857434E-09
v 0.9033766 -1.4665812 4.389938E-09
v 1.0089618 -1.6374514 -4.389942E-09
v 1.0974517 -1.3397616 3.9679793E-09
v 1.2126106 -1.4801189 -3.967983E-09
v 1.2738383 -1.1880605 3.5275072E-09
v 1.3918372 -1.2981794 -3.5275107E-09
v 1.4297218 -1.013283 3.0765195E-09
v 1.5444707 -1.0948156 -3.0765224E-09
v 1.5621762 -0.81732506 2.623364E-09
v 1.6684551 -0.87311286 -2.6233666E-09
v 1.6681739 -0.602185 2.1767457E-09
v 1.7618333 -0.63605756 -2.176749E-09
v 1.7445953 -0.36998522 1.7457173E-09
v 1.8227421 -0.3865098 -1.7457205E-09
v 1.7882408 -0.123012796 1.3396895E-09
v 1.8493968 -0.12716818 -1.3396915E-09
v 1.7959843 0.13390557 9.684197E-10
v 1.8401742 0.13716063 -9.684209E-10
v 1.7671732 0.3851221 6.420233E-10
v 1.795878 0.3913625 -6.420237E-10
v 1.7035934 0.6256354 3.7096398E-10
v 1.7195225 0.63149726 -3.70965E-10
v 1.6073146 0.8522289 1.6606268E-10
v 1.614022 0.85579854 -1.660629E-10
vt 0.99772656 0.9982316
vt 0.99772644 0.0007960797
vt 0.96450734 0.9982316
vt 0.9645072 0.0007960822
vt 0.93128806 0.9982316
vt 0.931288 0.0007960847
vt 0.8980689 0.9982316
vt 0.8980688 0.0007960872
vt 0.8648496 0.9982316
vt 0.86484957 0.0007960897
vt 0.8316304 0.9982316
vt 0.83163035 0.00079609227
vt 0.7984112 0.9982316
vt 0.79841113 0.00079609477
vt 0.76519203 0.9982316
vt 0.7651919 0.0007960973
vt 0.7319728 0.9982316
vt 0.73197275 0.0007960998
vt 0.6987536 0.9982316
vt 0.69875354 0.0007961023
vt 0.6655344 0.9982316
vt 0.66553426 0.0007961048
vt 0.6323152 0.9982316
vt 0.6323151 0.0007961073
vt 0.59909594 0.9982316
vt 0.5990959 0.0007961098
vt 0.5658767 0.9982316
vt 0.56587666 0.00079611235
vt 0.5326575 0.9982316
vt 0.5326574 0.00079611485
vt 0.49943835 0.9982316
vt 0.49943823 0.00079611735
vt 0.46621904 0.9982316
vt 0.46621898 0.00079611986
vt 0.4329998 0.9982316
vt 0.43299973 0.00079612236
vt 0.39978054 0.9982316
vt 0.39978048 0.00079612486
vt 0.36656132 0.9982316
vt 0.36656126 0.00079612737
vt 0.33334208 0.9982316
vt 0.33334202 0.00079612987
vt 0.30012283 0.9982316
vt 0.30012277 0.00079613243
vt 0.26690358 0.9982316
vt 0.26690352 0.00079613493
vt 0.23368435 0.9982316
vt 0.23368429 0.00079613744
vt 0.2004651 0.9982317
vt 0.20046504 0.00079613994
vt 0.16724586 0.9982317
vt 0.1672458 0.00079614244
vt 0.13402662 0.9982317
vt 0.13402656 0.00079614494
vt 0.100807376 0.9982317
vt 0.10080732 0.00079614745
vt 0.06758814 0.9982317
vt 0.06758808 0.00079614995
vt 0.0343689 0.9982317
vt 0.03436884 0.0007961525
vt 0.0011497734 0.9982317
vt 0.0011496546 0.000796155
vn -0 0 -1
vn -0 0 -1
vn -0 0 -1
vn -0 0 -1
vn -0 0 -1
vn -0 0 -1
vn -0 0 -1
vn -0 0 -1
vn -0 0 -1
vn -0 0 -1
vn -0 0 -1
vn -0 0 -1
vn -0 0 -1
vn -0 0 -1
vn -0 0 -1
vn -0 0 -1
vn -0 0 -1
vn -0 0 -1
vn -0 0 -1
vn -0 0 -1
vn -0 0 -1
vn -0 0 -1
vn -0 0 -1
vn -0 0 -1
vn -0 0 -1
vn -0 0 -1
vn -0 0 -1
vn -0 0 -1
vn -0 0 -1
vn -0 0 -1
vn -0 0 -1
vn -0 0 -1
vn -0 0 -1
vn -0 0 -1
vn -0 0 -1
vn -0 0 -1
vn -0 0 -1
vn -0 0 -1
vn -0 0 -1
vn -0 0 -1
vn -0 0 -1
vn -0 0 -1
vn -0 0 -1
vn -0 0 -1
vn -0 0 -1
vn -0 0 -1
vn -0 0 -1
vn -0 0 -1
vn -0 0 -1
vn -0 0 -1
vn -0 0 -1
vn -0 0 -1
vn -0 0 -1
vn -0 0 -1
vn -0 0 -1
vn -0 0 -1
vn -0 0 -1
vn -0 0 -1
vn -0 0 -1
vn -0 0 -1
vn -0 0 -1
vn -0 0 -1
g Eff_Slash_Circle_01_0
f 3/3/3 2/2/2 1/1/1
f 2/2/2 3/3/3 4/4/4
f 5/5/5 4/4/4 3/3/3
f 4/4/4 5/5/5 6/6/6
f 7/7/7 6/6/6 5/5/5
f 6/6/6 7/7/7 8/8/8
f 9/9/9 8/8/8 7/7/7
f 8/8/8 9/9/9 10/10/10
f 11/11/11 10/10/10 9/9/9
f 10/10/10 11/11/11 12/12/12
f 13/13/13 12/12/12 11/11/11
f 12/12/12 13/13/13 14/14/14
f 15/15/15 14/14/14 13/13/13
f 14/14/14 15/15/15 16/16/16
f 17/17/17 16/16/16 15/15/15
f 16/16/16 17/17/17 18/18/18
f 19/19/19 18/18/18 17/17/17
f 18/18/18 19/19/19 20/20/20
f 21/21/21 20/20/20 19/19/19
f 20/20/20 21/21/21 22/22/22
f 23/23/23 22/22/22 21/21/21
f 22/22/22 23/23/23 24/24/24
f 25/25/25 24/24/24 23/23/23
f 24/24/24 25/25/25 26/26/26
f 27/27/27 26/26/26 25/25/25
f 26/26/26 27/27/27 28/28/28
f 29/29/29 28/28/28 27/27/27
f 28/28/28 29/29/29 30/30/30
f 31/31/31 30/30/30 29/29/29
f 30/30/30 31/31/31 32/32/32
f 33/33/33 32/32/32 31/31/31
f 32/32/32 33/33/33 34/34/34
f 35/35/35 34/34/34 33/33/33
f 34/34/34 35/35/35 36/36/36
f 37/37/37 36/36/36 35/35/35
f 36/36/36 37/37/37 38/38/38
f 39/39/39 38/38/38 37/37/37
f 38/38/38 39/39/39 40/40/40
f 41/41/41 40/40/40 39/39/39
f 40/40/40 41/41/41 42/42/42
f 43/43/43 42/42/42 41/41/41
f 42/42/42 43/43/43 44/44/44
f 45/45/45 44/44/44 43/43/43
f 44/44/44 45/45/45 46/46/46
f 47/47/47 46/46/46 45/45/45
f 46/46/46 47/47/47 48/48/48
f 49/49/49 48/48/48 47/47/47
f 48/48/48 49/49/49 50/50/50
f 51/51/51 50/50/50 49/49/49
f 50/50/50 51/51/51 52/52/52
f 53/53/53 52/52/52 51/51/51
f 52/52/52 53/53/53 54/54/54
f 55/55/55 54/54/54 53/53/53
f 54/54/54 55/55/55 56/56/56
f 57/57/57 56/56/56 55/55/55
f 56/56/56 57/57/57 58/58/58
f 59/59/59 58/58/58 57/57/57
f 58/58/58 59/59/59 60/60/60
f 61/61/61 60/60/60 59/59/59
f 60/60/60 61/61/61 62/62/62
