g Eff_Trail_Cone_tt_004
v -1.0092643 -1.1937656 -0.0021421749
v -0.35615066 -0.55790234 -0.002190707
v -0.84114593 -1.3176361 -0.0021421802
v -0.42733395 -0.5054542 -0.0021907047
v -1.1593727 -1.0485924 -0.0021421688
v -0.49089152 -0.4439862 -0.0021907017
v -1.2887918 -0.8847071 -0.0021421616
v -0.545689 -0.37459525 -0.0021906989
v -1.3952127 -0.705034 -0.002142154
v -0.5907488 -0.2985196 -0.0021906956
v -1.4767357 -0.5127796 -0.0021421455
v -0.6252666 -0.21711689 -0.0021906921
v -1.5319062 -0.31137457 -0.0021421367
v -0.64862645 -0.13183978 -0.0021906884
v -1.5597401 -0.10441306 -0.0021421278
v -0.66041166 -0.044209905 -0.0021906847
v -1.5597403 0.104411684 -0.0021421188
v -0.66041166 0.04420886 -0.0021906798
v -1.5319066 0.3113732 -0.00214211
v -0.64862657 0.1318387 -0.002190676
v -1.4767361 0.5127782 -0.0021421013
v -0.62526685 0.21711595 -0.0021906723
v -1.3952131 0.7050327 -0.002142093
v -0.590749 0.2985187 -0.0021906686
v -1.2887927 0.88470584 -0.0021420852
v -0.5456894 0.37459433 -0.0021906653
v -1.1593735 1.0485915 -0.002142078
v -0.4908918 0.4439853 -0.0021906623
v -1.0092653 1.1937648 -0.0021420717
v -0.42733437 0.50545335 -0.0021906598
v -0.8411468 1.3176353 -0.0021420664
v -0.35615107 0.5579015 -0.0021906574
v -0.65801793 1.4179928 -0.0021420622
v -0.27861223 0.60039395 -0.002190657
v -0.4631469 1.4930459 -0.002142059
v -0.19610162 0.6321723 -0.0021906553
v -0.26001096 1.5414555 -0.0021420568
v -0.11009156 0.6526695 -0.0021906546
v -0.05223515 1.562358 -0.002142056
v -0.02211692 0.6615198 -0.0021906542
v 0.15647279 1.5553801 -0.0021420561
v 0.066252396 0.6585653 -0.0021906542
v 0.3623885 1.5206465 -0.0021420578
v 0.15343942 0.64385873 -0.0021906549
v 0.5618374 1.458777 -0.0021420603
v 0.23788837 0.61766243 -0.002190656
v 0.7512603 1.3708754 -0.002142064
v 0.3180922 0.5804439 -0.0021906577
v 0.9272769 1.2585105 -0.002142069
v 0.3926196 0.5328674 -0.0021906586
v 1.0867462 1.1236875 -0.0021420748
v 0.46014082 0.47578186 -0.0021906612
v 1.2268227 0.9688122 -0.0021420815
v 0.5194507 0.4102059 -0.0021906637
v 1.3450063 0.79664856 -0.002142089
v 0.5694911 0.33730987 -0.002190667
v 1.4391885 0.6102686 -0.002142097
v 0.6093688 0.25839445 -0.0021906702
v 1.5076882 0.41299847 -0.0021421055
v 0.6383723 0.17486799 -0.002190674
v 1.5492829 0.2083583 -0.0021421143
v 0.6559841 0.08822104 -0.0021906777
v 1.563231 9.3647035E-11 -0.0021421234
v 0.66188985 -2.3439557E-07 -0.0021906816
v 1.5492827 -0.20836073 -0.0021421323
v 0.6559839 -0.08822254 -0.0021906865
v 1.5076874 -0.41300055 -0.0021421413
v 0.63837206 -0.17486937 -0.0021906903
v 1.4391876 -0.6102704 -0.0021421497
v 0.60936844 -0.2583956 -0.002190694
v 1.3450056 -0.79665 -0.0021421579
v 0.5694907 -0.33731085 -0.0021906972
v 1.2268217 -0.96881336 -0.0021421653
v 0.5194503 -0.41020682 -0.0021907005
v 1.0867455 -1.1236882 -0.002142172
v 0.4601405 -0.47578266 -0.0021907033
vt 0.027499795 0.0004998646
vt 0.00049996376 1.0014435
vt 0.00049996376 0.0004998646
vt 0.027499795 1.0014435
vt 0.054499507 0.0004998646
vt 0.054499507 1.0014435
vt 0.08149934 0.0004998646
vt 0.08149934 1.0014435
vt 0.10849917 0.0004998646
vt 0.10849917 1.0014435
vt 0.13549894 0.0004998646
vt 0.13549894 1.0014435
vt 0.16249877 0.0004998646
vt 0.16249877 1.0014435
vt 0.18949854 0.0004998646
vt 0.18949854 1.0014435
vt 0.21649837 0.0004998646
vt 0.21649837 1.0014435
vt 0.2434982 0.0004998646
vt 0.2434982 1.0014435
vt 0.27049798 0.0004998646
vt 0.27049798 1.0014435
vt 0.2974978 0.0004998646
vt 0.2974978 1.0014435
vt 0.32449758 0.0004998646
vt 0.32449758 1.0014435
vt 0.35149735 0.0004998646
vt 0.35149735 1.0014435
vt 0.37849712 0.0004998646
vt 0.37849712 1.0014435
vt 0.405497 0.0004998646
vt 0.405497 1.0014435
vt 0.4324968 0.0004998646
vt 0.4324968 1.0014435
vt 0.45949656 0.0004998646
vt 0.45949656 1.0014435
vt 0.48649633 0.0004998646
vt 0.48649633 1.0014435
vt 0.51349616 0.0004998646
vt 0.51349616 1.0014435
vt 0.540496 0.0004998646
vt 0.540496 1.0014435
vt 0.5675033 0.0004998646
vt 0.5675033 1.0014435
vt 0.59450305 0.0004998646
vt 0.59450305 1.0014435
vt 0.6215029 0.0004998646
vt 0.6215029 1.0014435
vt 0.6485027 0.0004998646
vt 0.6485027 1.0014435
vt 0.6755024 0.0004998646
vt 0.6755024 1.0014435
vt 0.70250225 0.0004998646
vt 0.70250225 1.0014435
vt 0.729502 0.0004998646
vt 0.729502 1.0014435
vt 0.7565018 0.0004998646
vt 0.7565018 1.0014435
vt 0.7835016 0.0004998646
vt 0.7835016 1.0014435
vt 0.81050134 0.0004998646
vt 0.81050134 1.0014435
vt 0.83750117 0.0004998646
vt 0.83750117 1.0014435
vt 0.8645013 0.0004998646
vt 0.8645013 1.0014435
vt 0.89150107 0.0004998646
vt 0.89150107 1.0014435
vt 0.91850084 0.0004998646
vt 0.91850084 1.0014435
vt 0.94550055 0.0004998646
vt 0.94550055 1.0014435
vt 0.9725003 0.0004998646
vt 0.9725003 1.0014435
vt 0.9995 0.0004998646
vt 0.9995 1.0014435
vn 3.478306E-05 4.1098097E-05 1
vn 3.2029206E-05 4.3426502E-05 1
vn 3.2029206E-05 4.3426506E-05 1
vn 3.4783057E-05 4.1098097E-05 1
vn 3.995594E-05 3.6095047E-05 1
vn 3.995594E-05 3.6095047E-05 1
vn 4.4416167E-05 3.0447056E-05 1
vn 4.441616E-05 3.0447056E-05 1
vn 4.8084083E-05 2.4254685E-05 1
vn 4.8084083E-05 2.4254687E-05 1
vn 5.089382E-05 1.7628674E-05 1
vn 5.0893825E-05 1.7628676E-05 1
vn 5.279507E-05 1.0687796E-05 1
vn 5.2795076E-05 1.0687799E-05 1
vn 5.375394E-05 3.5534063E-06 1
vn 5.3753945E-05 3.5534092E-06 1
vn 5.3753432E-05 -3.6434126E-06 1
vn 5.3753432E-05 -3.6434133E-06 1
vn 5.2793937E-05 -1.0773901E-05 1
vn 5.2793937E-05 -1.07739015E-05 1
vn 5.0892544E-05 -1.7714876E-05 1
vn 5.089255E-05 -1.7714876E-05 1
vn 4.8082948E-05 -2.434046E-05 1
vn 4.808294E-05 -2.434046E-05 1
vn 4.4415283E-05 -3.0532625E-05 1
vn 4.4415283E-05 -3.0532625E-05 1
vn 3.995513E-05 -3.6180645E-05 1
vn 3.9955125E-05 -3.6180645E-05 1
vn 3.478207E-05 -4.1183637E-05 1
vn 3.4782075E-05 -4.1183637E-05 1
vn 2.899029E-05 -4.5451838E-05 1
vn 2.899029E-05 -4.5451845E-05 1
vn 2.2679145E-05 -4.8911155E-05 1
vn 2.2679149E-05 -4.891115E-05 1
vn 1.5961454E-05 -5.149904E-05 1
vn 1.5961452E-05 -5.149904E-05 1
vn 8.960812E-06 -5.316728E-05 1
vn 8.960811E-06 -5.3167274E-05 1
vn 1.8001462E-06 -5.388761E-05 1
vn 1.800146E-06 -5.388761E-05 1
vn -5.392663E-06 -5.3647087E-05 1
vn -5.3926633E-06 -5.364709E-05 1
vn -1.2489139E-05 -5.2450097E-05 1
vn -1.24891385E-05 -5.2450094E-05 1
vn -1.9362864E-05 -5.0317867E-05 1
vn -1.9362862E-05 -5.0317867E-05 1
vn -2.5892594E-05 -4.72872E-05 1
vn -2.5892594E-05 -4.72872E-05 1
vn -3.1958214E-05 -4.3414322E-05 1
vn -3.1958214E-05 -4.3414322E-05 1
vn -3.7452384E-05 -3.8768496E-05 1
vn -3.745238E-05 -3.876849E-05 1
vn -4.2279727E-05 -3.343118E-05 1
vn -4.227972E-05 -3.343118E-05 1
vn -4.635259E-05 -2.7497907E-05 1
vn -4.6352594E-05 -2.7497903E-05 1
vn -4.9598453E-05 -2.1074671E-05 1
vn -4.959846E-05 -2.1074668E-05 1
vn -5.195912E-05 -1.4276288E-05 1
vn -5.195912E-05 -1.4276286E-05 1
vn -5.339268E-05 -7.2239663E-06 1
vn -5.339268E-05 -7.223965E-06 1
vn -5.3873773E-05 0 1
vn -5.387378E-05 0 1
vn -5.3393727E-05 7.1357367E-06 1
vn -5.3393727E-05 7.135737E-06 1
vn -5.1960313E-05 1.4190242E-05 1
vn -5.1960316E-05 1.4190246E-05 1
vn -4.9599374E-05 2.0989173E-05 1
vn -4.9599366E-05 2.098917E-05 1
vn -4.635365E-05 2.7412163E-05 1
vn -4.6353653E-05 2.7412165E-05 1
vn -4.2280764E-05 3.334532E-05 1
vn -4.2280768E-05 3.3345324E-05 1
vn -4.0045572E-05 3.6175854E-05 1
vn -4.0045576E-05 3.6175858E-05 1
g Eff_Trail_Cone_tt_004_0
f 3/3/3 2/2/2 1/1/1
f 2/2/2 4/4/4 1/1/1
f 1/1/1 4/4/4 5/5/5
f 4/4/4 6/6/6 5/5/5
f 5/5/5 6/6/6 7/7/7
f 6/6/6 8/8/8 7/7/7
f 7/7/7 8/8/8 9/9/9
f 8/8/8 10/10/10 9/9/9
f 9/9/9 10/10/10 11/11/11
f 10/10/10 12/12/12 11/11/11
f 11/11/11 12/12/12 13/13/13
f 12/12/12 14/14/14 13/13/13
f 13/13/13 14/14/14 15/15/15
f 14/14/14 16/16/16 15/15/15
f 15/15/15 16/16/16 17/17/17
f 16/16/16 18/18/18 17/17/17
f 17/17/17 18/18/18 19/19/19
f 18/18/18 20/20/20 19/19/19
f 19/19/19 20/20/20 21/21/21
f 20/20/20 22/22/22 21/21/21
f 21/21/21 22/22/22 23/23/23
f 22/22/22 24/24/24 23/23/23
f 23/23/23 24/24/24 25/25/25
f 24/24/24 26/26/26 25/25/25
f 25/25/25 26/26/26 27/27/27
f 26/26/26 28/28/28 27/27/27
f 27/27/27 28/28/28 29/29/29
f 28/28/28 30/30/30 29/29/29
f 29/29/29 30/30/30 31/31/31
f 30/30/30 32/32/32 31/31/31
f 31/31/31 32/32/32 33/33/33
f 32/32/32 34/34/34 33/33/33
f 33/33/33 34/34/34 35/35/35
f 34/34/34 36/36/36 35/35/35
f 35/35/35 36/36/36 37/37/37
f 36/36/36 38/38/38 37/37/37
f 37/37/37 38/38/38 39/39/39
f 38/38/38 40/40/40 39/39/39
f 39/39/39 40/40/40 41/41/41
f 40/40/40 42/42/42 41/41/41
f 41/41/41 42/42/42 43/43/43
f 42/42/42 44/44/44 43/43/43
f 43/43/43 44/44/44 45/45/45
f 44/44/44 46/46/46 45/45/45
f 45/45/45 46/46/46 47/47/47
f 46/46/46 48/48/48 47/47/47
f 47/47/47 48/48/48 49/49/49
f 48/48/48 50/50/50 49/49/49
f 49/49/49 50/50/50 51/51/51
f 50/50/50 52/52/52 51/51/51
f 51/51/51 52/52/52 53/53/53
f 52/52/52 54/54/54 53/53/53
f 53/53/53 54/54/54 55/55/55
f 54/54/54 56/56/56 55/55/55
f 55/55/55 56/56/56 57/57/57
f 56/56/56 58/58/58 57/57/57
f 57/57/57 58/58/58 59/59/59
f 58/58/58 60/60/60 59/59/59
f 59/59/59 60/60/60 61/61/61
f 60/60/60 62/62/62 61/61/61
f 61/61/61 62/62/62 63/63/63
f 62/62/62 64/64/64 63/63/63
f 63/63/63 64/64/64 65/65/65
f 64/64/64 66/66/66 65/65/65
f 65/65/65 66/66/66 67/67/67
f 66/66/66 68/68/68 67/67/67
f 67/67/67 68/68/68 69/69/69
f 68/68/68 70/70/70 69/69/69
f 69/69/69 70/70/70 71/71/71
f 70/70/70 72/72/72 71/71/71
f 71/71/71 72/72/72 73/73/73
f 72/72/72 74/74/74 73/73/73
f 73/73/73 74/74/74 75/75/75
f 74/74/74 76/76/76 75/75/75
