g Eff_Trail_Cone_tt_072
v 0.94486463 0.94486463 0
v -0 0 0
v 1.3362404 0 0
v -5.8408922E-08 1.3362404 0
v 0.94486463 -0.9448648 0
v -0.94486463 0.94486463 0
v 1.5934509E-08 -1.3362404 0
v -1.3362404 -1.16817844E-07 0
v -0.9448645 -0.9448648 0
vt 0.14644662 0.8535533
vt 0.5 0.5
vt 0.49999997 1
vt 2.9802322E-08 0.49999997
vt 0.8535534 0.8535534
vt 0.14644668 0.14644662
vt 1 0.5
vt 0.50000006 2.9802322E-08
vt 0.8535534 0.1464467
vn -0 0 -1
vn -0 0 -1
vn -0 0 -1
vn -0 0 -1
vn -0 0 -1
vn -0 0 -1
vn -0 0 -1
vn -0 0 -1
vn -0 0 -1
g Eff_Trail_Cone_tt_072_0
f 3/3/3 2/2/2 1/1/1
f 1/1/1 2/2/2 4/4/4
f 5/5/5 2/2/2 3/3/3
f 4/4/4 2/2/2 6/6/6
f 7/7/7 2/2/2 5/5/5
f 6/6/6 2/2/2 8/8/8
f 9/9/9 2/2/2 7/7/7
f 8/8/8 2/2/2 9/9/9
