g Eff_Trail_Cone_tt_073
v 0.7878075 1.0843239 -2.4223327E-08
v 0.16547461 0.026208607 6.055832E-09
v 1.3237969 0.20966886 4.8446655E-08
v 0.09847594 0.13554049 -3.027916E-09
v 0.13554049 -0.09847595 1.2111664E-08
v -0.20966893 1.3237969 -8.2669715E-08
v 1.0843239 -0.7878076 9.689331E-08
v -0.026208617 0.16547461 -1.0333714E-08
v 0.026208611 -0.16547461 9.504791E-09
v -1.084324 0.7878074 -9.689331E-08
v 0.20966889 -1.3237969 7.6038326E-08
v -0.1355405 0.098475926 -1.2111664E-08
v -0.09847591 -0.13554052 4.541874E-09
v -1.3237969 -0.20966898 -4.8446655E-08
v -0.7878073 -1.0843241 3.6334992E-08
v -0.16547461 -0.026208622 -6.055832E-09
vt 0.14644659 0.85355335
vt 0.5 0.5625
vt 0.49999997 1
vt 0.45580584 0.54419416
vt 0.54419416 0.54419416
vt 0 0.49999997
vt 0.8535534 0.8535534
vt 0.4375 0.5
vt 0.5625 0.5
vt 0.14644665 0.14644659
vt 1 0.5
vt 0.45580584 0.45580584
vt 0.54419416 0.45580584
vt 0.50000006 0
vt 0.85355353 0.1464467
vt 0.5 0.4375
vn -0 0 -1
vn -0 0 -1
vn -0 0 -1
vn -0 0 -1
vn -0 0 -1
vn -0 0 -1
vn -0 0 -1
vn -0 0 -1
vn -0 0 -1
vn -0 0 -1
vn -0 0 -1
vn -0 0 -1
vn -0 0 -1
vn -0 0 -1
vn -0 0 -1
vn -0 0 -1
g Eff_Trail_Cone_tt_073_0
f 3/3/3 2/2/2 1/1/1
f 2/2/2 4/4/4 1/1/1
f 5/5/5 2/2/2 3/3/3
f 1/1/1 4/4/4 6/6/6
f 7/7/7 5/5/5 3/3/3
f 4/4/4 8/8/8 6/6/6
f 9/9/9 5/5/5 7/7/7
f 6/6/6 8/8/8 10/10/10
f 11/11/11 9/9/9 7/7/7
f 8/8/8 12/12/12 10/10/10
f 13/13/13 9/9/9 11/11/11
f 10/10/10 12/12/12 14/14/14
f 15/15/15 13/13/13 11/11/11
f 12/12/12 16/16/16 14/14/14
f 16/16/16 13/13/13 15/15/15
f 14/14/14 16/16/16 15/15/15
